<?xml version="1.0" standalone="no"?>
<!DOCTYPE svg PUBLIC "-//W3C//DTD SVG 1.1//EN" "http://www.w3.org/Graphics/SVG/1.1/DTD/svg11.dtd" >
<svg>
<metadata>
Created by FontForge 20090914 at Fri Sep 25 15:07:33 2015
 By www-data
Copyright (c) 2015, Andreas Larsen @larsenwork
</metadata>
<defs>
<font id="Gidole-Regular" horiz-adv-x="1100" >
  <font-face 
    font-family="Gidole"
    font-weight="400"
    font-stretch="normal"
    units-per-em="2048"
    panose-1="2 0 5 3 0 0 0 0 0 0"
    ascent="1638"
    descent="-410"
    x-height="1082"
    cap-height="1416"
    bbox="-300 -468 2178 1910"
    underline-thickness="99"
    underline-position="-99"
    unicode-range="U+0020-U+FEFF"
  />
<missing-glyph horiz-adv-x="748" 
d="M68 0v1365h544v-1365h-544zM136 68h408v1229h-408v-1229z" />
    <glyph glyph-name=".notdef" horiz-adv-x="748" 
d="M68 0v1365h544v-1365h-544zM136 68h408v1229h-408v-1229z" />
    <glyph glyph-name="space" unicode=" " horiz-adv-x="590" 
 />
    <glyph glyph-name="exclam" unicode="!" horiz-adv-x="500" 
d="M250 204c32.667 0 59.167 -10.167 79.5 -30.5s30.5 -46.833 30.5 -79.5s-10.167 -59.167 -30.5 -79.5s-46.833 -30.5 -79.5 -30.5s-59.167 10.167 -79.5 30.5s-30.5 46.833 -30.5 79.5s10.167 59.167 30.5 79.5s46.833 30.5 79.5 30.5zM172 1416l155.999 0.000976562
v-365c0 -70.667 -1.66699 -161.334 -5 -272.001s-6.66602 -203.667 -9.99902 -279l-5 -112h-116c-13.333 281.333 -20 502.333 -20 663v365z" />
    <glyph glyph-name="quotedbl" unicode="&#x22;" horiz-adv-x="760" 
d="M440 1330c0 29.333 9.33301 53.333 28 72s42.667 28 72 28s53.333 -9.33301 72 -28s28 -42.667 28 -72c0 -12 -2 -29.333 -6 -52l-45 -272h-98l-45 272c-4 22.667 -6 40 -6 52zM120 1330c0 29.333 9.33301 53.333 28 72s42.667 28 72 28s53.333 -9.33301 72 -28
s28 -42.667 28 -72c0 -12 -2 -29.333 -6 -52l-45 -272h-98l-45 272c-4 22.667 -6 40 -6 52z" />
    <glyph glyph-name="numbersign" unicode="#" horiz-adv-x="1270" 
d="M825 997h-309l-71 -550h309zM835 0h-141l43 323h-309l-43 -323h-141l43 323h-161v124h178l71 550h-161v124h178l39 295h141l-39 -295h309l39 295h141l-39 -295h161v-124h-178l-71 -550h161v-124h-178z" />
    <glyph glyph-name="dollar" unicode="$" horiz-adv-x="1095" 
d="M491 1616l106.001 -0.000976562v-183c115.333 -10 229.333 -50 342 -120l-73 -122c-93.333 57.333 -183 91 -269 101v-501c61.333 -12.667 114.333 -28.667 159 -48s86.667 -49 126 -89c71.333 -72.667 107 -161 107 -265c0 -110 -37.333 -203 -112 -279
c-70.667 -72 -164 -114 -280 -126v-184h-106v183c-134.667 10.667 -266.334 60 -395.001 148l76 122c107.333 -74.667 213.666 -117.667 318.999 -129v546c-108 23.333 -192.333 62 -253 116c-35.333 31.333 -64.166 70.5 -86.499 117.5s-33.5 96.5 -33.5 148.5
c0 114.667 43 209 129 283c66 56.667 147.333 89.334 244 98.001v183zM597.001 646.999v-521.999c66.667 10 120.667 35.667 162 77c49.333 49.333 74 111.666 74 186.999c0 34 -6.5 66.667 -19.5 98s-30.167 57.333 -51.5 78c-37.333 36.667 -92.333 64 -165 82z
M491.001 814l-0.000976562 477.998c-55.333 -8 -101.666 -28.333 -138.999 -61c-52 -45.333 -78 -104.666 -78 -177.999c0 -64 23 -118.333 69 -163c34.667 -33.333 84 -58.666 148 -75.999z" />
    <glyph glyph-name="percent" unicode="%" horiz-adv-x="1508" 
d="M1137 560c-18 0 -34 -2.5 -48 -7.5s-25.5 -10.833 -34.5 -17.5s-16.5 -16.5 -22.5 -29.5s-10.667 -24.5 -14 -34.5s-5.66602 -24.167 -6.99902 -42.5s-2.16602 -32.833 -2.49902 -43.5s-0.5 -26 -0.5 -46s0.166992 -35.333 0.5 -46s1.16602 -25.167 2.49902 -43.5
s3.66602 -32.5 6.99902 -42.5s8 -21.5 14 -34.5s13.5 -22.833 22.5 -29.5s20.5 -12.5 34.5 -17.5s30 -7.5 48 -7.5s34 2.5 48 7.5s25.5 10.833 34.5 17.5s16.5 16.5 22.5 29.5s10.667 24.5 14 34.5s5.66602 24.167 6.99902 42.5s2.16602 32.833 2.49902 43.5s0.5 26 0.5 46
s-0.166992 35.333 -0.5 46s-1.16602 25.167 -2.49902 43.5s-3.66602 32.5 -6.99902 42.5s-8 21.5 -14 34.5s-13.5 22.833 -22.5 29.5s-20.5 12.5 -34.5 17.5s-30 7.5 -48 7.5zM1137 678c83.333 0 148.333 -26.667 195 -80c15.333 -17.333 27.833 -36.166 37.5 -56.499
s16.334 -43.166 20.001 -68.499s6 -46.666 7 -63.999s1.5 -40.666 1.5 -69.999s-0.5 -52.666 -1.5 -69.999s-3.33301 -38.666 -7 -63.999s-10.334 -48.166 -20.001 -68.499s-22.167 -39.166 -37.5 -56.499c-46.667 -53.333 -111.667 -80 -195 -80s-148.333 26.667 -195 80
c-15.333 17.333 -27.833 36.166 -37.5 56.499s-16.334 43.166 -20.001 68.499s-6 46.666 -7 63.999s-1.5 40.666 -1.5 69.999s0.5 52.666 1.5 69.999s3.33301 38.666 7 63.999s10.334 48.166 20.001 68.499s22.167 39.166 37.5 56.499c46.667 53.333 111.667 80 195 80z
M371 1314c-18 0 -34 -2.5 -48 -7.5s-25.5 -10.833 -34.5 -17.5s-16.5 -16.5 -22.5 -29.5s-10.667 -24.5 -14 -34.5s-5.66602 -24.167 -6.99902 -42.5s-2.16602 -32.833 -2.49902 -43.5s-0.5 -26 -0.5 -46s0.166992 -35.333 0.5 -46s1.16602 -25.167 2.49902 -43.5
s3.66602 -32.5 6.99902 -42.5s8 -21.5 14 -34.5s13.5 -22.833 22.5 -29.5s20.5 -12.5 34.5 -17.5s30 -7.5 48 -7.5s34 2.5 48 7.5s25.5 10.833 34.5 17.5s16.5 16.5 22.5 29.5s10.667 24.5 14 34.5s5.66602 24.167 6.99902 42.5s2.16602 32.833 2.49902 43.5s0.5 26 0.5 46
s-0.166992 35.333 -0.5 46s-1.16602 25.167 -2.49902 43.5s-3.66602 32.5 -6.99902 42.5s-8 21.5 -14 34.5s-13.5 22.833 -22.5 29.5s-20.5 12.5 -34.5 17.5s-30 7.5 -48 7.5zM371 1432c83.333 0 148.333 -26.667 195 -80c15.333 -17.333 27.833 -36.166 37.5 -56.499
s16.334 -43.166 20.001 -68.499s6 -46.666 7 -63.999s1.5 -40.666 1.5 -69.999s-0.5 -52.666 -1.5 -69.999s-3.33301 -38.666 -7 -63.999s-10.334 -48.166 -20.001 -68.499s-22.167 -39.166 -37.5 -56.499c-46.667 -53.333 -111.667 -80 -195 -80s-148.333 26.667 -195 80
c-15.333 17.333 -27.833 36.166 -37.5 56.499s-16.334 43.166 -20.001 68.499s-6 46.666 -7 63.999s-1.5 40.666 -1.5 69.999s0.5 52.666 1.5 69.999s3.33301 38.666 7 63.999s10.334 48.166 20.001 68.499s22.167 39.166 37.5 56.499c46.667 53.333 111.667 80 195 80z
M1081 1352l114 -72l-768 -1216l-114 72z" />
    <glyph glyph-name="ampersand" unicode="&#x26;" horiz-adv-x="1395" 
d="M627 1432c90 0 165.001 -28.498 225.001 -85.498s90 -130.5 90 -220.5c0 -20.667 -1.33301 -40.334 -4 -59.001s-7.66699 -36.334 -15 -53.001l-19.5 -44.5c-5.66699 -13 -14.667 -26.5 -27 -40.5s-21.5 -24.833 -27.5 -32.5s-16.5 -17.5 -31.5 -29.5l-29 -23
c-4.33301 -3.33301 -14.333 -10.5 -30 -21.5s-23.834 -16.5 -24.501 -16.5l-61 -43l303 -406l120 133l106 -96l-139 -153l182 -241h-181l-100 133c-100.667 -99.333 -220 -149 -358 -149c-128 0 -231 37.167 -309 111.5s-117 166.5 -117 276.5
c0 39.333 5.66699 77.166 17 113.499s24.833 67 40.5 92s34.334 48.833 56.001 71.5s40.5 40.334 56.5 53.001l49 37l9 6l64 46l-51 68c-0.666992 0.666992 -4.5 5.5 -11.5 14.5s-12.333 16.167 -16 21.5l-17.5 25.5c-8 11.667 -14.333 22.167 -19 31.5
s-10.167 21.333 -16.5 36s-11.333 28.667 -15 42s-6.83398 28.5 -9.50098 45.5s-4 34.167 -4 51.5c0 90 29.5 163.333 88.5 220s134.5 85 226.5 85zM627.001 1298c-52 0 -92.499 -15.6689 -121.499 -47.002s-43.5 -72.666 -43.5 -123.999
c0 -12.667 0.833008 -25.167 2.5 -37.5s4.66699 -24.166 9 -35.499l11.5 -29c3.33301 -8 8.5 -17.5 15.5 -28.5l15 -23.5c3 -4.66699 8.83301 -12.5 17.5 -23.5s13.667 -17.5 15 -19.5l42 -56l62 44l10 7c20 14 35.333 25.5 46 34.5s23.667 21.833 39 38.5
s26.666 35.667 33.999 57s11 45 11 71c0 50.667 -15 92 -45 124s-70 48 -120 48zM330.002 372c0 -68.667 24.168 -128.167 72.501 -178.5s116.166 -75.5 203.499 -75.5c58.667 0 109.167 11.333 151.5 34s82.166 55 119.499 97l-322 430l-54 -39l-22 -16
c-14.667 -10.667 -25.167 -18.834 -31.5 -24.501l-31 -28.5c-14.333 -13.333 -25.5 -26.166 -33.5 -38.499s-16.667 -26.833 -26 -43.5s-16.166 -35 -20.499 -55s-6.5 -40.667 -6.5 -62z" />
    <glyph glyph-name="quotesingle" unicode="'" horiz-adv-x="440" 
d="M120 1330c0 29.333 9.33301 53.333 28 72s42.667 28 72 28s53.333 -9.33301 72 -28s28 -42.667 28 -72c0 -12 -2 -29.333 -6 -52l-45 -272h-98l-45 272c-4 22.667 -6 40 -6 52z" />
    <glyph glyph-name="parenleft" unicode="(" horiz-adv-x="653" 
d="M467 -439c-148.667 120.667 -250.667 279.003 -306 475.003c-34 122.667 -51 291 -51 505c0 211.333 17 379.666 51 504.999c54 194.667 156 353 306 475l76 -88c-118.667 -110 -200 -245.667 -244 -407c-32.667 -120.667 -49 -282.334 -49 -485.001
s16.333 -364.334 49 -485.001c44 -161.333 125.333 -297 244 -407z" />
    <glyph glyph-name="parenright" unicode=")" horiz-adv-x="653" 
d="M186 1521c148.667 -120.667 250.667 -279.004 306 -475.004c34 -125.333 51 -293.666 51 -504.999s-17 -379.666 -51 -504.999c-55.333 -196 -157.333 -354.333 -306 -475l-76 88c118.667 110 200 245.667 244 407c32.667 120.667 49 282.334 49 485.001
s-16.333 364.334 -49 485.001c-44 161.333 -125.333 297 -244 407z" />
    <glyph glyph-name="asterisk" unicode="*" horiz-adv-x="1043" 
d="M881 1284l42 -129l-294 -91l187 -249l-118 -85l-176 251l-176 -251l-118 85l187 249l-295 91l43 129l289 -100l-5 312h150l-4 -311z" />
    <glyph glyph-name="plus" unicode="+" horiz-adv-x="1140" 
d="M160 474v134h335v343h150v-343h335v-134h-335v-343h-150v343h-335z" />
    <glyph glyph-name="comma" unicode="," horiz-adv-x="500" 
d="M250 204c32.667 0 59.167 -10.167 79.5 -30.5s30.5 -46.833 30.5 -79.5c0 -18.667 -8 -50 -24 -94l-91 -250h-98l57 243c-18.667 7.33301 -34 20 -46 38s-18 39 -18 63c0 32.667 10.167 59.167 30.5 79.5s46.833 30.5 79.5 30.5z" />
    <glyph glyph-name="hyphen" unicode="-" horiz-adv-x="820" 
d="M160 474v134h500v-134h-500z" />
    <glyph glyph-name="period" unicode="." horiz-adv-x="500" 
d="M250 204c32.667 0 59.167 -10.167 79.5 -30.5s30.5 -46.833 30.5 -79.5s-10.167 -59.167 -30.5 -79.5s-46.833 -30.5 -79.5 -30.5s-59.167 10.167 -79.5 30.5s-30.5 46.833 -30.5 79.5s10.167 59.167 30.5 79.5s46.833 30.5 79.5 30.5z" />
    <glyph glyph-name="slash" unicode="/" horiz-adv-x="930" 
d="M677 1416h147l-571 -1506h-147z" />
    <glyph glyph-name="zero" unicode="0" horiz-adv-x="1108" 
d="M554 1435c62 0 119.5 -10.833 172.5 -32.5s96.5 -51.167 130.5 -88.5c19.333 -21.333 35.5 -43 48.5 -65s23.833 -48.5 32.5 -79.5s15.334 -58.667 20.001 -83s8 -60.5 10 -108.5s3.16699 -87.833 3.5 -119.5s0.5 -81.834 0.5 -150.501s-0.166992 -118.834 -0.5 -150.501
s-1.5 -71.5 -3.5 -119.5s-5.33301 -84.167 -10 -108.5s-11.334 -52 -20.001 -83s-19.5 -57.5 -32.5 -79.5s-29.167 -43.667 -48.5 -65c-34 -37.333 -77.5 -66.833 -130.5 -88.5s-110.5 -32.5 -172.5 -32.5s-119.5 10.833 -172.5 32.5s-96.5 51.167 -130.5 88.5
c-19.333 21.333 -35.5 43 -48.5 65s-23.833 48.5 -32.5 79.5s-15.334 58.667 -20.001 83s-8 60.5 -10 108.5s-3.16699 87.833 -3.5 119.5s-0.5 81.834 -0.5 150.501s0.166992 118.834 0.5 150.501s1.5 71.5 3.5 119.5s5.33301 84.167 10 108.5s11.334 52 20.001 83
s19.5 57.5 32.5 79.5s29.167 43.667 48.5 65c34 37.333 77.5 66.833 130.5 88.5s110.5 32.5 172.5 32.5zM554 1295c-80 0 -141.667 -24.333 -185 -73c-15.333 -16.667 -27.833 -37.334 -37.5 -62.001s-17.167 -48.834 -22.5 -72.501s-9.33301 -58.834 -12 -105.501
s-4.16699 -86.334 -4.5 -119.001s-0.5 -84.334 -0.5 -155.001s0.166992 -122.334 0.5 -155.001s1.83301 -72.334 4.5 -119.001s6.66699 -81.834 12 -105.501s12.833 -47.834 22.5 -72.501s22.167 -45.334 37.5 -62.001c43.333 -48.667 105 -73 185 -73
s141.667 24.333 185 73c15.333 16.667 27.833 37.334 37.5 62.001s17.167 48.834 22.5 72.501s9.33301 58.834 12 105.501s4.16699 86.334 4.5 119.001s0.5 84.334 0.5 155.001s-0.166992 122.334 -0.5 155.001s-1.83301 72.334 -4.5 119.001s-6.66699 81.834 -12 105.501
s-12.833 47.834 -22.5 72.501s-22.167 45.334 -37.5 62.001c-43.333 48.667 -105 73 -185 73z" />
    <glyph glyph-name="one" unicode="1" horiz-adv-x="758" 
d="M538 0h-156v1235l-197 -102l-65 128l300 155h118v-1416z" />
    <glyph glyph-name="two" unicode="2" horiz-adv-x="1108" 
d="M512 1435c119.333 0 217.166 -37.501 293.499 -112.501s114.5 -169.167 114.5 -282.5c0 -54 -10.167 -105.667 -30.5 -155s-52.166 -103 -95.499 -161l-440 -584h608v-140h-816v108l517 692c35.333 47.333 61 88.333 77 123s24 73.667 24 117
c0 74.667 -23 135.834 -69 183.501s-107 71.5 -183 71.5c-89.333 0 -174.333 -38.333 -255 -115l-102 106c103.333 99.333 222.333 149 357 149z" />
    <glyph glyph-name="three" unicode="3" horiz-adv-x="1108" 
d="M164 145l105.998 101.998c78 -84 172.667 -126 284 -126c80.667 0 145.334 24.833 194.001 74.5s73 114.5 73 194.5c0 43.333 -9 84 -27 122s-41 68.333 -69 91c-22.667 18 -48.834 31.5 -78.501 40.5s-55.667 14.167 -78 15.5s-56.833 2 -103.5 2h-72v140h75
c44.667 0 77.5 0.666992 98.5 2s45 6 72 14s50.833 20.333 71.5 37c26 20.667 47.167 48.334 63.5 83.001s24.5 72 24.5 112c0 72.667 -22.167 131.834 -66.5 177.501s-103.5 68.5 -177.5 68.5c-106.667 0 -200.334 -42.667 -281.001 -128l-103 106
c46.667 46.667 103 85.334 169 116.001s137.667 46 215 46c116.667 0 212.5 -36.167 287.5 -108.5s112.5 -165.5 112.5 -279.5c0 -65.333 -15.833 -126.333 -47.5 -183s-73.167 -100 -124.5 -130c58.667 -33.333 105.834 -80.5 141.501 -141.5s53.5 -127.833 53.5 -200.5
c0 -118.667 -39.167 -216.834 -117.5 -294.501s-180.166 -116.5 -305.499 -116.5c-80 0 -153.667 15.167 -221 45.5s-123.666 69.833 -168.999 118.5z" />
    <glyph glyph-name="four" unicode="4" horiz-adv-x="1142" 
d="M1012 490v-140h-120v-350h-156v350h-606v101l414 965h157l-398 -926h433v350h156v-350h120z" />
    <glyph glyph-name="five" unicode="5" horiz-adv-x="1108" 
d="M894 1416v-140h-538v-461c66 34 140.333 51 223 51c109.333 0 202.166 -41.5 278.499 -124.5s114.5 -188.167 114.5 -315.5c0 -126.667 -39 -232.5 -117 -317.5s-180 -127.5 -306 -127.5c-77.333 0 -149.333 15.333 -216 46s-124 70 -172 118l99 107
c88.667 -87.333 185 -131 289 -131c82.667 0 147.834 29.167 195.501 87.5s71.5 130.833 71.5 217.5c0 88.667 -24.167 161.667 -72.5 219s-113.166 86 -194.499 86c-80.667 0 -156.334 -23.333 -227.001 -70l-122 58v697h694z" />
    <glyph glyph-name="six" unicode="6" horiz-adv-x="1108" 
d="M554 761c-76.667 0 -140.334 -28.333 -191.001 -85s-76 -135 -76 -235s25.333 -178.333 76 -235s114.334 -85 191.001 -85s140.334 28.333 191.001 85s76 135 76 235s-25.333 178.333 -76 235s-114.334 85 -191.001 85zM584 891
c76.667 0 145.334 -20.5029 206.001 -61.5029s107 -95.667 139 -164s48 -143.166 48 -224.499c0 -130 -38.833 -239.167 -116.5 -327.5s-179.834 -132.5 -306.501 -132.5c-84 0 -158.5 20.833 -223.5 62.5s-114.5 97.334 -148.5 167.001s-51 146.834 -51 231.501
c0 45.333 6 90.666 18 135.999s24 81.333 36 108s30.333 63.334 55 110.001l321 620h166l-290 -552c42.667 18 91.667 27 147 27z" />
    <glyph glyph-name="seven" unicode="7" horiz-adv-x="1108" 
d="M126 1276v140h856v-94l-545 -1322h-167l527 1276h-671z" />
    <glyph glyph-name="eight" unicode="8" horiz-adv-x="1108" 
d="M554 1435c116 0 210.831 -36.833 284.498 -110.5s110.5 -165.834 110.5 -276.501c0 -66 -14.167 -126 -42.5 -180s-69.166 -98.333 -122.499 -133c62 -36 109.667 -84 143 -144s50 -126.667 50 -200c0 -117.333 -39.5 -215 -118.5 -293s-180.5 -117 -304.5 -117
s-225.5 39 -304.5 117s-118.5 175.667 -118.5 293c0 73.333 16.667 140 50 200s81 108 143 144c-53.333 34.667 -94.166 79 -122.499 133s-42.5 114 -42.5 180c0 110.667 36.833 202.834 110.5 276.501s168.5 110.5 284.5 110.5zM553.998 1295c-71.333 0 -129 -22 -173 -66
s-66 -104.333 -66 -181s22 -137 66 -181s101.667 -66 173 -66s129 22 173 66s66 104.333 66 181s-22 137 -66 181s-101.667 66 -173 66zM553.998 661c-79.333 0 -143.666 -24.167 -192.999 -72.5s-74 -114.166 -74 -197.499s24.667 -149.166 74 -197.499
s113.666 -72.5 192.999 -72.5s143.666 24.167 192.999 72.5s74 114.166 74 197.499s-24.667 149.166 -74 197.499s-113.666 72.5 -192.999 72.5z" />
    <glyph glyph-name="nine" unicode="9" horiz-adv-x="1108" 
d="M554 1435c125.333 0 226.332 -44.167 302.999 -132.5s115 -197.5 115 -327.5c0 -61.333 -8.16699 -117 -24.5 -167s-40.166 -105.333 -71.499 -166l-330 -642h-171l286 550c-42 -16.667 -87.667 -25 -137 -25c-77.333 0 -146 21 -206 63s-105.333 97 -136 165
s-46 142 -46 222c0 130 38.333 239.167 115 327.5s177.667 132.5 303 132.5zM553.999 1295c-75.333 0 -137.833 -28.333 -187.5 -85s-74.5 -135 -74.5 -235s24.833 -178.333 74.5 -235s112.167 -85 187.5 -85s137.833 28.333 187.5 85s74.5 135 74.5 235
s-24.833 178.333 -74.5 235s-112.167 85 -187.5 85z" />
    <glyph glyph-name="colon" unicode=":" horiz-adv-x="500" 
d="M250 204c32.667 0 59.167 -10.167 79.5 -30.5s30.5 -46.833 30.5 -79.5s-10.167 -59.167 -30.5 -79.5s-46.833 -30.5 -79.5 -30.5s-59.167 10.167 -79.5 30.5s-30.5 46.833 -30.5 79.5s10.167 59.167 30.5 79.5s46.833 30.5 79.5 30.5zM250 1101
c32.667 0 59.167 -10.167 79.5 -30.5s30.5 -46.833 30.5 -79.5s-10.167 -59.167 -30.5 -79.5s-46.833 -30.5 -79.5 -30.5s-59.167 10.167 -79.5 30.5s-30.5 46.833 -30.5 79.5s10.167 59.167 30.5 79.5s46.833 30.5 79.5 30.5z" />
    <glyph glyph-name="semicolon" unicode=";" horiz-adv-x="500" 
d="M250 1101c32.667 0 59.167 -10.167 79.5 -30.5s30.5 -46.833 30.5 -79.5s-10.167 -59.167 -30.5 -79.5s-46.833 -30.5 -79.5 -30.5s-59.167 10.167 -79.5 30.5s-30.5 46.833 -30.5 79.5s10.167 59.167 30.5 79.5s46.833 30.5 79.5 30.5zM250 204
c32.667 0 59.167 -10.167 79.5 -30.5s30.5 -46.833 30.5 -79.5c0 -18.667 -8 -50 -24 -94l-91 -250h-98l57 243c-18.667 7.33301 -34 20 -46 38s-18 39 -18 63c0 32.667 10.167 59.167 30.5 79.5s46.833 30.5 79.5 30.5z" />
    <glyph glyph-name="less" unicode="&#x3c;" horiz-adv-x="963" 
d="M160 597l608 354l69 -120l-510 -290l510 -290l-69 -120l-608 354v112z" />
    <glyph glyph-name="equal" unicode="=" horiz-adv-x="1060" 
d="M180 634v134h700v-134h-700zM180 314v134h700v-134h-700z" />
    <glyph glyph-name="greater" unicode="&#x3e;" horiz-adv-x="963" 
d="M803 597v-112l-608 -354l-69 120l510 290l-510 290l69 120z" />
    <glyph glyph-name="question" unicode="?" horiz-adv-x="916" 
d="M421 204c32.667 0 59.167 -10.167 79.5 -30.5s30.5 -46.833 30.5 -79.5s-10.167 -59.167 -30.5 -79.5s-46.833 -30.5 -79.5 -30.5s-59.167 10.167 -79.5 30.5s-30.5 46.833 -30.5 79.5s10.167 59.167 30.5 79.5s46.833 30.5 79.5 30.5zM178 1193l-97.999 100
c97.333 92.667 211 139 341 139c115.333 0 210 -36 284 -108s111 -162.667 111 -272c0 -80 -24.667 -153.667 -74 -221c-18.667 -25.333 -55.334 -59.333 -110.001 -102s-88.667 -75.667 -102 -99c-16.667 -28.667 -28 -56 -34 -82s-9 -59.667 -9 -101l-1 -60h-130
c-0.666992 23.333 -1 43 -1 59c0 57.333 4.33301 105.166 13 143.499s26.334 76.833 53.001 115.5c12.667 18.667 28.167 36.834 46.5 54.501s40.166 37 65.499 58s43 36.167 53 45.5c53.333 49.333 80 112 80 188c0 72.667 -22.167 132 -66.5 178s-103.833 69 -178.5 69
c-89.333 0 -170.333 -35 -243 -105z" />
    <glyph glyph-name="at" unicode="@" horiz-adv-x="1519" 
d="M719 537c0 -56.667 18.8311 -104.666 56.498 -143.999s90.5 -59 158.5 -59c54.667 0 103.334 13.333 146.001 40s72.667 67 90 121c6 19.333 10.5 41.666 13.5 66.999s4.66699 49.166 5 71.499s0.5 58.833 0.5 109.5h-145c-96 0 -159.333 -4.66699 -190 -14
c-43.333 -13.333 -76.666 -37.166 -99.999 -71.499s-35 -74.5 -35 -120.5zM820.998 1314c90 0 166.332 -6.49512 228.999 -19.4951s117.334 -39.167 164.001 -78.5c29.333 -25.333 53.166 -52.166 71.499 -80.499s31 -59.666 38 -93.999s11.333 -62.333 13 -84
s2.5 -51.834 2.5 -90.501v-651h-150v115c-76 -87.333 -167.667 -131 -275 -131c-101.333 0 -184.166 32.167 -248.499 96.5s-96.5 144.5 -96.5 240.5c0 72 20.5 135.833 61.5 191.5s98.833 94.834 173.5 117.501c22 6.66699 46.333 11.667 73 15s50 5.16602 70 5.49902
s50.333 0.5 91 0.5h151c0 41.333 -0.666992 71.833 -2 91.5s-6.33301 42.667 -15 69s-22 49.833 -40 70.5c-30 34 -69.333 56.167 -118 66.5s-112.667 15.5 -192 15.5c-92.667 0 -166.667 -4.5 -222 -13.5s-102.666 -29.5 -141.999 -61.5
c-18 -14.667 -33.833 -32.334 -47.5 -53.001s-25 -41.334 -34 -62.001s-16.5 -46.834 -22.5 -78.501s-10.667 -59 -14 -82s-5.66602 -54.333 -6.99902 -94s-2.16602 -70.834 -2.49902 -93.501s-0.5 -56.334 -0.5 -101.001c0 -78.667 1.16699 -142.334 3.5 -191.001
s7.5 -99.5 15.5 -152.5s21 -97 39 -132s41.333 -64.5 70 -88.5c38 -31.333 82.167 -51.666 132.5 -60.999s124.166 -14 221.499 -14c134 0 232 3.16699 294 9.5s127 23.166 195 50.499l53 -125c-52.667 -22 -109 -38.167 -169 -48.5s-113 -16.333 -159 -18
s-117.333 -2.5 -214 -2.5c-118 0 -209.833 7 -275.5 21s-125.834 44 -180.501 90c-27.333 22.667 -51 47.834 -71 75.501s-36.167 59 -48.5 94s-22.5 69 -30.5 102s-13.833 73 -17.5 120s-6 89.5 -7 127.5s-1.5 85.667 -1.5 143s0.5 105.166 1.5 143.499s3.33301 81 7 128
s9.5 87.167 17.5 120.5s18.167 67.5 30.5 102.5s28.5 66.167 48.5 93.5s43.667 52 71 74c56 46 119.167 76 189.5 90s162.166 21 275.499 21z" />
    <glyph glyph-name="A" unicode="A" horiz-adv-x="1190" 
d="M830 482l-235 723l-235 -723h470zM520 1416h150l480 -1416h-163l-111 342h-562l-111 -342h-163z" />
    <glyph glyph-name="B" unicode="B" horiz-adv-x="1166" 
d="M336 792l196 0.00292969c32.667 0 57 0.166992 73 0.5s33.833 2.16602 53.5 5.49902s36.834 8 51.501 14c45.333 20 78.666 50.667 99.999 92s32 84.666 32 129.999c0 18 -2 36.5 -6 55.5s-10.667 39.667 -20 62s-23.833 43.166 -43.5 62.499s-43.167 34.333 -70.5 45
c-29.333 11.333 -86 17 -170 17h-196v-484zM336 652.003l-0.00292969 -512h226c34 0 59.333 0.333008 76 1s35.834 2.66699 57.501 6s40.834 8.66602 57.501 15.999c48.667 22 83.667 54.833 105 98.5s32 88.5 32 134.5c0 22 -2.5 43.833 -7.5 65.5s-12.667 43.667 -23 66
s-25.5 42.833 -45.5 61.5s-43.667 33.334 -71 44.001c-15.333 6 -33.166 10.5 -53.499 13.5s-38.333 4.66699 -54 5s-40.167 0.5 -73.5 0.5h-226zM845.997 735.003c62.667 -32.667 111.668 -77.833 147.001 -135.5s53 -125.5 53 -203.5c0 -86 -23.833 -164.167 -71.5 -234.5
s-115.5 -117.833 -203.5 -142.5c-44.667 -12.667 -114.334 -19 -209.001 -19h-382v1416h352c89.333 0 154 -5.33301 194 -16c80.667 -21.333 146.167 -65 196.5 -131s75.5 -144.333 75.5 -235c0 -64.667 -13.167 -122.5 -39.5 -173.5s-63.833 -92.833 -112.5 -125.5z" />
    <glyph glyph-name="C" unicode="C" horiz-adv-x="1114" 
d="M618 1435c134.667 0 259.333 -40.3301 374 -120.997l-80 -120c-94.667 67.333 -192.667 101 -294 101c-138.667 0 -232.667 -56.667 -282 -170c-21.333 -48.667 -35 -106.334 -41 -173.001s-9 -148 -9 -244s3 -177.333 9 -244s19.667 -124.334 41 -173.001
c49.333 -113.333 143.333 -170 282 -170c122.667 0 230.667 39.667 324 119l88 -116c-121.333 -95.333 -258.666 -143 -411.999 -143c-103.333 0 -191.5 23 -264.5 69s-127.167 108.667 -162.5 188c-18 40 -31.833 88.833 -41.5 146.5s-15.334 108.667 -17.001 153
s-2.5 101.166 -2.5 170.499c0 106.667 3.83301 197.667 11.5 273s24.167 141 49.5 197c36.667 80 91.5 142.833 164.5 188.5s160.5 68.5 262.5 68.5z" />
    <glyph glyph-name="D" unicode="D" horiz-adv-x="1217" 
d="M336 1276v-1136h203c34 0 60.833 0.333008 80.5 1s44 3.83398 73 9.50098s52.833 13.834 71.5 24.501c23.333 13.333 44 30 62 50s32.833 39.833 44.5 59.5s21.5 44.667 29.5 75s14 56.666 18 78.999s7 52.166 9 89.499s3.16699 66.5 3.5 87.5s0.5 51.833 0.5 92.5
s-0.166992 71.5 -0.5 92.5s-1.5 50.167 -3.5 87.5s-5 67.166 -9 89.499s-10 48.666 -18 78.999s-17.833 55.333 -29.5 75s-26.5 39.5 -44.5 59.5s-38.667 36.667 -62 50c-18.667 10.667 -42.5 18.834 -71.5 24.501s-53.333 8.83398 -73 9.50098s-46.5 1 -80.5 1h-203z
M180 1416l359 -0.00195312c100 0 176.333 -7.66699 229 -23c61.333 -18 113.833 -48.167 157.5 -90.5s77.834 -91.166 102.501 -146.499c18 -41.333 31.667 -90.833 41 -148.5s14.666 -105.5 15.999 -143.5s2 -90 2 -156s-0.666992 -118 -2 -156
s-6.66602 -85.833 -15.999 -143.5s-23 -107.167 -41 -148.5c-24.667 -55.333 -58.834 -104.166 -102.501 -146.499s-96.167 -72.5 -157.5 -90.5c-52.667 -15.333 -129 -23 -229 -23h-359v1416z" />
    <glyph glyph-name="E" unicode="E" 
d="M180 1416h780v-140h-624v-484h534v-140h-534v-512h624v-140h-780v1416z" />
    <glyph glyph-name="F" unicode="F" horiz-adv-x="1060" 
d="M180 1416h760v-140h-604v-484h524v-140h-524v-652h-156v1416z" />
    <glyph glyph-name="G" unicode="G" horiz-adv-x="1236" 
d="M618 1435c134.667 0 259.335 -40.3311 374.002 -120.998l-80 -120c-94.667 67.333 -192.667 101 -294 101c-138.667 0 -232.667 -56.667 -282 -170c-21.333 -48.667 -35 -106.334 -41 -173.001s-9 -148 -9 -244s3 -177.333 9 -244s19.667 -124.334 41 -173.001
c49.333 -113.333 143.333 -170 282 -170s232.667 56.667 282 170c29.333 66.667 45.666 170.334 48.999 311.001h-301v140h458c0 -84 -0.833008 -148.833 -2.5 -194.5s-7.16699 -98.167 -16.5 -157.5s-23.333 -110 -42 -152c-35.333 -79.333 -89.333 -142 -162 -188
s-161 -69 -265 -69c-103.333 0 -191.5 23 -264.5 69s-127.167 108.667 -162.5 188c-18 40 -31.833 88.833 -41.5 146.5s-15.334 108.667 -17.001 153s-2.5 101.166 -2.5 170.499c0 106.667 3.83301 197.667 11.5 273s24.167 141 49.5 197
c36.667 80 91.5 142.833 164.5 188.5s160.5 68.5 262.5 68.5z" />
    <glyph glyph-name="H" unicode="H" horiz-adv-x="1280" 
d="M180 1416h156v-624h608v624h156v-1416h-156v652h-608v-652h-156v1416z" />
    <glyph glyph-name="I" unicode="I" horiz-adv-x="516" 
d="M336 1416v-1416h-156v1416h156z" />
    <glyph glyph-name="J" unicode="J" horiz-adv-x="958" 
d="M642 1416h156.002v-983c0 -83.333 -3.66699 -142 -11 -176c-18 -82 -59.667 -148.5 -125 -199.5s-144.333 -76.5 -237 -76.5c-121.333 0 -236.333 40.667 -345 122l89 116c79.333 -65.333 161.333 -98 246 -98c51.333 0 95.666 12.333 132.999 37s63.666 60 78.999 106
c10 30 15 86.333 15 169v983z" />
    <glyph glyph-name="K" unicode="K" horiz-adv-x="1179" 
d="M336 601l598 815h177l-505 -681l523 -735h-185l-437 624l-171 -224v-400h-156v1416h156v-815z" />
    <glyph glyph-name="L" unicode="L" horiz-adv-x="980" 
d="M180 1416h156v-1276h564v-140h-720v1416z" />
    <glyph glyph-name="M" unicode="M" horiz-adv-x="1494" 
d="M180 0v1416h156l411 -839l411 839h156v-1416h-156v1122l-340 -701h-142l-340 701v-1122h-156z" />
    <glyph glyph-name="N" unicode="N" horiz-adv-x="1294" 
d="M958 1416h156v-1416h-157l-621 1136v-1136h-156v1416h157l621 -1136v1136z" />
    <glyph glyph-name="O" unicode="O" horiz-adv-x="1256" 
d="M628 1435c104 0 193 -23 267 -69s129 -108 165 -186c20.667 -44 36.167 -96.667 46.5 -158s16.166 -112 17.499 -152s2 -94 2 -162s-0.666992 -122 -2 -162s-7.16602 -90.667 -17.499 -152s-25.833 -114 -46.5 -158c-36 -78 -91 -140 -165 -186s-163 -69 -267 -69
s-193 23 -267 69s-129 108 -165 186c-20.667 44 -36.167 96.667 -46.5 158s-16.166 112 -17.499 152s-2 94 -2 162s0.666992 122 2 162s7.16602 90.667 17.499 152s25.833 114 46.5 158c36 78 91 140 165 186s163 69 267 69zM628 1295
c-70.667 0 -130.334 -14.833 -179.001 -44.5s-85 -70.834 -109 -123.501c-16.667 -35.333 -29.167 -79.5 -37.5 -132.5s-13.166 -98.333 -14.499 -136s-2 -87.834 -2 -150.501s0.666992 -112.834 2 -150.501s6.16602 -83 14.499 -136s20.833 -97.167 37.5 -132.5
c24 -52.667 60.333 -93.834 109 -123.501s108.334 -44.5 179.001 -44.5s130.334 14.833 179.001 44.5s85 70.834 109 123.501c16.667 35.333 29.167 79.5 37.5 132.5s13.166 98.333 14.499 136s2 87.834 2 150.501s-0.666992 112.834 -2 150.501s-6.16602 83 -14.499 136
s-20.833 97.167 -37.5 132.5c-24 52.667 -60.333 93.834 -109 123.501s-108.334 44.5 -179.001 44.5z" />
    <glyph glyph-name="P" unicode="P" horiz-adv-x="1126" 
d="M482 1276l-146 0.00195312v-620h146c36.667 0 63.834 0.166992 81.501 0.5s38.167 2.16602 61.5 5.49902s44 8.33301 62 15c60 22 105.5 59.833 136.5 113.5s46.5 112.167 46.5 175.5s-15.5 121.833 -46.5 175.5s-76.5 91.5 -136.5 113.5
c-18 6.66699 -38.667 11.667 -62 15s-43.833 5.16602 -61.5 5.49902s-44.834 0.5 -81.501 0.5zM482 1416c96.667 0 167.667 -5.33301 213 -16c103.333 -24.667 184.333 -77 243 -157s88 -172.333 88 -277s-29.333 -197 -88 -277s-139.667 -132.333 -243 -157
c-45.333 -10.667 -116.333 -16 -213 -16h-146v-516h-156v1416h302z" />
    <glyph glyph-name="Q" unicode="Q" horiz-adv-x="1256" 
d="M628 1295c-70.667 0 -130.334 -14.833 -179.001 -44.5s-85 -70.834 -109 -123.501c-16.667 -35.333 -29.167 -79.5 -37.5 -132.5s-13.166 -98.333 -14.499 -136s-2 -87.834 -2 -150.501s0.666992 -112.834 2 -150.501s6.16602 -83 14.499 -136
s20.833 -97.167 37.5 -132.5c24 -52.667 60.333 -93.834 109 -123.501s108.334 -44.5 179.001 -44.5s130.334 14.833 179.001 44.5s85 70.834 109 123.501c16.667 35.333 29.167 79.5 37.5 132.5s13.166 98.333 14.499 136s2 87.834 2 150.501s-0.666992 112.834 -2 150.501
s-6.16602 83 -14.499 136s-20.833 97.167 -37.5 132.5c-24 52.667 -60.333 93.834 -109 123.501s-108.334 44.5 -179.001 44.5zM628 1435c104 0 193 -23 267 -69s129 -108 165 -186c20.667 -44 36.167 -96.667 46.5 -158s16.166 -112 17.499 -152s2 -94 2 -162
s-0.666992 -122 -2 -162s-7.16602 -90.667 -17.499 -152s-25.833 -114 -46.5 -158c-30.667 -67.333 -76 -123 -136 -167l222 -223l-104 -104l-260 259c-48 -13.333 -99.333 -20 -154 -20c-104 0 -193 23 -267 69s-129 108 -165 186c-20.667 44 -36.167 96.667 -46.5 158
s-16.166 112 -17.499 152s-2 94 -2 162s0.666992 122 2 162s7.16602 90.667 17.499 152s25.833 114 46.5 158c36 78 91 140 165 186s163 69 267 69z" />
    <glyph glyph-name="R" unicode="R" horiz-adv-x="1141" 
d="M507 1416c46 0 80.1689 -0.5 102.502 -1.5s48.666 -4.16699 78.999 -9.5s59.833 -14 88.5 -26c75.333 -30.667 135.666 -81.167 180.999 -151.5s68 -150.833 68 -241.5c0 -91.333 -23 -172.333 -69 -243s-107 -121 -183 -151l277 -592h-169l-254 556h-292v-556h-156v1416
h327zM507.002 1276l-171 -0.00390625v-580h171c36.667 0 63.834 0.333008 81.501 1s38 2.83398 61 6.50098s43.5 9.16699 61.5 16.5c30 12.667 55.833 29.834 77.5 51.501s38.167 45.167 49.5 70.5s19.5 49.833 24.5 73.5s7.5 47.167 7.5 70.5s-2.5 46.833 -7.5 70.5
s-13.167 48.167 -24.5 73.5s-27.833 48.833 -49.5 70.5s-47.5 38.834 -77.5 51.501c-18 7.33301 -38.5 12.833 -61.5 16.5s-43.333 5.83398 -61 6.50098s-44.834 1 -81.501 1z" />
    <glyph glyph-name="S" unicode="S" horiz-adv-x="1045" 
d="M84 115l68.9961 126c138 -80 259.333 -120 364 -120c41.333 0 78.333 5.83301 111 17.5s58.834 26.667 78.501 45s36 39.666 49 63.999s21.833 48 26.5 71s7 46.167 7 69.5c0 53.333 -12.167 101.333 -36.5 144s-64.166 74.334 -119.499 95.001
c-26.667 10 -69.167 20.833 -127.5 32.5s-102.166 22.5 -131.499 32.5c-84 30 -148.333 77.333 -193 142s-67 138.334 -67 221.001c0 106.667 36 196.667 108 270s170.333 110 295 110c110 0 234.333 -33.333 373 -100l-60 -129c-122.667 59.333 -227 89 -313 89
c-82 0 -143.667 -23.333 -185 -70s-62 -103.334 -62 -170.001c0 -52 13 -99 39 -141s66.333 -72.333 121 -91c24.667 -8.66699 66.834 -19 126.501 -31s105.5 -24 137.5 -36c83.333 -32 146 -80.5 188 -145.5s63 -139.167 63 -222.5c0 -54 -9.16699 -105.167 -27.5 -153.5
s-44.666 -91.5 -78.999 -129.5s-79.333 -68.167 -135 -90.5s-117.834 -33.5 -186.501 -33.5c-78 0 -151.333 12 -220 36s-139.667 56.667 -213 98z" />
    <glyph glyph-name="T" unicode="T" horiz-adv-x="1048" 
d="M60 1417h928v-140h-386v-1277h-156v1277h-386v140z" />
    <glyph glyph-name="U" unicode="U" horiz-adv-x="1236" 
d="M160 1416h156v-901c0 -97.333 6.66699 -165.666 20 -204.999c22.667 -66 60.5 -114 113.5 -144s109.167 -45 168.5 -45s115.5 15 168.5 45s90.833 78 113.5 144c13.333 39.333 20 107.666 20 204.999v901h156v-901c0 -38.667 -0.333008 -68.167 -1 -88.5
s-3 -45.333 -7 -75s-10 -56.834 -18 -81.501c-22 -66.667 -55.833 -122.167 -101.5 -166.5s-96 -75.833 -151 -94.5s-114.833 -28 -179.5 -28s-124.5 9.33301 -179.5 28s-105.333 50.167 -151 94.5s-79.5 99.833 -101.5 166.5c-8 24.667 -14 51.834 -18 81.501
s-6.33301 54.667 -7 75s-1 49.833 -1 88.5v901z" />
    <glyph glyph-name="V" unicode="V" horiz-adv-x="1190" 
d="M40 1416h163l392 -1205l392 1205h163l-480 -1416h-150z" />
    <glyph glyph-name="W" unicode="W" horiz-adv-x="1500" 
d="M220 1416l242 -1141l213 711h150l213 -711l242 1141h160l-311 -1416h-152l-227 762l-227 -762h-152l-311 1416h160z" />
    <glyph glyph-name="X" unicode="X" horiz-adv-x="1074" 
d="M55 1416h175l307 -570l307 570h175l-394 -694l409 -722h-175l-322 598l-322 -598h-175l409 722z" />
    <glyph glyph-name="Y" unicode="Y" horiz-adv-x="1082" 
d="M40 1416h169l332 -744l332 744h169l-423 -910v-506h-156v506z" />
    <glyph glyph-name="Z" unicode="Z" horiz-adv-x="1027" 
d="M105 1276v140h822v-101l-661 -1175h681v-140h-867v101l661 1175h-636z" />
    <glyph glyph-name="bracketleft" unicode="[" horiz-adv-x="652" 
d="M170 1538h332v-124h-192v-1746h192v-124h-332v1994z" />
    <glyph glyph-name="backslash" unicode="\" horiz-adv-x="930" 
d="M106 1416h147l571 -1506h-147z" />
    <glyph glyph-name="bracketright" unicode="]" horiz-adv-x="652" 
d="M482 1538v-1994h-332v124h192v1746h-192v124h332z" />
    <glyph glyph-name="asciicircum" unicode="^" horiz-adv-x="862" 
d="M571 1222l-140 138l-140 -138h-171l258 274h106l258 -274h-171z" />
    <glyph glyph-name="underscore" unicode="_" horiz-adv-x="840" 
d="M30 0h780v-150h-780v150z" />
    <glyph glyph-name="grave" unicode="`" horiz-adv-x="563" 
d="M120 1496h169l154 -274h-158z" />
    <glyph glyph-name="a" unicode="a" horiz-adv-x="1020" 
d="M250 321c0 -56.667 18.8311 -104.666 56.498 -143.999s90.5 -59 158.5 -59c54.667 0 103.334 13.333 146.001 40s72.667 67 90 121c6 19.333 10.5 41.666 13.5 66.999s4.66699 49.166 5 71.499s0.5 58.833 0.5 109.5h-145c-96 0 -159.333 -4.66699 -190 -14
c-43.333 -13.333 -76.666 -37.166 -99.999 -71.499s-35 -74.5 -35 -120.5zM869.998 651.001l-0.00195312 -651.001h-150v115c-76 -87.333 -167.667 -131 -275 -131c-101.333 0 -184.166 32.167 -248.499 96.5s-96.5 144.5 -96.5 240.5c0 72 20.5 135.833 61.5 191.5
s98.833 94.834 173.5 117.501c22 6.66699 46.333 11.667 73 15s50 5.16602 70 5.49902s50.333 0.5 91 0.5h151c0 53.333 -0.833008 91.5 -2.5 114.5s-6.16699 44.167 -13.5 63.5c-16.667 44.667 -44.667 78.334 -84 101.001s-84.333 34 -135 34
c-74 0 -161.667 -24.333 -263 -73l-57 124c121.333 55.333 228 83 320 83c88.667 0 166.334 -21.333 233.001 -64s112 -103.667 136 -183c10.667 -35.333 16 -102 16 -200z" />
    <glyph glyph-name="b" unicode="b" horiz-adv-x="1115" 
d="M595 1098c68 0 129.667 -14.667 185 -44s98.666 -68 129.999 -116c33.333 -51.333 55 -106.5 65 -165.5s15 -136.167 15 -231.5s-5 -172.5 -15 -231.5s-31.667 -114.167 -65 -165.5c-31.333 -48 -74.666 -86.667 -129.999 -116s-117 -44 -185 -44
c-111.333 0 -206.333 43.667 -285 131v-115h-150v1496h150v-529c78.667 87.333 173.667 131 285 131zM575 964c-89.333 0 -157.666 -32.667 -204.999 -98c-25.333 -34.667 -41.666 -76.667 -48.999 -126s-11 -115.666 -11 -198.999s3.66699 -149.666 11 -198.999
s23.666 -91.333 48.999 -126c47.333 -65.333 115.666 -98 204.999 -98s157.666 32.667 204.999 98c25.333 34.667 41.666 76.667 48.999 126s11 115.666 11 198.999s-3.66699 149.666 -11 198.999s-23.666 91.333 -48.999 126c-47.333 65.333 -115.666 98 -204.999 98z" />
    <glyph glyph-name="c" unicode="c" horiz-adv-x="964" 
d="M535 1098c110 0 219.001 -33.665 327.001 -100.998l-71 -118c-87.333 56.667 -172.666 85 -255.999 85c-87.333 0 -155.333 -35 -204 -105c-17.333 -25.333 -30.333 -58.5 -39 -99.5s-13.667 -75.167 -15 -102.5s-2 -64 -2 -110c0 -52 0.5 -91.833 1.5 -119.5
s5.5 -60.834 13.5 -99.501s20 -71.334 36 -98.001c23.333 -38.667 53.666 -67 90.999 -85s76.666 -27 117.999 -27c45.333 0 92.833 8.66699 142.5 26s93.167 38.666 130.5 63.999l76 -114c-47.333 -32 -102.333 -58.333 -165 -79s-124 -31 -184 -31
c-76 0 -144 16.833 -204 50.5s-105.667 77.834 -137 132.501c-21.333 37.333 -37.333 78.5 -48 123.5s-16.834 84 -18.501 117s-2.5 79.5 -2.5 139.5c0 52 0.833008 93.833 2.5 125.5s7.83398 71.167 18.501 118.5s26.667 88.666 48 123.999
c32.667 54.667 78.5 98.834 137.5 132.501s126.833 50.5 203.5 50.5z" />
    <glyph glyph-name="d" unicode="d" horiz-adv-x="1115" 
d="M520 1098c111.333 0 206.333 -43.667 285 -131v529h150v-1496h-150v115c-78.667 -87.333 -173.667 -131 -285 -131c-68 0 -129.667 14.667 -185 44s-98.666 68 -129.999 116c-33.333 51.333 -55 106.5 -65 165.5s-15 136.167 -15 231.5s5 172.5 15 231.5
s31.667 114.167 65 165.5c31.333 48 74.666 86.667 129.999 116s117 44 185 44zM540 964c-89.333 0 -157.666 -32.667 -204.999 -98c-25.333 -34.667 -41.666 -76.667 -48.999 -126s-11 -115.666 -11 -198.999s3.66699 -149.666 11 -198.999s23.666 -91.333 48.999 -126
c47.333 -65.333 115.666 -98 204.999 -98s157.666 32.667 204.999 98c25.333 34.667 41.666 76.667 48.999 126s11 115.666 11 198.999s-3.66699 149.666 -11 198.999s-23.666 91.333 -48.999 126c-47.333 65.333 -115.666 98 -204.999 98z" />
    <glyph glyph-name="e" unicode="e" horiz-adv-x="1055" 
d="M550 -16c-77.333 0 -145.668 14.4961 -205.001 43.4961s-106.333 68.833 -141 119.5c-24.667 35.333 -43.167 77.333 -55.5 126s-19.333 89.834 -21 123.501s-2.5 81.834 -2.5 144.501c0 51.333 0.5 90.166 1.5 116.499s4.33301 58.333 10 96s14.167 71.834 25.5 102.501
c28 73.333 74.833 132 140.5 176s141.5 66 227.5 66c84.667 0 160.167 -22.167 226.5 -66.5s113.833 -103.166 142.5 -176.499c16.667 -42 26.834 -83.833 30.501 -125.5s5.5 -104.167 5.5 -187.5v-33h-660c0 -43.333 0.666992 -78.166 2 -104.499s6.5 -58 15.5 -95
s22.167 -67.833 39.5 -92.5c46 -66 118.667 -99 218 -99c88.667 0 184 24.333 286 73l57 -124c-118 -55.333 -232.333 -83 -343 -83zM784.998 632.996c-1.33301 76 -11.001 136.334 -29.001 181.001c-18 46 -47.167 82.5 -87.5 109.5s-86.5 40.5 -138.5 40.5
c-54 0 -100.667 -13.5 -140 -40.5s-67.666 -63.167 -84.999 -108.5c-18 -46.667 -27.667 -107.334 -29 -182.001h509z" />
    <glyph glyph-name="f" unicode="f" horiz-adv-x="615" 
d="M210 1143c0 44.667 0.668945 78 2.00195 100s6.16602 48 14.499 78s21.166 57.333 38.499 82c52 72.667 128.667 109 230 109c36.667 0 83.334 -5.66699 140.001 -17l-27 -132c-41.333 10 -79 15 -113 15c-46.667 0 -81.334 -16 -104.001 -48
c-14 -20 -22.667 -42.667 -26 -68s-5 -65 -5 -119v-61h200v-124h-200v-958h-150v958h-150v124h150v61z" />
    <glyph glyph-name="g" unicode="g" horiz-adv-x="1115" 
d="M520 1098c111.333 0 206.334 -43.668 285.001 -131.001v115h150v-971c0 -117.333 -5.33301 -196.666 -16 -237.999c-25.333 -98 -76.333 -172.5 -153 -223.5s-165.334 -76.5 -266.001 -76.5c-106.667 0 -218.667 24.333 -336 73l50 126c104 -43.333 199.333 -65 286 -65
c69.333 0 128.5 17 177.5 51s81.167 84 96.5 150c7.33301 32 11 101 11 207c-78.667 -87.333 -173.667 -131 -285 -131c-68 0 -129.667 14.667 -185 44s-98.666 68 -129.999 116c-33.333 51.333 -55 106.5 -65 165.5s-15 136.167 -15 231.5s5 172.5 15 231.5
s31.667 114.167 65 165.5c31.333 48 74.666 86.667 129.999 116s117 44 185 44zM540.001 963.999c-89.333 0 -157.666 -32.667 -204.999 -98c-25.333 -34.667 -41.666 -76.667 -48.999 -126s-11 -115.666 -11 -198.999s3.66699 -149.666 11 -198.999
s23.666 -91.333 48.999 -126c47.333 -65.333 115.666 -98 204.999 -98s157.666 32.667 204.999 98c25.333 34.667 41.666 76.667 48.999 126s11 115.666 11 198.999s-3.66699 149.666 -11 198.999s-23.666 91.333 -48.999 126c-47.333 65.333 -115.666 98 -204.999 98z" />
    <glyph glyph-name="h" unicode="h" 
d="M585 1098c58.667 0 112.332 -12.002 160.999 -36.002s89 -56 121 -96c20 -24.667 36 -50.667 48 -78s20.333 -57.666 25 -90.999s7.5 -60.666 8.5 -81.999s1.5 -51.333 1.5 -90v-625h-150v615c0 50.667 -0.666992 87.834 -2 111.501s-6.33301 50.5 -15 80.5
s-22.334 55.667 -41.001 77c-45.333 53.333 -107.666 80 -186.999 80s-141.666 -26.667 -186.999 -80c-18.667 -21.333 -32.334 -47 -41.001 -77s-13.667 -56.833 -15 -80.5s-2 -60.834 -2 -111.501v-615h-150v1496h150v-528c78.667 86.667 170.334 130 275.001 130z" />
    <glyph glyph-name="i" unicode="i" horiz-adv-x="480" 
d="M240 1435c27.333 0 49.833 -8.83301 67.5 -26.5s26.5 -40.167 26.5 -67.5s-8.83301 -49.833 -26.5 -67.5s-40.167 -26.5 -67.5 -26.5s-49.833 8.83301 -67.5 26.5s-26.5 40.167 -26.5 67.5s8.83301 49.833 26.5 67.5s40.167 26.5 67.5 26.5zM315 0h-150v1082h150v-1082z
" />
    <glyph glyph-name="j" unicode="j" horiz-adv-x="480" 
d="M240 1435c27.333 0 49.833 -8.83301 67.5 -26.5s26.5 -40.167 26.5 -67.5s-8.83301 -49.833 -26.5 -67.5s-40.167 -26.5 -67.5 -26.5s-49.833 8.83301 -67.5 26.5s-26.5 40.167 -26.5 67.5s8.83301 49.833 26.5 67.5s40.167 26.5 67.5 26.5zM315 -134
c0 -62.667 -3.33203 -106 -9.99902 -130c-14 -50 -41.333 -89.833 -82 -119.5s-88.334 -44.5 -143.001 -44.5c-47.333 0 -91 6.33301 -131 19l38 130c30 -10 57.667 -15 83 -15c42.667 0 71 18 85 54c6.66699 16.667 10 53.667 10 111v1211h150v-1216z" />
    <glyph glyph-name="k" unicode="k" horiz-adv-x="995" 
d="M160 1496h150v-1007l439 593h176l-401 -535l411 -547h-180l-325 443l-120 -156v-287h-150v1496z" />
    <glyph glyph-name="l" unicode="l" horiz-adv-x="486" 
d="M402 124l24.001 -128c-26.667 -8 -57.334 -12 -92.001 -12c-54.667 0 -100 22 -136 66c-25.333 30.667 -38 77.667 -38 141v1305h150v-1305c0 -30 3.66699 -49.667 11 -59s19 -14 35 -14c14.667 0 30 2 46 6z" />
    <glyph glyph-name="m" unicode="m" horiz-adv-x="1660" 
d="M910 0l-149.999 -0.00195312v637c0 41.333 -0.333008 71.5 -1 90.5s-3 39.833 -7 62.5s-10 42.334 -18 59.001c-17.333 36 -43.833 64.167 -79.5 84.5s-75.5 30.5 -119.5 30.5s-83.833 -10.167 -119.5 -30.5s-62.167 -48.5 -79.5 -84.5
c-8 -16.667 -14 -36.334 -18 -59.001s-6.33301 -43.5 -7 -62.5s-1 -49.167 -1 -90.5v-637h-150v1082h150v-111c73.333 84.667 158.333 127 255 127c66 0 124 -15.167 174 -45.5s88.667 -72.166 116 -125.499c35.333 53.333 79.666 95.166 132.999 125.499
s112.333 45.5 177 45.5c72.667 0 137.5 -19.333 194.5 -58s98.167 -92 123.5 -160c8.66699 -22.667 15 -48.167 19 -76.5s6.33301 -52.166 7 -71.499s1 -47.666 1 -84.999v-647h-150v637c0 41.333 -0.333008 71.5 -1 90.5s-3 39.833 -7 62.5s-10 42.334 -18 59.001
c-17.333 36 -43.833 64.167 -79.5 84.5s-75.5 30.5 -119.5 30.5s-83.833 -10.167 -119.5 -30.5s-62.167 -48.5 -79.5 -84.5c-8 -16.667 -14 -36.334 -18 -59.001s-6.33301 -43.5 -7 -62.5s-1 -49.167 -1 -90.5v-637z" />
    <glyph glyph-name="n" unicode="n" 
d="M585 1098c74 0 141.165 -19.5 201.498 -58.5s104.5 -93.5 132.5 -163.5c10 -24 17.333 -51.333 22 -82s7.33398 -56.5 8.00098 -77.5s1 -51.5 1 -91.5v-625h-150v615c0 63.333 -1.33301 109.166 -4 137.499s-10 55.5 -22 81.5c-18.667 41.333 -47.5 73.333 -86.5 96
s-83.167 34 -132.5 34s-93.5 -11.333 -132.5 -34s-67.833 -54.667 -86.5 -96c-12 -26 -19.333 -53.167 -22 -81.5s-4 -74.166 -4 -137.499v-615h-150v1082h150v-114c78.667 86.667 170.334 130 275.001 130z" />
    <glyph glyph-name="o" unicode="o" 
d="M550 964c-86.667 0 -153 -26.333 -199 -79c-18 -20.667 -32.5 -43.834 -43.5 -69.501s-18.667 -55.667 -23 -90s-7 -63 -8 -86s-1.5 -55.833 -1.5 -98.5s0.5 -75.5 1.5 -98.5s3.66699 -51.667 8 -86s12 -64.333 23 -90s25.5 -48.834 43.5 -69.501
c46 -52.667 112.333 -79 199 -79s153 26.333 199 79c18 20.667 32.5 43.834 43.5 69.501s18.667 55.667 23 90s7 63 8 86s1.5 55.833 1.5 98.5s-0.5 75.5 -1.5 98.5s-3.66699 51.667 -8 86s-12 64.333 -23 90s-25.5 48.834 -43.5 69.501c-46 52.667 -112.333 79 -199 79z
M550 1098c66 0 126 -11.5 180 -34.5s98.333 -53.5 133 -91.5c26.667 -29.333 48.167 -61.166 64.5 -95.499s27.666 -72.666 33.999 -114.999s10.166 -77.333 11.499 -105s2 -66.167 2 -115.5s-0.666992 -87.833 -2 -115.5s-5.16602 -62.667 -11.499 -105
s-17.666 -80.666 -33.999 -114.999s-37.833 -66.166 -64.5 -95.499c-34.667 -38 -79 -68.5 -133 -91.5s-114 -34.5 -180 -34.5s-126 11.5 -180 34.5s-98.333 53.5 -133 91.5c-26.667 29.333 -48.167 61.166 -64.5 95.499s-27.666 72.666 -33.999 114.999
s-10.166 77.333 -11.499 105s-2 66.167 -2 115.5s0.666992 87.833 2 115.5s5.16602 62.667 11.499 105s17.666 80.666 33.999 114.999s37.833 66.166 64.5 95.499c34.667 38 79 68.5 133 91.5s114 34.5 180 34.5z" />
    <glyph glyph-name="p" unicode="p" horiz-adv-x="1115" 
d="M595 1098c68 0 129.667 -14.667 185 -44s98.666 -68 129.999 -116c33.333 -51.333 55 -106.5 65 -165.5s15 -136.167 15 -231.5s-5 -172.5 -15 -231.5s-31.667 -114.167 -65 -165.5c-31.333 -48 -74.666 -86.667 -129.999 -116s-117 -44 -185 -44
c-111.333 0 -206.333 43.667 -285 131v-529h-150v1496h150v-115c78.667 87.333 173.667 131 285 131zM575 964c-89.333 0 -157.666 -32.667 -204.999 -98c-25.333 -34.667 -41.666 -76.667 -48.999 -126s-11 -115.666 -11 -198.999s3.66699 -149.666 11 -198.999
s23.666 -91.333 48.999 -126c47.333 -65.333 115.666 -98 204.999 -98s157.666 32.667 204.999 98c25.333 34.667 41.666 76.667 48.999 126s11 115.666 11 198.999s-3.66699 149.666 -11 198.999s-23.666 91.333 -48.999 126c-47.333 65.333 -115.666 98 -204.999 98z" />
    <glyph glyph-name="q" unicode="q" horiz-adv-x="1115" 
d="M520 1098c111.333 0 206.333 -43.667 285 -131v115h150v-1496h-150v529c-78.667 -87.333 -173.667 -131 -285 -131c-68 0 -129.667 14.667 -185 44s-98.666 68 -129.999 116c-33.333 51.333 -55 106.5 -65 165.5s-15 136.167 -15 231.5s5 172.5 15 231.5
s31.667 114.167 65 165.5c31.333 48 74.666 86.667 129.999 116s117 44 185 44zM540 964c-89.333 0 -157.666 -32.667 -204.999 -98c-25.333 -34.667 -41.666 -76.667 -48.999 -126s-11 -115.666 -11 -198.999s3.66699 -149.666 11 -198.999s23.666 -91.333 48.999 -126
c47.333 -65.333 115.666 -98 204.999 -98s157.666 32.667 204.999 98c25.333 34.667 41.666 76.667 48.999 126s11 115.666 11 198.999s-3.66699 149.666 -11 198.999s-23.666 91.333 -48.999 126c-47.333 65.333 -115.666 98 -204.999 98z" />
    <glyph glyph-name="r" unicode="r" horiz-adv-x="697" 
d="M310 968c72.667 86.667 157.667 130 255 130c27.333 0 58 -3.66699 92 -11l-22 -132c-42 6 -72 9 -90 9c-50.667 0 -94.667 -12 -132 -36s-64.333 -56.333 -81 -97c-14.667 -35.333 -22 -98 -22 -188v-643h-150v1082h150v-114z" />
    <glyph glyph-name="s" unicode="s" horiz-adv-x="963" 
d="M478 1098c99.333 0 213.668 -27.335 343.001 -82.002l-51 -127c-117.333 50 -214.666 75 -291.999 75c-38.667 0 -72.667 -5.66699 -102 -17s-51.333 -26 -66 -44s-25.5 -36 -32.5 -54s-10.5 -35.667 -10.5 -53c0 -33.333 9.16699 -62.5 27.5 -87.5
s41.5 -43.833 69.5 -56.5c27.333 -12.667 72.166 -23.5 134.499 -32.5s114.5 -21.167 156.5 -36.5c58.667 -22 108 -57.667 148 -107s60 -107.666 60 -174.999c0 -84.667 -34.333 -158.667 -103 -222s-162.667 -95 -282 -95c-112 0 -238 31 -378 93l54 125
c124 -56 232 -84 324 -84c41.333 0 77.833 5.66699 109.5 17s56.167 26.333 73.5 45s30.333 38.167 39 58.5s13 41.166 13 62.499c0 38 -11.333 71 -34 99s-50.667 48.333 -84 61c-22.667 8.66699 -68.334 18.334 -137.001 29.001s-123.334 25.334 -164.001 44.001
c-51.333 24 -93.666 58.667 -126.999 104s-50 98 -50 158c0 82 32.833 152.833 98.5 212.5s153.167 89.5 262.5 89.5z" />
    <glyph glyph-name="t" unicode="t" horiz-adv-x="652" 
d="M190 303v655h-150v124h150v234h150v-234h200v-124h-200v-655c0 -72 3 -115.333 9 -130c15.333 -36.667 44 -55 86 -55c34.667 0 72.667 10.667 114 32l58 -124c-64 -28 -124.667 -42 -182 -42c-56.667 0 -104.5 13.667 -143.5 41s-65.833 66.333 -80.5 117
c-7.33301 25.333 -11 79 -11 161z" />
    <glyph glyph-name="u" unicode="u" horiz-adv-x="1090" 
d="M150 1082h150v-625c0 -90 5 -150.333 15 -181c16.667 -51.333 45.667 -90.5 87 -117.5s89 -40.5 143 -40.5s101.667 13.5 143 40.5s70.333 66.167 87 117.5c10 30.667 15 91 15 181v625h150v-635c0 -35.333 -0.333008 -62.5 -1 -81.5s-3 -42.5 -7 -70.5
s-10.333 -53.333 -19 -76c-28 -76 -73.833 -134.167 -137.5 -174.5s-140.5 -60.5 -230.5 -60.5s-166.833 20.167 -230.5 60.5s-109.5 98.5 -137.5 174.5c-8.66699 22.667 -15 48 -19 76s-6.33301 51.5 -7 70.5s-1 46.167 -1 81.5v635z" />
    <glyph glyph-name="v" unicode="v" horiz-adv-x="990" 
d="M423 0l-363 1082h157l278 -890l278 890h157l-363 -1082h-144z" />
    <glyph glyph-name="w" unicode="w" horiz-adv-x="1408" 
d="M329 0l-259 1082h153l186 -834l222 834h146l222 -834l186 834h153l-259 -1082h-146l-229 856l-229 -856h-146z" />
    <glyph glyph-name="x" unicode="x" horiz-adv-x="950" 
d="M880 0h-169l-236 421l-236 -421h-169l320 545l-315 537h169l231 -413l231 413h169l-315 -537z" />
    <glyph glyph-name="y" unicode="y" horiz-adv-x="987" 
d="M94 -409l32.998 130c34 -9.33301 65.667 -14 95 -14c48 0 88 12.667 120 38c12.667 10 23.834 22.5 33.501 37.5s16.834 28.667 21.501 41s10.667 29.833 18 52.5l37 122l-392 1084h156l302 -885l256 885h153l-377 -1241c-13.333 -44 -27.833 -80.667 -43.5 -110
s-36.5 -55.333 -62.5 -78c-60 -53.333 -134 -80 -222 -80c-37.333 0 -80 6 -128 18z" />
    <glyph glyph-name="z" unicode="z" horiz-adv-x="880" 
d="M800 134v-134h-720v108l526 840h-519v134h704v-108l-526 -840h535z" />
    <glyph glyph-name="braceleft" unicode="{" horiz-adv-x="703" 
d="M264 541c104.667 -86 157 -208.333 157 -367c0 -24.667 -1.66699 -59.334 -5 -104.001s-5 -77 -5 -97c0 -154.667 54 -261 162 -319l-43 -98c-172.667 73.333 -259 212.333 -259 417c0 24.667 1.66699 59.334 5 104.001s5 77 5 97c0 156 -57 259.667 -171 311v112
c114 51.333 171 155 171 311c0 20 -1.66699 52.333 -5 97s-5 79.334 -5 104.001c0 204.667 86.333 343.667 259 417l43 -98c-108 -58 -162 -164.333 -162 -319c0 -20 1.66699 -52.333 5 -97s5 -79.334 5 -104.001c0 -158.667 -52.333 -281 -157 -367z" />
    <glyph glyph-name="bar" unicode="|" horiz-adv-x="492" 
d="M176 1538h140v-1994h-140v1994z" />
    <glyph glyph-name="braceright" unicode="}" horiz-adv-x="703" 
d="M439 541c-104.667 86 -157 208.333 -157 367c0 24.667 1.66699 59.334 5 104.001s5 77 5 97c0 154.667 -54 261 -162 319l43 98c172.667 -73.333 259 -212.333 259 -417c0 -24.667 -1.66699 -59.334 -5 -104.001s-5 -77 -5 -97c0 -156 57 -259.667 171 -311v-112
c-114 -51.333 -171 -155 -171 -311c0 -20 1.66699 -52.333 5 -97s5 -79.334 5 -104.001c0 -204.667 -86.333 -343.667 -259 -417l-43 98c108 58 162 164.333 162 319c0 20 -1.66699 52.333 -5 97s-5 79.334 -5 104.001c0 158.667 52.333 281 157 367z" />
    <glyph glyph-name="asciitilde" unicode="~" horiz-adv-x="1114" 
d="M376 678c39.333 0 77.5 -7.33301 114.5 -22s67.333 -30.667 91 -48s49.667 -33.333 78 -48s54.5 -22 78.5 -22c30 0 57.5 12 82.5 36s43.167 55.667 54.5 95l139 -44c-18.667 -63.333 -52.334 -116 -101.001 -158s-107 -63 -175 -63c-39.333 0 -77.5 7.33301 -114.5 22
s-67.333 30.667 -91 48s-49.667 33.333 -78 48s-54.5 22 -78.5 22c-30 0 -57.5 -12 -82.5 -36s-43.167 -55.667 -54.5 -95l-139 44c18.667 63.333 52.334 116 101.001 158s107 63 175 63z" />
    <glyph glyph-name="uni00A0" unicode="&#xa0;" horiz-adv-x="590" 
 />
    <glyph glyph-name="exclamdown" unicode="&#xa1;" horiz-adv-x="500" 
d="M250 798c-32.667 0 -59.167 10.167 -79.5 30.5s-30.5 46.833 -30.5 79.5s10.167 59.167 30.5 79.5s46.833 30.5 79.5 30.5s59.167 -10.167 79.5 -30.5s30.5 -46.833 30.5 -79.5s-10.167 -59.167 -30.5 -79.5s-46.833 -30.5 -79.5 -30.5zM172 -414l0.000976562 364.999
c0 71.333 1.66699 162.333 5 273s6.66602 203.334 9.99902 278.001l5 112h116c13.333 -282.667 20 -503.667 20 -663v-365h-156z" />
    <glyph glyph-name="cent" unicode="&#xa2;" horiz-adv-x="1019" 
d="M505 1282l100 0.00195312v-186c114 -10.667 217.333 -55 310 -133l-84 -106c-72.667 59.333 -148 94 -226 104v-840c94.667 11.333 174 52.333 238 123l100 -92c-88 -98.667 -200.667 -154 -338 -166v-206h-100v206c-69.333 6.66699 -131.333 25.667 -186 57
s-97.667 71.666 -129 120.999c-16.667 26.667 -30 54.167 -40 82.5s-17 60.666 -21 96.999s-6.5 66.5 -7.5 90.5s-1.5 59.667 -1.5 107c0 64.667 0.833008 113 2.5 145s7.66699 70 18 114s26.5 83 48.5 117c32 50 75 90.667 129 122s116.333 50.333 187 57v186zM505 121.002
l0.000976562 840c-87.333 -10 -151.333 -45.667 -192 -107c-24 -36 -38.833 -75.667 -44.5 -119s-8.5 -108 -8.5 -194c0 -57.333 0.666992 -99.5 2 -126.5s5.66602 -57.5 12.999 -91.5s19 -63.667 35 -89c40 -64 105 -101.667 195 -113z" />
    <glyph glyph-name="sterling" unicode="&#xa3;" horiz-adv-x="1014" 
d="M551 1435c115.333 0 214.335 -37.666 297.002 -112.999l-98 -108c-58.667 54 -125 81 -199 81c-66.667 0 -120.334 -20.833 -161.001 -62.5s-61 -97.834 -61 -168.501c0 -40.667 10.5 -102 31.5 -184s33.833 -134.667 38.5 -158h405v-124h-390
c1.33301 -11.333 2 -28.666 2 -51.999c0 -142.667 -33 -278 -99 -406h591v-140h-788v107c44.667 62.667 79.167 132 103.5 208s36.5 153 36.5 231c0 23.333 -0.666992 40.666 -2 51.999h-138v124h121c-5.33301 25.333 -14.5 61 -27.5 107s-23 87.167 -30 123.5
s-10.5 73.5 -10.5 111.5c0 110.667 36.167 200.167 108.5 268.5s162.166 102.5 269.499 102.5z" />
    <glyph glyph-name="currency" unicode="&#xa4;" horiz-adv-x="1170" 
d="M585 764c-63.333 0 -115 -19.833 -155 -59.5s-60 -94.167 -60 -163.5s20 -123.833 60 -163.5s91.667 -59.5 155 -59.5s115 19.833 155 59.5s60 94.167 60 163.5s-20 123.833 -60 163.5s-91.667 59.5 -155 59.5zM236 91l-101 101l145 145c-40 58.667 -60 126.667 -60 204
s20 145.333 60 204l-145 145l101 101l147 -147c59.333 36 126.666 54 201.999 54s142.666 -18 201.999 -54l147 147l101 -101l-145 -145c40 -58.667 60 -126.667 60 -204s-20 -145.333 -60 -204l145 -145l-101 -101l-147 147c-59.333 -36 -126.666 -54 -201.999 -54
s-142.666 18 -201.999 54z" />
    <glyph glyph-name="yen" unicode="&#xa5;" horiz-adv-x="1162" 
d="M80 1416h169l332 -744l332 744h169l-314 -671h194v-124h-255l-48 -95v-75h303v-124h-303v-327h-156v327h-303v124h303v75l-48 95h-255v124h194z" />
    <glyph glyph-name="brokenbar" unicode="&#xa6;" horiz-adv-x="492" 
d="M176 1538h140v-840h-140v840zM176 394h140v-850h-140v850z" />
    <glyph glyph-name="section" unicode="&#xa7;" horiz-adv-x="1001" 
d="M491 1490c114 0 224.328 -32.3369 330.995 -97.0039l-72 -118c-81.333 54 -167.666 81 -258.999 81c-55.333 0 -100.666 -14 -135.999 -42s-53 -66.667 -53 -116s16.667 -85.666 50 -108.999s78.333 -38.666 135 -45.999c34 -4.66699 60.833 -8.66699 80.5 -12
s42.667 -9.16602 69 -17.499s49.5 -18.5 69.5 -30.5c42.667 -25.333 77.667 -60.166 105 -104.499s41 -94.5 41 -150.5c0 -46 -11 -89.167 -33 -129.5s-54.667 -74.166 -98 -101.499c48 -25.333 85.833 -59.5 113.5 -102.5s41.5 -92.167 41.5 -147.5
c0 -66.667 -18.833 -125 -56.5 -175s-85.167 -86.833 -142.5 -110.5s-119.333 -35.5 -186 -35.5c-131.333 0 -260 37.333 -386 112l70 118c100 -64 205.333 -96 316 -96c66.667 0 122.5 16 167.5 48s67.5 78.333 67.5 139c0 58.667 -24 103.667 -72 135
c-30 19.333 -81.333 33.666 -154 42.999c-33.333 4 -57.666 7.16699 -72.999 9.5s-37.833 7.83301 -67.5 16.5s-56.167 19.667 -79.5 33c-43.333 24.667 -79.166 59 -107.499 103s-42.5 93.667 -42.5 149c0 53.333 13.833 100.333 41.5 141s63.834 73 108.501 97
c-85.333 54 -128 128.667 -128 224c0 86.667 32.5 157 97.5 211s145.5 81 241.5 81zM599.995 544.996c28.667 16 52.833 40.3301 72.5 72.9971s29.5 69.334 29.5 110.001c0 34.667 -8.16699 64.667 -24.5 90s-36.5 44.333 -60.5 57c-25.333 13.333 -65.5 23.5 -120.5 30.5
s-89.167 12.5 -102.5 16.5c-32 -17.333 -59 -42 -81 -74s-33 -69.333 -33 -112c0 -31.333 7.66699 -59.166 23 -83.499s35 -43.166 59 -56.499c19.333 -10.667 42.5 -19 69.5 -25s57.5 -10.833 91.5 -14.5s59.667 -7.5 77 -11.5z" />
    <glyph glyph-name="dieresis" unicode="&#xa8;" horiz-adv-x="810" 
d="M596 1435c27.333 0 49.833 -8.83301 67.5 -26.5s26.5 -40.167 26.5 -67.5s-8.83301 -49.833 -26.5 -67.5s-40.167 -26.5 -67.5 -26.5s-49.833 8.83301 -67.5 26.5s-26.5 40.167 -26.5 67.5s8.83301 49.833 26.5 67.5s40.167 26.5 67.5 26.5zM214 1435
c27.333 0 49.833 -8.83301 67.5 -26.5s26.5 -40.167 26.5 -67.5s-8.83301 -49.833 -26.5 -67.5s-40.167 -26.5 -67.5 -26.5s-49.833 8.83301 -67.5 26.5s-26.5 40.167 -26.5 67.5s8.83301 49.833 26.5 67.5s40.167 26.5 67.5 26.5z" />
    <glyph glyph-name="copyright" unicode="&#xa9;" horiz-adv-x="1564" 
d="M782 1448c247.333 0 425 -75 533 -225c26.667 -36.667 48.167 -76.834 64.5 -120.501s27.666 -91 33.999 -142s10.333 -92.833 12 -125.5s2.5 -75 2.5 -127s-0.833008 -94.333 -2.5 -127s-5.66699 -74.5 -12 -125.5s-17.666 -98.333 -33.999 -142
s-37.833 -83.834 -64.5 -120.501c-108 -150 -285.667 -225 -533 -225s-425 75 -533 225c-26.667 36.667 -48.167 76.834 -64.5 120.501s-27.666 91 -33.999 142s-10.333 92.833 -12 125.5s-2.5 75 -2.5 127s0.833008 94.333 2.5 127s5.66699 74.5 12 125.5
s17.666 98.333 33.999 142s37.833 83.834 64.5 120.501c108 150 285.667 225 533 225zM782 1348c-204.667 0 -351 -59.667 -439 -179c-21.333 -28.667 -39 -61.834 -53 -99.501s-23.667 -79 -29 -124s-8.83301 -84 -10.5 -117s-2.5 -73.167 -2.5 -120.5
s0.833008 -87.5 2.5 -120.5s5.16699 -72 10.5 -117s15 -86.333 29 -124s31.667 -70.834 53 -99.501c88 -119.333 234.333 -179 439 -179s351 59.667 439 179c21.333 28.667 39 61.834 53 99.501s23.667 79 29 124s8.83301 84 10.5 117s2.5 73.167 2.5 120.5
s-0.833008 87.5 -2.5 120.5s-5.16699 72 -10.5 117s-15 86.333 -29 124s-31.667 70.834 -53 99.501c-88 119.333 -234.333 179 -439 179zM1041 355c-74.667 -80.667 -167.333 -121.002 -278 -121.002c-68.667 0 -127.167 14.833 -175.5 44.5
s-85.166 70.834 -110.499 123.501c-12.667 26.667 -22.334 58.667 -29.001 96s-10.667 70.166 -12 98.499s-2 65.166 -2 110.499c0 140.667 13.333 241 40 301c23.333 52.667 60 94.834 110 126.501s109.667 47.5 179 47.5c94.667 0 178.667 -30.667 252 -92l-90 -106
c-52 42.667 -106 64 -162 64c-24.667 0 -46.334 -3.5 -65.001 -10.5s-34.334 -15.667 -47.001 -26s-23.334 -24.833 -32.001 -43.5s-15.167 -36.167 -19.5 -52.5s-7.83301 -38 -10.5 -65s-4.16699 -49.833 -4.5 -68.5s-0.5 -43.667 -0.5 -75s0.333008 -56.666 1 -75.999
s2.16699 -42.333 4.5 -69s5.83301 -48.167 10.5 -64.5s11.334 -33.666 20.001 -51.999s19.334 -32.5 32.001 -42.5s28.334 -18.333 47.001 -25s40 -10 64 -10c37.333 0 69.5 7.33301 96.5 22s53.833 35.667 80.5 63z" />
    <glyph glyph-name="ordfeminine" unicode="&#xaa;" horiz-adv-x="789" 
d="M232 895c0 -38.667 11.832 -68.834 35.499 -90.501s54.834 -32.5 93.501 -32.5c55.333 0 95.666 18 120.999 54c16 21.333 25.833 45.333 29.5 72s5.5 67.667 5.5 123h-79c-52.667 0 -89.667 -1.66699 -111 -5s-39.666 -11.666 -54.999 -24.999
c-26.667 -23.333 -40 -55.333 -40 -96zM516.999 1129c0 24.667 -0.333984 43.333 -1.00098 56s-3.33398 27.5 -8.00098 44.5s-12 31.167 -22 42.5c-24 28 -61.333 42 -112 42c-52 0 -108.667 -15.333 -170 -46l-52 108c74.667 37.333 148.667 56 222 56
c48 0 90.833 -8 128.5 -24s67.834 -38.333 90.501 -67c17.333 -22 30.333 -46.667 39 -74s13.667 -50.5 15 -69.5s2 -47.5 2 -85.5v-445h-132v80c-43.333 -62 -100.333 -93 -171 -93c-69.333 0 -127.666 22.167 -174.999 66.5s-71 102.5 -71 174.5
c0 70.667 25.667 127.667 77 171c24 20 50.833 34.833 80.5 44.5s55.667 15.167 78 16.5s56.5 2 102.5 2h79z" />
    <glyph glyph-name="guillemotleft" unicode="&#xab;" horiz-adv-x="942" 
d="M704 939l118 -72l-210 -328l210 -328l-118 -72l-244 400zM372 955l118 -72l-218 -344l218 -344l-118 -72l-252 416z" />
    <glyph glyph-name="logicalnot" unicode="&#xac;" horiz-adv-x="940" 
d="M120 608h700v-408h-150v274h-550v134z" />
    <glyph glyph-name="uni00AD" unicode="&#xad;" horiz-adv-x="820" 
d="M180 474v134h500v-134h-500z" />
    <glyph glyph-name="registered" unicode="&#xae;" horiz-adv-x="1564" 
d="M782 1448c247.333 0 425 -75 533 -225c26.667 -36.667 48.167 -76.834 64.5 -120.501s27.666 -91 33.999 -142s10.333 -92.833 12 -125.5s2.5 -75 2.5 -127s-0.833008 -94.333 -2.5 -127s-5.66699 -74.5 -12 -125.5s-17.666 -98.333 -33.999 -142
s-37.833 -83.834 -64.5 -120.501c-108 -150 -285.667 -225 -533 -225s-425 75 -533 225c-26.667 36.667 -48.167 76.834 -64.5 120.501s-27.666 91 -33.999 142s-10.333 92.833 -12 125.5s-2.5 75 -2.5 127s0.833008 94.333 2.5 127s5.66699 74.5 12 125.5
s17.666 98.333 33.999 142s37.833 83.834 64.5 120.501c108 150 285.667 225 533 225zM782 1348c-204.667 0 -351 -59.667 -439 -179c-21.333 -28.667 -39 -61.834 -53 -99.501s-23.667 -79 -29 -124s-8.83301 -84 -10.5 -117s-2.5 -73.167 -2.5 -120.5
s0.833008 -87.5 2.5 -120.5s5.16699 -72 10.5 -117s15 -86.333 29 -124s31.667 -70.834 53 -99.501c88 -119.333 234.333 -179 439 -179s351 59.667 439 179c21.333 28.667 39 61.834 53 99.501s23.667 79 29 124s8.83301 84 10.5 117s2.5 73.167 2.5 120.5
s-0.833008 87.5 -2.5 120.5s-5.16699 72 -10.5 117s-15 86.333 -29 124s-31.667 70.834 -53 99.501c-88 119.333 -234.333 179 -439 179zM658 713l38 -0.000976562c36 0 62.333 0.333008 79 1s34.667 3.33398 54 8.00098s36 11.667 50 21c38 27.333 57 69.333 57 126
c0 57.333 -19 99.666 -57 126.999c-18 12.667 -39.5 20.834 -64.5 24.501s-64.5 5.5 -118.5 5.5h-38v-313zM508 1160l187.999 -0.00292969c44 0 77.667 -0.666992 101 -2s51.833 -6.66602 85.5 -15.999s63.834 -23.333 90.501 -42c34.667 -24.667 62.167 -57 82.5 -97
s30.5 -84.667 30.5 -134c0 -55.333 -13.167 -105.666 -39.5 -150.999s-63.5 -78.666 -111.5 -99.999l168 -360h-162l-147 321h-136v-321h-150v902z" />
    <glyph glyph-name="macron" unicode="&#xaf;" horiz-adv-x="810" 
d="M120 1386h570v-134h-570v134z" />
    <glyph glyph-name="degree" unicode="&#xb0;" horiz-adv-x="692" 
d="M346 1393c-32.667 0 -59.834 -12 -81.501 -36s-32.5 -59 -32.5 -105s10.833 -81 32.5 -105s48.834 -36 81.501 -36s59.834 12 81.501 36s32.5 59 32.5 105s-10.833 81 -32.5 105s-48.834 36 -81.501 36zM346 1511c73.333 0 132.666 -25.333 177.999 -76
s68 -111.667 68 -183s-22.667 -132.333 -68 -183s-104.666 -76 -177.999 -76s-132.666 25.333 -177.999 76s-68 111.667 -68 183s22.667 132.333 68 183s104.666 76 177.999 76z" />
    <glyph glyph-name="plusminus" unicode="&#xb1;" 
d="M170 184v134h770v-134h-770zM160 664v134h315v233h150v-233h315v-134h-315v-243h-150v243h-315z" />
    <glyph glyph-name="uni00B2" unicode="&#xb2;" horiz-adv-x="746" 
d="M351 1605c74 0 136.667 -20.5 188 -61.5s77 -94.167 77 -159.5c0 -12.667 -0.833008 -24.5 -2.5 -35.5s-4.66699 -22 -9 -33l-11 -27c-3 -7 -8.66699 -16 -17 -27l-17.5 -23c-3.33301 -4.33301 -10.333 -12.666 -21 -24.999s-17.334 -20.166 -20.001 -23.499l-199 -233
h317v-118h-506v96l286 330c32.667 37.333 52.167 62.666 58.5 75.999s9.5 27.666 9.5 42.999c0 33.333 -12.5 58.833 -37.5 76.5s-56.833 26.5 -95.5 26.5c-52.667 0 -101 -18.333 -145 -55l-76 96c64.667 51.333 138.334 77 221.001 77z" />
    <glyph glyph-name="uni00B3" unicode="&#xb3;" horiz-adv-x="757" 
d="M647 1054c0 -70 -27.167 -125.334 -81.5 -166.001s-118.5 -61 -192.5 -61c-94 0 -175 28.667 -243 86l80 92c47.333 -40 101.666 -60 162.999 -60c40.667 0 74.5 9.5 101.5 28.5s40.5 45.833 40.5 80.5c0 38 -17 68.333 -51 91c-24 16 -80.333 24 -169 24l-1 118
c56 0 94 1.33301 114 4s38.667 10.334 56 23.001c24.667 18 37 43 37 75c0 31.333 -12.167 55.5 -36.5 72.5s-54.833 25.5 -91.5 25.5c-60 0 -114.333 -20.667 -163 -62l-76 96c70.667 56 150.334 84 239.001 84c72.667 0 134.167 -20 184.5 -60s75.5 -92 75.5 -156
c0 -67.333 -28.667 -120.333 -86 -159c66.667 -42 100 -100.667 100 -176z" />
    <glyph glyph-name="acute" unicode="&#xb4;" horiz-adv-x="563" 
d="M443 1496l-165 -274h-158l154 274h169z" />
    <glyph glyph-name="mu" unicode="&#xb5;" horiz-adv-x="1070" 
d="M160 1082l150 0.000976562v-586c0 -56.667 0.666992 -97.834 2 -123.501s5.83301 -54 13.5 -85s19.5 -57.5 35.5 -79.5c43.333 -60 108 -90 194 -90c88.667 0 154.334 30 197.001 90c15.333 21.333 26.666 47.5 33.999 78.5s11.5 59.5 12.5 85.5s1.5 67.333 1.5 124v586
h150v-586c0 -62 -0.833008 -108.5 -2.5 -139.5s-7.66699 -67.667 -18 -110s-26.5 -79.833 -48.5 -112.5c-30.667 -46 -72.5 -82.5 -125.5 -109.5s-113.167 -40.5 -180.5 -40.5c-106.667 0 -195 42.667 -265 128v-526h-150v1496z" />
    <glyph glyph-name="paragraph" unicode="&#xb6;" horiz-adv-x="1136" 
d="M800 1276h-206.001v-1276h-156v536c-91.333 21.333 -165.666 65.333 -222.999 132c-70 82.667 -105 182 -105 298c0 118 35 217.333 105 298c25.333 29.333 54.166 54 86.499 74s62.333 35 90 45s61.334 17.667 101.001 23s70.5 8.33301 92.5 9s53 1 93 1h278v-1416h-156
v1276z" />
    <glyph glyph-name="periodcentered" unicode="&#xb7;" horiz-adv-x="500" 
d="M270 651c32.667 0 59.167 -10.167 79.5 -30.5s30.5 -46.833 30.5 -79.5s-10.167 -59.167 -30.5 -79.5s-46.833 -30.5 -79.5 -30.5s-59.167 10.167 -79.5 30.5s-30.5 46.833 -30.5 79.5s10.167 59.167 30.5 79.5s46.833 30.5 79.5 30.5z" />
    <glyph glyph-name="cedilla" unicode="&#xb8;" horiz-adv-x="587" 
d="M194 -306c22 0 39.168 7.49902 51.501 22.499s18.5 33.5 18.5 55.5c0 42.667 -25 72.667 -75 90l39 138h124l-28 -97c22.667 -11.333 41.667 -28.166 57 -50.499s23 -49.5 23 -81.5c0 -60 -19.333 -108.5 -58 -145.5s-88 -55.5 -148 -55.5
c-24.667 0 -54.334 4.66699 -89.001 14l38 119c15.333 -6 31 -9 47 -9z" />
    <glyph glyph-name="uni00B9" unicode="&#xb9;" horiz-adv-x="538" 
d="M418 839h-132v600l-110 -58l-56 108l199 104h99v-754z" />
    <glyph glyph-name="ordmasculine" unicode="&#xba;" horiz-adv-x="844" 
d="M422 1314c-58.667 0 -102.334 -20 -131.001 -60c-17.333 -24 -28.166 -51.833 -32.499 -83.5s-6.5 -74.167 -6.5 -127.5c0 -36 0.5 -63.833 1.5 -83.5s4.5 -41.667 10.5 -66s15 -44.833 27 -61.5c28.667 -40 72.334 -60 131.001 -60s102.334 20 131.001 60
c17.333 24 28.166 51.833 32.499 83.5s6.5 74.167 6.5 127.5c0 36 -0.5 63.833 -1.5 83.5s-4.5 41.667 -10.5 66s-15 44.833 -27 61.5c-28.667 40 -72.334 60 -131.001 60zM422 1432c90 0 162.333 -28 217 -84c34.667 -35.333 57.5 -76.333 68.5 -123
s16.5 -107.334 16.5 -182.001s-5.5 -135.334 -16.5 -182.001s-33.833 -87.667 -68.5 -123c-54.667 -56 -127 -84 -217 -84s-162.333 28 -217 84c-34.667 35.333 -57.5 76.333 -68.5 123s-16.5 107.334 -16.5 182.001s5.5 135.334 16.5 182.001s33.833 87.667 68.5 123
c54.667 56 127 84 217 84z" />
    <glyph glyph-name="guillemotright" unicode="&#xbb;" horiz-adv-x="942" 
d="M218 139l-118 72l210 328l-210 328l118 72l244 -400zM550 123l-118 72l218 344l-218 344l118 72l252 -416z" />
    <glyph glyph-name="onequarter" unicode="&#xbc;" horiz-adv-x="1367" 
d="M1008 1360l108 -68l-768 -1216l-108 68zM1251 283v-118h-64v-165h-132v165h-357v83l260 506h140l-242 -471h199v164h132v-164h64zM428 662h-132v600l-110 -58l-56 108l199 104h99v-754z" />
    <glyph glyph-name="onehalf" unicode="&#xbd;" horiz-adv-x="1517" 
d="M1007 1360l108 -68l-768 -1216l-108 68zM1109 766c74 0 136.667 -20.5 188 -61.5s77 -94.167 77 -159.5c0 -12.667 -0.833008 -24.5 -2.5 -35.5s-4.66699 -22 -9 -33l-11 -27c-3 -7 -8.66699 -16 -17 -27l-17.5 -23c-3.33301 -4.33301 -10.333 -12.666 -21 -24.999
s-17.334 -20.166 -20.001 -23.499l-199 -233h317v-118h-506v96l286 330c32.667 37.333 52.167 62.666 58.5 75.999s9.5 27.666 9.5 42.999c0 33.333 -12.5 58.833 -37.5 76.5s-56.833 26.5 -95.5 26.5c-52.667 0 -101 -18.333 -145 -55l-76 96
c64.667 51.333 138.334 77 221.001 77zM428 663h-132v600l-110 -58l-56 108l199 104h99v-754z" />
    <glyph glyph-name="threequarters" unicode="&#xbe;" horiz-adv-x="1532" 
d="M1175 1360l108 -68l-768 -1216l-108 68zM1416 283v-118h-64v-165h-132v165h-357v83l260 506h140l-242 -471h199v164h132v-164h64zM660 877c0 -70 -27.167 -125.334 -81.5 -166.001s-118.5 -61 -192.5 -61c-94 0 -175 28.667 -243 86l80 92
c47.333 -40 101.666 -60 162.999 -60c40.667 0 74.5 9.5 101.5 28.5s40.5 45.833 40.5 80.5c0 38 -17 68.333 -51 91c-24 16 -80.333 24 -169 24l-1 118c56 0 94 1.33301 114 4s38.667 10.334 56 23.001c24.667 18 37 43 37 75c0 31.333 -12.167 55.5 -36.5 72.5
s-54.833 25.5 -91.5 25.5c-60 0 -114.333 -20.667 -163 -62l-76 96c70.667 56 150.334 84 239.001 84c72.667 0 134.167 -20 184.5 -60s75.5 -92 75.5 -156c0 -67.333 -28.667 -120.333 -86 -159c66.667 -42 100 -100.667 100 -176z" />
    <glyph glyph-name="questiondown" unicode="&#xbf;" horiz-adv-x="726" 
d="M455 798c-32.667 0 -59.167 10.167 -79.5 30.5s-30.5 46.833 -30.5 79.5s10.167 59.167 30.5 79.5s46.833 30.5 79.5 30.5s59.167 -10.167 79.5 -30.5s30.5 -46.833 30.5 -79.5s-10.167 -59.167 -30.5 -79.5s-46.833 -30.5 -79.5 -30.5zM698 -191l97.999 -100
c-97.333 -92.667 -211 -139 -341 -139c-115.333 0 -210 36 -284 108s-111 162.667 -111 272c0 80 24.667 153.667 74 221c18.667 25.333 55.334 59.333 110.001 102s88.667 75.667 102 99c16.667 28.667 28 56 34 82s9 59.667 9 101l1 60h130c0.666992 -23.333 1 -43 1 -59
c0 -57.333 -4.33301 -105.166 -13 -143.499s-26.334 -76.833 -53.001 -115.5c-12.667 -18.667 -28.167 -36.834 -46.5 -54.501s-40.166 -37 -65.499 -58s-43 -36.167 -53 -45.5c-53.333 -49.333 -80 -112 -80 -188c0 -72.667 22.167 -132 66.5 -178s103.833 -69 178.5 -69
c89.333 0 170.333 35 243 105z" />
    <glyph glyph-name="Agrave" unicode="&#xc0;" horiz-adv-x="1190" 
d="M381 1830h169l154 -274h-158zM830 482l-235 723l-235 -723h470zM520 1416h150l480 -1416h-163l-111 342h-562l-111 -342h-163z" />
    <glyph glyph-name="Aacute" unicode="&#xc1;" horiz-adv-x="1190" 
d="M807 1830l-165 -274h-158l154 274h169zM830 482l-235 723l-235 -723h470zM520 1416h150l480 -1416h-163l-111 342h-562l-111 -342h-163z" />
    <glyph glyph-name="Acircumflex" unicode="&#xc2;" horiz-adv-x="1190" 
d="M735 1556l-140 138l-140 -138h-171l258 274h106l258 -274h-171zM830 482l-235 723l-235 -723h470zM520 1416h150l480 -1416h-163l-111 342h-562l-111 -342h-163z" />
    <glyph glyph-name="Atilde" unicode="&#xc3;" horiz-adv-x="1190" 
d="M691 1680c32 0 61.667 23.333 89 70l115 -71c-20.667 -36 -48.5 -65.5 -83.5 -88.5s-75.167 -34.5 -120.5 -34.5c-29.333 0 -56.333 5 -81 15s-46 20 -64 30s-33.667 15 -47 15c-32 0 -61.667 -23.333 -89 -70l-115 71c20.667 36 48.5 65.5 83.5 88.5
s75.167 34.5 120.5 34.5c29.333 0 56.333 -5 81 -15s46 -20 64 -30s33.667 -15 47 -15zM830 482l-235 723l-235 -723h470zM520 1416h150l480 -1416h-163l-111 342h-562l-111 -342h-163z" />
    <glyph glyph-name="Adieresis" unicode="&#xc4;" horiz-adv-x="1190" 
d="M786 1769c27.333 0 49.833 -8.83301 67.5 -26.5s26.5 -40.167 26.5 -67.5s-8.83301 -49.833 -26.5 -67.5s-40.167 -26.5 -67.5 -26.5s-49.833 8.83301 -67.5 26.5s-26.5 40.167 -26.5 67.5s8.83301 49.833 26.5 67.5s40.167 26.5 67.5 26.5zM404 1769
c27.333 0 49.833 -8.83301 67.5 -26.5s26.5 -40.167 26.5 -67.5s-8.83301 -49.833 -26.5 -67.5s-40.167 -26.5 -67.5 -26.5s-49.833 8.83301 -67.5 26.5s-26.5 40.167 -26.5 67.5s8.83301 49.833 26.5 67.5s40.167 26.5 67.5 26.5zM830 482l-235 723l-235 -723h470z
M520 1416h150l480 -1416h-163l-111 342h-562l-111 -342h-163z" />
    <glyph glyph-name="Aring" unicode="&#xc5;" horiz-adv-x="1190" 
d="M595 1716c61.333 0 111.5 -19.5 150.5 -58.5s58.5 -87.167 58.5 -144.5c0 -38.667 -9.5 -74 -28.5 -106s-44.833 -56.333 -77.5 -73l452 -1334h-163l-111 342h-562l-111 -342h-163l452 1334c-32.667 16.667 -58.5 41 -77.5 73s-28.5 67.333 -28.5 106
c0 57.333 19.5 105.5 58.5 144.5s89.167 58.5 150.5 58.5zM595 1610c-27.333 0 -49.333 -8.33301 -66 -25s-25 -40.667 -25 -72s8.33301 -55.333 25 -72s38.667 -25 66 -25s49.333 8.33301 66 25s25 40.667 25 72s-8.33301 55.333 -25 72s-38.667 25 -66 25zM830 482
l-235 723l-235 -723h470z" />
    <glyph glyph-name="AE" unicode="&#xc6;" horiz-adv-x="1609" 
d="M809 1269l-378 -787h378v787zM30 0l690 1416h749v-140h-504v-484h434v-140h-434v-512h504v-140h-660v342h-445l-164 -342h-170z" />
    <glyph glyph-name="Ccedilla" unicode="&#xc7;" horiz-adv-x="1114" 
d="M522 -306c22 0 39.167 7.50195 51.5 22.502s18.5 33.5 18.5 55.5c0 42.667 -25 72.667 -75 90l35 123c-86.667 9.33301 -160.667 36.333 -222 81s-107.666 102 -138.999 172c-18 40 -31.833 88.833 -41.5 146.5s-15.334 108.667 -17.001 153s-2.5 101.166 -2.5 170.499
c0 106.667 3.83301 197.667 11.5 273s24.167 141 49.5 197c36.667 80 91.5 142.833 164.5 188.5s160.5 68.5 262.5 68.5c134.667 0 259.334 -40.333 374.001 -121l-80 -120c-94.667 67.333 -192.667 101 -294 101c-138.667 0 -232.667 -56.667 -282 -170
c-21.333 -48.667 -35 -106.334 -41 -173.001s-9 -148 -9 -244s3 -177.333 9 -244s19.667 -124.334 41 -173.001c49.333 -113.333 143.333 -170 282 -170c122.667 0 230.667 39.667 324 119l88 -116c-104.667 -82.667 -223 -129.667 -355 -141l-23 -80
c22.667 -11.333 41.667 -28.166 57 -50.499s23 -49.5 23 -81.5c0 -60 -19.333 -108.5 -58 -145.5s-88 -55.5 -148 -55.5c-24.667 0 -54.334 4.66699 -89.001 14l38 119c15.333 -6 31 -9 47 -9z" />
    <glyph glyph-name="Egrave" unicode="&#xc8;" 
d="M363 1830h169l154 -274h-158zM180 1416h780v-140h-624v-484h534v-140h-534v-512h624v-140h-780v1416z" />
    <glyph glyph-name="Eacute" unicode="&#xc9;" 
d="M789 1830l-165 -274h-158l154 274h169zM180 1416h780v-140h-624v-484h534v-140h-534v-512h624v-140h-780v1416z" />
    <glyph glyph-name="Ecircumflex" unicode="&#xca;" 
d="M717 1556l-140 138l-140 -138h-171l258 274h106l258 -274h-171zM180 1416h780v-140h-624v-484h534v-140h-534v-512h624v-140h-780v1416z" />
    <glyph glyph-name="Edieresis" unicode="&#xcb;" 
d="M768 1769c27.333 0 49.833 -8.83301 67.5 -26.5s26.5 -40.167 26.5 -67.5s-8.83301 -49.833 -26.5 -67.5s-40.167 -26.5 -67.5 -26.5s-49.833 8.83301 -67.5 26.5s-26.5 40.167 -26.5 67.5s8.83301 49.833 26.5 67.5s40.167 26.5 67.5 26.5zM386 1769
c27.333 0 49.833 -8.83301 67.5 -26.5s26.5 -40.167 26.5 -67.5s-8.83301 -49.833 -26.5 -67.5s-40.167 -26.5 -67.5 -26.5s-49.833 8.83301 -67.5 26.5s-26.5 40.167 -26.5 67.5s8.83301 49.833 26.5 67.5s40.167 26.5 67.5 26.5zM180 1416h780v-140h-624v-484h534v-140
h-534v-512h624v-140h-780v1416z" />
    <glyph glyph-name="Igrave" unicode="&#xcc;" horiz-adv-x="516" 
d="M44 1830h169l154 -274h-158zM336 1416v-1416h-156v1416h156z" />
    <glyph glyph-name="Iacute" unicode="&#xcd;" horiz-adv-x="516" 
d="M470 1830l-165 -274h-158l154 274h169zM336 1416v-1416h-156v1416h156z" />
    <glyph glyph-name="Icircumflex" unicode="&#xce;" horiz-adv-x="516" 
d="M398 1556l-140 138l-140 -138h-171l258 274h106l258 -274h-171zM336 1416v-1416h-156v1416h156z" />
    <glyph glyph-name="Idieresis" unicode="&#xcf;" horiz-adv-x="516" 
d="M449 1769c27.333 0 49.833 -8.83301 67.5 -26.5s26.5 -40.167 26.5 -67.5s-8.83301 -49.833 -26.5 -67.5s-40.167 -26.5 -67.5 -26.5s-49.833 8.83301 -67.5 26.5s-26.5 40.167 -26.5 67.5s8.83301 49.833 26.5 67.5s40.167 26.5 67.5 26.5zM67 1769
c27.333 0 49.833 -8.83301 67.5 -26.5s26.5 -40.167 26.5 -67.5s-8.83301 -49.833 -26.5 -67.5s-40.167 -26.5 -67.5 -26.5s-49.833 8.83301 -67.5 26.5s-26.5 40.167 -26.5 67.5s8.83301 49.833 26.5 67.5s40.167 26.5 67.5 26.5zM336 1416v-1416h-156v1416h156z" />
    <glyph glyph-name="Eth" unicode="&#xd0;" horiz-adv-x="1277" 
d="M80 652v139.998h160v624h359c100 0 176.333 -7.66699 229 -23c61.333 -18 113.833 -48.167 157.5 -90.5s77.834 -91.166 102.501 -146.499c18 -41.333 31.667 -90.833 41 -148.5s14.666 -105.5 15.999 -143.5s2 -90 2 -156s-0.666992 -118 -2 -156
s-6.66602 -85.833 -15.999 -143.5s-23 -107.167 -41 -148.5c-24.667 -55.333 -58.834 -104.166 -102.501 -146.499s-96.167 -72.5 -157.5 -90.5c-52.667 -15.333 -129 -23 -229 -23h-359v652h-160zM396 791.998h240v-140h-240v-512h203c34 0 60.833 0.333008 80.5 1
s44 3.83398 73 9.50098s52.833 13.834 71.5 24.501c23.333 13.333 44 30 62 50s32.833 39.833 44.5 59.5s21.5 44.667 29.5 75s14 56.666 18 78.999s7 52.166 9 89.499s3.16699 66.5 3.5 87.5s0.5 51.833 0.5 92.5s-0.166992 71.5 -0.5 92.5s-1.5 50.167 -3.5 87.5
s-5 67.166 -9 89.499s-10 48.666 -18 78.999s-17.833 55.333 -29.5 75s-26.5 39.5 -44.5 59.5s-38.667 36.667 -62 50c-18.667 10.667 -42.5 18.834 -71.5 24.501s-53.333 8.83398 -73 9.50098s-46.5 1 -80.5 1h-203v-484z" />
    <glyph glyph-name="Ntilde" unicode="&#xd1;" horiz-adv-x="1294" 
d="M743 1680c32 0 61.667 23.333 89 70l115 -71c-20.667 -36 -48.5 -65.5 -83.5 -88.5s-75.167 -34.5 -120.5 -34.5c-29.333 0 -56.333 5 -81 15s-46 20 -64 30s-33.667 15 -47 15c-32 0 -61.667 -23.333 -89 -70l-115 71c20.667 36 48.5 65.5 83.5 88.5
s75.167 34.5 120.5 34.5c29.333 0 56.333 -5 81 -15s46 -20 64 -30s33.667 -15 47 -15zM958 1416h156v-1416h-157l-621 1136v-1136h-156v1416h157l621 -1136v1136z" />
    <glyph glyph-name="Ograve" unicode="&#xd2;" horiz-adv-x="1256" 
d="M414 1830h169l154 -274h-158zM628 1435c104 0 193 -23 267 -69s129 -108 165 -186c20.667 -44 36.167 -96.667 46.5 -158s16.166 -112 17.499 -152s2 -94 2 -162s-0.666992 -122 -2 -162s-7.16602 -90.667 -17.499 -152s-25.833 -114 -46.5 -158
c-36 -78 -91 -140 -165 -186s-163 -69 -267 -69s-193 23 -267 69s-129 108 -165 186c-20.667 44 -36.167 96.667 -46.5 158s-16.166 112 -17.499 152s-2 94 -2 162s0.666992 122 2 162s7.16602 90.667 17.499 152s25.833 114 46.5 158c36 78 91 140 165 186s163 69 267 69z
M628 1295c-70.667 0 -130.334 -14.833 -179.001 -44.5s-85 -70.834 -109 -123.501c-16.667 -35.333 -29.167 -79.5 -37.5 -132.5s-13.166 -98.333 -14.499 -136s-2 -87.834 -2 -150.501s0.666992 -112.834 2 -150.501s6.16602 -83 14.499 -136s20.833 -97.167 37.5 -132.5
c24 -52.667 60.333 -93.834 109 -123.501s108.334 -44.5 179.001 -44.5s130.334 14.833 179.001 44.5s85 70.834 109 123.501c16.667 35.333 29.167 79.5 37.5 132.5s13.166 98.333 14.499 136s2 87.834 2 150.501s-0.666992 112.834 -2 150.501s-6.16602 83 -14.499 136
s-20.833 97.167 -37.5 132.5c-24 52.667 -60.333 93.834 -109 123.501s-108.334 44.5 -179.001 44.5z" />
    <glyph glyph-name="Oacute" unicode="&#xd3;" horiz-adv-x="1256" 
d="M840 1830l-165 -274h-158l154 274h169zM628 1435c104 0 193 -23 267 -69s129 -108 165 -186c20.667 -44 36.167 -96.667 46.5 -158s16.166 -112 17.499 -152s2 -94 2 -162s-0.666992 -122 -2 -162s-7.16602 -90.667 -17.499 -152s-25.833 -114 -46.5 -158
c-36 -78 -91 -140 -165 -186s-163 -69 -267 -69s-193 23 -267 69s-129 108 -165 186c-20.667 44 -36.167 96.667 -46.5 158s-16.166 112 -17.499 152s-2 94 -2 162s0.666992 122 2 162s7.16602 90.667 17.499 152s25.833 114 46.5 158c36 78 91 140 165 186s163 69 267 69z
M628 1295c-70.667 0 -130.334 -14.833 -179.001 -44.5s-85 -70.834 -109 -123.501c-16.667 -35.333 -29.167 -79.5 -37.5 -132.5s-13.166 -98.333 -14.499 -136s-2 -87.834 -2 -150.501s0.666992 -112.834 2 -150.501s6.16602 -83 14.499 -136s20.833 -97.167 37.5 -132.5
c24 -52.667 60.333 -93.834 109 -123.501s108.334 -44.5 179.001 -44.5s130.334 14.833 179.001 44.5s85 70.834 109 123.501c16.667 35.333 29.167 79.5 37.5 132.5s13.166 98.333 14.499 136s2 87.834 2 150.501s-0.666992 112.834 -2 150.501s-6.16602 83 -14.499 136
s-20.833 97.167 -37.5 132.5c-24 52.667 -60.333 93.834 -109 123.501s-108.334 44.5 -179.001 44.5z" />
    <glyph glyph-name="Ocircumflex" unicode="&#xd4;" horiz-adv-x="1256" 
d="M768 1556l-140 138l-140 -138h-171l258 274h106l258 -274h-171zM628 1435c104 0 193 -23 267 -69s129 -108 165 -186c20.667 -44 36.167 -96.667 46.5 -158s16.166 -112 17.499 -152s2 -94 2 -162s-0.666992 -122 -2 -162s-7.16602 -90.667 -17.499 -152
s-25.833 -114 -46.5 -158c-36 -78 -91 -140 -165 -186s-163 -69 -267 -69s-193 23 -267 69s-129 108 -165 186c-20.667 44 -36.167 96.667 -46.5 158s-16.166 112 -17.499 152s-2 94 -2 162s0.666992 122 2 162s7.16602 90.667 17.499 152s25.833 114 46.5 158
c36 78 91 140 165 186s163 69 267 69zM628 1295c-70.667 0 -130.334 -14.833 -179.001 -44.5s-85 -70.834 -109 -123.501c-16.667 -35.333 -29.167 -79.5 -37.5 -132.5s-13.166 -98.333 -14.499 -136s-2 -87.834 -2 -150.501s0.666992 -112.834 2 -150.501
s6.16602 -83 14.499 -136s20.833 -97.167 37.5 -132.5c24 -52.667 60.333 -93.834 109 -123.501s108.334 -44.5 179.001 -44.5s130.334 14.833 179.001 44.5s85 70.834 109 123.501c16.667 35.333 29.167 79.5 37.5 132.5s13.166 98.333 14.499 136s2 87.834 2 150.501
s-0.666992 112.834 -2 150.501s-6.16602 83 -14.499 136s-20.833 97.167 -37.5 132.5c-24 52.667 -60.333 93.834 -109 123.501s-108.334 44.5 -179.001 44.5z" />
    <glyph glyph-name="Otilde" unicode="&#xd5;" horiz-adv-x="1256" 
d="M724 1680c32 0 61.667 23.333 89 70l115 -71c-20.667 -36 -48.5 -65.5 -83.5 -88.5s-75.167 -34.5 -120.5 -34.5c-29.333 0 -56.333 5 -81 15s-46 20 -64 30s-33.667 15 -47 15c-32 0 -61.667 -23.333 -89 -70l-115 71c20.667 36 48.5 65.5 83.5 88.5
s75.167 34.5 120.5 34.5c29.333 0 56.333 -5 81 -15s46 -20 64 -30s33.667 -15 47 -15zM628 1435c104 0 193 -23 267 -69s129 -108 165 -186c20.667 -44 36.167 -96.667 46.5 -158s16.166 -112 17.499 -152s2 -94 2 -162s-0.666992 -122 -2 -162
s-7.16602 -90.667 -17.499 -152s-25.833 -114 -46.5 -158c-36 -78 -91 -140 -165 -186s-163 -69 -267 -69s-193 23 -267 69s-129 108 -165 186c-20.667 44 -36.167 96.667 -46.5 158s-16.166 112 -17.499 152s-2 94 -2 162s0.666992 122 2 162s7.16602 90.667 17.499 152
s25.833 114 46.5 158c36 78 91 140 165 186s163 69 267 69zM628 1295c-70.667 0 -130.334 -14.833 -179.001 -44.5s-85 -70.834 -109 -123.501c-16.667 -35.333 -29.167 -79.5 -37.5 -132.5s-13.166 -98.333 -14.499 -136s-2 -87.834 -2 -150.501
s0.666992 -112.834 2 -150.501s6.16602 -83 14.499 -136s20.833 -97.167 37.5 -132.5c24 -52.667 60.333 -93.834 109 -123.501s108.334 -44.5 179.001 -44.5s130.334 14.833 179.001 44.5s85 70.834 109 123.501c16.667 35.333 29.167 79.5 37.5 132.5
s13.166 98.333 14.499 136s2 87.834 2 150.501s-0.666992 112.834 -2 150.501s-6.16602 83 -14.499 136s-20.833 97.167 -37.5 132.5c-24 52.667 -60.333 93.834 -109 123.501s-108.334 44.5 -179.001 44.5z" />
    <glyph glyph-name="Odieresis" unicode="&#xd6;" horiz-adv-x="1256" 
d="M819 1769c27.333 0 49.833 -8.83301 67.5 -26.5s26.5 -40.167 26.5 -67.5s-8.83301 -49.833 -26.5 -67.5s-40.167 -26.5 -67.5 -26.5s-49.833 8.83301 -67.5 26.5s-26.5 40.167 -26.5 67.5s8.83301 49.833 26.5 67.5s40.167 26.5 67.5 26.5zM437 1769
c27.333 0 49.833 -8.83301 67.5 -26.5s26.5 -40.167 26.5 -67.5s-8.83301 -49.833 -26.5 -67.5s-40.167 -26.5 -67.5 -26.5s-49.833 8.83301 -67.5 26.5s-26.5 40.167 -26.5 67.5s8.83301 49.833 26.5 67.5s40.167 26.5 67.5 26.5zM628 1435c104 0 193 -23 267 -69
s129 -108 165 -186c20.667 -44 36.167 -96.667 46.5 -158s16.166 -112 17.499 -152s2 -94 2 -162s-0.666992 -122 -2 -162s-7.16602 -90.667 -17.499 -152s-25.833 -114 -46.5 -158c-36 -78 -91 -140 -165 -186s-163 -69 -267 -69s-193 23 -267 69s-129 108 -165 186
c-20.667 44 -36.167 96.667 -46.5 158s-16.166 112 -17.499 152s-2 94 -2 162s0.666992 122 2 162s7.16602 90.667 17.499 152s25.833 114 46.5 158c36 78 91 140 165 186s163 69 267 69zM628 1295c-70.667 0 -130.334 -14.833 -179.001 -44.5s-85 -70.834 -109 -123.501
c-16.667 -35.333 -29.167 -79.5 -37.5 -132.5s-13.166 -98.333 -14.499 -136s-2 -87.834 -2 -150.501s0.666992 -112.834 2 -150.501s6.16602 -83 14.499 -136s20.833 -97.167 37.5 -132.5c24 -52.667 60.333 -93.834 109 -123.501s108.334 -44.5 179.001 -44.5
s130.334 14.833 179.001 44.5s85 70.834 109 123.501c16.667 35.333 29.167 79.5 37.5 132.5s13.166 98.333 14.499 136s2 87.834 2 150.501s-0.666992 112.834 -2 150.501s-6.16602 83 -14.499 136s-20.833 97.167 -37.5 132.5c-24 52.667 -60.333 93.834 -109 123.501
s-108.334 44.5 -179.001 44.5z" />
    <glyph glyph-name="multiply" unicode="&#xd7;" horiz-adv-x="1010" 
d="M860 279l-93 -93l-262 262l-262 -262l-93 93l262 262l-262 262l93 93l262 -262l262 262l93 -93l-262 -262z" />
    <glyph glyph-name="Oslash" unicode="&#xd8;" horiz-adv-x="1258" 
d="M241 -64l-112 68.002l102 169c-23.333 34 -42.333 72.5 -57 115.5s-24.834 90.667 -30.501 143s-9.33398 97.166 -11.001 134.499s-2.5 84.666 -2.5 141.999c0 68 0.666992 122 2 162s7.16602 90.667 17.499 152s25.833 114 46.5 158c36 78 91 140 165 186s163 69 267 69
c120.667 0 222.334 -31.667 305.001 -95l84 140l112 -68l-103 -171c23.333 -32.667 42.333 -70.334 57 -113.001s24.834 -90.667 30.501 -144s9.16699 -98.166 10.5 -134.499s2 -83.5 2 -141.5c0 -68 -0.666992 -122 -2 -162s-7.16602 -90.667 -17.499 -152
s-25.833 -114 -46.5 -158c-36 -78 -91 -140 -165 -186s-163 -69 -267 -69c-120.667 0 -222 31.333 -304 94zM628 1295c-70.667 0 -130.334 -14.8301 -179.001 -44.4971s-85 -70.834 -109 -123.501c-16.667 -35.333 -29.167 -79.5 -37.5 -132.5s-13.166 -98.333 -14.499 -136
s-2 -87.834 -2 -150.501c0 -55.333 0.5 -100 1.5 -134s4.5 -74.833 10.5 -122.5s15 -88.834 27 -123.501l531 884c-56.667 55.333 -132.667 83 -228 83zM932 1086l-531.001 -883.002c56.667 -54.667 132.334 -82 227.001 -82c70.667 0 130.334 14.833 179.001 44.5
s85 70.834 109 123.501c16.667 35.333 29.167 79.5 37.5 132.5s13.166 98.333 14.499 136s2 87.834 2 150.501c0 54.667 -0.5 99 -1.5 133s-4.5 74.667 -10.5 122s-14.667 88.333 -26 123z" />
    <glyph glyph-name="Ugrave" unicode="&#xd9;" horiz-adv-x="1236" 
d="M404 1830h169l154 -274h-158zM160 1416h156v-901c0 -97.333 6.66699 -165.666 20 -204.999c22.667 -66 60.5 -114 113.5 -144s109.167 -45 168.5 -45s115.5 15 168.5 45s90.833 78 113.5 144c13.333 39.333 20 107.666 20 204.999v901h156v-901
c0 -38.667 -0.333008 -68.167 -1 -88.5s-3 -45.333 -7 -75s-10 -56.834 -18 -81.501c-22 -66.667 -55.833 -122.167 -101.5 -166.5s-96 -75.833 -151 -94.5s-114.833 -28 -179.5 -28s-124.5 9.33301 -179.5 28s-105.333 50.167 -151 94.5s-79.5 99.833 -101.5 166.5
c-8 24.667 -14 51.834 -18 81.501s-6.33301 54.667 -7 75s-1 49.833 -1 88.5v901z" />
    <glyph glyph-name="Uacute" unicode="&#xda;" horiz-adv-x="1236" 
d="M830 1830l-165 -274h-158l154 274h169zM160 1416h156v-901c0 -97.333 6.66699 -165.666 20 -204.999c22.667 -66 60.5 -114 113.5 -144s109.167 -45 168.5 -45s115.5 15 168.5 45s90.833 78 113.5 144c13.333 39.333 20 107.666 20 204.999v901h156v-901
c0 -38.667 -0.333008 -68.167 -1 -88.5s-3 -45.333 -7 -75s-10 -56.834 -18 -81.501c-22 -66.667 -55.833 -122.167 -101.5 -166.5s-96 -75.833 -151 -94.5s-114.833 -28 -179.5 -28s-124.5 9.33301 -179.5 28s-105.333 50.167 -151 94.5s-79.5 99.833 -101.5 166.5
c-8 24.667 -14 51.834 -18 81.501s-6.33301 54.667 -7 75s-1 49.833 -1 88.5v901z" />
    <glyph glyph-name="Ucircumflex" unicode="&#xdb;" horiz-adv-x="1236" 
d="M758 1556l-140 138l-140 -138h-171l258 274h106l258 -274h-171zM160 1416h156v-901c0 -97.333 6.66699 -165.666 20 -204.999c22.667 -66 60.5 -114 113.5 -144s109.167 -45 168.5 -45s115.5 15 168.5 45s90.833 78 113.5 144c13.333 39.333 20 107.666 20 204.999v901
h156v-901c0 -38.667 -0.333008 -68.167 -1 -88.5s-3 -45.333 -7 -75s-10 -56.834 -18 -81.501c-22 -66.667 -55.833 -122.167 -101.5 -166.5s-96 -75.833 -151 -94.5s-114.833 -28 -179.5 -28s-124.5 9.33301 -179.5 28s-105.333 50.167 -151 94.5
s-79.5 99.833 -101.5 166.5c-8 24.667 -14 51.834 -18 81.501s-6.33301 54.667 -7 75s-1 49.833 -1 88.5v901z" />
    <glyph glyph-name="Udieresis" unicode="&#xdc;" horiz-adv-x="1236" 
d="M809 1769c27.333 0 49.833 -8.83301 67.5 -26.5s26.5 -40.167 26.5 -67.5s-8.83301 -49.833 -26.5 -67.5s-40.167 -26.5 -67.5 -26.5s-49.833 8.83301 -67.5 26.5s-26.5 40.167 -26.5 67.5s8.83301 49.833 26.5 67.5s40.167 26.5 67.5 26.5zM427 1769
c27.333 0 49.833 -8.83301 67.5 -26.5s26.5 -40.167 26.5 -67.5s-8.83301 -49.833 -26.5 -67.5s-40.167 -26.5 -67.5 -26.5s-49.833 8.83301 -67.5 26.5s-26.5 40.167 -26.5 67.5s8.83301 49.833 26.5 67.5s40.167 26.5 67.5 26.5zM160 1416h156v-901
c0 -97.333 6.66699 -165.666 20 -204.999c22.667 -66 60.5 -114 113.5 -144s109.167 -45 168.5 -45s115.5 15 168.5 45s90.833 78 113.5 144c13.333 39.333 20 107.666 20 204.999v901h156v-901c0 -38.667 -0.333008 -68.167 -1 -88.5s-3 -45.333 -7 -75
s-10 -56.834 -18 -81.501c-22 -66.667 -55.833 -122.167 -101.5 -166.5s-96 -75.833 -151 -94.5s-114.833 -28 -179.5 -28s-124.5 9.33301 -179.5 28s-105.333 50.167 -151 94.5s-79.5 99.833 -101.5 166.5c-8 24.667 -14 51.834 -18 81.501s-6.33301 54.667 -7 75
s-1 49.833 -1 88.5v901z" />
    <glyph glyph-name="Yacute" unicode="&#xdd;" horiz-adv-x="1082" 
d="M753 1830l-165 -274h-158l154 274h169zM40 1416h169l332 -744l332 744h169l-423 -910v-506h-156v506z" />
    <glyph glyph-name="Thorn" unicode="&#xde;" horiz-adv-x="1146" 
d="M180 1416h156v-210h146c96.667 0 167.667 -5.33301 213 -16c103.333 -24.667 184.333 -77 243 -157s88 -172.333 88 -277s-29.333 -197 -88 -277s-139.667 -132.333 -243 -157c-45.333 -10.667 -116.333 -16 -213 -16h-146v-306h-156v1416zM336 1066v-619.998h146
c36.667 0 63.834 0.166992 81.501 0.5s38.167 2.16602 61.5 5.49902s44 8.33301 62 15c60 22 105.5 59.833 136.5 113.5s46.5 112.167 46.5 175.5s-15.5 121.833 -46.5 175.5s-76.5 91.5 -136.5 113.5c-18 6.66699 -38.667 11.667 -62 15s-43.833 5.16602 -61.5 5.49902
s-44.834 0.5 -81.501 0.5h-146z" />
    <glyph glyph-name="germandbls" unicode="&#xdf;" horiz-adv-x="1130" 
d="M515 1462c103.333 0 188.334 -33.0039 255.001 -99.0039s100 -148.667 100 -248c0 -106 -35.333 -188.333 -106 -247c86.667 -34 149.334 -86 188.001 -156s58 -160 58 -270c0 -128 -28 -230 -84 -306c-34 -46.667 -79.667 -83.667 -137 -111s-122 -41 -194 -41
c-38 0 -80 4 -126 12l22 132c35.333 -6.66699 70 -10 104 -10c91.333 0 159.666 30.667 204.999 92c40 54.667 60 132 60 232c0 122.667 -27 209.667 -81 261c-24 22.667 -51.5 39.334 -82.5 50.001s-59.333 16.834 -85 18.501s-66.167 2.5 -121.5 2.5v134
c26.667 0 47 0.5 61 1.5s31 5 51 12s38.333 17.833 55 32.5c19.333 16.667 34.666 39.167 45.999 67.5s17 59.5 17 93.5c0 63.333 -18.833 114.666 -56.5 153.999s-87.167 59 -148.5 59c-64.667 0 -116.667 -22.667 -156 -68c-15.333 -17.333 -26.833 -38.666 -34.5 -63.999
s-12 -47.666 -13 -66.999s-1.5 -48.333 -1.5 -87v-1042h-150v1042c0 46.667 1 82.834 3 108.501s9.16699 56.5 21.5 92.5s30.833 68.667 55.5 98c30.667 36.667 70 66 118 88s100.333 33 157 33z" />
    <glyph glyph-name="agrave" unicode="&#xe0;" horiz-adv-x="1020" 
d="M271 1496h169l154 -274h-158zM250 321c0 -56.667 18.8311 -104.666 56.498 -143.999s90.5 -59 158.5 -59c54.667 0 103.334 13.333 146.001 40s72.667 67 90 121c6 19.333 10.5 41.666 13.5 66.999s4.66699 49.166 5 71.499s0.5 58.833 0.5 109.5h-145
c-96 0 -159.333 -4.66699 -190 -14c-43.333 -13.333 -76.666 -37.166 -99.999 -71.499s-35 -74.5 -35 -120.5zM869.998 651.001l-0.00195312 -651.001h-150v115c-76 -87.333 -167.667 -131 -275 -131c-101.333 0 -184.166 32.167 -248.499 96.5s-96.5 144.5 -96.5 240.5
c0 72 20.5 135.833 61.5 191.5s98.833 94.834 173.5 117.501c22 6.66699 46.333 11.667 73 15s50 5.16602 70 5.49902s50.333 0.5 91 0.5h151c0 53.333 -0.833008 91.5 -2.5 114.5s-6.16699 44.167 -13.5 63.5c-16.667 44.667 -44.667 78.334 -84 101.001
s-84.333 34 -135 34c-74 0 -161.667 -24.333 -263 -73l-57 124c121.333 55.333 228 83 320 83c88.667 0 166.334 -21.333 233.001 -64s112 -103.667 136 -183c10.667 -35.333 16 -102 16 -200z" />
    <glyph glyph-name="aacute" unicode="&#xe1;" horiz-adv-x="1020" 
d="M697 1496l-165 -274h-158l154 274h169zM250 321c0 -56.667 18.8311 -104.666 56.498 -143.999s90.5 -59 158.5 -59c54.667 0 103.334 13.333 146.001 40s72.667 67 90 121c6 19.333 10.5 41.666 13.5 66.999s4.66699 49.166 5 71.499s0.5 58.833 0.5 109.5h-145
c-96 0 -159.333 -4.66699 -190 -14c-43.333 -13.333 -76.666 -37.166 -99.999 -71.499s-35 -74.5 -35 -120.5zM869.998 651.001l-0.00195312 -651.001h-150v115c-76 -87.333 -167.667 -131 -275 -131c-101.333 0 -184.166 32.167 -248.499 96.5s-96.5 144.5 -96.5 240.5
c0 72 20.5 135.833 61.5 191.5s98.833 94.834 173.5 117.501c22 6.66699 46.333 11.667 73 15s50 5.16602 70 5.49902s50.333 0.5 91 0.5h151c0 53.333 -0.833008 91.5 -2.5 114.5s-6.16699 44.167 -13.5 63.5c-16.667 44.667 -44.667 78.334 -84 101.001
s-84.333 34 -135 34c-74 0 -161.667 -24.333 -263 -73l-57 124c121.333 55.333 228 83 320 83c88.667 0 166.334 -21.333 233.001 -64s112 -103.667 136 -183c10.667 -35.333 16 -102 16 -200z" />
    <glyph glyph-name="acircumflex" unicode="&#xe2;" horiz-adv-x="1020" 
d="M625 1222l-140 138l-140 -138h-171l258 274h106l258 -274h-171zM250 321c0 -56.667 18.8311 -104.666 56.498 -143.999s90.5 -59 158.5 -59c54.667 0 103.334 13.333 146.001 40s72.667 67 90 121c6 19.333 10.5 41.666 13.5 66.999s4.66699 49.166 5 71.499
s0.5 58.833 0.5 109.5h-145c-96 0 -159.333 -4.66699 -190 -14c-43.333 -13.333 -76.666 -37.166 -99.999 -71.499s-35 -74.5 -35 -120.5zM869.998 651.001l-0.00195312 -651.001h-150v115c-76 -87.333 -167.667 -131 -275 -131c-101.333 0 -184.166 32.167 -248.499 96.5
s-96.5 144.5 -96.5 240.5c0 72 20.5 135.833 61.5 191.5s98.833 94.834 173.5 117.501c22 6.66699 46.333 11.667 73 15s50 5.16602 70 5.49902s50.333 0.5 91 0.5h151c0 53.333 -0.833008 91.5 -2.5 114.5s-6.16699 44.167 -13.5 63.5
c-16.667 44.667 -44.667 78.334 -84 101.001s-84.333 34 -135 34c-74 0 -161.667 -24.333 -263 -73l-57 124c121.333 55.333 228 83 320 83c88.667 0 166.334 -21.333 233.001 -64s112 -103.667 136 -183c10.667 -35.333 16 -102 16 -200z" />
    <glyph glyph-name="atilde" unicode="&#xe3;" horiz-adv-x="1020" 
d="M581 1346c32 0 61.667 23.333 89 70l115 -71c-20.667 -36 -48.5 -65.5 -83.5 -88.5s-75.167 -34.5 -120.5 -34.5c-29.333 0 -56.333 5 -81 15s-46 20 -64 30s-33.667 15 -47 15c-32 0 -61.667 -23.333 -89 -70l-115 71c20.667 36 48.5 65.5 83.5 88.5
s75.167 34.5 120.5 34.5c29.333 0 56.333 -5 81 -15s46 -20 64 -30s33.667 -15 47 -15zM250 321c0 -56.667 18.8311 -104.666 56.498 -143.999s90.5 -59 158.5 -59c54.667 0 103.334 13.333 146.001 40s72.667 67 90 121c6 19.333 10.5 41.666 13.5 66.999
s4.66699 49.166 5 71.499s0.5 58.833 0.5 109.5h-145c-96 0 -159.333 -4.66699 -190 -14c-43.333 -13.333 -76.666 -37.166 -99.999 -71.499s-35 -74.5 -35 -120.5zM869.998 651.001l-0.00195312 -651.001h-150v115c-76 -87.333 -167.667 -131 -275 -131
c-101.333 0 -184.166 32.167 -248.499 96.5s-96.5 144.5 -96.5 240.5c0 72 20.5 135.833 61.5 191.5s98.833 94.834 173.5 117.501c22 6.66699 46.333 11.667 73 15s50 5.16602 70 5.49902s50.333 0.5 91 0.5h151c0 53.333 -0.833008 91.5 -2.5 114.5
s-6.16699 44.167 -13.5 63.5c-16.667 44.667 -44.667 78.334 -84 101.001s-84.333 34 -135 34c-74 0 -161.667 -24.333 -263 -73l-57 124c121.333 55.333 228 83 320 83c88.667 0 166.334 -21.333 233.001 -64s112 -103.667 136 -183c10.667 -35.333 16 -102 16 -200z" />
    <glyph glyph-name="adieresis" unicode="&#xe4;" horiz-adv-x="1020" 
d="M676 1435c27.333 0 49.833 -8.83301 67.5 -26.5s26.5 -40.167 26.5 -67.5s-8.83301 -49.833 -26.5 -67.5s-40.167 -26.5 -67.5 -26.5s-49.833 8.83301 -67.5 26.5s-26.5 40.167 -26.5 67.5s8.83301 49.833 26.5 67.5s40.167 26.5 67.5 26.5zM294 1435
c27.333 0 49.833 -8.83301 67.5 -26.5s26.5 -40.167 26.5 -67.5s-8.83301 -49.833 -26.5 -67.5s-40.167 -26.5 -67.5 -26.5s-49.833 8.83301 -67.5 26.5s-26.5 40.167 -26.5 67.5s8.83301 49.833 26.5 67.5s40.167 26.5 67.5 26.5zM250 321
c0 -56.667 18.8311 -104.666 56.498 -143.999s90.5 -59 158.5 -59c54.667 0 103.334 13.333 146.001 40s72.667 67 90 121c6 19.333 10.5 41.666 13.5 66.999s4.66699 49.166 5 71.499s0.5 58.833 0.5 109.5h-145c-96 0 -159.333 -4.66699 -190 -14
c-43.333 -13.333 -76.666 -37.166 -99.999 -71.499s-35 -74.5 -35 -120.5zM869.998 651.001l-0.00195312 -651.001h-150v115c-76 -87.333 -167.667 -131 -275 -131c-101.333 0 -184.166 32.167 -248.499 96.5s-96.5 144.5 -96.5 240.5c0 72 20.5 135.833 61.5 191.5
s98.833 94.834 173.5 117.501c22 6.66699 46.333 11.667 73 15s50 5.16602 70 5.49902s50.333 0.5 91 0.5h151c0 53.333 -0.833008 91.5 -2.5 114.5s-6.16699 44.167 -13.5 63.5c-16.667 44.667 -44.667 78.334 -84 101.001s-84.333 34 -135 34
c-74 0 -161.667 -24.333 -263 -73l-57 124c121.333 55.333 228 83 320 83c88.667 0 166.334 -21.333 233.001 -64s112 -103.667 136 -183c10.667 -35.333 16 -102 16 -200z" />
    <glyph glyph-name="aring" unicode="&#xe5;" horiz-adv-x="1020" 
d="M485 1398c61.333 0 111.499 -19.5049 150.499 -58.5049s58.5 -87.167 58.5 -144.5c0 -48.667 -17.667 -91.667 -53 -129c50 -13.333 94 -39.166 132 -77.499s65 -84.166 81 -137.499c10.667 -35.333 16 -102 16 -200v-651h-150v115c-76 -87.333 -167.667 -131 -275 -131
c-101.333 0 -184.166 32.167 -248.499 96.5s-96.5 144.5 -96.5 240.5c0 72 20.5 135.833 61.5 191.5s98.833 94.834 173.5 117.501c22 6.66699 46.333 11.667 73 15s50 5.16602 70 5.49902s50.333 0.5 91 0.5h151c0 53.333 -0.833008 91.5 -2.5 114.5
s-6.16699 44.167 -13.5 63.5c-16.667 44.667 -44.667 78.334 -84 101.001s-84.333 34 -135 34c-74 0 -161.667 -24.333 -263 -73l-57 124l36 15l42.5 17.5c9 3.66699 21.5 7.83398 37.5 12.501s30.667 8.33398 44 11.001c-32.667 36 -49 77.333 -49 124
c0 57.333 19.5 105.5 58.5 144.5s89.167 58.5 150.5 58.5zM484.999 1292c-27.333 0 -49.333 -8.33301 -66 -25s-25 -40.667 -25 -72s8.33301 -55.333 25 -72s38.667 -25 66 -25s49.333 8.33301 66 25s25 40.667 25 72s-8.33301 55.333 -25 72s-38.667 25 -66 25z
M249.999 320.995c0 -56.667 18.8311 -104.666 56.498 -143.999s90.5 -59 158.5 -59c54.667 0 103.334 13.333 146.001 40s72.667 67 90 121c6 19.333 10.5 41.666 13.5 66.999s4.66699 49.166 5 71.499s0.5 58.833 0.5 109.5h-145c-96 0 -159.333 -4.66699 -190 -14
c-43.333 -13.333 -76.666 -37.166 -99.999 -71.499s-35 -74.5 -35 -120.5z" />
    <glyph glyph-name="ae" unicode="&#xe6;" horiz-adv-x="1610" 
d="M250 321c0 -66.667 21 -117.998 63 -153.998c36.667 -32.667 84 -49 142 -49c42 0 79.667 8 113 24s59.333 37.667 78 65c26 37.333 42.5 77.166 49.5 119.499s10.5 109.166 10.5 200.499h-181c-55.333 0 -98 -3 -128 -9s-57.667 -19.667 -83 -41
c-42.667 -36.667 -64 -88.667 -64 -156zM706 651.002c0 59.333 -2.49805 103.666 -7.49805 132.999s-15.833 57.333 -32.5 84c-18.667 31.333 -44.834 55.166 -78.501 71.499s-71.167 24.5 -112.5 24.5c-65.333 0 -149 -24 -251 -72l-59 123c108 55.333 211.333 83 310 83
c72 0 135.167 -14.833 189.5 -44.5s94.833 -71.167 121.5 -124.5c28 51.333 69 92.333 123 123s115.333 46 184 46c72 0 137 -16.667 195 -50s103 -76 135 -128c27.333 -44.667 45.333 -92.167 54 -142.5s13 -116.5 13 -198.5v-70h-640
c0 -69.333 3.16699 -126.166 9.5 -170.499s20.5 -83.5 42.5 -117.5c42.667 -68.667 113.667 -103 213 -103c82.667 0 175 24.333 277 73l59 -123c-118.667 -56 -230.667 -84 -336 -84c-76.667 0 -143.5 15.167 -200.5 45.5s-102.167 73.5 -135.5 129.5
c-32 -55.333 -75.833 -98.333 -131.5 -129s-119.834 -46 -192.501 -46c-99.333 0 -182 29.667 -248 89c-71.333 64.667 -107 147.334 -107 248.001c0 49.333 9.5 94.833 28.5 136.5s44.5 76.5 76.5 104.5c24 21.333 49.667 38.5 77 51.5s56.833 22 88.5 27s57.167 8 76.5 9
s45.333 1.5 78 1.5h181zM851.002 633.002l488.999 0.000976562c0 102 -18 179 -54 231c-46 66.667 -110.333 100 -193 100s-146 -33.667 -190 -101c-33.333 -50.667 -50.666 -127.334 -51.999 -230.001z" />
    <glyph glyph-name="ccedilla" unicode="&#xe7;" horiz-adv-x="964" 
d="M439 -306c22 0 39.168 7.50195 51.501 22.502s18.5 33.5 18.5 55.5c0 42.667 -25 72.667 -75 90l36 127c-61.333 8.66699 -116 29 -164 61s-85.333 71 -112 117c-21.333 37.333 -37.333 78.5 -48 123.5s-16.834 84 -18.501 117s-2.5 79.5 -2.5 139.5
c0 52 0.833008 93.833 2.5 125.5s7.83398 71.167 18.501 118.5s26.667 88.666 48 123.999c32.667 54.667 78.5 98.834 137.5 132.501s126.833 50.5 203.5 50.5c110 0 219 -33.667 327 -101l-71 -118c-87.333 56.667 -172.666 85 -255.999 85
c-87.333 0 -155.333 -35 -204 -105c-17.333 -25.333 -30.333 -58.5 -39 -99.5s-13.667 -75.167 -15 -102.5s-2 -64 -2 -110c0 -52 0.5 -91.833 1.5 -119.5s5.5 -60.834 13.5 -99.501s20 -71.334 36 -98.001c23.333 -38.667 53.666 -67 90.999 -85s76.666 -27 117.999 -27
c45.333 0 92.833 8.66699 142.5 26s93.167 38.666 130.5 63.999l76 -114c-39.333 -26.667 -84.666 -49.667 -135.999 -69s-103 -32 -155 -38l-24 -84c22.667 -11.333 41.667 -28.166 57 -50.499s23 -49.5 23 -81.5c0 -60 -19.333 -108.5 -58 -145.5s-88 -55.5 -148 -55.5
c-24.667 0 -54.334 4.66699 -89.001 14l38 119c15.333 -6 31 -9 47 -9z" />
    <glyph glyph-name="egrave" unicode="&#xe8;" horiz-adv-x="1055" 
d="M316 1496h169l154 -274h-158zM550 -16c-77.333 0 -145.668 14.4961 -205.001 43.4961s-106.333 68.833 -141 119.5c-24.667 35.333 -43.167 77.333 -55.5 126s-19.333 89.834 -21 123.501s-2.5 81.834 -2.5 144.501c0 51.333 0.5 90.166 1.5 116.499
s4.33301 58.333 10 96s14.167 71.834 25.5 102.501c28 73.333 74.833 132 140.5 176s141.5 66 227.5 66c84.667 0 160.167 -22.167 226.5 -66.5s113.833 -103.166 142.5 -176.499c16.667 -42 26.834 -83.833 30.501 -125.5s5.5 -104.167 5.5 -187.5v-33h-660
c0 -43.333 0.666992 -78.166 2 -104.499s6.5 -58 15.5 -95s22.167 -67.833 39.5 -92.5c46 -66 118.667 -99 218 -99c88.667 0 184 24.333 286 73l57 -124c-118 -55.333 -232.333 -83 -343 -83zM784.998 632.996c-1.33301 76 -11.001 136.334 -29.001 181.001
c-18 46 -47.167 82.5 -87.5 109.5s-86.5 40.5 -138.5 40.5c-54 0 -100.667 -13.5 -140 -40.5s-67.666 -63.167 -84.999 -108.5c-18 -46.667 -27.667 -107.334 -29 -182.001h509z" />
    <glyph glyph-name="eacute" unicode="&#xe9;" horiz-adv-x="1055" 
d="M742 1496l-165 -274h-158l154 274h169zM550 -16c-77.333 0 -145.668 14.4961 -205.001 43.4961s-106.333 68.833 -141 119.5c-24.667 35.333 -43.167 77.333 -55.5 126s-19.333 89.834 -21 123.501s-2.5 81.834 -2.5 144.501c0 51.333 0.5 90.166 1.5 116.499
s4.33301 58.333 10 96s14.167 71.834 25.5 102.501c28 73.333 74.833 132 140.5 176s141.5 66 227.5 66c84.667 0 160.167 -22.167 226.5 -66.5s113.833 -103.166 142.5 -176.499c16.667 -42 26.834 -83.833 30.501 -125.5s5.5 -104.167 5.5 -187.5v-33h-660
c0 -43.333 0.666992 -78.166 2 -104.499s6.5 -58 15.5 -95s22.167 -67.833 39.5 -92.5c46 -66 118.667 -99 218 -99c88.667 0 184 24.333 286 73l57 -124c-118 -55.333 -232.333 -83 -343 -83zM784.998 632.996c-1.33301 76 -11.001 136.334 -29.001 181.001
c-18 46 -47.167 82.5 -87.5 109.5s-86.5 40.5 -138.5 40.5c-54 0 -100.667 -13.5 -140 -40.5s-67.666 -63.167 -84.999 -108.5c-18 -46.667 -27.667 -107.334 -29 -182.001h509z" />
    <glyph glyph-name="ecircumflex" unicode="&#xea;" horiz-adv-x="1055" 
d="M670 1222l-140 138l-140 -138h-171l258 274h106l258 -274h-171zM550 -16c-77.333 0 -145.668 14.4961 -205.001 43.4961s-106.333 68.833 -141 119.5c-24.667 35.333 -43.167 77.333 -55.5 126s-19.333 89.834 -21 123.501s-2.5 81.834 -2.5 144.501
c0 51.333 0.5 90.166 1.5 116.499s4.33301 58.333 10 96s14.167 71.834 25.5 102.501c28 73.333 74.833 132 140.5 176s141.5 66 227.5 66c84.667 0 160.167 -22.167 226.5 -66.5s113.833 -103.166 142.5 -176.499c16.667 -42 26.834 -83.833 30.501 -125.5
s5.5 -104.167 5.5 -187.5v-33h-660c0 -43.333 0.666992 -78.166 2 -104.499s6.5 -58 15.5 -95s22.167 -67.833 39.5 -92.5c46 -66 118.667 -99 218 -99c88.667 0 184 24.333 286 73l57 -124c-118 -55.333 -232.333 -83 -343 -83zM784.998 632.996
c-1.33301 76 -11.001 136.334 -29.001 181.001c-18 46 -47.167 82.5 -87.5 109.5s-86.5 40.5 -138.5 40.5c-54 0 -100.667 -13.5 -140 -40.5s-67.666 -63.167 -84.999 -108.5c-18 -46.667 -27.667 -107.334 -29 -182.001h509z" />
    <glyph glyph-name="edieresis" unicode="&#xeb;" horiz-adv-x="1055" 
d="M721 1435c27.333 0 49.833 -8.83301 67.5 -26.5s26.5 -40.167 26.5 -67.5s-8.83301 -49.833 -26.5 -67.5s-40.167 -26.5 -67.5 -26.5s-49.833 8.83301 -67.5 26.5s-26.5 40.167 -26.5 67.5s8.83301 49.833 26.5 67.5s40.167 26.5 67.5 26.5zM339 1435
c27.333 0 49.833 -8.83301 67.5 -26.5s26.5 -40.167 26.5 -67.5s-8.83301 -49.833 -26.5 -67.5s-40.167 -26.5 -67.5 -26.5s-49.833 8.83301 -67.5 26.5s-26.5 40.167 -26.5 67.5s8.83301 49.833 26.5 67.5s40.167 26.5 67.5 26.5zM550 -16
c-77.333 0 -145.668 14.4961 -205.001 43.4961s-106.333 68.833 -141 119.5c-24.667 35.333 -43.167 77.333 -55.5 126s-19.333 89.834 -21 123.501s-2.5 81.834 -2.5 144.501c0 51.333 0.5 90.166 1.5 116.499s4.33301 58.333 10 96s14.167 71.834 25.5 102.501
c28 73.333 74.833 132 140.5 176s141.5 66 227.5 66c84.667 0 160.167 -22.167 226.5 -66.5s113.833 -103.166 142.5 -176.499c16.667 -42 26.834 -83.833 30.501 -125.5s5.5 -104.167 5.5 -187.5v-33h-660c0 -43.333 0.666992 -78.166 2 -104.499s6.5 -58 15.5 -95
s22.167 -67.833 39.5 -92.5c46 -66 118.667 -99 218 -99c88.667 0 184 24.333 286 73l57 -124c-118 -55.333 -232.333 -83 -343 -83zM784.998 632.996c-1.33301 76 -11.001 136.334 -29.001 181.001c-18 46 -47.167 82.5 -87.5 109.5s-86.5 40.5 -138.5 40.5
c-54 0 -100.667 -13.5 -140 -40.5s-67.666 -63.167 -84.999 -108.5c-18 -46.667 -27.667 -107.334 -29 -182.001h509z" />
    <glyph glyph-name="igrave" unicode="&#xec;" horiz-adv-x="470" 
d="M21 1496h169l154 -274h-158zM310 0h-150v1082h150v-1082z" />
    <glyph glyph-name="iacute" unicode="&#xed;" horiz-adv-x="470" 
d="M447 1496l-165 -274h-158l154 274h169zM310 0h-150v1082h150v-1082z" />
    <glyph glyph-name="icircumflex" unicode="&#xee;" horiz-adv-x="470" 
d="M375 1222l-140 138l-140 -138h-171l258 274h106l258 -274h-171zM310 0h-150v1082h150v-1082z" />
    <glyph glyph-name="idieresis" unicode="&#xef;" horiz-adv-x="470" 
d="M426 1435c27.333 0 49.833 -8.83301 67.5 -26.5s26.5 -40.167 26.5 -67.5s-8.83301 -49.833 -26.5 -67.5s-40.167 -26.5 -67.5 -26.5s-49.833 8.83301 -67.5 26.5s-26.5 40.167 -26.5 67.5s8.83301 49.833 26.5 67.5s40.167 26.5 67.5 26.5zM44 1435
c27.333 0 49.833 -8.83301 67.5 -26.5s26.5 -40.167 26.5 -67.5s-8.83301 -49.833 -26.5 -67.5s-40.167 -26.5 -67.5 -26.5s-49.833 8.83301 -67.5 26.5s-26.5 40.167 -26.5 67.5s8.83301 49.833 26.5 67.5s40.167 26.5 67.5 26.5zM310 0h-150v1082h150v-1082z" />
    <glyph glyph-name="eth" unicode="&#xf0;" horiz-adv-x="1115" 
d="M550 964c-86.667 0 -152.999 -26.333 -198.999 -79c-18 -20.667 -32.5 -43.834 -43.5 -69.501s-18.667 -55.667 -23 -90s-7 -63 -8 -86s-1.5 -55.833 -1.5 -98.5s0.5 -75.5 1.5 -98.5s3.66699 -51.667 8 -86s12 -64.333 23 -90s25.5 -48.834 43.5 -69.501
c46 -52.667 112.333 -79 199 -79c89.333 0 156.333 26.333 201 79c23.333 27.333 40.666 62 51.999 104s17.833 78.333 19.5 109s2.5 74.334 2.5 131.001c0 42.667 -0.5 75.5 -1.5 98.5s-3.66699 51.667 -8 86s-12 64.333 -23 90s-25.5 48.834 -43.5 69.501
c-46 52.667 -112.333 79 -199 79zM454.001 1218l-39.999 79.999l160 80c-48 37.333 -115.667 75.333 -203 114l45 108c98 -44.667 166.667 -79.667 206 -105c27.333 -18 52.333 -36.667 75 -56l194 97l40 -80l-167 -83c59.333 -67.333 105.666 -145 138.999 -233
c22.667 -59.333 39.5 -127.166 50.5 -203.499s17.333 -139.166 19 -188.499s2.5 -118.333 2.5 -207c0 -48 -0.833008 -86.333 -2.5 -115s-5.5 -63.834 -11.5 -105.501s-16.833 -79.667 -32.5 -114s-35.834 -66.5 -60.501 -96.5
c-31.333 -38.667 -72.5 -69.334 -123.5 -92.001s-109.167 -34 -174.5 -34c-148 0 -259.667 42 -335 126c-26 29.333 -47 61 -63 95s-27.167 72.333 -33.5 115s-10.166 77.834 -11.499 105.501s-2 66.167 -2 115.5c0 48.667 0.833008 88.167 2.5 118.5
s5.66699 65.666 12 105.999s17 77.333 32 111s34.833 65.5 59.5 95.5c31.333 38.667 72 69.334 122 92.001s105.667 34 167 34c118 0 213 -40.333 285 -121c-26.667 138 -80 250 -160 336z" />
    <glyph glyph-name="ntilde" unicode="&#xf1;" 
d="M671 1346c32 0 61.667 23.333 89 70l115 -71c-20.667 -36 -48.5 -65.5 -83.5 -88.5s-75.167 -34.5 -120.5 -34.5c-29.333 0 -56.333 5 -81 15s-46 20 -64 30s-33.667 15 -47 15c-32 0 -61.667 -23.333 -89 -70l-115 71c20.667 36 48.5 65.5 83.5 88.5
s75.167 34.5 120.5 34.5c29.333 0 56.333 -5 81 -15s46 -20 64 -30s33.667 -15 47 -15zM585 1098c74 0 141.165 -19.5 201.498 -58.5s104.5 -93.5 132.5 -163.5c10 -24 17.333 -51.333 22 -82s7.33398 -56.5 8.00098 -77.5s1 -51.5 1 -91.5v-625h-150v615
c0 63.333 -1.33301 109.166 -4 137.499s-10 55.5 -22 81.5c-18.667 41.333 -47.5 73.333 -86.5 96s-83.167 34 -132.5 34s-93.5 -11.333 -132.5 -34s-67.833 -54.667 -86.5 -96c-12 -26 -19.333 -53.167 -22 -81.5s-4 -74.166 -4 -137.499v-615h-150v1082h150v-114
c78.667 86.667 170.334 130 275.001 130z" />
    <glyph glyph-name="ograve" unicode="&#xf2;" 
d="M336 1496h169l154 -274h-158zM550 964c-86.667 0 -153 -26.333 -199 -79c-18 -20.667 -32.5 -43.834 -43.5 -69.501s-18.667 -55.667 -23 -90s-7 -63 -8 -86s-1.5 -55.833 -1.5 -98.5s0.5 -75.5 1.5 -98.5s3.66699 -51.667 8 -86s12 -64.333 23 -90
s25.5 -48.834 43.5 -69.501c46 -52.667 112.333 -79 199 -79s153 26.333 199 79c18 20.667 32.5 43.834 43.5 69.501s18.667 55.667 23 90s7 63 8 86s1.5 55.833 1.5 98.5s-0.5 75.5 -1.5 98.5s-3.66699 51.667 -8 86s-12 64.333 -23 90s-25.5 48.834 -43.5 69.501
c-46 52.667 -112.333 79 -199 79zM550 1098c66 0 126 -11.5 180 -34.5s98.333 -53.5 133 -91.5c26.667 -29.333 48.167 -61.166 64.5 -95.499s27.666 -72.666 33.999 -114.999s10.166 -77.333 11.499 -105s2 -66.167 2 -115.5s-0.666992 -87.833 -2 -115.5
s-5.16602 -62.667 -11.499 -105s-17.666 -80.666 -33.999 -114.999s-37.833 -66.166 -64.5 -95.499c-34.667 -38 -79 -68.5 -133 -91.5s-114 -34.5 -180 -34.5s-126 11.5 -180 34.5s-98.333 53.5 -133 91.5c-26.667 29.333 -48.167 61.166 -64.5 95.499
s-27.666 72.666 -33.999 114.999s-10.166 77.333 -11.499 105s-2 66.167 -2 115.5s0.666992 87.833 2 115.5s5.16602 62.667 11.499 105s17.666 80.666 33.999 114.999s37.833 66.166 64.5 95.499c34.667 38 79 68.5 133 91.5s114 34.5 180 34.5z" />
    <glyph glyph-name="oacute" unicode="&#xf3;" 
d="M762 1496l-165 -274h-158l154 274h169zM550 964c-86.667 0 -153 -26.333 -199 -79c-18 -20.667 -32.5 -43.834 -43.5 -69.501s-18.667 -55.667 -23 -90s-7 -63 -8 -86s-1.5 -55.833 -1.5 -98.5s0.5 -75.5 1.5 -98.5s3.66699 -51.667 8 -86s12 -64.333 23 -90
s25.5 -48.834 43.5 -69.501c46 -52.667 112.333 -79 199 -79s153 26.333 199 79c18 20.667 32.5 43.834 43.5 69.501s18.667 55.667 23 90s7 63 8 86s1.5 55.833 1.5 98.5s-0.5 75.5 -1.5 98.5s-3.66699 51.667 -8 86s-12 64.333 -23 90s-25.5 48.834 -43.5 69.501
c-46 52.667 -112.333 79 -199 79zM550 1098c66 0 126 -11.5 180 -34.5s98.333 -53.5 133 -91.5c26.667 -29.333 48.167 -61.166 64.5 -95.499s27.666 -72.666 33.999 -114.999s10.166 -77.333 11.499 -105s2 -66.167 2 -115.5s-0.666992 -87.833 -2 -115.5
s-5.16602 -62.667 -11.499 -105s-17.666 -80.666 -33.999 -114.999s-37.833 -66.166 -64.5 -95.499c-34.667 -38 -79 -68.5 -133 -91.5s-114 -34.5 -180 -34.5s-126 11.5 -180 34.5s-98.333 53.5 -133 91.5c-26.667 29.333 -48.167 61.166 -64.5 95.499
s-27.666 72.666 -33.999 114.999s-10.166 77.333 -11.499 105s-2 66.167 -2 115.5s0.666992 87.833 2 115.5s5.16602 62.667 11.499 105s17.666 80.666 33.999 114.999s37.833 66.166 64.5 95.499c34.667 38 79 68.5 133 91.5s114 34.5 180 34.5z" />
    <glyph glyph-name="ocircumflex" unicode="&#xf4;" 
d="M690 1222l-140 138l-140 -138h-171l258 274h106l258 -274h-171zM550 964c-86.667 0 -153 -26.333 -199 -79c-18 -20.667 -32.5 -43.834 -43.5 -69.501s-18.667 -55.667 -23 -90s-7 -63 -8 -86s-1.5 -55.833 -1.5 -98.5s0.5 -75.5 1.5 -98.5s3.66699 -51.667 8 -86
s12 -64.333 23 -90s25.5 -48.834 43.5 -69.501c46 -52.667 112.333 -79 199 -79s153 26.333 199 79c18 20.667 32.5 43.834 43.5 69.501s18.667 55.667 23 90s7 63 8 86s1.5 55.833 1.5 98.5s-0.5 75.5 -1.5 98.5s-3.66699 51.667 -8 86s-12 64.333 -23 90
s-25.5 48.834 -43.5 69.501c-46 52.667 -112.333 79 -199 79zM550 1098c66 0 126 -11.5 180 -34.5s98.333 -53.5 133 -91.5c26.667 -29.333 48.167 -61.166 64.5 -95.499s27.666 -72.666 33.999 -114.999s10.166 -77.333 11.499 -105s2 -66.167 2 -115.5
s-0.666992 -87.833 -2 -115.5s-5.16602 -62.667 -11.499 -105s-17.666 -80.666 -33.999 -114.999s-37.833 -66.166 -64.5 -95.499c-34.667 -38 -79 -68.5 -133 -91.5s-114 -34.5 -180 -34.5s-126 11.5 -180 34.5s-98.333 53.5 -133 91.5
c-26.667 29.333 -48.167 61.166 -64.5 95.499s-27.666 72.666 -33.999 114.999s-10.166 77.333 -11.499 105s-2 66.167 -2 115.5s0.666992 87.833 2 115.5s5.16602 62.667 11.499 105s17.666 80.666 33.999 114.999s37.833 66.166 64.5 95.499c34.667 38 79 68.5 133 91.5
s114 34.5 180 34.5z" />
    <glyph glyph-name="otilde" unicode="&#xf5;" 
d="M646 1346c32 0 61.667 23.333 89 70l115 -71c-20.667 -36 -48.5 -65.5 -83.5 -88.5s-75.167 -34.5 -120.5 -34.5c-29.333 0 -56.333 5 -81 15s-46 20 -64 30s-33.667 15 -47 15c-32 0 -61.667 -23.333 -89 -70l-115 71c20.667 36 48.5 65.5 83.5 88.5
s75.167 34.5 120.5 34.5c29.333 0 56.333 -5 81 -15s46 -20 64 -30s33.667 -15 47 -15zM550 964c-86.667 0 -153 -26.333 -199 -79c-18 -20.667 -32.5 -43.834 -43.5 -69.501s-18.667 -55.667 -23 -90s-7 -63 -8 -86s-1.5 -55.833 -1.5 -98.5s0.5 -75.5 1.5 -98.5
s3.66699 -51.667 8 -86s12 -64.333 23 -90s25.5 -48.834 43.5 -69.501c46 -52.667 112.333 -79 199 -79s153 26.333 199 79c18 20.667 32.5 43.834 43.5 69.501s18.667 55.667 23 90s7 63 8 86s1.5 55.833 1.5 98.5s-0.5 75.5 -1.5 98.5s-3.66699 51.667 -8 86
s-12 64.333 -23 90s-25.5 48.834 -43.5 69.501c-46 52.667 -112.333 79 -199 79zM550 1098c66 0 126 -11.5 180 -34.5s98.333 -53.5 133 -91.5c26.667 -29.333 48.167 -61.166 64.5 -95.499s27.666 -72.666 33.999 -114.999s10.166 -77.333 11.499 -105s2 -66.167 2 -115.5
s-0.666992 -87.833 -2 -115.5s-5.16602 -62.667 -11.499 -105s-17.666 -80.666 -33.999 -114.999s-37.833 -66.166 -64.5 -95.499c-34.667 -38 -79 -68.5 -133 -91.5s-114 -34.5 -180 -34.5s-126 11.5 -180 34.5s-98.333 53.5 -133 91.5
c-26.667 29.333 -48.167 61.166 -64.5 95.499s-27.666 72.666 -33.999 114.999s-10.166 77.333 -11.499 105s-2 66.167 -2 115.5s0.666992 87.833 2 115.5s5.16602 62.667 11.499 105s17.666 80.666 33.999 114.999s37.833 66.166 64.5 95.499c34.667 38 79 68.5 133 91.5
s114 34.5 180 34.5z" />
    <glyph glyph-name="odieresis" unicode="&#xf6;" 
d="M741 1435c27.333 0 49.833 -8.83301 67.5 -26.5s26.5 -40.167 26.5 -67.5s-8.83301 -49.833 -26.5 -67.5s-40.167 -26.5 -67.5 -26.5s-49.833 8.83301 -67.5 26.5s-26.5 40.167 -26.5 67.5s8.83301 49.833 26.5 67.5s40.167 26.5 67.5 26.5zM359 1435
c27.333 0 49.833 -8.83301 67.5 -26.5s26.5 -40.167 26.5 -67.5s-8.83301 -49.833 -26.5 -67.5s-40.167 -26.5 -67.5 -26.5s-49.833 8.83301 -67.5 26.5s-26.5 40.167 -26.5 67.5s8.83301 49.833 26.5 67.5s40.167 26.5 67.5 26.5zM550 964c-86.667 0 -153 -26.333 -199 -79
c-18 -20.667 -32.5 -43.834 -43.5 -69.501s-18.667 -55.667 -23 -90s-7 -63 -8 -86s-1.5 -55.833 -1.5 -98.5s0.5 -75.5 1.5 -98.5s3.66699 -51.667 8 -86s12 -64.333 23 -90s25.5 -48.834 43.5 -69.501c46 -52.667 112.333 -79 199 -79s153 26.333 199 79
c18 20.667 32.5 43.834 43.5 69.501s18.667 55.667 23 90s7 63 8 86s1.5 55.833 1.5 98.5s-0.5 75.5 -1.5 98.5s-3.66699 51.667 -8 86s-12 64.333 -23 90s-25.5 48.834 -43.5 69.501c-46 52.667 -112.333 79 -199 79zM550 1098c66 0 126 -11.5 180 -34.5
s98.333 -53.5 133 -91.5c26.667 -29.333 48.167 -61.166 64.5 -95.499s27.666 -72.666 33.999 -114.999s10.166 -77.333 11.499 -105s2 -66.167 2 -115.5s-0.666992 -87.833 -2 -115.5s-5.16602 -62.667 -11.499 -105s-17.666 -80.666 -33.999 -114.999
s-37.833 -66.166 -64.5 -95.499c-34.667 -38 -79 -68.5 -133 -91.5s-114 -34.5 -180 -34.5s-126 11.5 -180 34.5s-98.333 53.5 -133 91.5c-26.667 29.333 -48.167 61.166 -64.5 95.499s-27.666 72.666 -33.999 114.999s-10.166 77.333 -11.499 105s-2 66.167 -2 115.5
s0.666992 87.833 2 115.5s5.16602 62.667 11.499 105s17.666 80.666 33.999 114.999s37.833 66.166 64.5 95.499c34.667 38 79 68.5 133 91.5s114 34.5 180 34.5z" />
    <glyph glyph-name="divide" unicode="&#xf7;" horiz-adv-x="1140" 
d="M570 324c27.333 0 49.833 -8.83301 67.5 -26.5s26.5 -40.167 26.5 -67.5s-8.83301 -49.833 -26.5 -67.5s-40.167 -26.5 -67.5 -26.5s-49.833 8.83301 -67.5 26.5s-26.5 40.167 -26.5 67.5s8.83301 49.833 26.5 67.5s40.167 26.5 67.5 26.5zM160 608h820v-134h-820v134z
M570 946c27.333 0 49.833 -8.83301 67.5 -26.5s26.5 -40.167 26.5 -67.5s-8.83301 -49.833 -26.5 -67.5s-40.167 -26.5 -67.5 -26.5s-49.833 8.83301 -67.5 26.5s-26.5 40.167 -26.5 67.5s8.83301 49.833 26.5 67.5s40.167 26.5 67.5 26.5z" />
    <glyph glyph-name="oslash" unicode="&#xf8;" 
d="M237 -73l-104 66l86 138c-22 28.667 -40 59.334 -54 92.001s-23.5 69.167 -28.5 109.5s-8.16699 73.5 -9.5 99.5s-2 62.333 -2 109c0 49.333 0.666992 87.833 2 115.5s5.16602 62.667 11.499 105s17.666 80.666 33.999 114.999s37.833 66.166 64.5 95.499
c34.667 38 79 68.5 133 91.5s114 34.5 180 34.5c90 0 169 -21 237 -63l76 120l104 -66l-86 -138c22 -28.667 40 -59.334 54 -92.001s23.5 -69.167 28.5 -109.5s8.16699 -73.5 9.5 -99.5s2 -62.333 2 -109c0 -49.333 -0.666992 -87.833 -2 -115.5
s-5.16602 -62.667 -11.499 -105s-17.666 -80.666 -33.999 -114.999s-37.833 -66.166 -64.5 -95.499c-34.667 -38 -79 -68.5 -133 -91.5s-114 -34.5 -180 -34.5c-90 0 -169 21 -237 63zM550 964c-86.667 0 -153 -26.3311 -199 -78.998
c-18 -20.667 -32.5 -43.834 -43.5 -69.501s-18.667 -55.667 -23 -90s-7 -63 -8 -86s-1.5 -55.833 -1.5 -98.5s0.333008 -75.5 1 -98.5s3.5 -51.333 8.5 -85s12.5 -62.834 22.5 -87.501l406 647c-44 31.333 -98.333 47 -163 47zM793 812.002l-406 -647.002
c44 -31.333 98.333 -47 163 -47c86.667 0 153 26.333 199 79c18 20.667 32.5 43.834 43.5 69.501s18.667 55.667 23 90s7 63 8 86s1.5 55.833 1.5 98.5s-0.333008 75.5 -1 98.5s-3.5 51.333 -8.5 85s-12.5 62.834 -22.5 87.501z" />
    <glyph glyph-name="ugrave" unicode="&#xf9;" horiz-adv-x="1090" 
d="M331 1496h169l154 -274h-158zM150 1082h150v-625c0 -90 5 -150.333 15 -181c16.667 -51.333 45.667 -90.5 87 -117.5s89 -40.5 143 -40.5s101.667 13.5 143 40.5s70.333 66.167 87 117.5c10 30.667 15 91 15 181v625h150v-635c0 -35.333 -0.333008 -62.5 -1 -81.5
s-3 -42.5 -7 -70.5s-10.333 -53.333 -19 -76c-28 -76 -73.833 -134.167 -137.5 -174.5s-140.5 -60.5 -230.5 -60.5s-166.833 20.167 -230.5 60.5s-109.5 98.5 -137.5 174.5c-8.66699 22.667 -15 48 -19 76s-6.33301 51.5 -7 70.5s-1 46.167 -1 81.5v635z" />
    <glyph glyph-name="uacute" unicode="&#xfa;" horiz-adv-x="1090" 
d="M757 1496l-165 -274h-158l154 274h169zM150 1082h150v-625c0 -90 5 -150.333 15 -181c16.667 -51.333 45.667 -90.5 87 -117.5s89 -40.5 143 -40.5s101.667 13.5 143 40.5s70.333 66.167 87 117.5c10 30.667 15 91 15 181v625h150v-635
c0 -35.333 -0.333008 -62.5 -1 -81.5s-3 -42.5 -7 -70.5s-10.333 -53.333 -19 -76c-28 -76 -73.833 -134.167 -137.5 -174.5s-140.5 -60.5 -230.5 -60.5s-166.833 20.167 -230.5 60.5s-109.5 98.5 -137.5 174.5c-8.66699 22.667 -15 48 -19 76s-6.33301 51.5 -7 70.5
s-1 46.167 -1 81.5v635z" />
    <glyph glyph-name="ucircumflex" unicode="&#xfb;" horiz-adv-x="1090" 
d="M685 1222l-140 138l-140 -138h-171l258 274h106l258 -274h-171zM150 1082h150v-625c0 -90 5 -150.333 15 -181c16.667 -51.333 45.667 -90.5 87 -117.5s89 -40.5 143 -40.5s101.667 13.5 143 40.5s70.333 66.167 87 117.5c10 30.667 15 91 15 181v625h150v-635
c0 -35.333 -0.333008 -62.5 -1 -81.5s-3 -42.5 -7 -70.5s-10.333 -53.333 -19 -76c-28 -76 -73.833 -134.167 -137.5 -174.5s-140.5 -60.5 -230.5 -60.5s-166.833 20.167 -230.5 60.5s-109.5 98.5 -137.5 174.5c-8.66699 22.667 -15 48 -19 76s-6.33301 51.5 -7 70.5
s-1 46.167 -1 81.5v635z" />
    <glyph glyph-name="udieresis" unicode="&#xfc;" horiz-adv-x="1090" 
d="M736 1435c27.333 0 49.833 -8.83301 67.5 -26.5s26.5 -40.167 26.5 -67.5s-8.83301 -49.833 -26.5 -67.5s-40.167 -26.5 -67.5 -26.5s-49.833 8.83301 -67.5 26.5s-26.5 40.167 -26.5 67.5s8.83301 49.833 26.5 67.5s40.167 26.5 67.5 26.5zM354 1435
c27.333 0 49.833 -8.83301 67.5 -26.5s26.5 -40.167 26.5 -67.5s-8.83301 -49.833 -26.5 -67.5s-40.167 -26.5 -67.5 -26.5s-49.833 8.83301 -67.5 26.5s-26.5 40.167 -26.5 67.5s8.83301 49.833 26.5 67.5s40.167 26.5 67.5 26.5zM150 1082h150v-625
c0 -90 5 -150.333 15 -181c16.667 -51.333 45.667 -90.5 87 -117.5s89 -40.5 143 -40.5s101.667 13.5 143 40.5s70.333 66.167 87 117.5c10 30.667 15 91 15 181v625h150v-635c0 -35.333 -0.333008 -62.5 -1 -81.5s-3 -42.5 -7 -70.5s-10.333 -53.333 -19 -76
c-28 -76 -73.833 -134.167 -137.5 -174.5s-140.5 -60.5 -230.5 -60.5s-166.833 20.167 -230.5 60.5s-109.5 98.5 -137.5 174.5c-8.66699 22.667 -15 48 -19 76s-6.33301 51.5 -7 70.5s-1 46.167 -1 81.5v635z" />
    <glyph glyph-name="yacute" unicode="&#xfd;" horiz-adv-x="987" 
d="M706 1496l-165 -274h-158l154 274h169zM94 -409l32.998 130c34 -9.33301 65.667 -14 95 -14c48 0 88 12.667 120 38c12.667 10 23.834 22.5 33.501 37.5s16.834 28.667 21.501 41s10.667 29.833 18 52.5l37 122l-392 1084h156l302 -885l256 885h153l-377 -1241
c-13.333 -44 -27.833 -80.667 -43.5 -110s-36.5 -55.333 -62.5 -78c-60 -53.333 -134 -80 -222 -80c-37.333 0 -80 6 -128 18z" />
    <glyph glyph-name="thorn" unicode="&#xfe;" horiz-adv-x="1115" 
d="M595 1098c68 0 129.667 -14.667 185 -44s98.666 -68 129.999 -116c33.333 -51.333 55 -106.5 65 -165.5s15 -136.167 15 -231.5s-5 -172.5 -15 -231.5s-31.667 -114.167 -65 -165.5c-31.333 -48 -74.666 -86.667 -129.999 -116s-117 -44 -185 -44
c-111.333 0 -206.333 43.667 -285 131v-529h-150v1910h150v-529c78.667 87.333 173.667 131 285 131zM575 964c-89.333 0 -157.666 -32.667 -204.999 -98c-25.333 -34.667 -41.666 -76.667 -48.999 -126s-11 -115.666 -11 -198.999s3.66699 -149.666 11 -198.999
s23.666 -91.333 48.999 -126c47.333 -65.333 115.666 -98 204.999 -98s157.666 32.667 204.999 98c25.333 34.667 41.666 76.667 48.999 126s11 115.666 11 198.999s-3.66699 149.666 -11 198.999s-23.666 91.333 -48.999 126c-47.333 65.333 -115.666 98 -204.999 98z" />
    <glyph glyph-name="ydieresis" unicode="&#xff;" horiz-adv-x="987" 
d="M685 1435c27.333 0 49.833 -8.83301 67.5 -26.5s26.5 -40.167 26.5 -67.5s-8.83301 -49.833 -26.5 -67.5s-40.167 -26.5 -67.5 -26.5s-49.833 8.83301 -67.5 26.5s-26.5 40.167 -26.5 67.5s8.83301 49.833 26.5 67.5s40.167 26.5 67.5 26.5zM303 1435
c27.333 0 49.833 -8.83301 67.5 -26.5s26.5 -40.167 26.5 -67.5s-8.83301 -49.833 -26.5 -67.5s-40.167 -26.5 -67.5 -26.5s-49.833 8.83301 -67.5 26.5s-26.5 40.167 -26.5 67.5s8.83301 49.833 26.5 67.5s40.167 26.5 67.5 26.5zM94 -409l32.998 130
c34 -9.33301 65.667 -14 95 -14c48 0 88 12.667 120 38c12.667 10 23.834 22.5 33.501 37.5s16.834 28.667 21.501 41s10.667 29.833 18 52.5l37 122l-392 1084h156l302 -885l256 885h153l-377 -1241c-13.333 -44 -27.833 -80.667 -43.5 -110s-36.5 -55.333 -62.5 -78
c-60 -53.333 -134 -80 -222 -80c-37.333 0 -80 6 -128 18z" />
    <glyph glyph-name="Amacron" unicode="&#x100;" horiz-adv-x="1190" 
d="M310 1720h570v-134h-570v134zM830 482l-235 723l-235 -723h470zM520 1416h150l480 -1416h-163l-111 342h-562l-111 -342h-163z" />
    <glyph glyph-name="amacron" unicode="&#x101;" horiz-adv-x="1020" 
d="M200 1386h570v-134h-570v134zM250 321c0 -56.667 18.8311 -104.666 56.498 -143.999s90.5 -59 158.5 -59c54.667 0 103.334 13.333 146.001 40s72.667 67 90 121c6 19.333 10.5 41.666 13.5 66.999s4.66699 49.166 5 71.499s0.5 58.833 0.5 109.5h-145
c-96 0 -159.333 -4.66699 -190 -14c-43.333 -13.333 -76.666 -37.166 -99.999 -71.499s-35 -74.5 -35 -120.5zM869.998 651.001l-0.00195312 -651.001h-150v115c-76 -87.333 -167.667 -131 -275 -131c-101.333 0 -184.166 32.167 -248.499 96.5s-96.5 144.5 -96.5 240.5
c0 72 20.5 135.833 61.5 191.5s98.833 94.834 173.5 117.501c22 6.66699 46.333 11.667 73 15s50 5.16602 70 5.49902s50.333 0.5 91 0.5h151c0 53.333 -0.833008 91.5 -2.5 114.5s-6.16699 44.167 -13.5 63.5c-16.667 44.667 -44.667 78.334 -84 101.001
s-84.333 34 -135 34c-74 0 -161.667 -24.333 -263 -73l-57 124c121.333 55.333 228 83 320 83c88.667 0 166.334 -21.333 233.001 -64s112 -103.667 136 -183c10.667 -35.333 16 -102 16 -200z" />
    <glyph glyph-name="Abreve" unicode="&#x102;" horiz-adv-x="1190" 
d="M331 1830h140c0 -54 12.167 -94.833 36.5 -122.5s53.833 -41.5 88.5 -41.5s64.167 13.833 88.5 41.5s36.5 68.5 36.5 122.5h140c0 -79.333 -24 -147.166 -72 -203.499s-112.333 -84.5 -193 -84.5s-145 28.167 -193 84.5s-72 124.166 -72 203.499zM830 482l-235 723
l-235 -723h470zM520 1416h150l480 -1416h-163l-111 342h-562l-111 -342h-163z" />
    <glyph glyph-name="abreve" unicode="&#x103;" horiz-adv-x="1020" 
d="M221 1496h140c0 -54 12.167 -94.833 36.5 -122.5s53.833 -41.5 88.5 -41.5s64.167 13.833 88.5 41.5s36.5 68.5 36.5 122.5h140c0 -79.333 -24 -147.166 -72 -203.499s-112.333 -84.5 -193 -84.5s-145 28.167 -193 84.5s-72 124.166 -72 203.499zM250 321
c0 -56.667 18.8311 -104.666 56.498 -143.999s90.5 -59 158.5 -59c54.667 0 103.334 13.333 146.001 40s72.667 67 90 121c6 19.333 10.5 41.666 13.5 66.999s4.66699 49.166 5 71.499s0.5 58.833 0.5 109.5h-145c-96 0 -159.333 -4.66699 -190 -14
c-43.333 -13.333 -76.666 -37.166 -99.999 -71.499s-35 -74.5 -35 -120.5zM869.998 651.001l-0.00195312 -651.001h-150v115c-76 -87.333 -167.667 -131 -275 -131c-101.333 0 -184.166 32.167 -248.499 96.5s-96.5 144.5 -96.5 240.5c0 72 20.5 135.833 61.5 191.5
s98.833 94.834 173.5 117.501c22 6.66699 46.333 11.667 73 15s50 5.16602 70 5.49902s50.333 0.5 91 0.5h151c0 53.333 -0.833008 91.5 -2.5 114.5s-6.16699 44.167 -13.5 63.5c-16.667 44.667 -44.667 78.334 -84 101.001s-84.333 34 -135 34
c-74 0 -161.667 -24.333 -263 -73l-57 124c121.333 55.333 228 83 320 83c88.667 0 166.334 -21.333 233.001 -64s112 -103.667 136 -183c10.667 -35.333 16 -102 16 -200z" />
    <glyph glyph-name="Aogonek" unicode="&#x104;" horiz-adv-x="1190" 
d="M948 -216c0 -26 7.33105 -47.5 21.998 -64.5s34.334 -25.5 59.001 -25.5s49.334 8.33301 74.001 25l65 -110c-44.667 -26 -91 -39 -139 -39c-62.667 0 -112.5 18.667 -149.5 56s-55.5 83 -55.5 137c0 94 54.333 173 163 237l-111 342h-562l-111 -342h-163l480 1416h150
l480 -1416c-23.333 -8.66699 -45.833 -19 -67.5 -31s-43 -26.667 -64 -44s-38 -38.333 -51 -63s-19.5 -50.667 -19.5 -78zM829.998 482l-235 723l-235 -723h470z" />
    <glyph glyph-name="aogonek" unicode="&#x105;" horiz-adv-x="1020" 
d="M668 -216c0 -26 7.3291 -47.501 21.9961 -64.501s34.334 -25.5 59.001 -25.5s49.334 8.33301 74.001 25l65 -110c-44.667 -26 -91 -39 -139 -39c-62.667 0 -112.5 18.667 -149.5 56s-55.5 83 -55.5 137c0 98 58.667 179.333 176 244v108
c-76 -87.333 -167.667 -131 -275 -131c-101.333 0 -184.166 32.167 -248.499 96.5s-96.5 144.5 -96.5 240.5c0 72 20.5 135.833 61.5 191.5s98.833 94.834 173.5 117.501c22 6.66699 46.333 11.667 73 15s50 5.16602 70 5.49902s50.333 0.5 91 0.5h151
c0 53.333 -0.833008 91.5 -2.5 114.5s-6.16699 44.167 -13.5 63.5c-16.667 44.667 -44.667 78.334 -84 101.001s-84.333 34 -135 34c-74 0 -161.667 -24.333 -263 -73l-57 124c121.333 55.333 228 83 320 83c88.667 0 166.334 -21.333 233.001 -64s112 -103.667 136 -183
c10.667 -35.333 16 -102 16 -200v-651c-23.333 -8.66699 -45.833 -19 -67.5 -31s-43 -26.667 -64 -44s-38 -38.333 -51 -63s-19.5 -50.667 -19.5 -78zM249.996 320.999c0 -56.667 18.8311 -104.666 56.498 -143.999s90.5 -59 158.5 -59c54.667 0 103.334 13.333 146.001 40
s72.667 67 90 121c6 19.333 10.5 41.666 13.5 66.999s4.66699 49.166 5 71.499s0.5 58.833 0.5 109.5h-145c-96 0 -159.333 -4.66699 -190 -14c-43.333 -13.333 -76.666 -37.166 -99.999 -71.499s-35 -74.5 -35 -120.5z" />
    <glyph glyph-name="Cacute" unicode="&#x106;" horiz-adv-x="1114" 
d="M830 1830l-165 -274h-158l154 274h169zM618 1435c134.667 0 259.333 -40.3301 374 -120.997l-80 -120c-94.667 67.333 -192.667 101 -294 101c-138.667 0 -232.667 -56.667 -282 -170c-21.333 -48.667 -35 -106.334 -41 -173.001s-9 -148 -9 -244s3 -177.333 9 -244
s19.667 -124.334 41 -173.001c49.333 -113.333 143.333 -170 282 -170c122.667 0 230.667 39.667 324 119l88 -116c-121.333 -95.333 -258.666 -143 -411.999 -143c-103.333 0 -191.5 23 -264.5 69s-127.167 108.667 -162.5 188c-18 40 -31.833 88.833 -41.5 146.5
s-15.334 108.667 -17.001 153s-2.5 101.166 -2.5 170.499c0 106.667 3.83301 197.667 11.5 273s24.167 141 49.5 197c36.667 80 91.5 142.833 164.5 188.5s160.5 68.5 262.5 68.5z" />
    <glyph glyph-name="cacute" unicode="&#x107;" horiz-adv-x="964" 
d="M747 1496l-165 -274h-158l154 274h169zM535 1098c110 0 219.001 -33.665 327.001 -100.998l-71 -118c-87.333 56.667 -172.666 85 -255.999 85c-87.333 0 -155.333 -35 -204 -105c-17.333 -25.333 -30.333 -58.5 -39 -99.5s-13.667 -75.167 -15 -102.5s-2 -64 -2 -110
c0 -52 0.5 -91.833 1.5 -119.5s5.5 -60.834 13.5 -99.501s20 -71.334 36 -98.001c23.333 -38.667 53.666 -67 90.999 -85s76.666 -27 117.999 -27c45.333 0 92.833 8.66699 142.5 26s93.167 38.666 130.5 63.999l76 -114c-47.333 -32 -102.333 -58.333 -165 -79
s-124 -31 -184 -31c-76 0 -144 16.833 -204 50.5s-105.667 77.834 -137 132.501c-21.333 37.333 -37.333 78.5 -48 123.5s-16.834 84 -18.501 117s-2.5 79.5 -2.5 139.5c0 52 0.833008 93.833 2.5 125.5s7.83398 71.167 18.501 118.5s26.667 88.666 48 123.999
c32.667 54.667 78.5 98.834 137.5 132.501s126.833 50.5 203.5 50.5z" />
    <glyph glyph-name="Ccircumflex" unicode="&#x108;" horiz-adv-x="1114" 
d="M758 1556l-140 138l-140 -138h-171l258 274h106l258 -274h-171zM618 1435c134.667 0 259.333 -40.3301 374 -120.997l-80 -120c-94.667 67.333 -192.667 101 -294 101c-138.667 0 -232.667 -56.667 -282 -170c-21.333 -48.667 -35 -106.334 -41 -173.001s-9 -148 -9 -244
s3 -177.333 9 -244s19.667 -124.334 41 -173.001c49.333 -113.333 143.333 -170 282 -170c122.667 0 230.667 39.667 324 119l88 -116c-121.333 -95.333 -258.666 -143 -411.999 -143c-103.333 0 -191.5 23 -264.5 69s-127.167 108.667 -162.5 188
c-18 40 -31.833 88.833 -41.5 146.5s-15.334 108.667 -17.001 153s-2.5 101.166 -2.5 170.499c0 106.667 3.83301 197.667 11.5 273s24.167 141 49.5 197c36.667 80 91.5 142.833 164.5 188.5s160.5 68.5 262.5 68.5z" />
    <glyph glyph-name="ccircumflex" unicode="&#x109;" horiz-adv-x="964" 
d="M675 1222l-140 138l-140 -138h-171l258 274h106l258 -274h-171zM535 1098c110 0 219.001 -33.665 327.001 -100.998l-71 -118c-87.333 56.667 -172.666 85 -255.999 85c-87.333 0 -155.333 -35 -204 -105c-17.333 -25.333 -30.333 -58.5 -39 -99.5
s-13.667 -75.167 -15 -102.5s-2 -64 -2 -110c0 -52 0.5 -91.833 1.5 -119.5s5.5 -60.834 13.5 -99.501s20 -71.334 36 -98.001c23.333 -38.667 53.666 -67 90.999 -85s76.666 -27 117.999 -27c45.333 0 92.833 8.66699 142.5 26s93.167 38.666 130.5 63.999l76 -114
c-47.333 -32 -102.333 -58.333 -165 -79s-124 -31 -184 -31c-76 0 -144 16.833 -204 50.5s-105.667 77.834 -137 132.501c-21.333 37.333 -37.333 78.5 -48 123.5s-16.834 84 -18.501 117s-2.5 79.5 -2.5 139.5c0 52 0.833008 93.833 2.5 125.5s7.83398 71.167 18.501 118.5
s26.667 88.666 48 123.999c32.667 54.667 78.5 98.834 137.5 132.501s126.833 50.5 203.5 50.5z" />
    <glyph glyph-name="Cdotaccent" unicode="&#x10a;" horiz-adv-x="1114" 
d="M618 1769c27.333 0 49.833 -8.83301 67.5 -26.5s26.5 -40.167 26.5 -67.5s-8.83301 -49.833 -26.5 -67.5s-40.167 -26.5 -67.5 -26.5s-49.833 8.83301 -67.5 26.5s-26.5 40.167 -26.5 67.5s8.83301 49.833 26.5 67.5s40.167 26.5 67.5 26.5zM618 1435
c134.667 0 259.333 -40.3301 374 -120.997l-80 -120c-94.667 67.333 -192.667 101 -294 101c-138.667 0 -232.667 -56.667 -282 -170c-21.333 -48.667 -35 -106.334 -41 -173.001s-9 -148 -9 -244s3 -177.333 9 -244s19.667 -124.334 41 -173.001
c49.333 -113.333 143.333 -170 282 -170c122.667 0 230.667 39.667 324 119l88 -116c-121.333 -95.333 -258.666 -143 -411.999 -143c-103.333 0 -191.5 23 -264.5 69s-127.167 108.667 -162.5 188c-18 40 -31.833 88.833 -41.5 146.5s-15.334 108.667 -17.001 153
s-2.5 101.166 -2.5 170.499c0 106.667 3.83301 197.667 11.5 273s24.167 141 49.5 197c36.667 80 91.5 142.833 164.5 188.5s160.5 68.5 262.5 68.5z" />
    <glyph glyph-name="cdotaccent" unicode="&#x10b;" horiz-adv-x="964" 
d="M535 1435c27.333 0 49.833 -8.83301 67.5 -26.5s26.5 -40.167 26.5 -67.5s-8.83301 -49.833 -26.5 -67.5s-40.167 -26.5 -67.5 -26.5s-49.833 8.83301 -67.5 26.5s-26.5 40.167 -26.5 67.5s8.83301 49.833 26.5 67.5s40.167 26.5 67.5 26.5zM535 1098
c110 0 219.001 -33.665 327.001 -100.998l-71 -118c-87.333 56.667 -172.666 85 -255.999 85c-87.333 0 -155.333 -35 -204 -105c-17.333 -25.333 -30.333 -58.5 -39 -99.5s-13.667 -75.167 -15 -102.5s-2 -64 -2 -110c0 -52 0.5 -91.833 1.5 -119.5
s5.5 -60.834 13.5 -99.501s20 -71.334 36 -98.001c23.333 -38.667 53.666 -67 90.999 -85s76.666 -27 117.999 -27c45.333 0 92.833 8.66699 142.5 26s93.167 38.666 130.5 63.999l76 -114c-47.333 -32 -102.333 -58.333 -165 -79s-124 -31 -184 -31
c-76 0 -144 16.833 -204 50.5s-105.667 77.834 -137 132.501c-21.333 37.333 -37.333 78.5 -48 123.5s-16.834 84 -18.501 117s-2.5 79.5 -2.5 139.5c0 52 0.833008 93.833 2.5 125.5s7.83398 71.167 18.501 118.5s26.667 88.666 48 123.999
c32.667 54.667 78.5 98.834 137.5 132.501s126.833 50.5 203.5 50.5z" />
    <glyph glyph-name="Ccaron" unicode="&#x10c;" horiz-adv-x="1114" 
d="M478 1830l140 -138l140 138h171l-258 -274h-106l-258 274h171zM618 1435c134.667 0 259.333 -40.3301 374 -120.997l-80 -120c-94.667 67.333 -192.667 101 -294 101c-138.667 0 -232.667 -56.667 -282 -170c-21.333 -48.667 -35 -106.334 -41 -173.001s-9 -148 -9 -244
s3 -177.333 9 -244s19.667 -124.334 41 -173.001c49.333 -113.333 143.333 -170 282 -170c122.667 0 230.667 39.667 324 119l88 -116c-121.333 -95.333 -258.666 -143 -411.999 -143c-103.333 0 -191.5 23 -264.5 69s-127.167 108.667 -162.5 188
c-18 40 -31.833 88.833 -41.5 146.5s-15.334 108.667 -17.001 153s-2.5 101.166 -2.5 170.499c0 106.667 3.83301 197.667 11.5 273s24.167 141 49.5 197c36.667 80 91.5 142.833 164.5 188.5s160.5 68.5 262.5 68.5z" />
    <glyph glyph-name="ccaron" unicode="&#x10d;" horiz-adv-x="964" 
d="M395 1496l140 -138l140 138h171l-258 -274h-106l-258 274h171zM535 1098c110 0 219.001 -33.665 327.001 -100.998l-71 -118c-87.333 56.667 -172.666 85 -255.999 85c-87.333 0 -155.333 -35 -204 -105c-17.333 -25.333 -30.333 -58.5 -39 -99.5
s-13.667 -75.167 -15 -102.5s-2 -64 -2 -110c0 -52 0.5 -91.833 1.5 -119.5s5.5 -60.834 13.5 -99.501s20 -71.334 36 -98.001c23.333 -38.667 53.666 -67 90.999 -85s76.666 -27 117.999 -27c45.333 0 92.833 8.66699 142.5 26s93.167 38.666 130.5 63.999l76 -114
c-47.333 -32 -102.333 -58.333 -165 -79s-124 -31 -184 -31c-76 0 -144 16.833 -204 50.5s-105.667 77.834 -137 132.501c-21.333 37.333 -37.333 78.5 -48 123.5s-16.834 84 -18.501 117s-2.5 79.5 -2.5 139.5c0 52 0.833008 93.833 2.5 125.5s7.83398 71.167 18.501 118.5
s26.667 88.666 48 123.999c32.667 54.667 78.5 98.834 137.5 132.501s126.833 50.5 203.5 50.5z" />
    <glyph glyph-name="Dcaron" unicode="&#x10e;" horiz-adv-x="1217" 
d="M447 1830l140 -138l140 138h171l-258 -274h-106l-258 274h171zM336 1276v-1136h203c34 0 60.833 0.333008 80.5 1s44 3.83398 73 9.50098s52.833 13.834 71.5 24.501c23.333 13.333 44 30 62 50s32.833 39.833 44.5 59.5s21.5 44.667 29.5 75s14 56.666 18 78.999
s7 52.166 9 89.499s3.16699 66.5 3.5 87.5s0.5 51.833 0.5 92.5s-0.166992 71.5 -0.5 92.5s-1.5 50.167 -3.5 87.5s-5 67.166 -9 89.499s-10 48.666 -18 78.999s-17.833 55.333 -29.5 75s-26.5 39.5 -44.5 59.5s-38.667 36.667 -62 50
c-18.667 10.667 -42.5 18.834 -71.5 24.501s-53.333 8.83398 -73 9.50098s-46.5 1 -80.5 1h-203zM180 1416l359 -0.00195312c100 0 176.333 -7.66699 229 -23c61.333 -18 113.833 -48.167 157.5 -90.5s77.834 -91.166 102.501 -146.499c18 -41.333 31.667 -90.833 41 -148.5
s14.666 -105.5 15.999 -143.5s2 -90 2 -156s-0.666992 -118 -2 -156s-6.66602 -85.833 -15.999 -143.5s-23 -107.167 -41 -148.5c-24.667 -55.333 -58.834 -104.166 -102.501 -146.499s-96.167 -72.5 -157.5 -90.5c-52.667 -15.333 -129 -23 -229 -23h-359v1416z" />
    <glyph glyph-name="dcaron" unicode="&#x10f;" horiz-adv-x="1469" 
d="M1239 1592c32.667 0 59.167 -10.166 79.5 -30.499s30.5 -46.833 30.5 -79.5c0 -20.667 -8.33301 -51.334 -25 -92.001l-90 -222h-98l57 213c-18.667 7.33301 -34 20 -46 38s-18 39 -18 63c0 32.667 10.167 59.167 30.5 79.5s46.833 30.5 79.5 30.5zM520 1098
c111.333 0 206.333 -43.667 285 -131v529h150v-1496h-150v115c-78.667 -87.333 -173.667 -131 -285 -131c-68 0 -129.667 14.667 -185 44s-98.666 68 -129.999 116c-33.333 51.333 -55 106.5 -65 165.5s-15 136.167 -15 231.5s5 172.5 15 231.5s31.667 114.167 65 165.5
c31.333 48 74.666 86.667 129.999 116s117 44 185 44zM540 964.001c-89.333 0 -157.666 -32.667 -204.999 -98c-25.333 -34.667 -41.666 -76.667 -48.999 -126s-11 -115.666 -11 -198.999s3.66699 -149.666 11 -198.999s23.666 -91.333 48.999 -126
c47.333 -65.333 115.666 -98 204.999 -98s157.666 32.667 204.999 98c25.333 34.667 41.666 76.667 48.999 126s11 115.666 11 198.999s-3.66699 149.666 -11 198.999s-23.666 91.333 -48.999 126c-47.333 65.333 -115.666 98 -204.999 98z" />
    <glyph glyph-name="Dcroat" unicode="&#x110;" horiz-adv-x="1277" 
d="M80 652v139.998h160v624h359c100 0 176.333 -7.66699 229 -23c61.333 -18 113.833 -48.167 157.5 -90.5s77.834 -91.166 102.501 -146.499c18 -41.333 31.667 -90.833 41 -148.5s14.666 -105.5 15.999 -143.5s2 -90 2 -156s-0.666992 -118 -2 -156
s-6.66602 -85.833 -15.999 -143.5s-23 -107.167 -41 -148.5c-24.667 -55.333 -58.834 -104.166 -102.501 -146.499s-96.167 -72.5 -157.5 -90.5c-52.667 -15.333 -129 -23 -229 -23h-359v652h-160zM396 791.998h240v-140h-240v-512h203c34 0 60.833 0.333008 80.5 1
s44 3.83398 73 9.50098s52.833 13.834 71.5 24.501c23.333 13.333 44 30 62 50s32.833 39.833 44.5 59.5s21.5 44.667 29.5 75s14 56.666 18 78.999s7 52.166 9 89.499s3.16699 66.5 3.5 87.5s0.5 51.833 0.5 92.5s-0.166992 71.5 -0.5 92.5s-1.5 50.167 -3.5 87.5
s-5 67.166 -9 89.499s-10 48.666 -18 78.999s-17.833 55.333 -29.5 75s-26.5 39.5 -44.5 59.5s-38.667 36.667 -62 50c-18.667 10.667 -42.5 18.834 -71.5 24.501s-53.333 8.83398 -73 9.50098s-46.5 1 -80.5 1h-203v-484z" />
    <glyph glyph-name="dcroat" unicode="&#x111;" horiz-adv-x="1150" 
d="M1090 1360v-124h-135v-1236h-150v115c-78.667 -87.333 -173.667 -131 -285 -131c-68 0 -129.667 14.667 -185 44s-98.666 68 -129.999 116c-33.333 51.333 -55 106.5 -65 165.5s-15 136.167 -15 231.5s5 172.5 15 231.5s31.667 114.167 65 165.5
c31.333 48 74.666 86.667 129.999 116s117 44 185 44c111.333 0 206.333 -43.667 285 -131v269h-247v124h247v136h150v-136h135zM540 964c-89.333 0 -157.666 -32.667 -204.999 -98c-25.333 -34.667 -41.666 -76.667 -48.999 -126s-11 -115.666 -11 -198.999
s3.66699 -149.666 11 -198.999s23.666 -91.333 48.999 -126c47.333 -65.333 115.666 -98 204.999 -98s157.666 32.667 204.999 98c25.333 34.667 41.666 76.667 48.999 126s11 115.666 11 198.999s-3.66699 149.666 -11 198.999s-23.666 91.333 -48.999 126
c-47.333 65.333 -115.666 98 -204.999 98z" />
    <glyph glyph-name="Emacron" unicode="&#x112;" 
d="M292 1720h570v-134h-570v134zM180 1416h780v-140h-624v-484h534v-140h-534v-512h624v-140h-780v1416z" />
    <glyph glyph-name="emacron" unicode="&#x113;" horiz-adv-x="1055" 
d="M245 1386h570v-134h-570v134zM550 -16c-77.333 0 -145.668 14.4961 -205.001 43.4961s-106.333 68.833 -141 119.5c-24.667 35.333 -43.167 77.333 -55.5 126s-19.333 89.834 -21 123.501s-2.5 81.834 -2.5 144.501c0 51.333 0.5 90.166 1.5 116.499
s4.33301 58.333 10 96s14.167 71.834 25.5 102.501c28 73.333 74.833 132 140.5 176s141.5 66 227.5 66c84.667 0 160.167 -22.167 226.5 -66.5s113.833 -103.166 142.5 -176.499c16.667 -42 26.834 -83.833 30.501 -125.5s5.5 -104.167 5.5 -187.5v-33h-660
c0 -43.333 0.666992 -78.166 2 -104.499s6.5 -58 15.5 -95s22.167 -67.833 39.5 -92.5c46 -66 118.667 -99 218 -99c88.667 0 184 24.333 286 73l57 -124c-118 -55.333 -232.333 -83 -343 -83zM784.998 632.996c-1.33301 76 -11.001 136.334 -29.001 181.001
c-18 46 -47.167 82.5 -87.5 109.5s-86.5 40.5 -138.5 40.5c-54 0 -100.667 -13.5 -140 -40.5s-67.666 -63.167 -84.999 -108.5c-18 -46.667 -27.667 -107.334 -29 -182.001h509z" />
    <glyph glyph-name="Ebreve" unicode="&#x114;" 
d="M313 1830h140c0 -54 12.167 -94.833 36.5 -122.5s53.833 -41.5 88.5 -41.5s64.167 13.833 88.5 41.5s36.5 68.5 36.5 122.5h140c0 -79.333 -24 -147.166 -72 -203.499s-112.333 -84.5 -193 -84.5s-145 28.167 -193 84.5s-72 124.166 -72 203.499zM180 1416h780v-140h-624
v-484h534v-140h-534v-512h624v-140h-780v1416z" />
    <glyph glyph-name="ebreve" unicode="&#x115;" horiz-adv-x="1055" 
d="M266 1496h140c0 -54 12.167 -94.833 36.5 -122.5s53.833 -41.5 88.5 -41.5s64.167 13.833 88.5 41.5s36.5 68.5 36.5 122.5h140c0 -79.333 -24 -147.166 -72 -203.499s-112.333 -84.5 -193 -84.5s-145 28.167 -193 84.5s-72 124.166 -72 203.499zM550 -16
c-77.333 0 -145.668 14.4961 -205.001 43.4961s-106.333 68.833 -141 119.5c-24.667 35.333 -43.167 77.333 -55.5 126s-19.333 89.834 -21 123.501s-2.5 81.834 -2.5 144.501c0 51.333 0.5 90.166 1.5 116.499s4.33301 58.333 10 96s14.167 71.834 25.5 102.501
c28 73.333 74.833 132 140.5 176s141.5 66 227.5 66c84.667 0 160.167 -22.167 226.5 -66.5s113.833 -103.166 142.5 -176.499c16.667 -42 26.834 -83.833 30.501 -125.5s5.5 -104.167 5.5 -187.5v-33h-660c0 -43.333 0.666992 -78.166 2 -104.499s6.5 -58 15.5 -95
s22.167 -67.833 39.5 -92.5c46 -66 118.667 -99 218 -99c88.667 0 184 24.333 286 73l57 -124c-118 -55.333 -232.333 -83 -343 -83zM784.998 632.996c-1.33301 76 -11.001 136.334 -29.001 181.001c-18 46 -47.167 82.5 -87.5 109.5s-86.5 40.5 -138.5 40.5
c-54 0 -100.667 -13.5 -140 -40.5s-67.666 -63.167 -84.999 -108.5c-18 -46.667 -27.667 -107.334 -29 -182.001h509z" />
    <glyph glyph-name="Edotaccent" unicode="&#x116;" 
d="M577 1769c27.333 0 49.833 -8.83301 67.5 -26.5s26.5 -40.167 26.5 -67.5s-8.83301 -49.833 -26.5 -67.5s-40.167 -26.5 -67.5 -26.5s-49.833 8.83301 -67.5 26.5s-26.5 40.167 -26.5 67.5s8.83301 49.833 26.5 67.5s40.167 26.5 67.5 26.5zM180 1416h780v-140h-624v-484
h534v-140h-534v-512h624v-140h-780v1416z" />
    <glyph glyph-name="edotaccent" unicode="&#x117;" horiz-adv-x="1055" 
d="M530 1435c27.333 0 49.833 -8.83301 67.5 -26.5s26.5 -40.167 26.5 -67.5s-8.83301 -49.833 -26.5 -67.5s-40.167 -26.5 -67.5 -26.5s-49.833 8.83301 -67.5 26.5s-26.5 40.167 -26.5 67.5s8.83301 49.833 26.5 67.5s40.167 26.5 67.5 26.5zM550 -16
c-77.333 0 -145.668 14.4961 -205.001 43.4961s-106.333 68.833 -141 119.5c-24.667 35.333 -43.167 77.333 -55.5 126s-19.333 89.834 -21 123.501s-2.5 81.834 -2.5 144.501c0 51.333 0.5 90.166 1.5 116.499s4.33301 58.333 10 96s14.167 71.834 25.5 102.501
c28 73.333 74.833 132 140.5 176s141.5 66 227.5 66c84.667 0 160.167 -22.167 226.5 -66.5s113.833 -103.166 142.5 -176.499c16.667 -42 26.834 -83.833 30.501 -125.5s5.5 -104.167 5.5 -187.5v-33h-660c0 -43.333 0.666992 -78.166 2 -104.499s6.5 -58 15.5 -95
s22.167 -67.833 39.5 -92.5c46 -66 118.667 -99 218 -99c88.667 0 184 24.333 286 73l57 -124c-118 -55.333 -232.333 -83 -343 -83zM784.998 632.996c-1.33301 76 -11.001 136.334 -29.001 181.001c-18 46 -47.167 82.5 -87.5 109.5s-86.5 40.5 -138.5 40.5
c-54 0 -100.667 -13.5 -140 -40.5s-67.666 -63.167 -84.999 -108.5c-18 -46.667 -27.667 -107.334 -29 -182.001h509z" />
    <glyph glyph-name="Eogonek" unicode="&#x118;" 
d="M758 -216c0 -26 7.33105 -47.5 21.998 -64.5s34.334 -25.5 59.001 -25.5s49.334 8.33301 74.001 25l65 -110c-44.667 -26 -91 -39 -139 -39c-62.667 0 -112.5 18.667 -149.5 56s-55.5 83 -55.5 137c0 94 54.333 173 163 237h-617v1416h780v-140h-624v-484h534v-140h-534
v-512h624v-140c-23.333 -8.66699 -45.833 -19 -67.5 -31s-43 -26.667 -64 -44s-38 -38.333 -51 -63s-19.5 -50.667 -19.5 -78z" />
    <glyph glyph-name="eogonek" unicode="&#x119;" horiz-adv-x="1055" 
d="M785 633c-1.33301 76 -11.001 136.334 -29.001 181.001c-18 46 -47.167 82.5 -87.5 109.5s-86.5 40.5 -138.5 40.5c-54 0 -100.667 -13.5 -140 -40.5s-67.666 -63.167 -84.999 -108.5c-18 -46.667 -27.667 -107.334 -29 -182.001h509zM624.999 -175.999
c0 -26 7.3291 -47.5029 21.9961 -64.5029s34.334 -25.5 59.001 -25.5c24 0 48.667 8.33301 74 25l65 -110c-44.667 -26 -91 -39 -139 -39c-62.667 0 -112.5 18.667 -149.5 56s-55.5 83 -55.5 137c0 71.333 42.667 135 128 191c-24.667 -6.66699 -51 -10 -79 -10
c-77.333 0 -145.666 14.5 -204.999 43.5s-106.333 68.833 -141 119.5c-24.667 35.333 -43.167 77.333 -55.5 126s-19.333 89.834 -21 123.501s-2.5 81.834 -2.5 144.501c0 51.333 0.5 90.166 1.5 116.499s4.33301 58.333 10 96s14.167 71.834 25.5 102.501
c28 73.333 74.833 132 140.5 176s141.5 66 227.5 66c84.667 0 160.167 -22.167 226.5 -66.5s113.833 -103.166 142.5 -176.499c16.667 -42 26.834 -83.833 30.501 -125.5s5.5 -104.167 5.5 -187.5v-33h-660c0 -42.667 0.833008 -77.5 2.5 -104.5
s6.83398 -58.833 15.501 -95.5s21.667 -67.334 39 -92.001c46 -66 118.667 -99 218 -99c88.667 0 184 24.333 286 73l57 -124c-78.667 -33.333 -131.667 -58.666 -159 -75.999c-72.667 -46 -109 -101.667 -109 -167z" />
    <glyph glyph-name="Ecaron" unicode="&#x11a;" 
d="M437 1830l140 -138l140 138h171l-258 -274h-106l-258 274h171zM180 1416h780v-140h-624v-484h534v-140h-534v-512h624v-140h-780v1416z" />
    <glyph glyph-name="ecaron" unicode="&#x11b;" horiz-adv-x="1055" 
d="M390 1496l140 -138l140 138h171l-258 -274h-106l-258 274h171zM550 -16c-77.333 0 -145.668 14.4961 -205.001 43.4961s-106.333 68.833 -141 119.5c-24.667 35.333 -43.167 77.333 -55.5 126s-19.333 89.834 -21 123.501s-2.5 81.834 -2.5 144.501
c0 51.333 0.5 90.166 1.5 116.499s4.33301 58.333 10 96s14.167 71.834 25.5 102.501c28 73.333 74.833 132 140.5 176s141.5 66 227.5 66c84.667 0 160.167 -22.167 226.5 -66.5s113.833 -103.166 142.5 -176.499c16.667 -42 26.834 -83.833 30.501 -125.5
s5.5 -104.167 5.5 -187.5v-33h-660c0 -43.333 0.666992 -78.166 2 -104.499s6.5 -58 15.5 -95s22.167 -67.833 39.5 -92.5c46 -66 118.667 -99 218 -99c88.667 0 184 24.333 286 73l57 -124c-118 -55.333 -232.333 -83 -343 -83zM784.998 632.996
c-1.33301 76 -11.001 136.334 -29.001 181.001c-18 46 -47.167 82.5 -87.5 109.5s-86.5 40.5 -138.5 40.5c-54 0 -100.667 -13.5 -140 -40.5s-67.666 -63.167 -84.999 -108.5c-18 -46.667 -27.667 -107.334 -29 -182.001h509z" />
    <glyph glyph-name="Gcircumflex" unicode="&#x11c;" horiz-adv-x="1236" 
d="M758 1556l-140 138l-140 -138h-171l258 274h106l258 -274h-171zM618 1435c134.667 0 259.335 -40.3311 374.002 -120.998l-80 -120c-94.667 67.333 -192.667 101 -294 101c-138.667 0 -232.667 -56.667 -282 -170c-21.333 -48.667 -35 -106.334 -41 -173.001
s-9 -148 -9 -244s3 -177.333 9 -244s19.667 -124.334 41 -173.001c49.333 -113.333 143.333 -170 282 -170s232.667 56.667 282 170c29.333 66.667 45.666 170.334 48.999 311.001h-301v140h458c0 -84 -0.833008 -148.833 -2.5 -194.5s-7.16699 -98.167 -16.5 -157.5
s-23.333 -110 -42 -152c-35.333 -79.333 -89.333 -142 -162 -188s-161 -69 -265 -69c-103.333 0 -191.5 23 -264.5 69s-127.167 108.667 -162.5 188c-18 40 -31.833 88.833 -41.5 146.5s-15.334 108.667 -17.001 153s-2.5 101.166 -2.5 170.499
c0 106.667 3.83301 197.667 11.5 273s24.167 141 49.5 197c36.667 80 91.5 142.833 164.5 188.5s160.5 68.5 262.5 68.5z" />
    <glyph glyph-name="gcircumflex" unicode="&#x11d;" horiz-adv-x="1115" 
d="M660 1222l-140 138l-140 -138h-171l258 274h106l258 -274h-171zM520 1098c111.333 0 206.334 -43.668 285.001 -131.001v115h150v-971c0 -117.333 -5.33301 -196.666 -16 -237.999c-25.333 -98 -76.333 -172.5 -153 -223.5s-165.334 -76.5 -266.001 -76.5
c-106.667 0 -218.667 24.333 -336 73l50 126c104 -43.333 199.333 -65 286 -65c69.333 0 128.5 17 177.5 51s81.167 84 96.5 150c7.33301 32 11 101 11 207c-78.667 -87.333 -173.667 -131 -285 -131c-68 0 -129.667 14.667 -185 44s-98.666 68 -129.999 116
c-33.333 51.333 -55 106.5 -65 165.5s-15 136.167 -15 231.5s5 172.5 15 231.5s31.667 114.167 65 165.5c31.333 48 74.666 86.667 129.999 116s117 44 185 44zM540.001 963.999c-89.333 0 -157.666 -32.667 -204.999 -98c-25.333 -34.667 -41.666 -76.667 -48.999 -126
s-11 -115.666 -11 -198.999s3.66699 -149.666 11 -198.999s23.666 -91.333 48.999 -126c47.333 -65.333 115.666 -98 204.999 -98s157.666 32.667 204.999 98c25.333 34.667 41.666 76.667 48.999 126s11 115.666 11 198.999s-3.66699 149.666 -11 198.999
s-23.666 91.333 -48.999 126c-47.333 65.333 -115.666 98 -204.999 98z" />
    <glyph glyph-name="Gbreve" unicode="&#x11e;" horiz-adv-x="1236" 
d="M354 1830h140c0 -54 12.167 -94.833 36.5 -122.5s53.833 -41.5 88.5 -41.5s64.167 13.833 88.5 41.5s36.5 68.5 36.5 122.5h140c0 -79.333 -24 -147.166 -72 -203.499s-112.333 -84.5 -193 -84.5s-145 28.167 -193 84.5s-72 124.166 -72 203.499zM618 1435
c134.667 0 259.335 -40.3311 374.002 -120.998l-80 -120c-94.667 67.333 -192.667 101 -294 101c-138.667 0 -232.667 -56.667 -282 -170c-21.333 -48.667 -35 -106.334 -41 -173.001s-9 -148 -9 -244s3 -177.333 9 -244s19.667 -124.334 41 -173.001
c49.333 -113.333 143.333 -170 282 -170s232.667 56.667 282 170c29.333 66.667 45.666 170.334 48.999 311.001h-301v140h458c0 -84 -0.833008 -148.833 -2.5 -194.5s-7.16699 -98.167 -16.5 -157.5s-23.333 -110 -42 -152c-35.333 -79.333 -89.333 -142 -162 -188
s-161 -69 -265 -69c-103.333 0 -191.5 23 -264.5 69s-127.167 108.667 -162.5 188c-18 40 -31.833 88.833 -41.5 146.5s-15.334 108.667 -17.001 153s-2.5 101.166 -2.5 170.499c0 106.667 3.83301 197.667 11.5 273s24.167 141 49.5 197
c36.667 80 91.5 142.833 164.5 188.5s160.5 68.5 262.5 68.5z" />
    <glyph glyph-name="gbreve" unicode="&#x11f;" horiz-adv-x="1115" 
d="M256 1496h140c0 -54 12.167 -94.833 36.5 -122.5s53.833 -41.5 88.5 -41.5s64.167 13.833 88.5 41.5s36.5 68.5 36.5 122.5h140c0 -79.333 -24 -147.166 -72 -203.499s-112.333 -84.5 -193 -84.5s-145 28.167 -193 84.5s-72 124.166 -72 203.499zM520 1098
c111.333 0 206.334 -43.668 285.001 -131.001v115h150v-971c0 -117.333 -5.33301 -196.666 -16 -237.999c-25.333 -98 -76.333 -172.5 -153 -223.5s-165.334 -76.5 -266.001 -76.5c-106.667 0 -218.667 24.333 -336 73l50 126c104 -43.333 199.333 -65 286 -65
c69.333 0 128.5 17 177.5 51s81.167 84 96.5 150c7.33301 32 11 101 11 207c-78.667 -87.333 -173.667 -131 -285 -131c-68 0 -129.667 14.667 -185 44s-98.666 68 -129.999 116c-33.333 51.333 -55 106.5 -65 165.5s-15 136.167 -15 231.5s5 172.5 15 231.5
s31.667 114.167 65 165.5c31.333 48 74.666 86.667 129.999 116s117 44 185 44zM540.001 963.999c-89.333 0 -157.666 -32.667 -204.999 -98c-25.333 -34.667 -41.666 -76.667 -48.999 -126s-11 -115.666 -11 -198.999s3.66699 -149.666 11 -198.999
s23.666 -91.333 48.999 -126c47.333 -65.333 115.666 -98 204.999 -98s157.666 32.667 204.999 98c25.333 34.667 41.666 76.667 48.999 126s11 115.666 11 198.999s-3.66699 149.666 -11 198.999s-23.666 91.333 -48.999 126c-47.333 65.333 -115.666 98 -204.999 98z" />
    <glyph glyph-name="Gdotaccent" unicode="&#x120;" horiz-adv-x="1236" 
d="M618 1769c27.333 0 49.833 -8.83301 67.5 -26.5s26.5 -40.167 26.5 -67.5s-8.83301 -49.833 -26.5 -67.5s-40.167 -26.5 -67.5 -26.5s-49.833 8.83301 -67.5 26.5s-26.5 40.167 -26.5 67.5s8.83301 49.833 26.5 67.5s40.167 26.5 67.5 26.5zM618 1435
c134.667 0 259.335 -40.3311 374.002 -120.998l-80 -120c-94.667 67.333 -192.667 101 -294 101c-138.667 0 -232.667 -56.667 -282 -170c-21.333 -48.667 -35 -106.334 -41 -173.001s-9 -148 -9 -244s3 -177.333 9 -244s19.667 -124.334 41 -173.001
c49.333 -113.333 143.333 -170 282 -170s232.667 56.667 282 170c29.333 66.667 45.666 170.334 48.999 311.001h-301v140h458c0 -84 -0.833008 -148.833 -2.5 -194.5s-7.16699 -98.167 -16.5 -157.5s-23.333 -110 -42 -152c-35.333 -79.333 -89.333 -142 -162 -188
s-161 -69 -265 -69c-103.333 0 -191.5 23 -264.5 69s-127.167 108.667 -162.5 188c-18 40 -31.833 88.833 -41.5 146.5s-15.334 108.667 -17.001 153s-2.5 101.166 -2.5 170.499c0 106.667 3.83301 197.667 11.5 273s24.167 141 49.5 197
c36.667 80 91.5 142.833 164.5 188.5s160.5 68.5 262.5 68.5z" />
    <glyph glyph-name="gdotaccent" unicode="&#x121;" horiz-adv-x="1115" 
d="M520 1435c27.333 0 49.833 -8.83301 67.5 -26.5s26.5 -40.167 26.5 -67.5s-8.83301 -49.833 -26.5 -67.5s-40.167 -26.5 -67.5 -26.5s-49.833 8.83301 -67.5 26.5s-26.5 40.167 -26.5 67.5s8.83301 49.833 26.5 67.5s40.167 26.5 67.5 26.5zM520 1098
c111.333 0 206.334 -43.668 285.001 -131.001v115h150v-971c0 -117.333 -5.33301 -196.666 -16 -237.999c-25.333 -98 -76.333 -172.5 -153 -223.5s-165.334 -76.5 -266.001 -76.5c-106.667 0 -218.667 24.333 -336 73l50 126c104 -43.333 199.333 -65 286 -65
c69.333 0 128.5 17 177.5 51s81.167 84 96.5 150c7.33301 32 11 101 11 207c-78.667 -87.333 -173.667 -131 -285 -131c-68 0 -129.667 14.667 -185 44s-98.666 68 -129.999 116c-33.333 51.333 -55 106.5 -65 165.5s-15 136.167 -15 231.5s5 172.5 15 231.5
s31.667 114.167 65 165.5c31.333 48 74.666 86.667 129.999 116s117 44 185 44zM540.001 963.999c-89.333 0 -157.666 -32.667 -204.999 -98c-25.333 -34.667 -41.666 -76.667 -48.999 -126s-11 -115.666 -11 -198.999s3.66699 -149.666 11 -198.999
s23.666 -91.333 48.999 -126c47.333 -65.333 115.666 -98 204.999 -98s157.666 32.667 204.999 98c25.333 34.667 41.666 76.667 48.999 126s11 115.666 11 198.999s-3.66699 149.666 -11 198.999s-23.666 91.333 -48.999 126c-47.333 65.333 -115.666 98 -204.999 98z" />
    <glyph glyph-name="uni0122" unicode="&#x122;" horiz-adv-x="1236" 
d="M716 -220c0 -21.333 -8.33398 -48.667 -25.001 -82l-72 -153h-92l53 149c-38 14 -57 42.667 -57 86c0 27.333 9.33301 50 28 68s41.334 27 68.001 27s49.5 -9 68.5 -27s28.5 -40.667 28.5 -68zM617.999 1435c134.667 0 259.335 -40.3311 374.002 -120.998l-80 -120
c-94.667 67.333 -192.667 101 -294 101c-138.667 0 -232.667 -56.667 -282 -170c-21.333 -48.667 -35 -106.334 -41 -173.001s-9 -148 -9 -244s3 -177.333 9 -244s19.667 -124.334 41 -173.001c49.333 -113.333 143.333 -170 282 -170s232.667 56.667 282 170
c29.333 66.667 45.666 170.334 48.999 311.001h-301v140h458c0 -84 -0.833008 -148.833 -2.5 -194.5s-7.16699 -98.167 -16.5 -157.5s-23.333 -110 -42 -152c-35.333 -79.333 -89.333 -142 -162 -188s-161 -69 -265 -69c-103.333 0 -191.5 23 -264.5 69
s-127.167 108.667 -162.5 188c-18 40 -31.833 88.833 -41.5 146.5s-15.334 108.667 -17.001 153s-2.5 101.166 -2.5 170.499c0 106.667 3.83301 197.667 11.5 273s24.167 141 49.5 197c36.667 80 91.5 142.833 164.5 188.5s160.5 68.5 262.5 68.5z" />
    <glyph glyph-name="uni0123" unicode="&#x123;" horiz-adv-x="1115" 
d="M423 1301c0 21.333 8.33398 48.667 25.001 82l72 153h92l-53 -149c38 -14 57 -42.667 57 -86c0 -27.333 -9.33301 -50 -28 -68s-41.334 -27 -68.001 -27s-49.5 9 -68.5 27s-28.5 40.667 -28.5 68zM520.001 1098c111.333 0 206.334 -43.668 285.001 -131.001v115h150v-971
c0 -117.333 -5.33301 -196.666 -16 -237.999c-25.333 -98 -76.333 -172.5 -153 -223.5s-165.334 -76.5 -266.001 -76.5c-106.667 0 -218.667 24.333 -336 73l50 126c104 -43.333 199.333 -65 286 -65c69.333 0 128.5 17 177.5 51s81.167 84 96.5 150
c7.33301 32 11 101 11 207c-78.667 -87.333 -173.667 -131 -285 -131c-68 0 -129.667 14.667 -185 44s-98.666 68 -129.999 116c-33.333 51.333 -55 106.5 -65 165.5s-15 136.167 -15 231.5s5 172.5 15 231.5s31.667 114.167 65 165.5c31.333 48 74.666 86.667 129.999 116
s117 44 185 44zM540.002 964c-89.333 0 -157.666 -32.667 -204.999 -98c-25.333 -34.667 -41.666 -76.667 -48.999 -126s-11 -115.666 -11 -198.999s3.66699 -149.666 11 -198.999s23.666 -91.333 48.999 -126c47.333 -65.333 115.666 -98 204.999 -98
s157.666 32.667 204.999 98c25.333 34.667 41.666 76.667 48.999 126s11 115.666 11 198.999s-3.66699 149.666 -11 198.999s-23.666 91.333 -48.999 126c-47.333 65.333 -115.666 98 -204.999 98z" />
    <glyph glyph-name="Hcircumflex" unicode="&#x124;" horiz-adv-x="1280" 
d="M780 1556l-140 138l-140 -138h-171l258 274h106l258 -274h-171zM180 1416h156v-624h608v624h156v-1416h-156v652h-608v-652h-156v1416z" />
    <glyph glyph-name="hcircumflex" unicode="&#x125;" 
d="M374 1636l-140 138l-140 -138h-171l258 274h106l258 -274h-171zM585 1098c58.667 0 112.332 -12.002 160.999 -36.002s89 -56 121 -96c20 -24.667 36 -50.667 48 -78s20.333 -57.666 25 -90.999s7.5 -60.666 8.5 -81.999s1.5 -51.333 1.5 -90v-625h-150v615
c0 50.667 -0.666992 87.834 -2 111.501s-6.33301 50.5 -15 80.5s-22.334 55.667 -41.001 77c-45.333 53.333 -107.666 80 -186.999 80s-141.666 -26.667 -186.999 -80c-18.667 -21.333 -32.334 -47 -41.001 -77s-13.667 -56.833 -15 -80.5s-2 -60.834 -2 -111.501v-615h-150
v1496h150v-528c78.667 86.667 170.334 130 275.001 130z" />
    <glyph glyph-name="Hbar" unicode="&#x126;" horiz-adv-x="1380" 
d="M1300 1260v-124h-146v-1136h-156v652h-608v-652h-156v1136h-154v124h154v156h156v-156h608v156h156v-156h146zM998 1136h-608v-344h608v344z" />
    <glyph glyph-name="hbar" unicode="&#x127;" horiz-adv-x="1130" 
d="M625 1098c58.667 0 112.332 -12.002 160.999 -36.002s89 -56 121 -96c20 -24.667 36 -50.667 48 -78s20.333 -57.666 25 -90.999s7.5 -60.666 8.5 -81.999s1.5 -51.333 1.5 -90v-625h-150v615c0 50.667 -0.666992 87.834 -2 111.501s-6.33301 50.5 -15 80.5
s-22.334 55.667 -41.001 77c-45.333 53.333 -107.666 80 -186.999 80s-141.666 -26.667 -186.999 -80c-18.667 -21.333 -32.334 -47 -41.001 -77s-13.667 -56.833 -15 -80.5s-2 -60.834 -2 -111.501v-615h-150v1236h-140v124h140v136h150v-136h242v-124h-242v-268
c78.667 86.667 170.334 130 275.001 130z" />
    <glyph glyph-name="Itilde" unicode="&#x128;" horiz-adv-x="516" 
d="M354 1680c32 0 61.667 23.333 89 70l115 -71c-20.667 -36 -48.5 -65.5 -83.5 -88.5s-75.167 -34.5 -120.5 -34.5c-29.333 0 -56.333 5 -81 15s-46 20 -64 30s-33.667 15 -47 15c-32 0 -61.667 -23.333 -89 -70l-115 71c20.667 36 48.5 65.5 83.5 88.5
s75.167 34.5 120.5 34.5c29.333 0 56.333 -5 81 -15s46 -20 64 -30s33.667 -15 47 -15zM336 1416v-1416h-156v1416h156z" />
    <glyph glyph-name="itilde" unicode="&#x129;" horiz-adv-x="470" 
d="M331 1346c32 0 61.667 23.333 89 70l115 -71c-20.667 -36 -48.5 -65.5 -83.5 -88.5s-75.167 -34.5 -120.5 -34.5c-29.333 0 -56.333 5 -81 15s-46 20 -64 30s-33.667 15 -47 15c-32 0 -61.667 -23.333 -89 -70l-115 71c20.667 36 48.5 65.5 83.5 88.5
s75.167 34.5 120.5 34.5c29.333 0 56.333 -5 81 -15s46 -20 64 -30s33.667 -15 47 -15zM310 0h-150v1082h150v-1082z" />
    <glyph glyph-name="Imacron" unicode="&#x12a;" horiz-adv-x="516" 
d="M-27 1720h570v-134h-570v134zM336 1416v-1416h-156v1416h156z" />
    <glyph glyph-name="imacron" unicode="&#x12b;" horiz-adv-x="470" 
d="M-50 1386h570v-134h-570v134zM310 0h-150v1082h150v-1082z" />
    <glyph glyph-name="Ibreve" unicode="&#x12c;" horiz-adv-x="516" 
d="M-6 1830h140c0 -54 12.167 -94.833 36.5 -122.5s53.833 -41.5 88.5 -41.5s64.167 13.833 88.5 41.5s36.5 68.5 36.5 122.5h140c0 -79.333 -24 -147.166 -72 -203.499s-112.333 -84.5 -193 -84.5s-145 28.167 -193 84.5s-72 124.166 -72 203.499zM336 1416v-1416h-156
v1416h156z" />
    <glyph glyph-name="ibreve" unicode="&#x12d;" horiz-adv-x="470" 
d="M-29 1496h140c0 -54 12.167 -94.833 36.5 -122.5s53.833 -41.5 88.5 -41.5s64.167 13.833 88.5 41.5s36.5 68.5 36.5 122.5h140c0 -79.333 -24 -147.166 -72 -203.499s-112.333 -84.5 -193 -84.5s-145 28.167 -193 84.5s-72 124.166 -72 203.499zM310 0h-150v1082h150
v-1082z" />
    <glyph glyph-name="Iogonek" unicode="&#x12e;" horiz-adv-x="516" 
d="M130 -216c0 -26 7.33105 -47.5 21.998 -64.5s34.334 -25.5 59.001 -25.5s49.334 8.33301 74.001 25l65 -110c-44.667 -26 -91 -39 -139 -39c-62.667 0 -112.5 18.667 -149.5 56s-55.5 83 -55.5 137c0 97.333 58 178.333 174 243v1410h156v-1416h-4
c-23.333 -8.66699 -45.833 -19 -67.5 -31s-43 -26.667 -64 -44s-38 -38.333 -51 -63s-19.5 -50.667 -19.5 -78z" />
    <glyph glyph-name="iogonek" unicode="&#x12f;" horiz-adv-x="480" 
d="M113 -216c0 -26 7.33203 -47.5 21.999 -64.5s34.334 -25.5 59.001 -25.5c24 0 48.667 8.33301 74 25l65 -110c-44.667 -26 -91 -39 -139 -39c-62.667 0 -112.5 18.667 -149.5 56s-55.5 83 -55.5 137c0 98 58.667 179.333 176 244v1075h150v-1082
c-23.333 -8.66699 -45.833 -19 -67.5 -31s-43 -26.667 -64 -44s-38 -38.333 -51 -63s-19.5 -50.667 -19.5 -78zM239.999 1435c27.333 0 49.833 -8.83301 67.5 -26.5s26.5 -40.167 26.5 -67.5s-8.83301 -49.833 -26.5 -67.5s-40.167 -26.5 -67.5 -26.5
s-49.833 8.83301 -67.5 26.5s-26.5 40.167 -26.5 67.5s8.83301 49.833 26.5 67.5s40.167 26.5 67.5 26.5z" />
    <glyph glyph-name="Idotaccent" unicode="&#x130;" horiz-adv-x="516" 
d="M258 1769c27.333 0 49.833 -8.83301 67.5 -26.5s26.5 -40.167 26.5 -67.5s-8.83301 -49.833 -26.5 -67.5s-40.167 -26.5 -67.5 -26.5s-49.833 8.83301 -67.5 26.5s-26.5 40.167 -26.5 67.5s8.83301 49.833 26.5 67.5s40.167 26.5 67.5 26.5zM336 1416v-1416h-156v1416
h156z" />
    <glyph glyph-name="dotlessi" unicode="&#x131;" horiz-adv-x="470" 
d="M310 0h-150v1082h150v-1082z" />
    <glyph glyph-name="Jcircumflex" unicode="&#x134;" horiz-adv-x="958" 
d="M860 1556l-140 138l-140 -138h-171l258 274h106l258 -274h-171zM642 1416h156.002v-983c0 -83.333 -3.66699 -142 -11 -176c-18 -82 -59.667 -148.5 -125 -199.5s-144.333 -76.5 -237 -76.5c-121.333 0 -236.333 40.667 -345 122l89 116
c79.333 -65.333 161.333 -98 246 -98c51.333 0 95.666 12.333 132.999 37s63.666 60 78.999 106c10 30 15 86.333 15 169v983z" />
    <glyph glyph-name="jcircumflex" unicode="&#x135;" horiz-adv-x="480" 
d="M380 1222l-140 138l-140 -138h-171l258 274h106l258 -274h-171zM315 -134c0 -62.667 -3.33203 -106 -9.99902 -130c-14 -50 -41.333 -89.833 -82 -119.5s-88.334 -44.5 -143.001 -44.5c-47.333 0 -91 6.33301 -131 19l38 130c30 -10 57.667 -15 83 -15
c42.667 0 71 18 85 54c6.66699 16.667 10 53.667 10 111v1211h150v-1216z" />
    <glyph glyph-name="uni0136" unicode="&#x136;" horiz-adv-x="1179" 
d="M712 -220c0 -21.333 -8.33398 -48.667 -25.001 -82l-72 -153h-92l53 149c-38 14 -57 42.667 -57 86c0 27.333 9.33301 50 28 68s41.334 27 68.001 27s49.5 -9 68.5 -27s28.5 -40.667 28.5 -68zM335.999 600.999l598 815h177l-505 -681l523 -735h-185l-437 624l-171 -224
v-400h-156v1416h156v-815z" />
    <glyph glyph-name="uni0137" unicode="&#x137;" horiz-adv-x="995" 
d="M587 -220c0 -21.333 -8.33398 -48.667 -25.001 -82l-72 -153h-92l53 149c-38 14 -57 42.667 -57 86c0 27.333 9.33301 50 28 68s41.334 27 68.001 27s49.5 -9 68.5 -27s28.5 -40.667 28.5 -68zM159.999 1496h150v-1007l439 593h176l-401 -535l411 -547h-180l-325 443
l-120 -156v-287h-150v1496z" />
    <glyph glyph-name="kgreenlandic" unicode="&#x138;" horiz-adv-x="995" 
d="M160 1082h150v-593l439 593h176l-401 -535l411 -547h-180l-325 443l-120 -156v-287h-150v1082z" />
    <glyph glyph-name="Lacute" unicode="&#x139;" horiz-adv-x="980" 
d="M471 1830l-165 -274h-158l154 274h169zM180 1416h156v-1276h564v-140h-720v1416z" />
    <glyph glyph-name="lacute" unicode="&#x13a;" horiz-adv-x="486" 
d="M479 1892l-165 -274h-158l154 274h169zM402 124l24.001 -128c-26.667 -8 -57.334 -12 -92.001 -12c-54.667 0 -100 22 -136 66c-25.333 30.667 -38 77.667 -38 141v1305h150v-1305c0 -30 3.66699 -49.667 11 -59s19 -14 35 -14c14.667 0 30 2 46 6z" />
    <glyph glyph-name="uni013B" unicode="&#x13b;" horiz-adv-x="980" 
d="M639 -220c0 -21.333 -8.33398 -48.667 -25.001 -82l-72 -153h-92l53 149c-38 14 -57 42.667 -57 86c0 27.333 9.33301 50 28 68s41.334 27 68.001 27s49.5 -9 68.5 -27s28.5 -40.667 28.5 -68zM179.999 1416h156v-1276h564v-140h-720v1416z" />
    <glyph glyph-name="lcedilla" unicode="&#x13c;" horiz-adv-x="486" 
d="M431 -233c0 -21.333 -8.33398 -48.667 -25.001 -82l-72 -153h-92l53 149c-38 14 -57 42.667 -57 86c0 27.333 9.33301 50 28 68s41.334 27 68.001 27s49.5 -9 68.5 -27s28.5 -40.667 28.5 -68zM401.999 123.999l24.001 -128c-26.667 -8 -57.334 -12 -92.001 -12
c-54.667 0 -100 22 -136 66c-25.333 30.667 -38 77.667 -38 141v1305h150v-1305c0 -30 3.66699 -49.667 11 -59s19 -14 35 -14c14.667 0 30 2 46 6z" />
    <glyph glyph-name="Lcaron" unicode="&#x13d;" horiz-adv-x="980" 
d="M685 1512c32.667 0 59.167 -10.166 79.5 -30.499s30.5 -46.833 30.5 -79.5c0 -20.667 -8.33301 -51.334 -25 -92.001l-90 -222h-98l57 213c-18.667 7.33301 -34 20 -46 38s-18 39 -18 63c0 32.667 10.167 59.167 30.5 79.5s46.833 30.5 79.5 30.5zM180 1416h156v-1276
h564v-140h-720v1416z" />
    <glyph glyph-name="lcaron" unicode="&#x13e;" horiz-adv-x="824" 
d="M594 1592c32.667 0 59.167 -10.166 79.5 -30.499s30.5 -46.833 30.5 -79.5c0 -20.667 -8.33301 -51.334 -25 -92.001l-90 -222h-98l57 213c-18.667 7.33301 -34 20 -46 38s-18 39 -18 63c0 32.667 10.167 59.167 30.5 79.5s46.833 30.5 79.5 30.5zM402 124.001
l24.001 -128c-26.667 -8 -57.334 -12 -92.001 -12c-54.667 0 -100 22 -136 66c-25.333 30.667 -38 77.667 -38 141v1305h150v-1305c0 -30 3.66699 -49.667 11 -59s19 -14 35 -14c14.667 0 30 2 46 6z" />
    <glyph glyph-name="Ldot" unicode="&#x13f;" horiz-adv-x="980" 
d="M651 832c32.667 0 59.167 -10.167 79.5 -30.5s30.5 -46.833 30.5 -79.5s-10.167 -59.167 -30.5 -79.5s-46.833 -30.5 -79.5 -30.5s-59.167 10.167 -79.5 30.5s-30.5 46.833 -30.5 79.5s10.167 59.167 30.5 79.5s46.833 30.5 79.5 30.5zM180 1416h156v-1276h564v-140h-720
v1416z" />
    <glyph glyph-name="ldot" unicode="&#x140;" horiz-adv-x="814" 
d="M584 834c32.667 0 59.167 -10.167 79.5 -30.5s30.5 -46.833 30.5 -79.5s-10.167 -59.167 -30.5 -79.5s-46.833 -30.5 -79.5 -30.5s-59.167 10.167 -79.5 30.5s-30.5 46.833 -30.5 79.5s10.167 59.167 30.5 79.5s46.833 30.5 79.5 30.5zM402 124l24.001 -128
c-26.667 -8 -57.334 -12 -92.001 -12c-54.667 0 -100 22 -136 66c-25.333 30.667 -38 77.667 -38 141v1305h150v-1305c0 -30 3.66699 -49.667 11 -59s19 -14 35 -14c14.667 0 30 2 46 6z" />
    <glyph glyph-name="Lslash" unicode="&#x141;" horiz-adv-x="1057" 
d="M565 998l76 -108l-228 -159v-591h564v-140h-720v623l-116 -81l-76 108l192 134v632h156v-524z" />
    <glyph glyph-name="lslash" unicode="&#x142;" horiz-adv-x="696" 
d="M137 542l-72 104l213 148v702h150v-597l131 91l72 -104l-203 -141v-554c0 -30 3.66699 -49.667 11 -59s19 -14 35 -14c14.667 0 30 2 46 6l24 -128c-27.333 -8 -58 -12 -92 -12c-54.667 0 -100 22 -136 66c-25.333 30.667 -38 77.667 -38 141v449z" />
    <glyph glyph-name="Nacute" unicode="&#x143;" horiz-adv-x="1294" 
d="M859 1830l-165 -274h-158l154 274h169zM958 1416h156v-1416h-157l-621 1136v-1136h-156v1416h157l621 -1136v1136z" />
    <glyph glyph-name="nacute" unicode="&#x144;" 
d="M787 1496l-165 -274h-158l154 274h169zM585 1098c74 0 141.165 -19.5 201.498 -58.5s104.5 -93.5 132.5 -163.5c10 -24 17.333 -51.333 22 -82s7.33398 -56.5 8.00098 -77.5s1 -51.5 1 -91.5v-625h-150v615c0 63.333 -1.33301 109.166 -4 137.499s-10 55.5 -22 81.5
c-18.667 41.333 -47.5 73.333 -86.5 96s-83.167 34 -132.5 34s-93.5 -11.333 -132.5 -34s-67.833 -54.667 -86.5 -96c-12 -26 -19.333 -53.167 -22 -81.5s-4 -74.166 -4 -137.499v-615h-150v1082h150v-114c78.667 86.667 170.334 130 275.001 130z" />
    <glyph glyph-name="uni0145" unicode="&#x145;" horiz-adv-x="1294" 
d="M745 -220c0 -21.333 -8.33398 -48.667 -25.001 -82l-72 -153h-92l53 149c-38 14 -57 42.667 -57 86c0 27.333 9.33301 50 28 68s41.334 27 68.001 27s49.5 -9 68.5 -27s28.5 -40.667 28.5 -68zM957.999 1416h156v-1416h-157l-621 1136v-1136h-156v1416h157l621 -1136
v1136z" />
    <glyph glyph-name="uni0146" unicode="&#x146;" 
d="M648 -220c0 -21.333 -8.33398 -48.667 -25.001 -82l-72 -153h-92l53 149c-38 14 -57 42.667 -57 86c0 27.333 9.33301 50 28 68s41.334 27 68.001 27s49.5 -9 68.5 -27s28.5 -40.667 28.5 -68zM584.999 1098c74 0 141.165 -19.5 201.498 -58.5s104.5 -93.5 132.5 -163.5
c10 -24 17.333 -51.333 22 -82s7.33398 -56.5 8.00098 -77.5s1 -51.5 1 -91.5v-625h-150v615c0 63.333 -1.33301 109.166 -4 137.499s-10 55.5 -22 81.5c-18.667 41.333 -47.5 73.333 -86.5 96s-83.167 34 -132.5 34s-93.5 -11.333 -132.5 -34s-67.833 -54.667 -86.5 -96
c-12 -26 -19.333 -53.167 -22 -81.5s-4 -74.166 -4 -137.499v-615h-150v1082h150v-114c78.667 86.667 170.334 130 275.001 130z" />
    <glyph glyph-name="Ncaron" unicode="&#x147;" horiz-adv-x="1294" 
d="M507 1830l140 -138l140 138h171l-258 -274h-106l-258 274h171zM958 1416h156v-1416h-157l-621 1136v-1136h-156v1416h157l621 -1136v1136z" />
    <glyph glyph-name="ncaron" unicode="&#x148;" 
d="M435 1496l140 -138l140 138h171l-258 -274h-106l-258 274h171zM585 1098c74 0 141.165 -19.5 201.498 -58.5s104.5 -93.5 132.5 -163.5c10 -24 17.333 -51.333 22 -82s7.33398 -56.5 8.00098 -77.5s1 -51.5 1 -91.5v-625h-150v615c0 63.333 -1.33301 109.166 -4 137.499
s-10 55.5 -22 81.5c-18.667 41.333 -47.5 73.333 -86.5 96s-83.167 34 -132.5 34s-93.5 -11.333 -132.5 -34s-67.833 -54.667 -86.5 -96c-12 -26 -19.333 -53.167 -22 -81.5s-4 -74.166 -4 -137.499v-615h-150v1082h150v-114c78.667 86.667 170.334 130 275.001 130z" />
    <glyph glyph-name="napostrophe" unicode="&#x149;" horiz-adv-x="1370" 
d="M875 1098c74 0 141.165 -19.5 201.498 -58.5s104.5 -93.5 132.5 -163.5c10 -24 17.333 -51.333 22 -82s7.33398 -56.5 8.00098 -77.5s1 -51.5 1 -91.5v-625h-150v615c0 63.333 -1.33301 109.166 -4 137.499s-10 55.5 -22 81.5c-18.667 41.333 -47.5 73.333 -86.5 96
s-83.167 34 -132.5 34s-93.5 -11.333 -132.5 -34s-67.833 -54.667 -86.5 -96c-12 -26 -19.333 -53.167 -22 -81.5s-4 -74.166 -4 -137.499v-615h-150v1082h150v-114c78.667 86.667 170.334 130 275.001 130zM269.998 1512c32.667 0 59.167 -10.166 79.5 -30.499
s30.5 -46.833 30.5 -79.5c0 -20.667 -8.33301 -51.334 -25 -92.001l-90 -222h-98l57 213c-18.667 7.33301 -34 20 -46 38s-18 39 -18 63c0 32.667 10.167 59.167 30.5 79.5s46.833 30.5 79.5 30.5z" />
    <glyph glyph-name="Eng" unicode="&#x14a;" horiz-adv-x="1286" 
d="M954 1416h156v-1537c0 -53.333 -2.16699 -93.5 -6.5 -120.5s-13.5 -52.833 -27.5 -77.5c-43.333 -76 -116.333 -114 -219 -114c-42.667 0 -84 8.33301 -124 25l51 131c24.667 -10.667 50 -16 76 -16c36.667 0 62.667 12.667 78 38c7.33301 12 11.833 26.667 13.5 44
s2.5 47.333 2.5 90v119l-622 1138v-1136h-156v1416h157l621 -1136v1136z" />
    <glyph glyph-name="eng" unicode="&#x14b;" 
d="M950 -134c0 -62.667 -3.33398 -106 -10.001 -130c-14 -50 -41.333 -89.833 -82 -119.5s-88.334 -44.5 -143.001 -44.5c-47.333 0 -91 6.33301 -131 19l38 130c30 -10 57.667 -15 83 -15c42.667 0 71 18 85 54c6.66699 16.667 10 53.667 10 111v744
c0 63.333 -1.33301 109.166 -4 137.499s-10 55.5 -22 81.5c-18.667 41.333 -47.5 73.333 -86.5 96s-83.167 34 -132.5 34s-93.5 -11.333 -132.5 -34s-67.833 -54.667 -86.5 -96c-12 -26 -19.333 -53.167 -22 -81.5s-4 -74.166 -4 -137.499v-615h-150v1082h150v-114
c78.667 86.667 170.334 130 275.001 130c74 0 141.167 -19.5 201.5 -58.5s104.5 -93.5 132.5 -163.5c10 -24 17.333 -51.333 22 -82s7.33398 -56.5 8.00098 -77.5s1 -51.5 1 -91.5v-759z" />
    <glyph glyph-name="Omacron" unicode="&#x14c;" horiz-adv-x="1256" 
d="M383 1720h570v-134h-570v134zM648 1435c104 0 193 -23 267 -69s129 -108 165 -186c20.667 -44 36.167 -96.667 46.5 -158s16.166 -112 17.499 -152s2 -94 2 -162s-0.666992 -122 -2 -162s-7.16602 -90.667 -17.499 -152s-25.833 -114 -46.5 -158
c-36 -78 -91 -140 -165 -186s-163 -69 -267 -69s-193 23 -267 69s-129 108 -165 186c-20.667 44 -36.167 96.667 -46.5 158s-16.166 112 -17.499 152s-2 94 -2 162s0.666992 122 2 162s7.16602 90.667 17.499 152s25.833 114 46.5 158c36 78 91 140 165 186s163 69 267 69z
M648 1295c-70.667 0 -130.334 -14.833 -179.001 -44.5s-85 -70.834 -109 -123.501c-16.667 -35.333 -29.167 -79.5 -37.5 -132.5s-13.166 -98.333 -14.499 -136s-2 -87.834 -2 -150.501s0.666992 -112.834 2 -150.501s6.16602 -83 14.499 -136s20.833 -97.167 37.5 -132.5
c24 -52.667 60.333 -93.834 109 -123.501s108.334 -44.5 179.001 -44.5s130.334 14.833 179.001 44.5s85 70.834 109 123.501c16.667 35.333 29.167 79.5 37.5 132.5s13.166 98.333 14.499 136s2 87.834 2 150.501s-0.666992 112.834 -2 150.501s-6.16602 83 -14.499 136
s-20.833 97.167 -37.5 132.5c-24 52.667 -60.333 93.834 -109 123.501s-108.334 44.5 -179.001 44.5z" />
    <glyph glyph-name="omacron" unicode="&#x14d;" 
d="M305 1386h570v-134h-570v134zM570 964c-86.667 0 -153 -26.333 -199 -79c-18 -20.667 -32.5 -43.834 -43.5 -69.501s-18.667 -55.667 -23 -90s-7 -63 -8 -86s-1.5 -55.833 -1.5 -98.5s0.5 -75.5 1.5 -98.5s3.66699 -51.667 8 -86s12 -64.333 23 -90
s25.5 -48.834 43.5 -69.501c46 -52.667 112.333 -79 199 -79s153 26.333 199 79c18 20.667 32.5 43.834 43.5 69.501s18.667 55.667 23 90s7 63 8 86s1.5 55.833 1.5 98.5s-0.5 75.5 -1.5 98.5s-3.66699 51.667 -8 86s-12 64.333 -23 90s-25.5 48.834 -43.5 69.501
c-46 52.667 -112.333 79 -199 79zM570 1098c66 0 126 -11.5 180 -34.5s98.333 -53.5 133 -91.5c26.667 -29.333 48.167 -61.166 64.5 -95.499s27.666 -72.666 33.999 -114.999s10.166 -77.333 11.499 -105s2 -66.167 2 -115.5s-0.666992 -87.833 -2 -115.5
s-5.16602 -62.667 -11.499 -105s-17.666 -80.666 -33.999 -114.999s-37.833 -66.166 -64.5 -95.499c-34.667 -38 -79 -68.5 -133 -91.5s-114 -34.5 -180 -34.5s-126 11.5 -180 34.5s-98.333 53.5 -133 91.5c-26.667 29.333 -48.167 61.166 -64.5 95.499
s-27.666 72.666 -33.999 114.999s-10.166 77.333 -11.499 105s-2 66.167 -2 115.5s0.666992 87.833 2 115.5s5.16602 62.667 11.499 105s17.666 80.666 33.999 114.999s37.833 66.166 64.5 95.499c34.667 38 79 68.5 133 91.5s114 34.5 180 34.5z" />
    <glyph glyph-name="Obreve" unicode="&#x14e;" horiz-adv-x="1256" 
d="M404 1791h140c0 -54 12.167 -94.833 36.5 -122.5s53.833 -41.5 88.5 -41.5s64.167 13.833 88.5 41.5s36.5 68.5 36.5 122.5h140c0 -79.333 -24 -147.166 -72 -203.499s-112.333 -84.5 -193 -84.5s-145 28.167 -193 84.5s-72 124.166 -72 203.499zM648 1435
c104 0 193 -23 267 -69s129 -108 165 -186c20.667 -44 36.167 -96.667 46.5 -158s16.166 -112 17.499 -152s2 -94 2 -162s-0.666992 -122 -2 -162s-7.16602 -90.667 -17.499 -152s-25.833 -114 -46.5 -158c-36 -78 -91 -140 -165 -186s-163 -69 -267 -69s-193 23 -267 69
s-129 108 -165 186c-20.667 44 -36.167 96.667 -46.5 158s-16.166 112 -17.499 152s-2 94 -2 162s0.666992 122 2 162s7.16602 90.667 17.499 152s25.833 114 46.5 158c36 78 91 140 165 186s163 69 267 69zM648 1295c-70.667 0 -130.334 -14.833 -179.001 -44.5
s-85 -70.834 -109 -123.501c-16.667 -35.333 -29.167 -79.5 -37.5 -132.5s-13.166 -98.333 -14.499 -136s-2 -87.834 -2 -150.501s0.666992 -112.834 2 -150.501s6.16602 -83 14.499 -136s20.833 -97.167 37.5 -132.5c24 -52.667 60.333 -93.834 109 -123.501
s108.334 -44.5 179.001 -44.5s130.334 14.833 179.001 44.5s85 70.834 109 123.501c16.667 35.333 29.167 79.5 37.5 132.5s13.166 98.333 14.499 136s2 87.834 2 150.501s-0.666992 112.834 -2 150.501s-6.16602 83 -14.499 136s-20.833 97.167 -37.5 132.5
c-24 52.667 -60.333 93.834 -109 123.501s-108.334 44.5 -179.001 44.5z" />
    <glyph glyph-name="obreve" unicode="&#x14f;" 
d="M326 1497h140c0 -54 12.167 -94.833 36.5 -122.5s53.833 -41.5 88.5 -41.5s64.167 13.833 88.5 41.5s36.5 68.5 36.5 122.5h140c0 -79.333 -24 -147.166 -72 -203.499s-112.333 -84.5 -193 -84.5s-145 28.167 -193 84.5s-72 124.166 -72 203.499zM570 964
c-86.667 0 -153 -26.333 -199 -79c-18 -20.667 -32.5 -43.834 -43.5 -69.501s-18.667 -55.667 -23 -90s-7 -63 -8 -86s-1.5 -55.833 -1.5 -98.5s0.5 -75.5 1.5 -98.5s3.66699 -51.667 8 -86s12 -64.333 23 -90s25.5 -48.834 43.5 -69.501c46 -52.667 112.333 -79 199 -79
s153 26.333 199 79c18 20.667 32.5 43.834 43.5 69.501s18.667 55.667 23 90s7 63 8 86s1.5 55.833 1.5 98.5s-0.5 75.5 -1.5 98.5s-3.66699 51.667 -8 86s-12 64.333 -23 90s-25.5 48.834 -43.5 69.501c-46 52.667 -112.333 79 -199 79zM570 1098c66 0 126 -11.5 180 -34.5
s98.333 -53.5 133 -91.5c26.667 -29.333 48.167 -61.166 64.5 -95.499s27.666 -72.666 33.999 -114.999s10.166 -77.333 11.499 -105s2 -66.167 2 -115.5s-0.666992 -87.833 -2 -115.5s-5.16602 -62.667 -11.499 -105s-17.666 -80.666 -33.999 -114.999
s-37.833 -66.166 -64.5 -95.499c-34.667 -38 -79 -68.5 -133 -91.5s-114 -34.5 -180 -34.5s-126 11.5 -180 34.5s-98.333 53.5 -133 91.5c-26.667 29.333 -48.167 61.166 -64.5 95.499s-27.666 72.666 -33.999 114.999s-10.166 77.333 -11.499 105s-2 66.167 -2 115.5
s0.666992 87.833 2 115.5s5.16602 62.667 11.499 105s17.666 80.666 33.999 114.999s37.833 66.166 64.5 95.499c34.667 38 79 68.5 133 91.5s114 34.5 180 34.5z" />
    <glyph glyph-name="Ohungarumlaut" unicode="&#x150;" horiz-adv-x="1256" 
d="M988 1830l-164 -274h-148l153 274h159zM690 1830l-164 -274h-148l153 274h159zM628 1435c104 0 193 -23 267 -69s129 -108 165 -186c20.667 -44 36.167 -96.667 46.5 -158s16.166 -112 17.499 -152s2 -94 2 -162s-0.666992 -122 -2 -162s-7.16602 -90.667 -17.499 -152
s-25.833 -114 -46.5 -158c-36 -78 -91 -140 -165 -186s-163 -69 -267 -69s-193 23 -267 69s-129 108 -165 186c-20.667 44 -36.167 96.667 -46.5 158s-16.166 112 -17.499 152s-2 94 -2 162s0.666992 122 2 162s7.16602 90.667 17.499 152s25.833 114 46.5 158
c36 78 91 140 165 186s163 69 267 69zM628 1295c-70.667 0 -130.334 -14.833 -179.001 -44.5s-85 -70.834 -109 -123.501c-16.667 -35.333 -29.167 -79.5 -37.5 -132.5s-13.166 -98.333 -14.499 -136s-2 -87.834 -2 -150.501s0.666992 -112.834 2 -150.501
s6.16602 -83 14.499 -136s20.833 -97.167 37.5 -132.5c24 -52.667 60.333 -93.834 109 -123.501s108.334 -44.5 179.001 -44.5s130.334 14.833 179.001 44.5s85 70.834 109 123.501c16.667 35.333 29.167 79.5 37.5 132.5s13.166 98.333 14.499 136s2 87.834 2 150.501
s-0.666992 112.834 -2 150.501s-6.16602 83 -14.499 136s-20.833 97.167 -37.5 132.5c-24 52.667 -60.333 93.834 -109 123.501s-108.334 44.5 -179.001 44.5z" />
    <glyph glyph-name="ohungarumlaut" unicode="&#x151;" 
d="M910 1496l-164 -274h-148l153 274h159zM612 1496l-164 -274h-148l153 274h159zM550 964c-86.667 0 -153 -26.333 -199 -79c-18 -20.667 -32.5 -43.834 -43.5 -69.501s-18.667 -55.667 -23 -90s-7 -63 -8 -86s-1.5 -55.833 -1.5 -98.5s0.5 -75.5 1.5 -98.5
s3.66699 -51.667 8 -86s12 -64.333 23 -90s25.5 -48.834 43.5 -69.501c46 -52.667 112.333 -79 199 -79s153 26.333 199 79c18 20.667 32.5 43.834 43.5 69.501s18.667 55.667 23 90s7 63 8 86s1.5 55.833 1.5 98.5s-0.5 75.5 -1.5 98.5s-3.66699 51.667 -8 86
s-12 64.333 -23 90s-25.5 48.834 -43.5 69.501c-46 52.667 -112.333 79 -199 79zM550 1098c66 0 126 -11.5 180 -34.5s98.333 -53.5 133 -91.5c26.667 -29.333 48.167 -61.166 64.5 -95.499s27.666 -72.666 33.999 -114.999s10.166 -77.333 11.499 -105s2 -66.167 2 -115.5
s-0.666992 -87.833 -2 -115.5s-5.16602 -62.667 -11.499 -105s-17.666 -80.666 -33.999 -114.999s-37.833 -66.166 -64.5 -95.499c-34.667 -38 -79 -68.5 -133 -91.5s-114 -34.5 -180 -34.5s-126 11.5 -180 34.5s-98.333 53.5 -133 91.5
c-26.667 29.333 -48.167 61.166 -64.5 95.499s-27.666 72.666 -33.999 114.999s-10.166 77.333 -11.499 105s-2 66.167 -2 115.5s0.666992 87.833 2 115.5s5.16602 62.667 11.499 105s17.666 80.666 33.999 114.999s37.833 66.166 64.5 95.499c34.667 38 79 68.5 133 91.5
s114 34.5 180 34.5z" />
    <glyph glyph-name="OE" unicode="&#x152;" horiz-adv-x="1670" 
d="M588 1295c-132 0 -219.333 -55.667 -262 -167c-12.667 -32 -22 -74.5 -28 -127.5s-9.5 -98.333 -10.5 -136s-1.5 -89.834 -1.5 -156.501s0.5 -118.834 1.5 -156.501s4.5 -83 10.5 -136s15.333 -95.5 28 -127.5c42.667 -111.333 130 -167 262 -167s219.333 55.667 262 167
c12.667 32 22 74.5 28 127.5s9.5 98.333 10.5 136s1.5 89.834 1.5 156.501s-0.5 118.834 -1.5 156.501s-4.5 83 -10.5 136s-15.333 95.5 -28 127.5c-42.667 111.333 -130 167 -262 167zM1046 652c-0.666992 -124.667 -8.16797 -227.498 -22.501 -308.498
s-45.166 -148.833 -92.499 -203.5h599v-140h-809c-42 -12.667 -86.333 -19 -133 -19c-101.333 0 -187.333 23.667 -258 71s-121 110.666 -151 189.999c-15.333 40 -26.833 89.333 -34.5 148s-12 108.167 -13 148.5s-1.5 96.833 -1.5 169.5s0.5 129.167 1.5 169.5
s5.33301 89.833 13 148.5s19.167 108 34.5 148c30 79.333 80.333 142.666 151 189.999s156.667 71 258 71c46.667 0 91 -6.33301 133 -19h809v-140h-599c46 -52 76.333 -116.5 91 -193.5s22.667 -173.833 24 -290.5h414v-140h-414z" />
    <glyph glyph-name="oe" unicode="&#x153;" horiz-adv-x="1715" 
d="M956 633l488.999 0.000976562c0 102 -18 179 -54 231c-46 66.667 -110.333 100 -193 100s-146 -33.667 -190 -101c-33.333 -50.667 -50.666 -127.334 -51.999 -230.001zM881.999 913.001c27.333 57.333 68.832 102.497 124.499 135.497s119.5 49.5 191.5 49.5
s137 -16.667 195 -50s103 -76 135 -128c27.333 -44.667 45.333 -92.167 54 -142.5s13 -116.5 13 -198.5v-70h-640c0 -68 3.33301 -124.333 10 -169s20.667 -84.334 42 -119.001c42.667 -68.667 113.667 -103 213 -103c82.667 0 175 24.333 277 73l59 -123
c-118.667 -56 -230.667 -84 -336 -84c-159.333 0 -272.666 61.333 -339.999 184c-36 -56.667 -82.833 -101.5 -140.5 -134.5s-124.167 -49.5 -199.5 -49.5c-71.333 0 -135.833 14.667 -193.5 44s-103.5 68 -137.5 116c-20 28.667 -36.167 58.334 -48.5 89.001
s-20.833 65.334 -25.5 104.001s-7.5 70.5 -8.5 95.5s-1.5 61.167 -1.5 108.5s0.5 83.5 1.5 108.5s3.83301 56.833 8.5 95.5s13.167 73.334 25.5 104.001s28.5 60.334 48.5 89.001c34 48 79.833 86.667 137.5 116s122.167 44 193.5 44c149.333 0 263.333 -61.667 342 -185z
M539.998 963.998c-90.667 0 -159 -32.667 -205 -98c-18.667 -26 -32.667 -59 -42 -99s-14.666 -74.167 -15.999 -102.5s-2 -69.5 -2 -123.5s0.666992 -95.167 2 -123.5s6.66602 -62.5 15.999 -102.5s23.333 -73 42 -99c46 -65.333 114.333 -98 205 -98s159 32.667 205 98
c18.667 26 32.667 59 42 99s14.666 74.167 15.999 102.5s2 69.5 2 123.5s-0.666992 95.167 -2 123.5s-6.66602 62.5 -15.999 102.5s-23.333 73 -42 99c-46 65.333 -114.333 98 -205 98z" />
    <glyph glyph-name="Racute" unicode="&#x154;" horiz-adv-x="1141" 
d="M768 1830l-165 -274h-158l154 274h169zM507 1416c46 0 80.1689 -0.5 102.502 -1.5s48.666 -4.16699 78.999 -9.5s59.833 -14 88.5 -26c75.333 -30.667 135.666 -81.167 180.999 -151.5s68 -150.833 68 -241.5c0 -91.333 -23 -172.333 -69 -243s-107 -121 -183 -151
l277 -592h-169l-254 556h-292v-556h-156v1416h327zM507.002 1276l-171 -0.00390625v-580h171c36.667 0 63.834 0.333008 81.501 1s38 2.83398 61 6.50098s43.5 9.16699 61.5 16.5c30 12.667 55.833 29.834 77.5 51.501s38.167 45.167 49.5 70.5s19.5 49.833 24.5 73.5
s7.5 47.167 7.5 70.5s-2.5 46.833 -7.5 70.5s-13.167 48.167 -24.5 73.5s-27.833 48.833 -49.5 70.5s-47.5 38.834 -77.5 51.501c-18 7.33301 -38.5 12.833 -61.5 16.5s-43.333 5.83398 -61 6.50098s-44.834 1 -81.501 1z" />
    <glyph glyph-name="racute" unicode="&#x155;" horiz-adv-x="697" 
d="M677 1496l-165 -274h-158l154 274h169zM310 968c72.667 86.667 157.667 130 255 130c27.333 0 58 -3.66699 92 -11l-22 -132c-42 6 -72 9 -90 9c-50.667 0 -94.667 -12 -132 -36s-64.333 -56.333 -81 -97c-14.667 -35.333 -22 -98 -22 -188v-643h-150v1082h150v-114z" />
    <glyph glyph-name="uni0156" unicode="&#x156;" horiz-adv-x="1141" 
d="M699 -220c0 -21.333 -8.33398 -48.667 -25.001 -82l-72 -153h-92l53 149c-38 14 -57 42.667 -57 86c0 27.333 9.33301 50 28 68s41.334 27 68.001 27s49.5 -9 68.5 -27s28.5 -40.667 28.5 -68zM506.999 1416c46 0 80.1689 -0.5 102.502 -1.5s48.666 -4.16699 78.999 -9.5
s59.833 -14 88.5 -26c75.333 -30.667 135.666 -81.167 180.999 -151.5s68 -150.833 68 -241.5c0 -91.333 -23 -172.333 -69 -243s-107 -121 -183 -151l277 -592h-169l-254 556h-292v-556h-156v1416h327zM507.001 1276l-171 -0.00390625v-580h171
c36.667 0 63.834 0.333008 81.501 1s38 2.83398 61 6.50098s43.5 9.16699 61.5 16.5c30 12.667 55.833 29.834 77.5 51.501s38.167 45.167 49.5 70.5s19.5 49.833 24.5 73.5s7.5 47.167 7.5 70.5s-2.5 46.833 -7.5 70.5s-13.167 48.167 -24.5 73.5
s-27.833 48.833 -49.5 70.5s-47.5 38.834 -77.5 51.501c-18 7.33301 -38.5 12.833 -61.5 16.5s-43.333 5.83398 -61 6.50098s-44.834 1 -81.501 1z" />
    <glyph glyph-name="uni0157" unicode="&#x157;" horiz-adv-x="697" 
d="M332 -220c0 -21.333 -8.33398 -48.667 -25.001 -82l-72 -153h-92l53 149c-38 14 -57 42.667 -57 86c0 27.333 9.33301 50 28 68s41.334 27 68.001 27s49.5 -9 68.5 -27s28.5 -40.667 28.5 -68zM309.999 967.999c72.667 86.667 157.667 130 255 130
c27.333 0 58 -3.66699 92 -11l-22 -132c-42 6 -72 9 -90 9c-50.667 0 -94.667 -12 -132 -36s-64.333 -56.333 -81 -97c-14.667 -35.333 -22 -98 -22 -188v-643h-150v1082h150v-114z" />
    <glyph glyph-name="Rcaron" unicode="&#x158;" horiz-adv-x="1141" 
d="M416 1830l140 -138l140 138h171l-258 -274h-106l-258 274h171zM507 1416c46 0 80.1689 -0.5 102.502 -1.5s48.666 -4.16699 78.999 -9.5s59.833 -14 88.5 -26c75.333 -30.667 135.666 -81.167 180.999 -151.5s68 -150.833 68 -241.5c0 -91.333 -23 -172.333 -69 -243
s-107 -121 -183 -151l277 -592h-169l-254 556h-292v-556h-156v1416h327zM507.002 1276l-171 -0.00390625v-580h171c36.667 0 63.834 0.333008 81.501 1s38 2.83398 61 6.50098s43.5 9.16699 61.5 16.5c30 12.667 55.833 29.834 77.5 51.501s38.167 45.167 49.5 70.5
s19.5 49.833 24.5 73.5s7.5 47.167 7.5 70.5s-2.5 46.833 -7.5 70.5s-13.167 48.167 -24.5 73.5s-27.833 48.833 -49.5 70.5s-47.5 38.834 -77.5 51.501c-18 7.33301 -38.5 12.833 -61.5 16.5s-43.333 5.83398 -61 6.50098s-44.834 1 -81.501 1z" />
    <glyph glyph-name="rcaron" unicode="&#x159;" horiz-adv-x="697" 
d="M325 1496l140 -138l140 138h171l-258 -274h-106l-258 274h171zM310 968c72.667 86.667 157.667 130 255 130c27.333 0 58 -3.66699 92 -11l-22 -132c-42 6 -72 9 -90 9c-50.667 0 -94.667 -12 -132 -36s-64.333 -56.333 -81 -97c-14.667 -35.333 -22 -98 -22 -188v-643
h-150v1082h150v-114z" />
    <glyph glyph-name="Sacute" unicode="&#x15a;" horiz-adv-x="1045" 
d="M729 1830l-165 -274h-158l154 274h169zM84 115l68.9961 126c138 -80 259.333 -120 364 -120c41.333 0 78.333 5.83301 111 17.5s58.834 26.667 78.501 45s36 39.666 49 63.999s21.833 48 26.5 71s7 46.167 7 69.5c0 53.333 -12.167 101.333 -36.5 144
s-64.166 74.334 -119.499 95.001c-26.667 10 -69.167 20.833 -127.5 32.5s-102.166 22.5 -131.499 32.5c-84 30 -148.333 77.333 -193 142s-67 138.334 -67 221.001c0 106.667 36 196.667 108 270s170.333 110 295 110c110 0 234.333 -33.333 373 -100l-60 -129
c-122.667 59.333 -227 89 -313 89c-82 0 -143.667 -23.333 -185 -70s-62 -103.334 -62 -170.001c0 -52 13 -99 39 -141s66.333 -72.333 121 -91c24.667 -8.66699 66.834 -19 126.501 -31s105.5 -24 137.5 -36c83.333 -32 146 -80.5 188 -145.5s63 -139.167 63 -222.5
c0 -54 -9.16699 -105.167 -27.5 -153.5s-44.666 -91.5 -78.999 -129.5s-79.333 -68.167 -135 -90.5s-117.834 -33.5 -186.501 -33.5c-78 0 -151.333 12 -220 36s-139.667 56.667 -213 98z" />
    <glyph glyph-name="sacute" unicode="&#x15b;" horiz-adv-x="963" 
d="M690 1496l-165 -274h-158l154 274h169zM478 1098c99.333 0 213.668 -27.335 343.001 -82.002l-51 -127c-117.333 50 -214.666 75 -291.999 75c-38.667 0 -72.667 -5.66699 -102 -17s-51.333 -26 -66 -44s-25.5 -36 -32.5 -54s-10.5 -35.667 -10.5 -53
c0 -33.333 9.16699 -62.5 27.5 -87.5s41.5 -43.833 69.5 -56.5c27.333 -12.667 72.166 -23.5 134.499 -32.5s114.5 -21.167 156.5 -36.5c58.667 -22 108 -57.667 148 -107s60 -107.666 60 -174.999c0 -84.667 -34.333 -158.667 -103 -222s-162.667 -95 -282 -95
c-112 0 -238 31 -378 93l54 125c124 -56 232 -84 324 -84c41.333 0 77.833 5.66699 109.5 17s56.167 26.333 73.5 45s30.333 38.167 39 58.5s13 41.166 13 62.499c0 38 -11.333 71 -34 99s-50.667 48.333 -84 61c-22.667 8.66699 -68.334 18.334 -137.001 29.001
s-123.334 25.334 -164.001 44.001c-51.333 24 -93.666 58.667 -126.999 104s-50 98 -50 158c0 82 32.833 152.833 98.5 212.5s153.167 89.5 262.5 89.5z" />
    <glyph glyph-name="Scircumflex" unicode="&#x15c;" horiz-adv-x="1045" 
d="M697 1556l-140 138l-140 -138h-171l258 274h106l258 -274h-171zM104 115l68.9961 126c138 -80 259.333 -120 364 -120c41.333 0 78.333 5.83301 111 17.5s58.834 26.667 78.501 45s36 39.666 49 63.999s21.833 48 26.5 71s7 46.167 7 69.5
c0 53.333 -12.167 101.333 -36.5 144s-64.166 74.334 -119.499 95.001c-26.667 10 -69.167 20.833 -127.5 32.5s-102.166 22.5 -131.499 32.5c-84 30 -148.333 77.333 -193 142s-67 138.334 -67 221.001c0 106.667 36 196.667 108 270s170.333 110 295 110
c110 0 234.333 -33.333 373 -100l-60 -129c-122.667 59.333 -227 89 -313 89c-82 0 -143.667 -23.333 -185 -70s-62 -103.334 -62 -170.001c0 -52 13 -99 39 -141s66.333 -72.333 121 -91c24.667 -8.66699 66.834 -19 126.501 -31s105.5 -24 137.5 -36
c83.333 -32 146 -80.5 188 -145.5s63 -139.167 63 -222.5c0 -54 -9.16699 -105.167 -27.5 -153.5s-44.666 -91.5 -78.999 -129.5s-79.333 -68.167 -135 -90.5s-117.834 -33.5 -186.501 -33.5c-78 0 -151.333 12 -220 36s-139.667 56.667 -213 98z" />
    <glyph glyph-name="scircumflex" unicode="&#x15d;" horiz-adv-x="963" 
d="M658 1222l-140 138l-140 -138h-171l258 274h106l258 -274h-171zM498 1098c99.333 0 213.668 -27.335 343.001 -82.002l-51 -127c-117.333 50 -214.666 75 -291.999 75c-38.667 0 -72.667 -5.66699 -102 -17s-51.333 -26 -66 -44s-25.5 -36 -32.5 -54
s-10.5 -35.667 -10.5 -53c0 -33.333 9.16699 -62.5 27.5 -87.5s41.5 -43.833 69.5 -56.5c27.333 -12.667 72.166 -23.5 134.499 -32.5s114.5 -21.167 156.5 -36.5c58.667 -22 108 -57.667 148 -107s60 -107.666 60 -174.999c0 -84.667 -34.333 -158.667 -103 -222
s-162.667 -95 -282 -95c-112 0 -238 31 -378 93l54 125c124 -56 232 -84 324 -84c41.333 0 77.833 5.66699 109.5 17s56.167 26.333 73.5 45s30.333 38.167 39 58.5s13 41.166 13 62.499c0 38 -11.333 71 -34 99s-50.667 48.333 -84 61
c-22.667 8.66699 -68.334 18.334 -137.001 29.001s-123.334 25.334 -164.001 44.001c-51.333 24 -93.666 58.667 -126.999 104s-50 98 -50 158c0 82 32.833 152.833 98.5 212.5s153.167 89.5 262.5 89.5z" />
    <glyph glyph-name="Scedilla" unicode="&#x15e;" horiz-adv-x="1045" 
d="M461 -306c22 0 39.1641 7.49805 51.4971 22.498s18.5 33.5 18.5 55.5c0 42.667 -25 72.667 -75 90l34 121c-68.667 4.66699 -133.667 18.667 -195 42s-125 53.333 -191 90l69 126c138 -80 259.333 -120 364 -120c41.333 0 78.333 5.83301 111 17.5
s58.834 26.667 78.501 45s36 39.666 49 63.999s21.833 48 26.5 71s7 46.167 7 69.5c0 53.333 -12.167 101.333 -36.5 144s-64.166 74.334 -119.499 95.001c-26.667 10 -69.167 20.833 -127.5 32.5s-102.166 22.5 -131.499 32.5c-84 30 -148.333 77.333 -193 142
s-67 138.334 -67 221.001c0 106.667 36 196.667 108 270s170.333 110 295 110c110 0 234.333 -33.333 373 -100l-60 -129c-122.667 59.333 -227 89 -313 89c-82 0 -143.667 -23.333 -185 -70s-62 -103.334 -62 -170.001c0 -52 13 -99 39 -141s66.333 -72.333 121 -91
c24.667 -8.66699 66.834 -19 126.501 -31s105.5 -24 137.5 -36c83.333 -32 146 -80.5 188 -145.5s63 -139.167 63 -222.5c0 -48.667 -7.5 -95.167 -22.5 -139.5s-36.667 -84.666 -65 -120.999s-65 -67 -110 -92s-95.833 -41.5 -152.5 -49.5l-24 -83
c22.667 -11.333 41.667 -28.166 57 -50.499s23 -49.5 23 -81.5c0 -60 -19.333 -108.5 -58 -145.5s-88 -55.5 -148 -55.5c-24.667 0 -54.334 4.66699 -89.001 14l38 119c15.333 -6 31 -9 47 -9z" />
    <glyph glyph-name="scedilla" unicode="&#x15f;" horiz-adv-x="963" 
d="M422 -306c22 0 39.1719 7.49805 51.5049 22.498s18.5 33.5 18.5 55.5c0 42.667 -25 72.667 -75 90l35 124c-100 6.66699 -210.667 37 -332 91l54 125c124 -56 232 -84 324 -84c41.333 0 77.833 5.66699 109.5 17s56.167 26.333 73.5 45s30.333 38.167 39 58.5
s13 41.166 13 62.499c0 38 -11.333 71 -34 99s-50.667 48.333 -84 61c-22.667 8.66699 -68.334 18.334 -137.001 29.001s-123.334 25.334 -164.001 44.001c-51.333 24 -93.666 58.667 -126.999 104s-50 98 -50 158c0 82 32.833 152.833 98.5 212.5s153.167 89.5 262.5 89.5
c99.333 0 213.666 -27.333 342.999 -82l-51 -127c-117.333 50 -214.666 75 -291.999 75c-38.667 0 -72.667 -5.66699 -102 -17s-51.333 -26 -66 -44s-25.5 -36 -32.5 -54s-10.5 -35.667 -10.5 -53c0 -33.333 9.16699 -62.5 27.5 -87.5s41.5 -43.833 69.5 -56.5
c27.333 -12.667 72.166 -23.5 134.499 -32.5s114.5 -21.167 156.5 -36.5c58.667 -22 108 -57.667 148 -107s60 -107.666 60 -174.999c0 -35.333 -6.66699 -69.833 -20 -103.5s-32.333 -64.834 -57 -93.501s-56.834 -53.167 -96.501 -73.5s-83.834 -33.833 -132.501 -40.5
l-25 -87c22.667 -11.333 41.667 -28.166 57 -50.499s23 -49.5 23 -81.5c0 -60 -19.333 -108.5 -58 -145.5s-88 -55.5 -148 -55.5c-24.667 0 -54.334 4.66699 -89.001 14l38 119c15.333 -6 31 -9 47 -9z" />
    <glyph glyph-name="Scaron" unicode="&#x160;" horiz-adv-x="1045" 
d="M377 1830l140 -138l140 138h171l-258 -274h-106l-258 274h171zM84 115l68.9961 126c138 -80 259.333 -120 364 -120c41.333 0 78.333 5.83301 111 17.5s58.834 26.667 78.501 45s36 39.666 49 63.999s21.833 48 26.5 71s7 46.167 7 69.5
c0 53.333 -12.167 101.333 -36.5 144s-64.166 74.334 -119.499 95.001c-26.667 10 -69.167 20.833 -127.5 32.5s-102.166 22.5 -131.499 32.5c-84 30 -148.333 77.333 -193 142s-67 138.334 -67 221.001c0 106.667 36 196.667 108 270s170.333 110 295 110
c110 0 234.333 -33.333 373 -100l-60 -129c-122.667 59.333 -227 89 -313 89c-82 0 -143.667 -23.333 -185 -70s-62 -103.334 -62 -170.001c0 -52 13 -99 39 -141s66.333 -72.333 121 -91c24.667 -8.66699 66.834 -19 126.501 -31s105.5 -24 137.5 -36
c83.333 -32 146 -80.5 188 -145.5s63 -139.167 63 -222.5c0 -54 -9.16699 -105.167 -27.5 -153.5s-44.666 -91.5 -78.999 -129.5s-79.333 -68.167 -135 -90.5s-117.834 -33.5 -186.501 -33.5c-78 0 -151.333 12 -220 36s-139.667 56.667 -213 98z" />
    <glyph glyph-name="scaron" unicode="&#x161;" horiz-adv-x="963" 
d="M338 1496l140 -138l140 138h171l-258 -274h-106l-258 274h171zM478 1098c99.333 0 213.668 -27.335 343.001 -82.002l-51 -127c-117.333 50 -214.666 75 -291.999 75c-38.667 0 -72.667 -5.66699 -102 -17s-51.333 -26 -66 -44s-25.5 -36 -32.5 -54
s-10.5 -35.667 -10.5 -53c0 -33.333 9.16699 -62.5 27.5 -87.5s41.5 -43.833 69.5 -56.5c27.333 -12.667 72.166 -23.5 134.499 -32.5s114.5 -21.167 156.5 -36.5c58.667 -22 108 -57.667 148 -107s60 -107.666 60 -174.999c0 -84.667 -34.333 -158.667 -103 -222
s-162.667 -95 -282 -95c-112 0 -238 31 -378 93l54 125c124 -56 232 -84 324 -84c41.333 0 77.833 5.66699 109.5 17s56.167 26.333 73.5 45s30.333 38.167 39 58.5s13 41.166 13 62.499c0 38 -11.333 71 -34 99s-50.667 48.333 -84 61
c-22.667 8.66699 -68.334 18.334 -137.001 29.001s-123.334 25.334 -164.001 44.001c-51.333 24 -93.666 58.667 -126.999 104s-50 98 -50 158c0 82 32.833 152.833 98.5 212.5s153.167 89.5 262.5 89.5z" />
    <glyph glyph-name="uni0162" unicode="&#x162;" horiz-adv-x="1048" 
d="M428 -306c22 0 39.168 7.49902 51.501 22.499s18.5 33.5 18.5 55.5c0 42.667 -25 72.667 -75 90l39 138h-16v1277h-386v140h928v-140h-386v-1277h-16l-28 -97c22.667 -11.333 41.667 -28.166 57 -50.499s23 -49.5 23 -81.5c0 -60 -19.333 -108.5 -58 -145.5
s-88 -55.5 -148 -55.5c-24.667 0 -54.334 4.66699 -89.001 14l38 119c15.333 -6 31 -9 47 -9z" />
    <glyph glyph-name="uni0163" unicode="&#x163;" horiz-adv-x="652" 
d="M359 -306c22 0 39.1689 7.5 51.502 22.5s18.5 33.5 18.5 55.5c0 42.667 -25 72.667 -75 90l36 127c-42.667 8 -78.5 25.167 -107.5 51.5s-49.5 60.166 -61.5 101.499c-7.33301 25.333 -11 79 -11 161v655h-150v124h150v234h150v-234h200v-124h-200v-655
c0 -72 3 -115.333 9 -130c15.333 -36.667 44 -55 86 -55c34.667 0 72.667 10.667 114 32l58 -124c-42.667 -18.667 -80.334 -30.667 -113.001 -36l-25 -87c22.667 -11.333 41.667 -28.166 57 -50.499s23 -49.5 23 -81.5c0 -60 -19.333 -108.5 -58 -145.5
s-88 -55.5 -148 -55.5c-24.667 0 -54.334 4.66699 -89.001 14l38 119c15.333 -6 31 -9 47 -9z" />
    <glyph glyph-name="Tcaron" unicode="&#x164;" horiz-adv-x="1048" 
d="M384 1830l140 -138l140 138h171l-258 -274h-106l-258 274h171zM60 1417h928v-140h-386v-1277h-156v1277h-386v140z" />
    <glyph glyph-name="tcaron" unicode="&#x165;" horiz-adv-x="996" 
d="M786 1590c32.667 0 59.167 -10.166 79.5 -30.499s30.5 -46.833 30.5 -79.5c0 -20.667 -8.33301 -51.334 -25 -92.001l-90 -222h-98l57 213c-18.667 7.33301 -34 20 -46 38s-18 39 -18 63c0 32.667 10.167 59.167 30.5 79.5s46.833 30.5 79.5 30.5zM210 303.001v655h-150
v124h150v234h150v-234h200v-124h-200v-655c0 -72 3 -115.333 9 -130c15.333 -36.667 44 -55 86 -55c34.667 0 72.667 10.667 114 32l58 -124c-64 -28 -124.667 -42 -182 -42c-56.667 0 -104.5 13.667 -143.5 41s-65.833 66.333 -80.5 117c-7.33301 25.333 -11 79 -11 161z
" />
    <glyph glyph-name="Tbar" unicode="&#x166;" horiz-adv-x="1048" 
d="M60 1417h928v-140h-386v-431h198v-124h-198v-722h-156v722h-198v124h198v431h-386v140z" />
    <glyph glyph-name="tbar" unicode="&#x167;" horiz-adv-x="687" 
d="M560 782v-124h-200v-355c0 -72 3 -115.333 9 -130c15.333 -36.667 44 -55 86 -55c34.667 0 72.667 10.667 114 32l58 -124c-64 -28 -124.667 -42 -182 -42c-56.667 0 -104.5 13.667 -143.5 41s-65.833 66.333 -80.5 117c-7.33301 25.333 -11 79 -11 161v355h-150v124h150
v176h-150v124h150v234h150v-234h200v-124h-200v-176h200z" />
    <glyph glyph-name="Utilde" unicode="&#x168;" horiz-adv-x="1236" 
d="M754 1680c32 0 61.667 23.333 89 70l115 -71c-20.667 -36 -48.5 -65.5 -83.5 -88.5s-75.167 -34.5 -120.5 -34.5c-29.333 0 -56.333 5 -81 15s-46 20 -64 30s-33.667 15 -47 15c-32 0 -61.667 -23.333 -89 -70l-115 71c20.667 36 48.5 65.5 83.5 88.5
s75.167 34.5 120.5 34.5c29.333 0 56.333 -5 81 -15s46 -20 64 -30s33.667 -15 47 -15zM180 1416h156v-901c0 -97.333 6.66699 -165.666 20 -204.999c22.667 -66 60.5 -114 113.5 -144s109.167 -45 168.5 -45s115.5 15 168.5 45s90.833 78 113.5 144
c13.333 39.333 20 107.666 20 204.999v901h156v-901c0 -38.667 -0.333008 -68.167 -1 -88.5s-3 -45.333 -7 -75s-10 -56.834 -18 -81.501c-22 -66.667 -55.833 -122.167 -101.5 -166.5s-96 -75.833 -151 -94.5s-114.833 -28 -179.5 -28s-124.5 9.33301 -179.5 28
s-105.333 50.167 -151 94.5s-79.5 99.833 -101.5 166.5c-8 24.667 -14 51.834 -18 81.501s-6.33301 54.667 -7 75s-1 49.833 -1 88.5v901z" />
    <glyph glyph-name="utilde" unicode="&#x169;" horiz-adv-x="1090" 
d="M681 1346c32 0 61.667 23.333 89 70l115 -71c-20.667 -36 -48.5 -65.5 -83.5 -88.5s-75.167 -34.5 -120.5 -34.5c-29.333 0 -56.333 5 -81 15s-46 20 -64 30s-33.667 15 -47 15c-32 0 -61.667 -23.333 -89 -70l-115 71c20.667 36 48.5 65.5 83.5 88.5
s75.167 34.5 120.5 34.5c29.333 0 56.333 -5 81 -15s46 -20 64 -30s33.667 -15 47 -15zM170 1082h150v-625c0 -90 5 -150.333 15 -181c16.667 -51.333 45.667 -90.5 87 -117.5s89 -40.5 143 -40.5s101.667 13.5 143 40.5s70.333 66.167 87 117.5c10 30.667 15 91 15 181v625
h150v-635c0 -35.333 -0.333008 -62.5 -1 -81.5s-3 -42.5 -7 -70.5s-10.333 -53.333 -19 -76c-28 -76 -73.833 -134.167 -137.5 -174.5s-140.5 -60.5 -230.5 -60.5s-166.833 20.167 -230.5 60.5s-109.5 98.5 -137.5 174.5c-8.66699 22.667 -15 48 -19 76
s-6.33301 51.5 -7 70.5s-1 46.167 -1 81.5v635z" />
    <glyph glyph-name="Umacron" unicode="&#x16a;" horiz-adv-x="1236" 
d="M373 1720h570v-134h-570v134zM180 1416h156v-901c0 -97.333 6.66699 -165.666 20 -204.999c22.667 -66 60.5 -114 113.5 -144s109.167 -45 168.5 -45s115.5 15 168.5 45s90.833 78 113.5 144c13.333 39.333 20 107.666 20 204.999v901h156v-901
c0 -38.667 -0.333008 -68.167 -1 -88.5s-3 -45.333 -7 -75s-10 -56.834 -18 -81.501c-22 -66.667 -55.833 -122.167 -101.5 -166.5s-96 -75.833 -151 -94.5s-114.833 -28 -179.5 -28s-124.5 9.33301 -179.5 28s-105.333 50.167 -151 94.5s-79.5 99.833 -101.5 166.5
c-8 24.667 -14 51.834 -18 81.501s-6.33301 54.667 -7 75s-1 49.833 -1 88.5v901z" />
    <glyph glyph-name="umacron" unicode="&#x16b;" horiz-adv-x="1090" 
d="M300 1386h570v-134h-570v134zM170 1082h150v-625c0 -90 5 -150.333 15 -181c16.667 -51.333 45.667 -90.5 87 -117.5s89 -40.5 143 -40.5s101.667 13.5 143 40.5s70.333 66.167 87 117.5c10 30.667 15 91 15 181v625h150v-635c0 -35.333 -0.333008 -62.5 -1 -81.5
s-3 -42.5 -7 -70.5s-10.333 -53.333 -19 -76c-28 -76 -73.833 -134.167 -137.5 -174.5s-140.5 -60.5 -230.5 -60.5s-166.833 20.167 -230.5 60.5s-109.5 98.5 -137.5 174.5c-8.66699 22.667 -15 48 -19 76s-6.33301 51.5 -7 70.5s-1 46.167 -1 81.5v635z" />
    <glyph glyph-name="Ubreve" unicode="&#x16c;" horiz-adv-x="1236" 
d="M394 1831h140c0 -54 12.167 -94.833 36.5 -122.5s53.833 -41.5 88.5 -41.5s64.167 13.833 88.5 41.5s36.5 68.5 36.5 122.5h140c0 -79.333 -24 -147.166 -72 -203.499s-112.333 -84.5 -193 -84.5s-145 28.167 -193 84.5s-72 124.166 -72 203.499zM180 1416h156v-901
c0 -97.333 6.66699 -165.666 20 -204.999c22.667 -66 60.5 -114 113.5 -144s109.167 -45 168.5 -45s115.5 15 168.5 45s90.833 78 113.5 144c13.333 39.333 20 107.666 20 204.999v901h156v-901c0 -38.667 -0.333008 -68.167 -1 -88.5s-3 -45.333 -7 -75
s-10 -56.834 -18 -81.501c-22 -66.667 -55.833 -122.167 -101.5 -166.5s-96 -75.833 -151 -94.5s-114.833 -28 -179.5 -28s-124.5 9.33301 -179.5 28s-105.333 50.167 -151 94.5s-79.5 99.833 -101.5 166.5c-8 24.667 -14 51.834 -18 81.501s-6.33301 54.667 -7 75
s-1 49.833 -1 88.5v901z" />
    <glyph glyph-name="ubreve" unicode="&#x16d;" horiz-adv-x="1090" 
d="M321 1497h140c0 -54 12.167 -94.833 36.5 -122.5s53.833 -41.5 88.5 -41.5s64.167 13.833 88.5 41.5s36.5 68.5 36.5 122.5h140c0 -79.333 -24 -147.166 -72 -203.499s-112.333 -84.5 -193 -84.5s-145 28.167 -193 84.5s-72 124.166 -72 203.499zM170 1082h150v-625
c0 -90 5 -150.333 15 -181c16.667 -51.333 45.667 -90.5 87 -117.5s89 -40.5 143 -40.5s101.667 13.5 143 40.5s70.333 66.167 87 117.5c10 30.667 15 91 15 181v625h150v-635c0 -35.333 -0.333008 -62.5 -1 -81.5s-3 -42.5 -7 -70.5s-10.333 -53.333 -19 -76
c-28 -76 -73.833 -134.167 -137.5 -174.5s-140.5 -60.5 -230.5 -60.5s-166.833 20.167 -230.5 60.5s-109.5 98.5 -137.5 174.5c-8.66699 22.667 -15 48 -19 76s-6.33301 51.5 -7 70.5s-1 46.167 -1 81.5v635z" />
    <glyph glyph-name="Uring" unicode="&#x16e;" horiz-adv-x="1236" 
d="M658 1766c-27.333 0 -49.333 -8.33301 -66 -25s-25 -40.667 -25 -72s8.33301 -55.333 25 -72s38.667 -25 66 -25s49.333 8.33301 66 25s25 40.667 25 72s-8.33301 55.333 -25 72s-38.667 25 -66 25zM658 1872c61.333 0 111.5 -19.5 150.5 -58.5s58.5 -87.167 58.5 -144.5
s-19.5 -105.5 -58.5 -144.5s-89.167 -58.5 -150.5 -58.5s-111.5 19.5 -150.5 58.5s-58.5 87.167 -58.5 144.5s19.5 105.5 58.5 144.5s89.167 58.5 150.5 58.5zM180 1416h156v-901c0 -97.333 6.66699 -165.666 20 -204.999c22.667 -66 60.5 -114 113.5 -144
s109.167 -45 168.5 -45s115.5 15 168.5 45s90.833 78 113.5 144c13.333 39.333 20 107.666 20 204.999v901h156v-901c0 -38.667 -0.333008 -68.167 -1 -88.5s-3 -45.333 -7 -75s-10 -56.834 -18 -81.501c-22 -66.667 -55.833 -122.167 -101.5 -166.5s-96 -75.833 -151 -94.5
s-114.833 -28 -179.5 -28s-124.5 9.33301 -179.5 28s-105.333 50.167 -151 94.5s-79.5 99.833 -101.5 166.5c-8 24.667 -14 51.834 -18 81.501s-6.33301 54.667 -7 75s-1 49.833 -1 88.5v901z" />
    <glyph glyph-name="uring" unicode="&#x16f;" horiz-adv-x="1090" 
d="M585 1432c-27.333 0 -49.333 -8.33301 -66 -25s-25 -40.667 -25 -72s8.33301 -55.333 25 -72s38.667 -25 66 -25s49.333 8.33301 66 25s25 40.667 25 72s-8.33301 55.333 -25 72s-38.667 25 -66 25zM585 1538c61.333 0 111.5 -19.5 150.5 -58.5s58.5 -87.167 58.5 -144.5
s-19.5 -105.5 -58.5 -144.5s-89.167 -58.5 -150.5 -58.5s-111.5 19.5 -150.5 58.5s-58.5 87.167 -58.5 144.5s19.5 105.5 58.5 144.5s89.167 58.5 150.5 58.5zM170 1082h150v-625c0 -90 5 -150.333 15 -181c16.667 -51.333 45.667 -90.5 87 -117.5s89 -40.5 143 -40.5
s101.667 13.5 143 40.5s70.333 66.167 87 117.5c10 30.667 15 91 15 181v625h150v-635c0 -35.333 -0.333008 -62.5 -1 -81.5s-3 -42.5 -7 -70.5s-10.333 -53.333 -19 -76c-28 -76 -73.833 -134.167 -137.5 -174.5s-140.5 -60.5 -230.5 -60.5s-166.833 20.167 -230.5 60.5
s-109.5 98.5 -137.5 174.5c-8.66699 22.667 -15 48 -19 76s-6.33301 51.5 -7 70.5s-1 46.167 -1 81.5v635z" />
    <glyph glyph-name="Uhungarumlaut" unicode="&#x170;" horiz-adv-x="1236" 
d="M978 1830l-164 -274h-148l153 274h159zM680 1830l-164 -274h-148l153 274h159zM160 1416h156v-901c0 -97.333 6.66699 -165.666 20 -204.999c22.667 -66 60.5 -114 113.5 -144s109.167 -45 168.5 -45s115.5 15 168.5 45s90.833 78 113.5 144
c13.333 39.333 20 107.666 20 204.999v901h156v-901c0 -38.667 -0.333008 -68.167 -1 -88.5s-3 -45.333 -7 -75s-10 -56.834 -18 -81.501c-22 -66.667 -55.833 -122.167 -101.5 -166.5s-96 -75.833 -151 -94.5s-114.833 -28 -179.5 -28s-124.5 9.33301 -179.5 28
s-105.333 50.167 -151 94.5s-79.5 99.833 -101.5 166.5c-8 24.667 -14 51.834 -18 81.501s-6.33301 54.667 -7 75s-1 49.833 -1 88.5v901z" />
    <glyph glyph-name="uhungarumlaut" unicode="&#x171;" horiz-adv-x="1090" 
d="M905 1496l-164 -274h-148l153 274h159zM607 1496l-164 -274h-148l153 274h159zM150 1082h150v-625c0 -90 5 -150.333 15 -181c16.667 -51.333 45.667 -90.5 87 -117.5s89 -40.5 143 -40.5s101.667 13.5 143 40.5s70.333 66.167 87 117.5c10 30.667 15 91 15 181v625h150
v-635c0 -35.333 -0.333008 -62.5 -1 -81.5s-3 -42.5 -7 -70.5s-10.333 -53.333 -19 -76c-28 -76 -73.833 -134.167 -137.5 -174.5s-140.5 -60.5 -230.5 -60.5s-166.833 20.167 -230.5 60.5s-109.5 98.5 -137.5 174.5c-8.66699 22.667 -15 48 -19 76s-6.33301 51.5 -7 70.5
s-1 46.167 -1 81.5v635z" />
    <glyph glyph-name="Uogonek" unicode="&#x172;" horiz-adv-x="1236" 
d="M531 -216c0 -26 7.33496 -47.499 22.002 -64.499s34.334 -25.5 59.001 -25.5c24 0 48.667 8.33301 74 25l65 -110c-44.667 -26 -91 -39 -139 -39c-62.667 0 -112.5 18.667 -149.5 56s-55.5 83 -55.5 137c0 87.333 53.333 161.333 160 222
c-123.333 8 -224.333 58.667 -303 152c-24.667 30.667 -44.5 62.334 -59.5 95.001s-25.5 69.834 -31.5 111.501s-9.66699 76.5 -11 104.5s-2 69 -2 123v845h156v-845c0 -62 0.833008 -108.667 2.5 -140s8.16699 -67.5 19.5 -108.5s28.666 -75.5 51.999 -103.5
c54 -65.333 130 -98 228 -98s174 32.667 228 98c23.333 28 40.666 62.5 51.999 103.5s17.833 77.167 19.5 108.5s2.5 78 2.5 140v845h156v-845c0 -54 -0.666992 -95 -2 -123s-5 -62.833 -11 -104.5s-16.5 -78.834 -31.5 -111.501s-34.833 -64.334 -59.5 -95.001
c-60.667 -73.333 -141.334 -121.333 -242.001 -144c-48 -10.667 -93.167 -35.334 -135.5 -74.001s-63.5 -83.667 -63.5 -135z" />
    <glyph glyph-name="uogonek" unicode="&#x173;" horiz-adv-x="1090" 
d="M418 -216c0 -26 7.33301 -47.499 22 -64.499s34.334 -25.5 59.001 -25.5s49.334 8.33301 74.001 25l65 -110c-44.667 -26 -91 -39 -139 -39c-62.667 0 -112.5 18.667 -149.5 56s-55.5 83 -55.5 137c0 49.333 13.833 93 41.5 131s64.5 71 110.5 99
c-64.667 13.333 -120 39.166 -166 77.499s-80.333 87.833 -103 148.5c-8.66699 22.667 -15 48 -19 76s-6.33301 51.5 -7 70.5s-1 46.167 -1 81.5v635h150v-625c0 -90 5 -150.333 15 -181c16.667 -51.333 45.667 -90.5 87 -117.5s89 -40.5 143 -40.5s101.667 13.5 143 40.5
s70.333 66.167 87 117.5c10 30.667 15 91 15 181v625h150v-635c0 -35.333 -0.333008 -62.5 -1 -81.5s-3 -42.5 -7 -70.5s-10.333 -53.333 -19 -76c-26 -70 -67.333 -125 -124 -165s-125 -63 -205 -69c-16.667 -7.33301 -32.334 -15.5 -47.001 -24.5
s-29.5 -19.833 -44.5 -32.5s-27.833 -26 -38.5 -40s-19.334 -30 -26.001 -48s-10 -36.667 -10 -56z" />
    <glyph glyph-name="Wcircumflex" unicode="&#x174;" horiz-adv-x="1500" 
d="M890 1556l-140 138l-140 -138h-171l258 274h106l258 -274h-171zM220 1416l242 -1141l213 711h150l213 -711l242 1141h160l-311 -1416h-152l-227 762l-227 -762h-152l-311 1416h160z" />
    <glyph glyph-name="wcircumflex" unicode="&#x175;" horiz-adv-x="1408" 
d="M844 1222l-140 138l-140 -138h-171l258 274h106l258 -274h-171zM329 0l-259 1082h153l186 -834l222 834h146l222 -834l186 834h153l-259 -1082h-146l-229 856l-229 -856h-146z" />
    <glyph glyph-name="Ycircumflex" unicode="&#x176;" horiz-adv-x="1082" 
d="M681 1556l-140 138l-140 -138h-171l258 274h106l258 -274h-171zM40 1416h169l332 -744l332 744h169l-423 -910v-506h-156v506z" />
    <glyph glyph-name="ycircumflex" unicode="&#x177;" horiz-adv-x="987" 
d="M634 1222l-140 138l-140 -138h-171l258 274h106l258 -274h-171zM94 -409l32.998 130c34 -9.33301 65.667 -14 95 -14c48 0 88 12.667 120 38c12.667 10 23.834 22.5 33.501 37.5s16.834 28.667 21.501 41s10.667 29.833 18 52.5l37 122l-392 1084h156l302 -885l256 885
h153l-377 -1241c-13.333 -44 -27.833 -80.667 -43.5 -110s-36.5 -55.333 -62.5 -78c-60 -53.333 -134 -80 -222 -80c-37.333 0 -80 6 -128 18z" />
    <glyph glyph-name="Ydieresis" unicode="&#x178;" horiz-adv-x="1082" 
d="M732 1769c27.333 0 49.833 -8.83301 67.5 -26.5s26.5 -40.167 26.5 -67.5s-8.83301 -49.833 -26.5 -67.5s-40.167 -26.5 -67.5 -26.5s-49.833 8.83301 -67.5 26.5s-26.5 40.167 -26.5 67.5s8.83301 49.833 26.5 67.5s40.167 26.5 67.5 26.5zM350 1769
c27.333 0 49.833 -8.83301 67.5 -26.5s26.5 -40.167 26.5 -67.5s-8.83301 -49.833 -26.5 -67.5s-40.167 -26.5 -67.5 -26.5s-49.833 8.83301 -67.5 26.5s-26.5 40.167 -26.5 67.5s8.83301 49.833 26.5 67.5s40.167 26.5 67.5 26.5zM40 1416h169l332 -744l332 744h169
l-423 -910v-506h-156v506z" />
    <glyph glyph-name="Zacute" unicode="&#x179;" horiz-adv-x="1027" 
d="M726 1830l-165 -274h-158l154 274h169zM105 1276v140h822v-101l-661 -1175h681v-140h-867v101l661 1175h-636z" />
    <glyph glyph-name="zacute" unicode="&#x17a;" horiz-adv-x="880" 
d="M652 1496l-165 -274h-158l154 274h169zM800 134v-134h-720v108l526 840h-519v134h704v-108l-526 -840h535z" />
    <glyph glyph-name="Zdotaccent" unicode="&#x17b;" horiz-adv-x="1027" 
d="M514 1769c27.333 0 49.833 -8.83301 67.5 -26.5s26.5 -40.167 26.5 -67.5s-8.83301 -49.833 -26.5 -67.5s-40.167 -26.5 -67.5 -26.5s-49.833 8.83301 -67.5 26.5s-26.5 40.167 -26.5 67.5s8.83301 49.833 26.5 67.5s40.167 26.5 67.5 26.5zM105 1276v140h822v-101
l-661 -1175h681v-140h-867v101l661 1175h-636z" />
    <glyph glyph-name="zdotaccent" unicode="&#x17c;" horiz-adv-x="880" 
d="M440 1435c27.333 0 49.833 -8.83301 67.5 -26.5s26.5 -40.167 26.5 -67.5s-8.83301 -49.833 -26.5 -67.5s-40.167 -26.5 -67.5 -26.5s-49.833 8.83301 -67.5 26.5s-26.5 40.167 -26.5 67.5s8.83301 49.833 26.5 67.5s40.167 26.5 67.5 26.5zM800 134v-134h-720v108
l526 840h-519v134h704v-108l-526 -840h535z" />
    <glyph glyph-name="Zcaron" unicode="&#x17d;" horiz-adv-x="1027" 
d="M374 1830l140 -138l140 138h171l-258 -274h-106l-258 274h171zM105 1276v140h822v-101l-661 -1175h681v-140h-867v101l661 1175h-636z" />
    <glyph glyph-name="zcaron" unicode="&#x17e;" horiz-adv-x="880" 
d="M300 1496l140 -138l140 138h171l-258 -274h-106l-258 274h171zM800 134v-134h-720v108l526 840h-519v134h704v-108l-526 -840h535z" />
    <glyph glyph-name="longs" unicode="&#x17f;" horiz-adv-x="565" 
d="M160 1143c0 44.667 0.668945 78 2.00195 100s6.16602 48 14.499 78s21.166 57.333 38.499 82c52 72.667 128.667 109 230 109c36.667 0 83.334 -5.66699 140.001 -17l-27 -132c-41.333 10 -79 15 -113 15c-46.667 0 -81.334 -16 -104.001 -48
c-14 -20 -22.667 -42.667 -26 -68s-5 -65 -5 -119v-1143h-150v1143z" />
    <glyph glyph-name="uni018F" unicode="&#x18f;" horiz-adv-x="1236" 
d="M618 1435c102 0 189.5 -22.835 262.5 -68.502s127.833 -108.5 164.5 -188.5c25.333 -56 41.833 -121.667 49.5 -197s11.5 -166.333 11.5 -273c0 -69.333 -0.833008 -126.166 -2.5 -170.499s-7.33398 -95.333 -17.001 -153s-23.5 -106.5 -41.5 -146.5
c-35.333 -79.333 -89.5 -142 -162.5 -188s-161.167 -69 -264.5 -69c-104 0 -192.333 23 -265 69s-126.667 108.667 -162 188c-18.667 42 -32.667 92.667 -42 152s-14.833 111.833 -16.5 157.5s-2.5 110.5 -2.5 194.5h820c-1.33301 180.667 -18 308.334 -50 383.001
c-49.333 113.333 -143.333 170 -282 170c-101.333 0 -199.333 -33.667 -294 -101l-80 120c114.667 80.667 239.334 121 374.001 121zM949 601.998h-661.998c3.33301 -140.667 19.666 -244.334 48.999 -311.001c49.333 -113.333 143.333 -170 282 -170
s232.667 56.667 282 170c29.333 66.667 45.666 170.334 48.999 311.001z" />
    <glyph glyph-name="florin" unicode="&#x192;" horiz-adv-x="615" 
d="M210 1143c0 44.667 0.667969 78 2.00098 100s6.16602 48 14.499 78s21.166 57.333 38.499 82c52 72.667 128.667 109 230 109c36.667 0 83.334 -5.66699 140.001 -17l-27 -132c-41.333 10 -79 15 -113 15c-46.667 0 -81.334 -16 -104.001 -48
c-14 -20 -22.667 -42.667 -26 -68s-5 -65 -5 -119v-61h200v-124h-200v-1077c0 -36 -0.333008 -62.333 -1 -79s-3.5 -35.667 -8.5 -57s-12.833 -41.333 -23.5 -60c-20 -35.333 -48.5 -63 -85.5 -83s-79.167 -30 -126.5 -30c-39.333 0 -79.666 6.33301 -120.999 19l38 130
c30 -10 57.667 -15 83 -15c36.667 0 62.667 13.333 78 40c7.33301 12.667 12 27.167 14 43.5s3 46.833 3 91.5v1077h-150v124h150v61z" />
    <glyph glyph-name="uni01F0" unicode="&#x1f0;" horiz-adv-x="480" 
d="M100 1496l140 -138l140 138h171l-258 -274h-106l-258 274h171zM315 -134c0 -62.667 -3.33203 -106 -9.99902 -130c-14 -50 -41.333 -89.833 -82 -119.5s-88.334 -44.5 -143.001 -44.5c-47.333 0 -91 6.33301 -131 19l38 130c30 -10 57.667 -15 83 -15
c42.667 0 71 18 85 54c6.66699 16.667 10 53.667 10 111v1211h150v-1216z" />
    </font>
</defs>
</svg>
