<svg xmlns="http://www.w3.org/2000/svg">
<defs>
<font id="UTMCaviar" horiz-adv-x="1259" >
  <font-face 
    font-family="UTM Caviar"
    font-weight="300"
    font-stretch="normal"
    units-per-em="2048"
    panose-1="2 4 6 3 5 5 6 2 2 4"
    ascent="1638"
    descent="-410"
    x-height="935"
    cap-height="1516"
    bbox="-74 -372 4942 2327"
    underline-thickness="109"
    underline-position="-143"
    unicode-range="U+0020-U+2026"
  />
<missing-glyph horiz-adv-x="5040" 
d="M3351 2045h10c24.667 -6.66699 37 -24 37 -52c0 -8 -10.667 -27 -32 -57h-28c0 16 9.33301 34 28 54l2 10c-3.33301 8.66699 -6.66602 13.667 -10 15h-9c-5.33301 0 -8.66602 -6.33301 -10 -19h-30c4 32.667 18 49 42 49zM2019 2016l29.001 -31
c0 -10.667 -13.333 -20.667 -40 -30h-19l-59 12l-11 -12l-28 25c7.33301 19.333 21.666 29 42.999 29h11l42 -11h2c6.66699 0 16.667 6 30 18zM468.001 1980h142v-60h-94v-75h89v-59h-89v-129l-5 -5h-49v323zM1155 1980h43l6 -5v-78h30v-52h-30v-188l-6 -5h-49v193h-25v52
h25v78zM1621 1980h41.999l4 -5v-94h3c15.333 16 33.333 24 54 24h2c38.667 0 66.334 -23.667 83.001 -71l2 -39v-143h-52v115c0 53.333 -14 80 -42 80h-7c-28.667 0 -43 -28.667 -43 -86v-109h-51v323zM2200 1980l49 -0.000976562l5 -5v-222c6.66699 -34 21.667 -51 45 -51
c29.333 4.66699 44 24.334 44 59.001v214l5 5h49v-216c0 -56.667 -22 -94 -66 -112c-10 -5.33301 -21.667 -8 -35 -8c-31.333 0 -58.666 18.333 -82 55c-9.33301 16 -14 35 -14 57v224zM2435 1980h159v-60h-56v-268h-53v268h-55v55zM2621 1980l71 0.000976562
c4.66699 -2.66699 32.334 -86.334 83 -251.001h2l80 251h73v-328h-54v242h-2l-74 -242h-44c-2.66699 0 -22 60.667 -58 182l-19 60h-3v-242h-55v328zM3760 1980l52 -0.000976562v-328h-45l-5 5v11l3 2l-3 14c-19.333 -26.667 -45.333 -40 -78 -40
c-44.667 0 -78 30.333 -100 91l-5 39v3c0 62.667 30.667 104.334 92 125.001l23 3c23.333 0 44.333 -10.667 63 -32h3v107zM2057 1928l36 0.00195312l4 -6v-49h-45v-221h-48v23c-15.333 -20.667 -35 -31 -59 -31c-59.333 9.33301 -89 41.666 -89 96.999v156h51v-104

<glyph glyph-name=".notdef" horiz-adv-x="5040" 
d="M3351 2045h10c24.667 -6.66699 37 -24 37 -52c0 -8 -10.667 -27 -32 -57h-28c0 16 9.33301 34 28 54l2 10c-3.33301 8.66699 -6.66602 13.667 -10 15h-9c-5.33301 0 -8.66602 -6.33301 -10 -19h-30c4 32.667 18 49 42 49zM2019 2016l29.001 -31
c0 -10.667 -13.333 -20.667 -40 -30h-19l-59 12l-11 -12l-28 25c7.33301 19.333 21.666 29 42.999 29h11l42 -11h2c6.66699 0 16.667 6 30 18zM468.001 1980h142v-60h-94v-75h89v-59h-89v-129l-5 -5h-49v323zM1155 1980h43l6 -5v-78h30v-52h-30v-188l-6 -5h-49v193h-25v52
h25v78zM1621 1980h41.999l4 -5v-94h3c15.333 16 33.333 24 54 24h2c38.667 0 66.334 -23.667 83.001 -71l2 -39v-143h-52v115c0 53.333 -14 80 -42 80h-7c-28.667 0 -43 -28.667 -43 -86v-109h-51v323zM2200 1980l49 -0.000976562l5 -5v-222c6.66699 -34 21.667 -51 45 -51
c29.333 4.66699 44 24.334 44 59.001v214l5 5h49v-216c0 -56.667 -22 -94 -66 -112c-10 -5.33301 -21.667 -8 -35 -8c-31.333 0 -58.666 18.333 -82 55c-9.33301 16 -14 35 -14 57v224zM2435 1980h159v-60h-56v-268h-53v268h-55v55zM2621 1980l71 0.000976562
c4.66699 -2.66699 32.334 -86.334 83 -251.001h2l80 251h73v-328h-54v242h-2l-74 -242h-44c-2.66699 0 -22 60.667 -58 182l-19 60h-3v-242h-55v328zM3760 1980l52 -0.000976562v-328h-45l-5 5v11l3 2l-3 14c-19.333 -26.667 -45.333 -40 -78 -40
c-44.667 0 -78 30.333 -100 91l-5 39v3c0 62.667 30.667 104.334 92 125.001l23 3c23.333 0 44.333 -10.667 63 -32h3v107zM2057 1928l36 0.00195312l4 -6v-49h-45v-221h-48v23c-15.333 -20.667 -35 -31 -59 -31c-59.333 9.33301 -89 41.666 -89 96.999v156h51v-104
c0 -52.667 8.66699 -81.334 26 -86.001l18 -5h6c17.333 0 30.333 12 39 36l3 26v133h53v25zM3476 1928v-55h-31v-221h-47v25h-2c-10 -22 -29 -33 -57 -33c-45.333 0 -74 26 -86 78l-3 29v146h52v-120c0 -33.333 6.33301 -56 19 -68l21 -7h9c28 0 42 23 42 69v126h27
c2.66699 0 4 9.33301 4 28l3 3h49zM758 1905c45.333 0 79.667 -25.667 103 -77c6 -12 10 -30 12 -54c0 -58.667 -30 -101 -90 -127l-32 -3c-42 0 -75.667 24.333 -101 73c-8 14.667 -12 32 -12 52v10c0 62.667 33.667 104.667 101 126h19zM1011 1905h3
c49.333 0 77 -33.667 83 -101v-152h-51v119c0 50.667 -14 76 -42 76h-5c-29.333 0 -44 -25.333 -44 -76v-119h-52v245h46v-21c20 19.333 40.667 29 62 29zM1466 1905l7 -0.000976562c48 0 83 -29.667 105 -89h-60c-10.667 20.667 -24.667 31 -42 31h-17
c-35.333 -9.33301 -53 -29.666 -53 -60.999l-3 -15c8 -46 28.333 -69 61 -69h9c14.667 0 30.334 9 47.001 27h40l2 3h3l2 -3l2 3l3 -3l2 3l2 -7c-22 -54 -58.667 -81 -110 -81c-50.667 0 -87.334 31.333 -110.001 94l-4 36v3c0 56.667 25.667 96.667 77 120
c10 5.33301 22.333 8 37 8zM3141 1905h1.99902c32.667 0 56 -20 70 -60v-14h-52c0 10.667 -5.33301 16 -16 16h-4c-9.33301 0 -15.666 -4.33301 -18.999 -13v-13c0 -6 22.667 -17.667 68 -35c20 -12.667 30 -32.334 30 -59.001c0 -38.667 -20.333 -65.334 -61 -80.001
l-23 -3c-50.667 8 -76 35.667 -76 83h54c0 -13.333 9 -21.666 27 -24.999h4c12.667 0 20.667 7.66699 24 23c0 14.667 -22.667 29.334 -68 44.001c-22.667 18 -34 37.667 -34 59c0 44 24.667 69.667 74 77zM4203 1905c36.666 0 62.333 -21 77 -63
c4.66602 -12 7 -33.667 7 -65v-125h-52v112c0 55.333 -13.334 83 -40 83h-11c-22 0 -35.334 -18 -40 -54v-141h-52v5h-2l2 2v238h47v-21c16.666 19.333 38 29 64 29zM4432 1905h5c26.666 0 49.666 -13.333 69 -40v18l-3 3l3 11h47v-208c0 -64.667 -28.334 -108.667 -85 -132
l-33 -4h-7c-46.666 0 -81.333 26.667 -104 80h59c16 -14.667 31 -22.334 45 -23.001h13c14.666 0 29 7.33301 43 22c10 8.66699 17.334 26 22 52h-3c-21.334 -26.667 -45.667 -40 -73 -40c-38 0 -70 23.333 -96 70c-6.66602 12 -11.333 33 -14 63
c0 58.667 29 100.334 87 125.001zM3851 1897l53 -0.000976562v-136c4 -39.333 17.333 -59 40 -59h7c30.667 0 46 31 46 93v102h51v-245h-47l-3 10h3l-3 3v5l3 2v3h-4c0 -15.333 -19 -25.666 -57 -30.999h-3c-39.333 0 -67.333 25 -84 75l-2 85v93zM690 1771
c6.66699 -46 27.6689 -69 63.002 -69h7c39.333 9.33301 59 31 59 65v15c-8.66699 43.333 -28.334 65 -59.001 65h-5c-38.667 0 -60.334 -25.333 -65.001 -76zM3630 1774c8.66699 -48 29 -72 61 -72h5c38.667 0 60.667 25 66 75c0 32.667 -17 56 -51 70h-22
c-24.667 0 -43.334 -19 -56 -57zM4374 1774c5.33398 -48 27 -71.999 65 -71.999h5c39.334 8 59 32 59 72c0 40.667 -19.666 65 -59 73h-14c-37.334 -10.667 -56 -31.334 -56 -62.001v-11zM3928 1620h52v-57h-52v57zM1054 1402c28.667 -7.33301 43 -23.667 43 -49v-4
c0 -11.333 -10.667 -31.333 -32 -60h-28c0 16.667 10.333 35.667 31 57v7c0 8 -2.33301 13 -7 15h-12c-6.66699 -2.66699 -10 -9 -10 -19h-28v6c0 21.333 11 36 33 44zM3349 1339c61.333 0 107.333 -33.001 138 -99.001h-60c-24.667 28 -51.334 42 -80 42
c-36.667 0 -65.667 -22.667 -87 -68c-6.66699 -14.667 -10 -30.334 -10 -47.001c0 -52 27 -88.667 81 -110l18 -1c24 0 49 13 75 39h61c-29.333 -64.667 -75.333 -97 -138 -97c-62 0 -109 37.333 -141 112c-6.66699 20.667 -10 41.334 -10 62.001
c0 64.667 30 115.334 90 152.001c19.333 10 40.333 15 63 15zM3664 1339c38 0 72.333 -15.666 103 -46.999c30.667 -34 46 -72.333 46 -115v-20c0 -59.333 -30.333 -108 -91 -146c-22 -8.66699 -43 -13 -63 -13c-59.333 0 -105.333 33.667 -138 101
c-8.66699 22 -13 42 -13 60v18c0 65.333 32.667 115.666 98 150.999c19.333 7.33301 38.666 11 58 11zM2261 1337h2l47 -11h3c7.33301 0 16 3.66699 26 11l18 -36c-12 -12.667 -23.667 -19 -35 -19h-3l-54 10l-20 -7l-20 36c12 10.667 24 16 36 16zM716.002 1334h19
c78.667 0 121.667 -8.66699 129 -26c16.667 -17.333 25 -38 25 -62c-6.66699 -38 -16.667 -57 -30 -57v-6c31.333 -15.333 47 -37.333 47 -66v-18c0 -42 -23 -71.333 -69 -88l-54 -5h-67v328zM2550 1334h53v-217c4 -40.667 19 -61 45 -61c19.333 0 34 13 44 39l3 30v203l4 6
h45l5 -6v-171c0 -78.667 -13.333 -123 -40 -133c-16 -17.333 -37.333 -26 -64 -26c-36.667 0 -67 25.333 -91 76l-4 54v206zM2805 1334h59c2.66699 0 43.334 -79 122 -237h4v237h50l4 -6v-322h-58c-19.333 32 -61 111.333 -125 238h-3v-238h-53v328zM3101 1334h54v-328h-54
v328zM3859 1334l8 0.000976562c103.333 0 161.333 -13.333 174 -40c15.333 -7.33301 31 -32.333 47 -75l4 -36v-11l3 -2c0 -62.667 -27.333 -112.334 -82 -149.001c-23.333 -10 -56.333 -15 -99 -15h-55v328zM4141 1334h153v-60h-103v-75h101v-57h-101v-74l4 -5h99v-57h-157
v322zM3563 1175v-10c0 -50.667 26.333 -86.667 79 -108l19 -1c45.333 0 77.333 28.667 96 86l3 20v15c0 40.667 -20 72 -60 94c-8 5.33301 -21 9 -39 11c-44 0 -76 -27.667 -96 -83zM770.002 1274v-67h9c36 0 54 9.33301 54 28l3 14c-7.33301 16.667 -17 25 -29 25h-37z
M3912 1274v-206.001l2 -3v-2c69.333 0 110 25.333 122 76l2 15v29c0 22.667 -10.667 45.334 -32 68.001c-16.667 15.333 -42.667 23 -78 23h-16zM1041 1259h5c25.333 0 49 -13.333 71 -40v32h49v-245h-49v32c-24 -26.667 -50.667 -40 -80 -40c-50 0 -83.667 32.333 -101 97
l-5 36c0 59.333 28.333 101 85 125zM1314 1259h3c49.333 0 77 -34 83 -102v-151h-51v128c0 44.667 -14 67 -42 67h-10c-22.667 0 -35.667 -20.667 -39 -62v-133h-52v245h47v-21c18.667 19.333 39 29 61 29zM1543 1259h5c30 0 53.667 -13.333 71 -40v32h47v-219
c0 -63.333 -34.667 -105.333 -104 -126h-16c-49.333 0 -85.333 27.333 -108 82h59c17.333 -16.667 32 -25 44 -25h14c34.667 0 56 25.667 64 77c-22 -28 -47.333 -42 -76 -42c-40 0 -73.667 27 -101 81l-7 44v16c0 52.667 28.333 91.667 85 117zM1912 1259l2 0.000976562
c28.667 0 49 -12.333 61 -37h2c21.333 24.667 44.333 37 69 37h4c38 0 64.333 -18.333 79 -55c5.33301 -16.667 8 -31.667 8 -45v-153h-52v138c0 29.333 -7.66699 47.666 -23 54.999l-12 2h-15c-21.333 0 -33.333 -21.667 -36 -65v-130h-52v136c0 39.333 -14.333 59 -43 59
h-8c-21.333 0 -33.333 -19 -36 -57v-138h-54v245h50v-21h2c4 16 22 25.667 54 29zM2282 1259c31.333 0 56.333 -14 75 -42v34h47v-245h-47v32c-24 -26.667 -50 -40 -78 -40c-49.333 0 -83.333 30.667 -102 92l-6 41c0 60 28.333 101.667 85 125zM985.002 1117
c0 -32 20.333 -52.333 61 -61h4c30 0 50.667 15.333 62 46l3 15v22c-8 41.333 -27 62 -57 62h-14c-27.333 0 -47 -19 -59 -57v-27zM1487 1128c0 -32 14.332 -54.667 42.999 -68l18 -4h5c31.333 0 52.333 19 63 57v23c-7.33301 43.333 -26.666 65 -57.999 65h-12
c-33.333 0 -53 -24.333 -59 -73zM2225 1131v-14.001c10 -40.667 29 -61 57 -61h14c38.667 8 58 29.333 58 64v11c0 30 -12.333 51.667 -37 65l-18 5h-10c-42.667 -5.33301 -64 -28.666 -64 -69.999zM770.001 1150v-82c0 -3.33301 2.33301 -5 7 -5c51.333 0 77 15 77 45
c0 22.667 -15.667 36.667 -47 42h-37zM2966 752.999l24 -28l-51 -55c-12 8 -21 16.667 -27 26zM1524 726.999l85 -54c0 -10 -7 -24 -21 -42l-87 54c12 27.333 19.667 41.333 23 42zM2850 692.999h38l55 -60h-54l-21 26l-23 -26h-54c36 40 55.667 60 59 60zM3422 692.999h40
l56 -60h-54l-24 26h-1c0 -3.33301 -6.33301 -12 -19 -26h-54zM622.001 684.999l52 0.00195312c5.33301 -2.66699 21 -48.334 47 -137.001l34 -110c6 5.33301 17.333 38.666 34 99.999l48 147h54v-2l-112 -326h-44zM1159 685.001h51v-54h-51v54zM1354 685.001h46l6 -5v-323
h-52v328zM2317 685.001h45l4 -5v-78h31v-52h-31v-193h-53v193h-26v52h26v78zM2425 685.001h52v-98h2c15.333 15.333 33.333 23 54 23h3c38 0 65 -23.667 81 -71l3 -38v-144h-52v115c0 54 -13 81 -39 81h-10c-28 0 -42 -29 -42 -87v-109h-52v328zM2664 685.001h52v-54h-52v54
zM3028 685.001h44l6 -5v-78h29v-52h-29v-193h-54v193h-27v52h27v78zM3234 685.001h52v-328h-52v328zM3957 685.001h52v-328h-52v328zM4316 685.001h51v-54h-51v54zM1555 610.001h5c55.333 0 92 -34 110 -102l3 -23v-11c0 -55.333 -28.333 -95.333 -85 -120l-35 -5
c-50.667 0 -87.667 32.333 -111 97l-4 32c0 64.667 31 108 93 130zM1811 610.001h4c35.333 0 61.333 -20 78 -60c4.66699 -16.667 7 -43.667 7 -81v-112h-54v146c-4.66699 33.333 -17 50 -37 50h-10c-25.333 0 -39.333 -19 -42 -57v-139h-54v245h49v-21
c17.333 19.333 37 29 59 29zM2046 610.001h4.00098c30 0 51 -13 63 -39h3v31h49v-206c0 -68 -29.667 -113 -89 -135l-28 -3h-5c-48.667 0 -84 27 -106 81h52l37 -20l15 -3h14c33.333 0 53.666 24 60.999 72c-22 -26 -46.333 -39 -73 -39c-41.333 0 -74 25.333 -98 76
c-7.33301 15.333 -11.333 35.333 -12 60c0 56.667 28.667 97.667 86 123zM2866 610.001l2 -0.000976562c54.667 0 91.667 -34.667 111 -104l2 -25l-2 -27h-172c10 -30 25 -45 45 -45l14 -3c19.333 0 35.666 7.33301 49 22h57v-3c-23.333 -50.667 -59.333 -76 -108 -76
c-51.333 0 -88.333 32.333 -111 97l-1 28v8c0 32.667 10.667 62.334 32 89.001c22.667 26 50 39 82 39zM3429 610h5c27.333 0 50.666 -13 70 -39h2v31h47v-245h-47v31h-2c-23.333 -26 -49 -39 -77 -39c-47.333 0 -81 29.667 -101 89l-5 36v14c0 57.333 28 97.333 84 120z
M3711 610l7 -0.000976562c58.667 0 94.334 -42.667 107 -128l-2 -1v-15c0 -43.333 -22 -78.666 -66 -105.999c-14 -7.33301 -29.333 -11 -46 -11c-22.667 0 -44 10.667 -64 32v-99l-5 -5h-49v325h49v-28c20.667 24 43.667 36 69 36zM4151 609.999
c29.334 0 54.334 -13 75 -39v31h49v-245h-49v31c-23.334 -26 -49 -39 -77 -39c-61.333 0 -97.333 44 -108 132c0 56 24.333 96.333 73 121c10 5.33301 22.334 8 37 8zM922.002 601.999h50v-136c2 -40 16 -60 42 -60h5c29.333 0 44 29 44 87v109h52v-245h-47v24h-5
c0 -15.333 -18.667 -26 -56 -32h-3c-36.667 0 -64 22.667 -82 68c-2.66699 23.333 -4 56.333 -4 99v81zM1159 601.999h51v-245h-51v245zM2664 601.999h52v-245h-52v245zM4316 601.999h51v-245h-51v245zM1492 487.999v-15.999c8.66699 -44 28.334 -66 59.001 -66h4
c39.333 0 61.333 25.333 66 76c-8.66699 47.333 -28.334 71 -59.001 71h-11c-39.333 -10.667 -59 -32.334 -59 -65.001zM1987 472c10 -44 29.667 -66 59 -66h11c32 0 51.667 25 59 75v1c-8.66699 47.333 -28.334 71 -59 71h-14c-26 0 -44.667 -19 -56 -57v-24zM2805 506h122
v2c-10.667 30 -30.334 45 -59 45h-7c-23.333 0 -42 -15.667 -56 -47zM3373 474c8.66699 -45.333 29 -68 61 -68h5c34.667 0 56.334 21 65 63v12c-6.66699 48 -25.667 72 -57 72h-16c-37.333 -9.33301 -56 -30.333 -56 -63zM3642 478c8 -48 28.333 -72.001 61 -72.001h3
c33.333 0 55 20 65 60v22c0 28.667 -16.333 50.334 -49 65.001h-22c-31.333 0 -50.666 -24 -58 -72v-3zM4095 471.999c6.66602 -44 28.666 -66 66 -66c28.666 0 49 16 61 48l2 15v16c0 36 -17.334 58.667 -52 68h-18c-28 0 -47.666 -20 -59 -60v-21zM3416 320.999h51v-52
h-51v52zM4137 320.999h51v-52h-51v52zM2733 132.999h4c23.333 0 37.666 -16.667 43 -50v-2c0 -10.667 -8 -24.334 -24 -41.001l-10 -17h-28c0 16.667 9.33301 35.334 28 56.001l3 2v2c-2 12.667 -5 19 -9 19h-10c-5.33301 0 -8.33301 -6.33301 -9 -19h-30
c4 33.333 18 50 42 50zM1546 115.999l52 -60l-26 -19l-52 52zM352.002 78.999h4c50 -32 78.333 -52 85 -60l-20 -37c-58.667 32.667 -88 52 -88 58zM3490 78.999l86 -58l-18 -39c-6.66699 0 -37 18.333 -91 55c10 24 17.667 38 23 42zM4578 75.999l19 -42l-91 -52l-20 39
l92 58v-3zM1204 52.999h51v-19l5 -5h14v-36h-14l-5 -5v-279h-46v31c-22.667 -26.667 -49.667 -40 -81 -40c-48 0 -82 35 -102 105l-3 26c0 68 33.667 111.667 101 131h14c22 0 44 -11 66 -33v59l-6 5h-43v36h49v24zM1480 44.999h40l56 -61h-53l-23 27l-23 -27h-53z
M2641 44.999h33c8 0 29 -20.333 63 -61h-54l-23 27c-12.667 -14 -19 -23 -19 -27h-58v4zM49.002 36.999h160v-60h-56v-268h-50l-4 5v245l2 3v2l-2 2l2 3l-2 2l2 3l-2 3h-54v54zM699.002 36.999h47v-73l2 -2l-2 -3v-3l2 -2l-2 -3v-3l2 -2v-2l-2 -3l2 -3h3
c11.333 16 28.333 24 51 24h3c35.333 0 61 -19.333 77 -58c4.66699 -11.333 7 -25.333 7 -42v-153h-52v127c0 45.333 -13.333 68 -40 68h-8c-28.667 0 -43 -28.667 -43 -86v-109h-52v322zM1297 36.999h47l5 -6v-49h-52v55zM1987 36.999h52v-198l70 115h62l-78 -118l90 -125
v-2h-70c-6.66699 14.667 -31.334 53 -74 115v-115h-52v328zM2271 36.999v-98.999c16 16 33.667 24 53 24c38 0 64.667 -18.667 80 -56c6.66699 -12.667 10 -38.334 10 -77.001v-120h-54v133c0 41.333 -13.667 62 -41 62h-11c-20.667 0 -33 -18.333 -37 -55v-140h-53v314
l-1 3v3l1 2l-1 3l1 3h53zM2458 37h51v-55h-51v55zM3148 37h51v-108c18 22 40.667 33 68 33h3c50 0 85 -31.333 105 -94l5 -37c0 -50 -21.333 -90 -64 -120c-20 -7.33301 -36.333 -11 -49 -11c-27.333 0 -51.333 13.333 -72 40v-31h-47v328zM4275 37h52v-99h2
c15.334 16 33.334 24 54 24h3c40 0 67.334 -24.667 82 -74l2 -41v-138h-52v111c0 54.667 -10.666 82 -32 82l-10 2h-12c-24.666 0 -37 -26.667 -37 -80v-115h-52v328zM329.002 -38h3v-58h-5c-28 0 -42 -19 -42 -57v-138h-53v245h47v-21c12 19.333 28.667 29 50 29z
M564.002 -38c47.333 0 75.999 -29 85.999 -87v-166h-51v136c-4 39.333 -17.667 59 -41 59h-6c-30 0 -45 -28 -45 -84v-111h-52v245h50v-21c16.667 19.333 36.334 29 59.001 29zM1504 -38c48 0 83 -31.333 105 -94l5 -39c-1.33301 -16 -3.66602 -24 -6.99902 -24h-169
c11.333 -31.333 32 -47 62 -47c16 0 32 7 48 21h57c-22 -52.667 -58 -79 -108 -79c-54.667 0 -92.334 35 -113.001 105v37c0 54 29.667 93 89 117zM2657 -38h5c51.333 0 87 -32.333 107 -97l3 -26v-21l-3 -13h-170c12 -31.333 29.667 -47 53 -47h12c14 0 28 7 42 21h59
c-22.667 -52.667 -57.667 -79 -105 -79c-56 0 -94.333 34 -115 102l-2 29c0 62 30.333 104.667 91 128zM2915 -38h3.99902c36 0 62 -20 78 -60c4.66699 -16.667 7 -44 7 -82v-111h-54v138c0 32 -11.667 51 -35 57h-11c-25.333 0 -39.666 -19 -42.999 -57v-138h-54v245h50
v-21c16.667 19.333 36 29 58 29zM3508 -38h6c26.667 0 50 -13.333 70 -40h2v32h47v-245h-47v31h-2c-22.667 -26.667 -48.667 -40 -78 -40c-47.333 0 -81 30 -101 90l-4 37v12c0 54.667 25.667 93.667 77 117c7.33301 4 17.333 6 30 6zM3781 -38h4
c41.333 0 68.666 -26 82 -78l3 -84v-91h-54v138c0 32 -12.667 51 -38 57h-9c-25.333 0 -39.333 -17.333 -42 -52v-143h-54v245h49v-21c17.333 19.333 37 29 59 29zM4133 -38h1c49.334 0 84 -31 104 -93l4 -40c0 -58.667 -28 -100.667 -84 -126l-25 -3
c-27.333 0 -50 11.333 -68 34v-106h-52v326h47v-29c20 24.667 44.334 37 73 37zM4714 -38h5c22.666 0 43.666 -12.333 63 -37c18 24.667 41 37 69 37h6c37.334 0 63.667 -22 79 -66l6 -51v-136h-52v122c0 48.667 -13 73 -39 73h-7c-23.334 0 -37 -16.667 -41 -50v-140l-5 -5
h-48v140c0 28 -10.334 46.333 -31 55h-17c-26.666 0 -40 -25.667 -40 -77v-118h-51v245h47v-21c14.666 19.333 33.333 29 56 29zM359 -46h49l5 -6v-234l-5 -5h-49v245zM1297 -46h52v-245h-52v245zM1649 -46h52v-136c2.66699 -40 17 -60 43 -60h4c29.333 0 44 27 44 81v115
h52v-245h-47v24h-5c-8 -22 -27.667 -33 -59 -33c-34.667 0 -61 21 -79 63c-3.33301 8 -5 19.333 -5 34v157zM2458 -46h51v-245h-51v245zM4515 -46h51v-245h-51v245zM1077 -169c0 -35.333 16.999 -59.666 50.999 -72.999h12c36 0 58 22 66 66v10
c0 35.333 -18 58.666 -54 69.999h-17c-25.333 0 -44.666 -19 -57.999 -57v-16zM1438 -143h122.001c-12 31.333 -29.667 47 -53 47h-7c-28.667 0 -49.334 -14.667 -62.001 -44v-3zM2599 -143h122c-14 31.333 -32 47 -54 47h-7c-30.667 0 -51 -15.667 -61 -47zM3196 -158v-11
c6.66699 -48.667 27 -73 61 -73h5c42.667 5.33301 64 29 64 71v5c0 30 -12.667 51.667 -38 65l-18 5h-14c-40 -9.33301 -60 -30 -60 -62zM3452 -173c9.33301 -46 30 -69 62 -69h11c27.333 0 47 20 59 60v13c-5.33301 48.667 -24 73 -56 73h-17
c-31.333 0 -51 -24.333 -59 -73v-4zM4062 -158v-22c0 -31.333 19.667 -52 59 -62h9c33.334 0 53.667 25.333 61 76c-8.66602 46.667 -28 70 -58 70h-15c-37.333 -11.333 -56 -32 -56 -62z" />
    <glyph glyph-name="space" unicode=" " horiz-adv-x="708" 
 />
    <glyph glyph-name="exclam" unicode="!" horiz-adv-x="460" 
d="M304 165.5c20.667 -20.333 31 -44.833 31 -73.5c0 -29.333 -10.333 -54.166 -31 -74.499s-45.334 -30.5 -74.001 -30.5s-53.334 10.167 -74.001 30.5s-31 45.166 -31 74.499c0 28.667 10.333 53.167 31 73.5s45.334 30.5 74.001 30.5s53.334 -10.167 74.001 -30.5z
M291 1516v-1262h-126v1262h126z" />
    <glyph glyph-name="quotedbl" unicode="&#x22;" horiz-adv-x="593" 
d="M125 917v596h127v-596h-127zM341 917v596h127v-596h-127z" />
    <glyph glyph-name="numbersign" unicode="#" horiz-adv-x="1598" 
d="M768 950h167l102 410h128l-102 -410h409l-32 -127h-409l-42 -167h410l-33 -127h-409l-102 -409h-128l102 409h-166l-102 -409h-129l103 409h-410l32 127h410l41 167h-409l32 127h409l102 410h129zM903 823h-167l-41 -167h166z" />
    <glyph glyph-name="dollar" unicode="$" horiz-adv-x="992" 
d="M566 775l-0.000976562 -554c40 6 81.333 30.667 124 74c53.333 53.333 80 118 80 194s-26.667 140.667 -80 194c-43.333 43.333 -84.666 74 -123.999 92zM438.999 1296c-16 -2.66699 -36.667 -16.665 -62 -41.998c-32.667 -32.667 -49 -72.334 -49 -119.001
s16 -86.334 48 -119.001c24.667 -24 45.667 -41 63 -51v331zM438.999 827.002c-57.333 25.333 -107.332 59.3301 -149.999 101.997c-56.667 56.667 -85 125.334 -85 206.001c0 79.333 28.333 147.333 85 204c48 48.667 98 76 150 82v152h127v-155c46 -8 91.333 -34 136 -78
c31.333 -30.667 56 -73 74 -127l-112 -45c-14.667 39.333 -31.334 68.333 -50.001 87c-22 21.333 -38 33.333 -48 36v-384c77.333 -30 147.666 -76 210.999 -138c77.333 -77.333 116 -170.666 116 -279.999c0 -110 -38.667 -203.667 -116 -281
c-66 -65.333 -136.333 -102.666 -211 -111.999v-131h-127v130c-80 6 -154.667 43.667 -224 113c-62 62 -100.333 141.333 -115 238l119 43c8.66699 -84 36.334 -149 83.001 -195c46 -46 91.667 -71.333 137 -76v609z" />
    <glyph glyph-name="percent" unicode="%" horiz-adv-x="1180" 
d="M1078 1236l-870 -1242l-105 72l870 1242zM480.5 1093.5c45.667 -45.667 68.5 -101.167 68.5 -166.5c0 -64.667 -22.833 -119.834 -68.5 -165.501s-100.834 -68.5 -165.501 -68.5c-65.333 0 -120.833 22.833 -166.5 68.5s-68.5 100.834 -68.5 165.501
c0 65.333 22.833 120.833 68.5 166.5s101.167 68.5 166.5 68.5c64.667 0 119.834 -22.833 165.501 -68.5zM315 1038c-31.333 0 -57.666 -10.833 -78.999 -32.5s-32 -47.834 -32 -78.501s10.667 -56.667 32 -78s47.666 -32 78.999 -32c30 0 55.833 10.667 77.5 32
s32.5 47.333 32.5 78s-10.833 56.834 -32.5 78.501s-47.5 32.5 -77.5 32.5zM1032.5 541.5c45.667 -45.667 68.5 -101.167 68.5 -166.5c0 -64.667 -22.833 -119.834 -68.5 -165.501s-100.834 -68.5 -165.501 -68.5c-65.333 0 -120.833 22.833 -166.5 68.5
s-68.5 100.834 -68.5 165.501c0 65.333 22.833 120.833 68.5 166.5s101.167 68.5 166.5 68.5c64.667 0 119.834 -22.833 165.501 -68.5zM867 486c-31.333 0 -57.666 -10.833 -78.999 -32.5s-32 -47.834 -32 -78.501s10.667 -56.667 32 -78s47.666 -32 78.999 -32
c30 0 55.833 10.667 77.5 32s32.5 47.333 32.5 78s-10.833 56.834 -32.5 78.501s-47.5 32.5 -77.5 32.5z" />
    <glyph glyph-name="ampersand" unicode="&#x26;" horiz-adv-x="1257" 
d="M842 314l-5.99805 4.00195c-31.333 18 -69.666 50.667 -114.999 98c-28 25.333 -47.333 41 -58 47c-10 5.33301 -20 8 -30 8c-6 0 -11.667 -0.666992 -17 -2c-16 -4.66699 -28 -14 -36 -28c-6 -10.667 -9 -20.667 -9 -30c0 -5.33301 1 -11 3 -17
c4 -16 12.333 -27.333 25 -34c8 -4.66699 20.333 -7 37 -7c10 0 31 2 63 6l-13 -118c-26.667 -7.33301 -48.667 -11 -66 -11c-28.667 0 -56.334 7.33301 -83.001 22c-42 23.333 -69.667 59.666 -83 108.999c-4.66699 17.333 -7 34 -7 50c0 30.667 8.33301 60.667 25 90
c25.333 44.667 62.333 73.667 111 87c17.333 4.66699 34.333 7 51 7c31.333 0 61 -8.33301 89 -25c26.667 -14.667 60.334 -43 101.001 -85c33.333 -31.333 57.666 -51 72.999 -59c15.333 -8.66699 30.666 -13 45.999 -13c9.33301 0 18.666 1.33301 27.999 4
c26 6.66699 45.667 21.667 59 45c8.66699 16 13 32 13 48c0 8 -1.33301 16.667 -4 26c-6.66699 25.333 -21.667 45 -45 59c-14 7.33301 -29.667 11 -47 11c-13.333 0 -37 -4.66699 -71 -14l-2 127c30 8.66699 54.667 13 74 13c36.667 0 72.334 -9.66699 107.001 -29
c52.667 -30 87.334 -74.667 104.001 -134c5.33301 -20.667 8 -40.334 8 -59.001c0 -38 -10 -74 -30 -108c-30 -53.333 -74.667 -88 -134 -104c-18 -4.66699 -30 -7.33398 -36 -8.00098c-18 -59.333 -54.667 -116.666 -110 -171.999c-89.333 -90 -197.333 -135 -324 -135
c-126 0 -233.833 44.667 -323.5 134s-134.5 197.666 -134.5 324.999c0 126 44 235.667 132 329c60 64.667 119.667 107 179 127c-12 4.66699 -42.667 33.334 -92 86.001s-74 125 -74 217c0 90.667 32.5 168.667 97.5 234s143.833 98 236.5 98c92 0 170.667 -32.333 236 -97
c36.667 -34.667 64 -80.667 82 -138l-114 -45c-15.333 40.667 -34.333 72.667 -57 96c-40.667 40 -89.667 60 -147 60c-56.667 0 -105.334 -20.167 -146.001 -60.5s-61 -89.5 -61 -147.5c0 -57.333 20 -107.333 60 -150s77 -70.5 111 -83.5s84.667 -19.833 152 -20.5v-120
l-86 -3c-128 -24 -224 -70.833 -288 -140.5s-96 -150.167 -96 -241.5c0 -92.667 32.5 -171.5 97.5 -236.5s143.5 -97.5 235.5 -97.5c91.333 0 169.666 32.667 234.999 98c38 38 62.667 74 74 108z" />
    <glyph glyph-name="quotesingle" unicode="'" horiz-adv-x="377" 
d="M125 917v596h127v-596h-127z" />
    <glyph glyph-name="parenleft" unicode="(" horiz-adv-x="707" 
d="M607 1506c-88 -40.667 -164.333 -101.666 -229 -182.999c-108 -136 -162 -324.333 -162 -565c0 -241.333 54 -430 162 -566c64.667 -81.333 141 -143.333 229 -186v-123c-126.667 44 -231.667 118.333 -315 223c-128 159.333 -192 376.666 -192 651.999
c0 274.667 64 492 192 652c83.333 104.667 188.333 179 315 223v-127z" />
    <glyph glyph-name="parenright" unicode=")" horiz-adv-x="707" 
d="M100 1633c126.667 -44 231.334 -118.334 314.001 -223.001c128.667 -160 193 -377.333 193 -652c0 -275.333 -64.333 -492.666 -193 -651.999c-82.667 -104.667 -187.334 -179 -314.001 -223v123c88 42.667 164.333 104.667 229 186c108 136 162 324.667 162 566
c0 240.667 -54 429 -162 565c-64.667 81.333 -141 142.333 -229 183v127z" />
    <glyph glyph-name="asterisk" unicode="*" horiz-adv-x="818" 
d="M472 1338l144 100l73 -104l-170 -119l170 -119l-73 -104l-144 101v-176h-126v177l-145 -102l-73 104l170 119l-170 119l73 104l145 -101v176h126v-175z" />
    <glyph glyph-name="plus" unicode="+" horiz-adv-x="1030" 
d="M452 503h-327v127h327v327h126v-327h327v-127h-327v-326h-126v326z" />
    <glyph glyph-name="comma" unicode="," horiz-adv-x="421" 
d="M321 197l-191 -398h-120l107 398h204z" />
    <glyph glyph-name="hyphen" unicode="-" horiz-adv-x="837" 
d="M125 630h587v-127h-587v127z" />
    <glyph glyph-name="hyphen" unicode="&#x2010;" horiz-adv-x="837" 
d="M125 630h587v-127h-587v127z" />
    <glyph glyph-name="period" unicode="." horiz-adv-x="410" 
d="M279 165.5c20.667 -20.333 31 -44.833 31 -73.5c0 -29.333 -10.333 -54.166 -31 -74.499s-45.334 -30.5 -74.001 -30.5s-53.334 10.167 -74.001 30.5s-31 45.166 -31 74.499c0 28.667 10.333 53.167 31 73.5s45.334 30.5 74.001 30.5s53.334 -10.167 74.001 -30.5z" />
    <glyph glyph-name="slash" unicode="/" horiz-adv-x="729" 
d="M636 1516h143l-687 -1516h-142z" />
    <glyph glyph-name="zero" unicode="0" horiz-adv-x="1206" 
d="M999 989c0 109.333 -38.667 202.5 -116 279.5s-170.666 115.5 -279.999 115.5s-202.666 -38.5 -279.999 -115.5s-116 -170.167 -116 -279.5v-488c0 -109.333 38.667 -202.333 116 -279s170.666 -115 279.999 -115s202.666 38.333 279.999 115s116 169.667 116 279v488z
M1130 501c0 -145.333 -51.333 -269.5 -154 -372.5s-227 -154.5 -373 -154.5c-145.333 0 -269.5 51.5 -372.5 154.5s-154.5 227.167 -154.5 372.5v488c0 145.333 51.5 269.5 154.5 372.5s227.167 154.5 372.5 154.5c146 0 270.333 -51.5 373 -154.5s154 -227.167 154 -372.5
v-488z" />
    <glyph glyph-name="one" unicode="1" horiz-adv-x="1302" 
d="M769 1516v-1516h-127v1327h-110l147 189h90z" />
    <glyph glyph-name="two" unicode="2" horiz-adv-x="1220" 
d="M358 435.5l272.001 204.001c77.333 58.333 148.166 122.666 212.499 192.999s96.5 150.833 96.5 241.5c0 92 -32.167 170.167 -96.5 234.5s-142.166 96.5 -233.499 96.5c-90.667 0 -168.334 -32.333 -233.001 -97c-55.333 -55.333 -88 -130.333 -98 -225l-127 46
c16.667 108.667 60.667 199 132 271c90 90.667 198.667 136 326 136s236 -45 326 -135s135 -199 135 -327c0 -126 -44 -236.333 -132 -331c-58 -62.667 -126.167 -123.334 -204.5 -182.001l-264.5 -198c-92.667 -69.333 -148.667 -148 -168 -236h769v-127h-915
c31.333 212.667 99 357.834 203 435.501z" />
    <glyph glyph-name="three" unicode="3" horiz-adv-x="1220" 
d="M558 822l-89.002 2.00195v126c68.667 0.666992 119.834 7.5 153.501 20.5s70.334 40.5 110.001 82.5s59.5 91.333 59.5 148c0 57.333 -20 105.833 -60 145.5s-88 59.5 -144 59.5s-104.333 -19.667 -145 -59c-22 -22.667 -41 -55.334 -57 -98.001l-119 47
c18.667 59.333 46.334 106.666 83.001 141.999c66 65.333 145.333 98 238 98c93.333 0 172.666 -33 237.999 -99s98 -144.667 98 -236c0 -92.667 -24.833 -165.667 -74.5 -219s-77.834 -81.333 -84.501 -84c54 -18 111.667 -59.667 173 -125c88 -94.667 132 -205 132 -331
c0 -128 -45 -237 -135 -327s-198.667 -135 -326 -135s-236 45.333 -326 136c-71.333 72 -115.333 162.333 -132 271l127 46c10 -94.667 42.667 -169.667 98 -225c64.667 -64.667 142.334 -97 233.001 -97c91.333 0 169.166 32.167 233.499 96.5s96.5 142.5 96.5 234.5
c0 90.667 -31.667 170.667 -95 240s-158.666 116 -285.999 140z" />
    <glyph glyph-name="four" unicode="4" horiz-adv-x="1238" 
d="M806 1516h117v-959h141v-126h-141v-431h-127v431h-623zM796 1236l-403 -679h403v679z" />
    <glyph glyph-name="five" unicode="5" horiz-adv-x="1219" 
d="M333 1071c2.66699 1.33301 23.6699 6.33105 63.0029 14.998c40.667 6.66699 80 10 118 10c70 0 137.333 -11 202 -33c144 -49.333 251 -140 321 -272c44 -82 66 -166.333 66 -253c0 -53.333 -8.33301 -107.333 -25 -162c-44 -143.333 -132.333 -250.666 -265 -321.999
c-80 -42.667 -163 -64 -249 -64c-54.667 0 -110 8.66699 -166 26c-114.667 34.667 -208.334 101.667 -281.001 201l90 99c59.333 -88.667 136 -147 230 -175c42 -13.333 83.333 -20 124 -20c65.333 0 128.666 16.333 189.999 49c101.333 54 168.666 135.667 201.999 245
c12.667 42 19 83.333 19 124c0 65.333 -16.333 129 -49 191c-54 100.667 -136 170.334 -246 209.001c-47.333 16 -99.333 24 -156 24c-76 0 -164.333 -16 -265 -48l-87 76l173 477v48h504v-127h-397z" />
    <glyph glyph-name="six" unicode="6" horiz-adv-x="1207" 
d="M211 501c0 -109.333 38.5 -202.333 115.5 -279s170.167 -115 279.5 -115s202.666 38.333 279.999 115s116 169.667 116 279s-38.667 202.666 -116 279.999s-170.666 116 -279.999 116s-202.5 -38.667 -279.5 -116s-115.5 -170.666 -115.5 -279.999zM606 1029
c146 0 270.331 -51.5 372.998 -154.5s154 -227.5 154 -373.5c0 -145.333 -51.333 -269.5 -154 -372.5s-227 -154.5 -373 -154.5c-145.333 0 -269.333 51.667 -372 155c-99.333 99.333 -150.666 211 -153.999 335h-7c6.66699 236 59.834 423.667 159.501 563
s222.167 290.333 367.5 453l31 36h170c-31.333 -39.333 -54 -67 -68 -83c-160.667 -179.333 -288 -336 -382 -470c38.667 44 123.667 66 255 66z" />
    <glyph glyph-name="seven" unicode="7" horiz-adv-x="1220" 
d="M815.5 973c-162.333 -182 -290.002 -339.001 -383.002 -471.001s-142.833 -299.333 -149.5 -502h-130c6.66699 236 59.834 423.833 159.501 563.5s221.334 289.834 365.001 450.501s225.167 285.667 244.5 375h-768v127h912c-4.66699 -180 -88.167 -361 -250.5 -543z" />
    <glyph glyph-name="eight" unicode="8" horiz-adv-x="1211" 
d="M604 113h4c12 -1.33301 23.667 -2 35 -2c91.333 0 169.333 32.167 234 96.5s97 142.5 97 234.5c0 90.667 -31.667 170.667 -95 240c-62 67.333 -153 113 -273 137c-120.667 -24 -212 -69.667 -274 -137c-63.333 -69.333 -95 -149.333 -95 -240
c0 -92 32.333 -170.167 97 -234.5s142.667 -96.5 234 -96.5c11.333 0 23.333 0.666992 36 2zM606 -19c-12 -0.666992 -24.6689 -1 -38.002 -1c-127.333 0 -236 45 -326 135s-135 199 -135 327c0 126 44 236.333 132 331c60.667 65.333 118.334 107 173.001 125
c-7.33301 2.66699 -35.833 30.667 -85.5 84s-74.5 126.333 -74.5 219c0 91.333 32.667 170 98 236s145 99 239 99h33c94 0 173.667 -33 239 -99s98 -144.667 98 -236c0 -92.667 -24.833 -165.667 -74.5 -219s-78.167 -81.333 -85.5 -84
c54.667 -18 112.334 -59.667 173.001 -125c88 -94.667 132 -205 132 -331c0 -128 -44.833 -237 -134.5 -327s-198.5 -135 -326.5 -135c-12.667 0 -25 0.333008 -37 1zM602.998 1405c-4.66699 0.666992 -9.3291 1 -13.9961 1c-56.667 0 -104.834 -19.833 -144.501 -59.5
s-59.5 -88.167 -59.5 -145.5c0 -56.667 19.667 -106 59 -148s75.666 -69.333 108.999 -82c16.667 -6 34.334 -10.667 53.001 -14c18 3.33301 35.333 8 52 14c33.333 12.667 69.666 40 108.999 82s59 91.333 59 148c0 57.333 -19.833 105.833 -59.5 145.5
s-87.834 59.5 -144.501 59.5c-4.66699 0 -9.33398 -0.333008 -14.001 -1h-5z" />
    <glyph glyph-name="nine" unicode="9" horiz-adv-x="1207" 
d="M996 989c0 109.333 -38.667 202.5 -116 279.5s-170.666 115.5 -279.999 115.5s-202.666 -38.5 -279.999 -115.5s-116 -170.167 -116 -279.5s38.667 -202.666 116 -279.999s170.666 -116 279.999 -116s202.666 38.667 279.999 116s116 170.666 116 279.999zM600 461
c-146 0 -270.331 51.5 -372.998 154.5s-154 227.5 -154 373.5c0 145.333 51.333 269.5 154 372.5s227 154.5 373 154.5c145.333 0 269.666 -51.667 372.999 -155c98.667 -98.667 150 -210 154 -334h6c-6.66699 -236.667 -59.834 -424.667 -159.501 -564
s-222.167 -290.333 -367.5 -453l-31 -36h-170l68 83c160.667 179.333 288 336 382 470c-38.667 -44 -123.667 -66 -255 -66z" />
    <glyph glyph-name="colon" unicode=":" horiz-adv-x="460" 
d="M304 165.5c20.667 -20.333 31 -44.833 31 -73.5c0 -29.333 -10.333 -54.166 -31 -74.499s-45.334 -30.5 -74.001 -30.5s-53.334 10.167 -74.001 30.5s-31 45.166 -31 74.499c0 28.667 10.333 53.167 31 73.5s45.334 30.5 74.001 30.5s53.334 -10.167 74.001 -30.5z
M304 733c20.667 -20 31 -44.333 31 -73c0 -30 -10.333 -55 -31 -75s-45.334 -30 -74.001 -30s-53.334 10 -74.001 30s-31 45 -31 75c0 28.667 10.333 53 31 73s45.334 30 74.001 30s53.334 -10 74.001 -30z" />
    <glyph glyph-name="semicolon" unicode=";" horiz-adv-x="519" 
d="M394 197l-191 -398h-120l107 398h204zM307 733c20.667 -20 31 -44.333 31 -73c0 -30 -10.333 -55 -31 -75s-45.334 -30 -74.001 -30s-53.334 10 -74.001 30s-31 45 -31 75c0 28.667 10.333 53 31 73s45.334 30 74.001 30s53.334 -10 74.001 -30z" />
    <glyph glyph-name="less" unicode="&#x3c;" horiz-adv-x="1343" 
d="M1243 124l-1143 416l1143 416v-135l-772 -281l772 -281v-135z" />
    <glyph glyph-name="equal" unicode="=" horiz-adv-x="1030" 
d="M125 777h780v-127h-780v127zM125 483h780v-127h-780v127z" />
    <glyph glyph-name="greater" unicode="&#x3e;" horiz-adv-x="1343" 
d="M100 259l773 281l-773 281v135l1143 -416l-1143 -416v135z" />
    <glyph glyph-name="question" unicode="?" horiz-adv-x="946" 
d="M411 554c-23.333 -47.333 -35.0029 -95.001 -35.0029 -143.001c0 -36.667 9 -80.667 27 -132l-118 -41c-22.667 65.333 -34 123 -34 173c0 67.333 15.667 133 47 197c50.667 106 126.667 197 228 273c55.333 54 95 106.333 119 157c14.667 29.333 22 59.333 22 90
c0 22.667 -4 45.334 -12 68.001c-19.333 54.667 -54.666 94.334 -105.999 119.001c-29.333 14 -59 21 -89 21c-22.667 0 -45.667 -4.33301 -69 -13c-54 -18.667 -93.333 -53.334 -118 -104.001c-14 -29.333 -21 -66.333 -21 -111l-125 6v29c0 43.333 10.667 86 32 128
c40.667 83.333 104.334 140 191.001 170c38 13.333 75.333 20 112 20c48.667 0 96.667 -11.333 144 -34c82.667 -40 139 -103 169 -189c13.333 -37.333 20 -74.333 20 -111c0 -48.667 -11.667 -96.667 -35 -144c-38.667 -80.667 -102.667 -155.667 -192 -225
c-69.333 -61.333 -121.666 -129.333 -156.999 -204zM405.997 165.499c20.667 -20.333 31 -44.833 31 -73.5c0 -29.333 -10.333 -54.166 -31 -74.499s-45.334 -30.5 -74.001 -30.5s-53.334 10.167 -74.001 30.5s-31 45.166 -31 74.499c0 28.667 10.333 53.167 31 73.5
s45.334 30.5 74.001 30.5s53.334 -10.167 74.001 -30.5z" />
    <glyph glyph-name="at" unicode="@" horiz-adv-x="1560" 
d="M1011 469v116c-9.33301 40.667 -30 77 -62 109c-46 46.667 -101.333 70 -166 70c-65.333 0 -120.833 -23.167 -166.5 -69.5s-68.5 -102.5 -68.5 -168.5c0 -64.667 22.833 -120 68.5 -166s101.167 -69 166.5 -69c64.667 0 120 23 166 69c32 32 52.667 68.333 62 109z
M1009 255c-53.333 -56 -129.333 -83.999 -228 -83.999c-98 0 -182 35 -252 105s-105 153.333 -105 250c0 98.667 35 183 105 253s154 105 252 105c98.667 0 174.667 -28 228 -84v72h119v-614c6 -14.667 15.333 -22 28 -22c19.333 0 51.166 31.5 95.499 94.5
s66.5 127.833 66.5 194.5c0 148 -52.5 274.667 -157.5 380s-231.5 158 -379.5 158s-274.333 -52.667 -379 -158s-157 -232 -157 -380s52.333 -274.167 157 -378.5s231 -156.5 379 -156.5c101.333 0 179.333 17 234 51l84 -88c-92.667 -54.667 -198.667 -82 -318 -82
c-180 0 -334.333 64.167 -463 192.5s-193 282.166 -193 461.499c0 180.667 64.167 335.167 192.5 463.5s282.833 192.5 463.5 192.5s334.834 -64.167 462.501 -192.5s191.5 -282.833 191.5 -463.5c0 -82 -30 -170 -90 -264s-128.333 -141 -205 -141
c-9.33301 0 -18.333 0.666992 -27 2c-64 13.333 -98.667 51 -104 113v20z" />
    <glyph glyph-name="A" unicode="A" 
d="M823 691l-193 531l-193 -531h386zM869 564h-479l-205 -564h-135l580 1592l579 -1592h-135z" />
    <glyph glyph-name="B" unicode="B" horiz-adv-x="1044" 
d="M397 1516v1h36c82 0 151.833 -29 209.5 -87s86.5 -127.667 86.5 -209c0 -83.333 -30 -150 -90 -200c44 -9.33301 98 -49 162 -119c102 -102.667 153 -227 153 -373c0 -145.333 -51 -271 -153 -377c-96 -98.667 -203.333 -149 -322 -151v-1h-329v1516h247zM277 925
l-0.000976562 -797.998h202c81.333 5.33301 157 44.666 227 117.999c78 80 117 174.667 117 284s-38.667 202.666 -116 279.999s-170.666 116 -279.999 116h-150zM276.999 1389l-0.000976562 -332.001h176c40.667 4 75.334 19.333 104.001 46c32.667 30 49 69.333 49 118
s-16.5 88.834 -49.5 120.501s-74.167 47.5 -123.5 47.5h-156z" />
    <glyph glyph-name="C" unicode="C" horiz-adv-x="1540" 
d="M1345 286l95 -85.001c-159.333 -145.333 -339.333 -218 -540 -218c-214 0 -396.667 75.5 -548 226.5s-227 333.833 -227 548.5c0 214 75.667 396.667 227 548s334 227 548 227c200.667 0 380.667 -72.333 540 -217l-95 -87c-132 117.333 -280.333 176 -445 176
c-178 0 -330.167 -63.167 -456.5 -189.5s-189.5 -278.833 -189.5 -457.5c0 -179.333 63.167 -332.166 189.5 -458.499s278.5 -189.5 456.5 -189.5c164.667 0 313 58.667 445 176z" />
    <glyph glyph-name="D" unicode="D" horiz-adv-x="1167" 
d="M277 1386v-1256c202 0 359.333 56.667 472 170c126 126 189 278.667 189 458c0 178.667 -63 331.334 -189 458.001c-112.667 113.333 -270 170 -472 170zM277 1514h-16c248.667 0 441.667 -69 579 -207c151.333 -152 227 -335 227 -549
c0 -214.667 -75.667 -397.667 -227 -549c-137.333 -138 -330.333 -207 -579 -207h16v-2h-127v1516h127v-2z" />
    <glyph glyph-name="E" unicode="E" horiz-adv-x="1055" 
d="M930 1516v-127h-653v-568h653v-126h-653v-568h653v-127h-780v1516h780z" />
    <glyph glyph-name="F" unicode="F" horiz-adv-x="963" 
d="M838 1516v-127h-561v-568h561v-126h-561v-695h-127v1516h688z" />
    <glyph glyph-name="G" unicode="G" horiz-adv-x="1565" 
d="M1424 196c-148.667 -142 -323.332 -213.001 -523.999 -213.001c-214 0 -396.667 75.5 -548 226.5s-227 333.833 -227 548.5c0 214 75.667 396.667 227 548s334 227 548 227c200.667 0 380.667 -72.333 540 -217l-95 -87c-132 117.333 -280.333 176 -445 176
c-178 0 -330.167 -63.167 -456.5 -189.5s-189.5 -278.833 -189.5 -457.5c0 -179.333 63.167 -332.166 189.5 -458.499s278.5 -189.5 456.5 -189.5c153.333 0 285.666 45 396.999 135v460h127v-509z" />
    <glyph glyph-name="H" unicode="H" horiz-adv-x="1126" 
d="M277 660v-660h-127v1516h127v-730h572v730h127v-1516h-127v660h-572z" />
    <glyph glyph-name="I" unicode="I" horiz-adv-x="467" 
d="M297 1516v-1516h-127v1516h127z" />
    <glyph glyph-name="J" unicode="J" horiz-adv-x="855" 
d="M700 274c0 -80.667 -26.668 -147.668 -80.001 -201.001c-56.667 -57.333 -125 -86 -205 -86c-80.667 0 -149.167 28.333 -205.5 85s-84.5 125 -84.5 205l126 33c0 -66.667 16 -116 48 -148s70.667 -48 116 -48c44.667 0 83.334 16 116.001 48
c28.667 28.667 43 65.334 43 110.001c0 4 -0.333008 9 -1 15v1229h127v-1242z" />
    <glyph glyph-name="K" unicode="K" horiz-adv-x="1090" 
d="M277 727v-727h-127v1516h127v-583l437 583h161l-458 -615l584 -901h-155l-512 798z" />
    <glyph glyph-name="L" unicode="L" horiz-adv-x="937" 
d="M150 0v1516h127v-1389h570v-127h-697z" />
    <glyph glyph-name="M" unicode="M" horiz-adv-x="1670" 
d="M295 1516l541 -935l539 935h145l-19 -34v-1482h-127v1262l-538 -932l-540 932v-1262h-126v1482l-20 34h145z" />
    <glyph glyph-name="N" unicode="N" horiz-adv-x="1274" 
d="M150 1516h126l721 -1249v1249h127v-1516h-117l-730 1262v-1262h-127v1516z" />
    <glyph glyph-name="O" unicode="O" horiz-adv-x="1805" 
d="M1452 1309.5c152 -151.667 228 -334.834 228 -549.501s-76 -397.834 -228 -549.501s-335.333 -227.5 -550 -227.5s-397.834 75.833 -549.501 227.5s-227.5 334.834 -227.5 549.501s75.833 397.834 227.5 549.501s334.834 227.5 549.501 227.5s398 -75.833 550 -227.5z
M902 1409c-178.667 0 -331.334 -63.333 -458.001 -190s-190 -279.667 -190 -459s63.333 -332.5 190 -459.5s279.334 -190.5 458.001 -190.5c179.333 0 332.333 63.5 459 190.5s190 280.167 190 459.5s-63.333 332.333 -190 459s-279.667 190 -459 190z" />
    <glyph glyph-name="P" unicode="P" horiz-adv-x="1062" 
d="M277 511v-511h-127v1516h410c118 -16 218 -65 300 -147c98 -98 147 -216.333 147 -355c0 -139.333 -49 -258 -147 -356s-216.333 -147 -355 -147h-228zM277 1388v-750h228c103.333 0 191.666 36.667 264.999 110s110 162 110 266c0 103.333 -36.667 191.5 -110 264.5
s-161.666 109.5 -264.999 109.5h-228z" />
    <glyph glyph-name="Q" unicode="Q" horiz-adv-x="1805" 
d="M902 1409c-178.667 0 -331.334 -63.333 -458.001 -190s-190 -279.667 -190 -459s63.333 -332.5 190 -459.5s279.334 -190.5 458.001 -190.5c179.333 0 332.333 63.5 459 190.5s190 280.167 190 459.5s-63.333 332.333 -190 459s-279.667 190 -459 190zM802 -17
c-149.333 1.33301 -299.001 77.332 -449.001 227.999c-152 151.333 -228 334.333 -228 549s75.833 397.834 227.5 549.501s334.834 227.5 549.501 227.5s398 -75.833 550 -227.5s228 -334.834 228 -549.501s-76 -397.667 -228 -549
c-109.333 -110 -211.666 -175 -306.999 -195l126 -68c50 -26.667 84.667 -42.667 104 -48c10.667 -3.33301 21 -5 31 -5c18.667 0 36.667 5 54 15c27.333 15.333 45 38 53 68c2.66699 8 4.66699 23 6 45h128c-2 -34 -5.66699 -60.333 -11 -79
c-18.667 -63.333 -56.667 -111.333 -114 -144c-36 -20.667 -74 -31 -114 -31c-22 0 -44.333 3.33301 -67 10c-38.667 10.667 -92.667 37.667 -162 81c-60.667 32.667 -103.334 52.334 -128.001 59.001c-16 4 -31.667 6 -47 6c-26.667 0 -52.334 -7 -77.001 -21
c-40 -22.667 -66 -56 -78 -100c-2 -6 -4 -18.667 -6 -38h-127c2.66699 32 6.33398 56.333 11.001 73c21.333 77.333 67.333 136 138 176z" />
    <glyph glyph-name="R" unicode="R" horiz-adv-x="1062" 
d="M277 1388v-750h228c103.333 0 191.666 36.667 264.999 110s110 162 110 266c0 103.333 -36.667 191.5 -110 264.5s-161.666 109.5 -264.999 109.5h-228zM505 511h-228v-511h-127v1516h410c118 -16 218 -65 300 -147c98 -98 147 -216.333 147 -355
c0 -139.333 -49 -258 -147 -356c-68 -68 -136 -110.333 -204 -127l345 -531h-155z" />
    <glyph glyph-name="S" unicode="S" horiz-adv-x="1013" 
d="M525 816c-108 36 -194 86.166 -258 150.499s-96 142.5 -96 234.5c0 90.667 32.5 168.667 97.5 234s143.833 98 236.5 98c92 0 170.667 -32.333 236 -97c36.667 -34.667 64 -80.667 82 -138l-115 -45c-14.667 40.667 -33.667 72.667 -57 96c-40 40 -88.667 60 -146 60
s-106.166 -20.167 -146.499 -60.5s-60.5 -89.5 -60.5 -147.5c0 -56.667 20.333 -105.334 61 -146.001c39.333 -39.333 94.333 -75.333 165 -108c120 -38.667 221.667 -99.667 305 -183c89.333 -88.667 134 -196 134 -322c0 -127.333 -44.833 -235.666 -134.5 -324.999
s-197.5 -134 -323.5 -134c-126.667 0 -234.667 45 -324 135c-71.333 71.333 -115 160.333 -131 267l121 44c10.667 -92.667 43.667 -167 99 -223c65.333 -65.333 143.666 -98 234.999 -98c92 0 170.5 32.5 235.5 97.5s97.5 143.833 97.5 236.5
c0 91.333 -32.333 169.333 -97 234c-58.667 58.667 -130.667 105.334 -216 140.001z" />
    <glyph glyph-name="T" unicode="T" horiz-adv-x="972" 
d="M549 1389v-1389h-126v1389h-373v127h872v-127h-373z" />
    <glyph glyph-name="U" unicode="U" horiz-adv-x="1305" 
d="M1028 1516h127.001v-1081c-16 -118.667 -65 -219 -147 -301c-98 -98 -216.333 -147 -355 -147c-139.333 0 -258 49.167 -356 147.5s-147 216.5 -147 354.5v1027h128v-1027c0 -102.667 36.667 -190.667 110 -264s161.666 -110 264.999 -110c104 0 192.5 36.667 265.5 110
s109.5 161.333 109.5 264v1027z" />
    <glyph glyph-name="V" unicode="V" 
d="M184 1516l445 -1222l444 1222h136l-580 -1592l-579 1592h134z" />
    <glyph glyph-name="W" unicode="W" horiz-adv-x="1602" 
d="M738 248l0.000976562 1268h127v-1268c11.333 -21.333 26.333 -41.333 45 -60c51.333 -49.333 112 -74 182 -74s130.5 25 181.5 75s76.5 110.333 76.5 181v1146h127v-1154c-2 -101.333 -39.333 -188.666 -112 -261.999c-75.333 -75.333 -166.333 -113 -273 -113
c-106 0 -196.667 37.333 -272 112l-19 17l-19 -17c-75.333 -74.667 -166 -112 -272 -112c-106.667 0 -197.334 37.667 -272.001 113c-73.333 73.333 -111 160.666 -113 261.999v1154h127v-1146c0 -70.667 25.5 -131 76.5 -181s111.5 -75 181.5 -75
c70.667 0 131.334 24.667 182.001 74c19.333 18.667 34.666 38.667 45.999 60z" />
    <glyph glyph-name="X" unicode="X" horiz-adv-x="1205" 
d="M50 0l479 831l-395 685h145l322 -559l324 559h146l-397 -685l481 -831h-146l-408 705l-406 -705h-145z" />
    <glyph glyph-name="Y" unicode="Y" horiz-adv-x="1272" 
d="M572 611l-522 905h146l440 -763l440 763h146l-523 -905v-611h-127v611z" />
    <glyph glyph-name="Z" unicode="Z" horiz-adv-x="1321" 
d="M952 1389h-786v127h1005l-803 -1389h787v-127h-1005z" />
    <glyph glyph-name="bracketleft" unicode="[" horiz-adv-x="579" 
d="M252 -218h202v-127h-329v1861h329v-127h-202v-1607z" />
    <glyph glyph-name="backslash" unicode="\" horiz-adv-x="729" 
d="M779 0h-142l-687 1516h143z" />
    <glyph glyph-name="bracketright" unicode="]" horiz-adv-x="579" 
d="M327 1389h-202v127h329v-1861h-329v127h202v1607z" />
    <glyph glyph-name="asciicircum" unicode="^" horiz-adv-x="939" 
d="M531 1516l309 -535h-147l-223 385l-223 -385h-147l310 535h121z" />
    <glyph glyph-name="underscore" unicode="_" horiz-adv-x="1014" 
d="M25 16h964v-126h-964v126z" />
    <glyph glyph-name="grave" unicode="`" horiz-adv-x="716" 
d="M378 1228l188 -216h-133l-283 216h228z" />
    <glyph glyph-name="a" unicode="a" horiz-adv-x="1317" 
d="M1167 0h-127v139c-112.667 -110 -242 -165 -388 -165c-145.333 0 -269.5 51.5 -372.5 154.5s-154.5 227.167 -154.5 372.5c0 146 51.5 270.5 154.5 373.5s227.167 154.5 372.5 154.5c146 0 275.333 -55 388 -165v83h127v-947zM1040 422v158.998
c-14 75.333 -50 142 -108 200c-77.333 77.333 -170.666 116 -279.999 116s-202.666 -38.667 -279.999 -116s-116 -170.666 -116 -279.999s38.667 -202.333 116 -279s170.666 -115 279.999 -115s202.666 38.333 279.999 115c58 58.667 94 125.334 108 200.001z" />
    <glyph glyph-name="b" unicode="b" horiz-adv-x="1316" 
d="M150 1516h127v-650c112.667 108.667 241.667 163 387 163c146 0 270.333 -51.5 373 -154.5s154 -227.5 154 -373.5c0 -145.333 -51.333 -269.5 -154 -372.5s-227 -154.5 -373 -154.5c-145.333 0 -274.333 54.667 -387 164v-138h-127v1516zM277 586v-168.999
c14.667 -72.667 50.334 -137.667 107.001 -195c77.333 -76.667 170.666 -115 279.999 -115s202.666 38.333 279.999 115s116 169.667 116 279s-38.667 202.666 -116 279.999s-170.666 116 -279.999 116s-202.666 -38.667 -279.999 -116
c-56.667 -56.667 -92.334 -121.667 -107.001 -195z" />
    <glyph glyph-name="c" unicode="c" horiz-adv-x="1154" 
d="M935 265l129 -46.001c-28 -39.333 -52.333 -69.333 -73 -90c-103.333 -103.333 -228 -155 -374 -155c-145.333 0 -269.5 51.5 -372.5 154.5s-154.5 227.5 -154.5 373.5c0 145.333 51.5 269.5 154.5 372.5s227.167 154.5 372.5 154.5c146 0 270.667 -51.333 374 -154
c20.667 -21.333 45 -51 73 -89l-129 -48c-15.333 18.667 -28 33.334 -38 44.001c-77.333 76.667 -170.666 115 -279.999 115c-108.667 0 -201.667 -38.5 -279 -115.5s-116 -170.167 -116 -279.5s38.667 -202.5 116 -279.5s170.333 -115.5 279 -115.5
c109.333 0 202.666 38.333 279.999 115c10 10 22.667 24.333 38 43z" />
    <glyph glyph-name="d" unicode="d" horiz-adv-x="1317" 
d="M1167 0h-127v139c-112.667 -110 -242 -165 -388 -165c-145.333 0 -269.5 51.5 -372.5 154.5s-154.5 227.167 -154.5 372.5c0 146 51.5 270.5 154.5 373.5s227.167 154.5 372.5 154.5c146 0 275.333 -55 388 -165v652h127v-1516zM1040 422v158.998
c-14 75.333 -50 142 -108 200c-77.333 77.333 -170.666 116 -279.999 116s-202.666 -38.667 -279.999 -116s-116 -170.666 -116 -279.999s38.667 -202.333 116 -279s170.666 -115 279.999 -115s202.666 38.333 279.999 115c58 58.667 94 125.334 108 200.001z" />
    <glyph glyph-name="e" unicode="e" horiz-adv-x="1154" 
d="M371 192c62.667 -56.667 144.669 -85 246.002 -85c109.333 0 202.666 38.333 279.999 115c10 10 22.667 24.333 38 43l129 -46c-28 -39.333 -52.333 -69.333 -73 -90c-103.333 -103.333 -228 -155 -374 -155c-145.333 0 -269.5 51.5 -372.5 154.5
s-154.5 227.5 -154.5 373.5c0 145.333 51.5 269.5 154.5 372.5s227.167 154.5 372.5 154.5c124.667 0 234 -37.333 328 -112c15.333 -12.667 30.666 -26.667 45.999 -42l30 -33l-77 -77zM834.002 834c-54.667 42 -127 63 -217 63c-108.667 0 -201.667 -38.5 -279 -115.5
s-116 -170.167 -116 -279.5c0 -90 21 -162.333 63 -217z" />
    <glyph glyph-name="f" unicode="f" horiz-adv-x="534" 
d="M309 821l-0.00195312 -821h-127v821h-92v126h92v224c4 74 32.333 137.667 85 191c54.667 50.667 117.667 76 189 76c36.667 0 82.334 -9.33301 137.001 -28l-41 -117c-37.333 16 -66.666 24 -87.999 24c-37.333 0 -73.333 -15.333 -108 -46
c-30 -29.333 -45.667 -65 -47 -107v-217h184v-126h-184z" />
    <glyph glyph-name="g" unicode="g" horiz-adv-x="1321" 
d="M1039 586c-14.667 73.333 -50.333 138.332 -107 194.999c-77.333 77.333 -170.666 116 -279.999 116s-202.666 -38.667 -279.999 -116s-116 -170.666 -116 -279.999s38.667 -202.5 116 -279.5s170.666 -115.5 279.999 -115.5s202.666 38.667 279.999 116
c56 56 91.667 120.333 107 193v171zM1033 130.999l-6.99902 -2c-103.333 -103.333 -228 -155 -374 -155c-145.333 0 -269.5 51.5 -372.5 154.5s-154.5 227.167 -154.5 372.5c0 146 51.5 270.333 154.5 373s227.167 154 372.5 154c146 0 275.333 -54.667 388 -164v83h127
v-724c0 -141.333 -50.333 -262.333 -151 -363c-102.667 -102.667 -226.667 -154 -372 -154c-146 0 -270.667 51.333 -374 154c-20.667 21.333 -45 51.333 -73 90l129 46c15.333 -18 28 -32 38 -42c77.333 -77.333 170.666 -116 279.999 -116
c108.667 0 201.667 38.667 279 116c70 70 106.667 129 110 177z" />
    <glyph glyph-name="h" unicode="h" horiz-adv-x="1042" 
d="M150 1516h127v-586c49.333 48 126 72 230 72c112.667 0 204.5 -35.667 275.5 -107s107.5 -160.666 109.5 -267.999v-627h-127v619c0 70.667 -25.5 131 -76.5 181s-111.5 75 -181.5 75s-130.667 -24.667 -182 -74c-22 -22.667 -38 -44.334 -48 -65.001v-736h-127v1516z
" />
    <glyph glyph-name="i" unicode="i" horiz-adv-x="460" 
d="M293 947v-947h-127v947h127zM304 1237.5c20.667 -20.333 31 -44.833 31 -73.5c0 -29.333 -10.333 -54.166 -31 -74.499s-45.334 -30.5 -74.001 -30.5s-53.334 10.167 -74.001 30.5s-31 45.166 -31 74.499c0 28.667 10.333 53.167 31 73.5s45.334 30.5 74.001 30.5
s53.334 -10.167 74.001 -30.5z" />
    <glyph glyph-name="j" unicode="j" horiz-adv-x="479" 
d="M49 -85c74 8.66699 111 43.667 111 105v927h127v-925c0 -142.667 -79.333 -220.667 -238 -234v127zM298 1237.5c20.667 -20.333 31 -44.833 31 -73.5c0 -29.333 -10.333 -54.166 -31 -74.499s-45.334 -30.5 -74.001 -30.5s-53.334 10.167 -74.001 30.5
s-31 45.166 -31 74.499c0 28.667 10.333 53.167 31 73.5s45.334 30.5 74.001 30.5s53.334 -10.167 74.001 -30.5z" />
    <glyph glyph-name="k" unicode="k" horiz-adv-x="833" 
d="M659 947l-242 -300l366 -647h-154l-297 544l-55 -69v-475h-127v1332h127v-654l218 269h164z" />
    <glyph glyph-name="l" unicode="l" horiz-adv-x="427" 
d="M277 1516v-1516h-127v1516h127z" />
    <glyph glyph-name="m" unicode="m" horiz-adv-x="1333" 
d="M150 947l126.999 0.000976562v9c30.667 30 85 45 163 45c80 0 148.333 -28.333 205 -85l21 -21l22 21c56.667 56.667 125 85 205 85c80.667 0 149 -28.333 205 -85c54 -54 82.333 -119.333 85 -196v-720h-127v741c-1.33301 27.333 -17 55.666 -47 84.999
c-32 32 -70.667 48 -116 48c-44.667 0 -83.167 -16 -115.5 -48s-48.5 -72 -48.5 -120v-706h-126v741h-1c-1.33301 27.333 -16.666 55.666 -45.999 84.999c-32.667 32 -71.334 48 -116.001 48c-45.333 0 -83.666 -16 -114.999 -48
c-28.667 -27.333 -44.667 -60.666 -48 -99.999v-726h-127v947z" />
    <glyph glyph-name="n" unicode="n" horiz-adv-x="1053" 
d="M277 719v-719.001h-127v947h127v-27c54.667 54.667 135 82 241 82c112.667 0 204.5 -35.667 275.5 -107s107.5 -160.666 109.5 -267.999v-627h-126v619c0 70.667 -25.667 131 -77 181s-112 75 -182 75s-130.667 -24.667 -182 -74c-28 -28 -47.667 -55.333 -59 -82z" />
    <glyph glyph-name="o" unicode="o" horiz-adv-x="1234" 
d="M617 1029c146 0 270.333 -51.5 373 -154.5s154 -227.5 154 -373.5c0 -145.333 -51.333 -269.5 -154 -372.5s-227 -154.5 -373 -154.5c-145.333 0 -269.5 51.5 -372.5 154.5s-154.5 227.167 -154.5 372.5c0 146 51.5 270.5 154.5 373.5s227.167 154.5 372.5 154.5z
M337 781c-77.333 -77.333 -116 -170.666 -116 -279.999s38.667 -202.333 116 -279s170.666 -115 279.999 -115s202.666 38.333 279.999 115s116 169.667 116 279s-38.667 202.666 -116 279.999s-170.666 116 -279.999 116s-202.666 -38.667 -279.999 -116z" />
    <glyph glyph-name="p" unicode="p" horiz-adv-x="1291" 
d="M150 947h127v-81c112.667 108 241.667 162 387 162c146 0 270.333 -51.333 373 -154s154 -227 154 -373c0 -145.333 -51.333 -269.5 -154 -372.5s-227 -154.5 -373 -154.5c-145.333 0 -274.333 54.667 -387 164v-483h-127v1292zM277 586v-168.999
c14.667 -73.333 50.334 -138.333 107.001 -195c77.333 -77.333 170.666 -116 279.999 -116s202.666 38.5 279.999 115.5s116 170.167 116 279.5s-38.667 202.666 -116 279.999s-170.666 116 -279.999 116s-202.666 -38.667 -279.999 -116
c-56.667 -56.667 -92.334 -121.667 -107.001 -195z" />
    <glyph glyph-name="q" unicode="q" horiz-adv-x="1292" 
d="M1142 -345h-127v484c-112.667 -110 -242 -165 -388 -165c-145.333 0 -269.5 51.5 -372.5 154.5s-154.5 227.167 -154.5 372.5c0 146 51.5 270.333 154.5 373s227.167 154 372.5 154c146 0 275.333 -54.667 388 -164v83h127v-1292zM1015 422v158.999
c-14 75.333 -50 142 -108 200c-77.333 77.333 -170.666 116 -279.999 116s-202.666 -38.667 -279.999 -116s-116 -170.666 -116 -279.999s38.667 -202.5 116 -279.5s170.666 -115.5 279.999 -115.5s202.666 38.667 279.999 116c58 58 94 124.667 108 200z" />
    <glyph glyph-name="r" unicode="r" horiz-adv-x="611" 
d="M150 947l127.001 -0.000976562v-116c92 88 186.667 134.333 284 139v-135c-60.667 -2.66699 -116.667 -30 -168 -82c-74.667 -73.333 -113.334 -161.666 -116.001 -264.999v-488h-127v947z" />
    <glyph glyph-name="s" unicode="s" horiz-adv-x="799" 
d="M406 468c-71.333 38.667 -121.333 72.333 -150 101c-46.667 46 -70 102 -70 168s23.333 122.5 70 169.5s102.667 70.5 168 70.5c66 0 121 -22 165 -66c42 -42.667 63 -91.667 63 -147v-19l-112 -45c-8 60.667 -21.5 100.667 -40.5 120s-44.167 29 -75.5 29
c-30.667 0 -57 -10.833 -79 -32.5s-33 -48.167 -33 -79.5c0 -30.667 11 -57 33 -79c14 -14.667 45 -37 93 -67c80 -43.333 137.333 -82.333 172 -117c56 -57.333 84 -125.666 84 -204.999c0 -80.667 -28.167 -149.334 -84.5 -206.001s-124.5 -85 -204.5 -85
c-80.667 0 -149.167 28.333 -205.5 85s-84.5 125 -84.5 205l126 33c0 -67.333 16 -116.833 48 -148.5s70.667 -47.5 116 -47.5c44.667 0 83.167 15.833 115.5 47.5s48.5 70.5 48.5 116.5c0 45.333 -16 84 -48 116c-18.667 18 -57 45.667 -115 83z" />
    <glyph glyph-name="t" unicode="t" horiz-adv-x="675" 
d="M274 947v385h127v-385h184v-126h-184v-821h-127v821h-184v126h184z" />
    <glyph glyph-name="u" unicode="u" horiz-adv-x="1079" 
d="M545 -13c-119.333 0 -214.5 35.5 -285.5 106.5s-107.5 160.5 -109.5 268.5v587h127v-579c0 -70.667 25.667 -130.667 77 -180c50.667 -50.667 114 -76 190 -76c70 0 130.5 25 181.5 75s76.5 110.333 76.5 181v579h127v-587c-2 -108 -38.333 -197.333 -109 -268
c-71.333 -71.333 -163 -107 -275 -107z" />
    <glyph glyph-name="v" unicode="v" horiz-adv-x="1057" 
d="M528 225l334 722h145l-479 -1001l-478 1001h145z" />
    <glyph glyph-name="w" unicode="w" horiz-adv-x="1333" 
d="M603 262v685.001h126v-666c0 -47.333 16.167 -87 48.5 -119s70.833 -48 115.5 -48c45.333 0 84 16 116 48c30 29.333 45.667 57.666 47 84.999v700h127v-679c-2.66699 -76.667 -31 -141.667 -85 -195c-56 -57.333 -124.333 -86 -205 -86c-80 0 -155.333 35.333 -226 106
c-71.333 -70.667 -147 -106 -227 -106c-80.667 0 -149 28.667 -205 86c-54 53.333 -82.333 118.333 -85 195v679h127v-700c1.33301 -27.333 17.333 -55.666 48 -84.999c31.333 -32 69.666 -48 114.999 -48c44.667 0 83.334 16 116.001 48c27.333 27.333 43 60.666 47 99.999
z" />
    <glyph glyph-name="x" unicode="x" horiz-adv-x="889" 
d="M764 947l-248 -429l299 -518h-147l-223 386l-223 -386h-147l300 518l-248 429h146l172 -297l172 297h147z" />
    <glyph glyph-name="y" unicode="y" horiz-adv-x="1007" 
d="M313 -345h-129l254 534l-363 758h143l286 -617l286 617h141z" />
    <glyph glyph-name="z" unicode="z" horiz-adv-x="1004" 
d="M616 808h-450v127h669l-467 -808h486v-127h-704z" />
    <glyph glyph-name="braceleft" unicode="{" horiz-adv-x="861" 
d="M165 642c24 0 58 12.668 102 38.001c65.333 37.333 108.333 92.666 129 165.999c11.333 42 17 86.667 17 134c0 26 -2 52.333 -6 79c-8.66699 45.333 -13 88 -13 128c0 42.667 5.33301 83 16 121c20 74.667 64 131.334 132 170.001c43.333 25.333 88.666 38 135.999 38
c13.333 0 32.333 -2 57 -6v-114c-26.667 4.66699 -45 7 -55 7c-28 0 -55.333 -7.33301 -82 -22c-40.667 -23.333 -67 -57.333 -79 -102c-8.66699 -32 -13 -68.667 -13 -110c0 -17.333 1 -35.666 3 -54.999c10 -47.333 15 -94.333 15 -141c0 -54 -6.66699 -106.333 -20 -157
c-28.667 -102.667 -86 -179.667 -172 -231c86 -50.667 143.333 -127.334 172 -230.001c13.333 -50.667 20 -103 20 -157c0 -46.667 -5 -93.667 -15 -141c-2 -19.333 -3 -37.666 -3 -54.999c0 -41.333 4.33301 -78 13 -110c12 -44.667 38.333 -78.334 79 -101.001
c28 -15.333 56.333 -23 85 -23c8.66699 0 26 1.66699 52 5v-112c-24.667 -4 -43.667 -6 -57 -6c-47.333 0 -92.666 12.667 -135.999 38c-68 38.667 -112 95.667 -132 171c-10.667 38 -16 78.333 -16 121c0 40 4.33301 82.333 13 127c4 26.667 6 53 6 79
c0 47.333 -5.66699 92 -17 134c-20.667 73.333 -63.667 128.666 -129 165.999c-44 25.333 -78 38 -102 38v113z" />
    <glyph glyph-name="bar" unicode="|" horiz-adv-x="427" 
d="M277 1516v-1861h-127v1861h127z" />
    <glyph glyph-name="braceright" unicode="}" horiz-adv-x="861" 
d="M735 529c-24 0 -58 -12.668 -102 -38.001c-65.333 -37.333 -108.333 -92.666 -129 -165.999c-10.667 -42 -16 -86.667 -16 -134c0 -26 1.66699 -52.333 5 -79c8.66699 -44.667 13 -87 13 -127c0 -42.667 -5 -83 -15 -121c-20 -75.333 -64.333 -132.333 -133 -171
c-43.333 -25.333 -88.666 -38 -135.999 -38c-12.667 0 -31.667 2 -57 6v112c26 -3.33301 43.333 -5 52 -5c28.667 0 57 7.66699 85 23c40.667 22.667 67 56.334 79 101.001c8.66699 32 13 68.667 13 110c0 17.333 -0.666992 35.666 -2 54.999c-10 47.333 -15 94.333 -15 141
c0 54 6.66699 106.333 20 157c28.667 102.667 86 179.334 172 230.001c-86 51.333 -143.333 128.333 -172 231c-13.333 50.667 -20 103 -20 157c0 46.667 5 93.667 15 141c1.33301 19.333 2 37.666 2 54.999c0 41.333 -4.33301 78 -13 110
c-12 44.667 -38.333 78.667 -79 102c-26.667 14.667 -54 22 -82 22c-10 0 -28.333 -2.33301 -55 -7v114c25.333 4 44.333 6 57 6c47.333 0 92.666 -12.667 135.999 -38c68.667 -38.667 113 -95.334 133 -170.001c10 -38 15 -78.333 15 -121c0 -40 -4.33301 -82.667 -13 -128
c-3.33301 -26.667 -5 -53 -5 -79c0 -47.333 5.33301 -92 16 -134c20.667 -73.333 63.667 -128.666 129 -165.999c44 -25.333 78 -38 102 -38v-113z" />
    <glyph glyph-name="asciitilde" unicode="~" horiz-adv-x="1241" 
d="M631 833c112 -64.667 191.999 -97.002 239.999 -97.002c7.33301 0 13.666 0.666992 18.999 2c40 12 68.333 38.333 85 79c8 20.667 12 50 12 88l129 -20c-3.33301 -45.333 -11.333 -84 -24 -116c-30.667 -74 -83 -123.667 -157 -149c-18 -5.33301 -37.667 -8 -59 -8
c-68 0 -156.667 31.333 -266 94c-113.333 64.667 -193.666 97 -240.999 97c-7.33301 0 -13.666 -0.666992 -18.999 -2c-40 -12 -68 -38.333 -84 -79c-8.66699 -21.333 -13.334 -50.666 -14.001 -87.999l-127 20c2 44.667 9.66699 83.334 23 116.001
c30.667 74 83.334 123.667 158.001 149c17.333 5.33301 36.333 8 57 8c68.667 0 158 -31.333 268 -94z" />
    <glyph glyph-name="dieresis" unicode="&#xa8;" horiz-adv-x="1024" 
 />
    <glyph glyph-name="copyright" unicode="&#xa9;" horiz-adv-x="1772" 
 />
    <glyph glyph-name="registered" unicode="&#xae;" horiz-adv-x="1770" 
 />
    <glyph glyph-name="acute" unicode="&#xb4;" horiz-adv-x="1024" 
 />
    <glyph glyph-name="paragraph" unicode="&#xb6;" horiz-adv-x="1024" 
d="M929 1435l-0.000976562 -70h-127v-1365h-82v1365h-166v-1365h-84v738c-116 5.33301 -207.833 39.5 -275.5 102.5s-101.5 144.833 -101.5 245.5c0 104.667 35.833 189 107.5 253s166.834 96 285.501 96h443z" />
    <glyph glyph-name="onequarter" unicode="&#xbc;" horiz-adv-x="1298" 
 />
    <glyph glyph-name="onehalf" unicode="&#xbd;" horiz-adv-x="1320" 
 />
    <glyph glyph-name="threequarters" unicode="&#xbe;" horiz-adv-x="1288" 
 />
    <glyph glyph-name="Agrave" unicode="&#xc0;" 
d="M823 691l-193 531l-193 -531h386zM869 564h-479l-205 -564h-135l580 1592l579 -1592h-135zM526 1879l188 -216h-133l-283 216h228z" />
    <glyph glyph-name="Aacute" unicode="&#xc1;" 
d="M823 691l-193 531l-193 -531h386zM869 564h-479l-205 -564h-135l580 1592l579 -1592h-135zM961 1879l-283 -216h-133l188 216h228z" />
    <glyph glyph-name="Acircumflex" unicode="&#xc2;" 
d="M823 691l-193 531l-193 -531h386zM869 564h-479l-205 -564h-135l580 1592l579 -1592h-135zM683 1839l264 -260h-157l-164 126l-154 -126h-157l254 260h114z" />
    <glyph glyph-name="Atilde" unicode="&#xc3;" 
d="M823 691l-193 531l-193 -531h386zM869 564h-479l-205 -564h-135l580 1592l579 -1592h-135zM638 1770c42 -33.333 75.332 -49.999 99.999 -49.999h4c19.333 1.33301 35.333 27 48 77h107c-17.333 -105.333 -54.333 -166.333 -111 -183c-15.333 -4 -30.333 -6 -45 -6
c-40 0 -79.667 15.667 -119 47c-42 32.667 -75.667 49 -101 49h-4c-19.333 -0.666992 -35.333 -26.334 -48 -77.001h-107c18 105.333 55.333 166.333 112 183c14.667 4.66699 29.334 7 44.001 7c40 0 80 -15.667 120 -47z" />
    <glyph glyph-name="Egrave" unicode="&#xc8;" horiz-adv-x="1055" 
d="M930 1516v-127h-653v-568h653v-126h-653v-568h653v-127h-780v1516h780zM501 1851l189 -216h-134l-283 216h228z" />
    <glyph glyph-name="Eacute" unicode="&#xc9;" horiz-adv-x="1055" 
d="M930 1516v-127h-653v-568h653v-126h-653v-568h653v-127h-780v1516h780zM807 1851l-283 -216h-134l189 216h228z" />
    <glyph glyph-name="Ecircumflex" unicode="&#xca;" horiz-adv-x="1055" 
d="M930 1516v-127h-653v-568h653v-126h-653v-568h653v-127h-780v1516h780zM594 1835l264 -260h-157l-163 126l-155 -126h-157l254 260h114z" />
    <glyph glyph-name="Igrave" unicode="&#xcc;" horiz-adv-x="512" 
d="M320 1516v-1516h-126v1516h126zM154 1851l188 -216h-133l-283 216h228z" />
    <glyph glyph-name="Iacute" unicode="&#xcd;" horiz-adv-x="512" 
d="M319 1516v-1516h-127v1516h127zM586 1851l-283 -216h-133l188 216h228z" />
    <glyph glyph-name="Ograve" unicode="&#xd2;" horiz-adv-x="1805" 
d="M1452 1309.5c152 -151.667 228 -334.834 228 -549.501s-76 -397.834 -228 -549.501s-335.333 -227.5 -550 -227.5s-397.834 75.833 -549.501 227.5s-227.5 334.834 -227.5 549.501s75.833 397.834 227.5 549.501s334.834 227.5 549.501 227.5s398 -75.833 550 -227.5z
M902 1409c-178.667 0 -331.334 -63.333 -458.001 -190s-190 -279.667 -190 -459s63.333 -332.5 190 -459.5s279.334 -190.5 458.001 -190.5c179.333 0 332.333 63.5 459 190.5s190 280.167 190 459.5s-63.333 332.333 -190 459s-279.667 190 -459 190zM864 1851l188 -216
h-133l-283 216h228z" />
    <glyph glyph-name="Oacute" unicode="&#xd3;" horiz-adv-x="1805" 
d="M1452 1309.5c152 -151.667 228 -334.834 228 -549.501s-76 -397.834 -228 -549.501s-335.333 -227.5 -550 -227.5s-397.834 75.833 -549.501 227.5s-227.5 334.834 -227.5 549.501s75.833 397.834 227.5 549.501s334.834 227.5 549.501 227.5s398 -75.833 550 -227.5z
M902 1409c-178.667 0 -331.334 -63.333 -458.001 -190s-190 -279.667 -190 -459s63.333 -332.5 190 -459.5s279.334 -190.5 458.001 -190.5c179.333 0 332.333 63.5 459 190.5s190 280.167 190 459.5s-63.333 332.333 -190 459s-279.667 190 -459 190zM1169 1851l-283 -216
h-133l188 216h228z" />
    <glyph glyph-name="Ocircumflex" unicode="&#xd4;" horiz-adv-x="1805" 
d="M1452 1309.5c152 -151.667 228 -334.834 228 -549.501s-76 -397.834 -228 -549.501s-335.333 -227.5 -550 -227.5s-397.834 75.833 -549.501 227.5s-227.5 334.834 -227.5 549.501s75.833 397.834 227.5 549.501s334.834 227.5 549.501 227.5s398 -75.833 550 -227.5z
M902 1409c-178.667 0 -331.334 -63.333 -458.001 -190s-190 -279.667 -190 -459s63.333 -332.5 190 -459.5s279.334 -190.5 458.001 -190.5c179.333 0 332.333 63.5 459 190.5s190 280.167 190 459.5s-63.333 332.333 -190 459s-279.667 190 -459 190zM956 1885l264 -260
h-157l-163 126l-155 -126h-156l253 260h114z" />
    <glyph glyph-name="Otilde" unicode="&#xd5;" horiz-adv-x="1805" 
d="M1452 1309.5c152 -151.667 228 -334.834 228 -549.501s-76 -397.834 -228 -549.501s-335.333 -227.5 -550 -227.5s-397.834 75.833 -549.501 227.5s-227.5 334.834 -227.5 549.501s75.833 397.834 227.5 549.501s334.834 227.5 549.501 227.5s398 -75.833 550 -227.5z
M902 1409c-178.667 0 -331.334 -63.333 -458.001 -190s-190 -279.667 -190 -459s63.333 -332.5 190 -459.5s279.334 -190.5 458.001 -190.5c179.333 0 332.333 63.5 459 190.5s190 280.167 190 459.5s-63.333 332.333 -190 459s-279.667 190 -459 190zM911 1789
c42 -34 75.668 -51 101.001 -51h4c19.333 1.33301 35.333 27.333 48 78h106c-17.333 -105.333 -54.333 -166.333 -111 -183c-14.667 -4.66699 -29.334 -7 -44.001 -7c-40.667 0 -80.667 15.667 -120 47c-42 33.333 -75.333 50 -100 50h-4
c-19.333 -1.33301 -35.333 -27 -48 -77h-108c18 105.333 55.333 166.333 112 183c15.333 4 30.333 6 45 6c40 0 79.667 -15.333 119 -46z" />
    <glyph glyph-name="Ugrave" unicode="&#xd9;" horiz-adv-x="1305" 
d="M1028 1516h127.001v-1081c-16 -118.667 -65 -219 -147 -301c-98 -98 -216.333 -147 -355 -147c-139.333 0 -258 49.167 -356 147.5s-147 216.5 -147 354.5v1027h128v-1027c0 -102.667 36.667 -190.667 110 -264s161.666 -110 264.999 -110c104 0 192.5 36.667 265.5 110
s109.5 161.333 109.5 264v1027zM613.001 1851l189 -216h-133l-283 216h227z" />
    <glyph glyph-name="Uacute" unicode="&#xda;" horiz-adv-x="1305" 
d="M1028 1516h127.001v-1081c-16 -118.667 -65 -219 -147 -301c-98 -98 -216.333 -147 -355 -147c-139.333 0 -258 49.167 -356 147.5s-147 216.5 -147 354.5v1027h128v-1027c0 -102.667 36.667 -190.667 110 -264s161.666 -110 264.999 -110c104 0 192.5 36.667 265.5 110
s109.5 161.333 109.5 264v1027zM920.001 1851l-283 -216h-133l188 216h228z" />
    <glyph glyph-name="Yacute" unicode="&#xdd;" horiz-adv-x="1272" 
d="M572 611l-522 905h146l440 -763l440 763h146l-523 -905v-611h-127v611zM920 1851l-283 -216h-133l188 216h228z" />
    <glyph glyph-name="agrave" unicode="&#xe0;" horiz-adv-x="1317" 
d="M1167 0h-127v139c-112.667 -110 -242 -165 -388 -165c-145.333 0 -269.5 51.5 -372.5 154.5s-154.5 227.167 -154.5 372.5c0 146 51.5 270.5 154.5 373.5s227.167 154.5 372.5 154.5c146 0 275.333 -55 388 -165v83h127v-947zM1040 422v158.998
c-14 75.333 -50 142 -108 200c-77.333 77.333 -170.666 116 -279.999 116s-202.666 -38.667 -279.999 -116s-116 -170.666 -116 -279.999s38.667 -202.333 116 -279s170.666 -115 279.999 -115s202.666 38.333 279.999 115c58 58.667 94 125.334 108 200.001zM597 1328
l188 -216h-133l-283 216h228z" />
    <glyph glyph-name="aacute" unicode="&#xe1;" horiz-adv-x="1317" 
d="M1167 0h-127v139c-112.667 -110 -242 -165 -388 -165c-145.333 0 -269.5 51.5 -372.5 154.5s-154.5 227.167 -154.5 372.5c0 146 51.5 270.5 154.5 373.5s227.167 154.5 372.5 154.5c146 0 275.333 -55 388 -165v83h127v-947zM1040 422v158.998
c-14 75.333 -50 142 -108 200c-77.333 77.333 -170.666 116 -279.999 116s-202.666 -38.667 -279.999 -116s-116 -170.666 -116 -279.999s38.667 -202.333 116 -279s170.666 -115 279.999 -115s202.666 38.333 279.999 115c58 58.667 94 125.334 108 200.001zM923 1328
l-283 -216h-133l188 216h228z" />
    <glyph glyph-name="acircumflex" unicode="&#xe2;" horiz-adv-x="1317" 
d="M1167 0h-127v139c-112.667 -110 -242 -165 -388 -165c-145.333 0 -269.5 51.5 -372.5 154.5s-154.5 227.167 -154.5 372.5c0 146 51.5 270.5 154.5 373.5s227.167 154.5 372.5 154.5c146 0 275.333 -55 388 -165v83h127v-947zM1040 422v158.998
c-14 75.333 -50 142 -108 200c-77.333 77.333 -170.666 116 -279.999 116s-202.666 -38.667 -279.999 -116s-116 -170.666 -116 -279.999s38.667 -202.333 116 -279s170.666 -115 279.999 -115s202.666 38.333 279.999 115c58 58.667 94 125.334 108 200.001zM739 1362
l263 -259h-157l-163 125l-154 -125h-157l254 259h114z" />
    <glyph glyph-name="atilde" unicode="&#xe3;" horiz-adv-x="1317" 
d="M1167 0h-127v139c-112.667 -110 -242 -165 -388 -165c-145.333 0 -269.5 51.5 -372.5 154.5s-154.5 227.167 -154.5 372.5c0 146 51.5 270.5 154.5 373.5s227.167 154.5 372.5 154.5c146 0 275.333 -55 388 -165v83h127v-947zM1040 422v158.998
c-14 75.333 -50 142 -108 200c-77.333 77.333 -170.666 116 -279.999 116s-202.666 -38.667 -279.999 -116s-116 -170.666 -116 -279.999s38.667 -202.333 116 -279s170.666 -115 279.999 -115s202.666 38.333 279.999 115c58 58.667 94 125.334 108 200.001zM655 1294
c42 -34 75.667 -51 101 -51h4c19.333 1.33301 35 27.333 47 78h107c-17.333 -105.333 -54.333 -166.333 -111 -183c-14.667 -4.66699 -29.667 -7 -45 -7c-40 0 -79.667 15.667 -119 47c-42 33.333 -75.667 50 -101 50h-3c-20 -1.33301 -36 -27 -48 -77h-108
c18 105.333 55.333 166.333 112 183c14.667 4 29.667 6 45 6c40 0 79.667 -15.333 119 -46z" />
    <glyph glyph-name="egrave" unicode="&#xe8;" horiz-adv-x="1243" 
d="M371 192c62.667 -56.667 144.669 -85 246.002 -85c109.333 0 202.666 38.333 279.999 115c10 10 22.667 24.333 38 43l129 -46c-28 -39.333 -52.333 -69.333 -73 -90c-103.333 -103.333 -228 -155 -374 -155c-145.333 0 -269.5 51.5 -372.5 154.5
s-154.5 227.5 -154.5 373.5c0 145.333 51.5 269.5 154.5 372.5s227.167 154.5 372.5 154.5c124.667 0 234 -37.333 328 -112c15.333 -12.667 30.666 -26.667 45.999 -42l30 -33l-77 -77zM834.002 834c-54.667 42 -127 63 -217 63c-108.667 0 -201.667 -38.5 -279 -115.5
s-116 -170.167 -116 -279.5c0 -90 21 -162.333 63 -217zM573.002 1328l188 -216h-133l-283 216h228z" />
    <glyph glyph-name="eacute" unicode="&#xe9;" horiz-adv-x="1243" 
d="M371 192c62.667 -56.667 144.669 -85 246.002 -85c109.333 0 202.666 38.333 279.999 115c10 10 22.667 24.333 38 43l129 -46c-28 -39.333 -52.333 -69.333 -73 -90c-103.333 -103.333 -228 -155 -374 -155c-145.333 0 -269.5 51.5 -372.5 154.5
s-154.5 227.5 -154.5 373.5c0 145.333 51.5 269.5 154.5 372.5s227.167 154.5 372.5 154.5c124.667 0 234 -37.333 328 -112c15.333 -12.667 30.666 -26.667 45.999 -42l30 -33l-77 -77zM834.002 834c-54.667 42 -127 63 -217 63c-108.667 0 -201.667 -38.5 -279 -115.5
s-116 -170.167 -116 -279.5c0 -90 21 -162.333 63 -217zM878.002 1328l-283 -216h-133l188 216h228z" />
    <glyph glyph-name="ecircumflex" unicode="&#xea;" horiz-adv-x="1243" 
d="M371 192c62.667 -56.667 144.669 -85 246.002 -85c109.333 0 202.666 38.333 279.999 115c10 10 22.667 24.333 38 43l129 -46c-28 -39.333 -52.333 -69.333 -73 -90c-103.333 -103.333 -228 -155 -374 -155c-145.333 0 -269.5 51.5 -372.5 154.5
s-154.5 227.5 -154.5 373.5c0 145.333 51.5 269.5 154.5 372.5s227.167 154.5 372.5 154.5c124.667 0 234 -37.333 328 -112c15.333 -12.667 30.666 -26.667 45.999 -42l30 -33l-77 -77zM834.002 834c-54.667 42 -127 63 -217 63c-108.667 0 -201.667 -38.5 -279 -115.5
s-116 -170.167 -116 -279.5c0 -90 21 -162.333 63 -217zM666.002 1362l263 -259h-157l-163 125l-154 -125h-157l254 259h114z" />
    <glyph glyph-name="igrave" unicode="&#xec;" horiz-adv-x="512" 
d="M320 947v-947h-126v947h126zM154 1328l188 -216h-133l-283 216h228z" />
    <glyph glyph-name="iacute" unicode="&#xed;" horiz-adv-x="512" 
d="M319 947v-947h-127v947h127zM586 1328l-283 -216h-133l188 216h228z" />
    <glyph glyph-name="ograve" unicode="&#xf2;" horiz-adv-x="1234" 
d="M617 1029c146 0 270.333 -51.5 373 -154.5s154 -227.5 154 -373.5c0 -145.333 -51.333 -269.5 -154 -372.5s-227 -154.5 -373 -154.5c-145.333 0 -269.5 51.5 -372.5 154.5s-154.5 227.167 -154.5 372.5c0 146 51.5 270.5 154.5 373.5s227.167 154.5 372.5 154.5z
M337 781c-77.333 -77.333 -116 -170.666 -116 -279.999s38.667 -202.333 116 -279s170.666 -115 279.999 -115s202.666 38.333 279.999 115s116 169.667 116 279s-38.667 202.666 -116 279.999s-170.666 116 -279.999 116s-202.666 -38.667 -279.999 -116zM578 1328
l189 -216h-133l-283 216h227z" />
    <glyph glyph-name="oacute" unicode="&#xf3;" horiz-adv-x="1234" 
d="M617 1029c146 0 270.333 -51.5 373 -154.5s154 -227.5 154 -373.5c0 -145.333 -51.333 -269.5 -154 -372.5s-227 -154.5 -373 -154.5c-145.333 0 -269.5 51.5 -372.5 154.5s-154.5 227.167 -154.5 372.5c0 146 51.5 270.5 154.5 373.5s227.167 154.5 372.5 154.5z
M337 781c-77.333 -77.333 -116 -170.666 -116 -279.999s38.667 -202.333 116 -279s170.666 -115 279.999 -115s202.666 38.333 279.999 115s116 169.667 116 279s-38.667 202.666 -116 279.999s-170.666 116 -279.999 116s-202.666 -38.667 -279.999 -116zM884 1328
l-283 -216h-133l188 216h228z" />
    <glyph glyph-name="ocircumflex" unicode="&#xf4;" horiz-adv-x="1234" 
d="M617 1029c146 0 270.333 -51.5 373 -154.5s154 -227.5 154 -373.5c0 -145.333 -51.333 -269.5 -154 -372.5s-227 -154.5 -373 -154.5c-145.333 0 -269.5 51.5 -372.5 154.5s-154.5 227.167 -154.5 372.5c0 146 51.5 270.5 154.5 373.5s227.167 154.5 372.5 154.5z
M337 781c-77.333 -77.333 -116 -170.666 -116 -279.999s38.667 -202.333 116 -279s170.666 -115 279.999 -115s202.666 38.333 279.999 115s116 169.667 116 279s-38.667 202.666 -116 279.999s-170.666 116 -279.999 116s-202.666 -38.667 -279.999 -116zM671 1362
l264 -259h-157l-163 125l-155 -125h-157l254 259h114z" />
    <glyph glyph-name="otilde" unicode="&#xf5;" horiz-adv-x="1234" 
d="M617 1029c146 0 270.333 -51.5 373 -154.5s154 -227.5 154 -373.5c0 -145.333 -51.333 -269.5 -154 -372.5s-227 -154.5 -373 -154.5c-145.333 0 -269.5 51.5 -372.5 154.5s-154.5 227.167 -154.5 372.5c0 146 51.5 270.5 154.5 373.5s227.167 154.5 372.5 154.5z
M337 781c-77.333 -77.333 -116 -170.666 -116 -279.999s38.667 -202.333 116 -279s170.666 -115 279.999 -115s202.666 38.333 279.999 115s116 169.667 116 279s-38.667 202.666 -116 279.999s-170.666 116 -279.999 116s-202.666 -38.667 -279.999 -116zM626 1294
c42 -34 75.667 -51 101 -51h4c19.333 1.33301 35 27.333 47 78h107c-17.333 -105.333 -54.333 -166.333 -111 -183c-14.667 -4.66699 -29.667 -7 -45 -7c-40 0 -79.667 15.667 -119 47c-42 33.333 -75.667 50 -101 50h-4c-19.333 -1.33301 -35 -27 -47 -77h-108
c18 105.333 55.333 166.333 112 183c14.667 4 29.667 6 45 6c40 0 79.667 -15.333 119 -46z" />
    <glyph glyph-name="divide" unicode="&#xf7;" horiz-adv-x="1706" 
 />
    <glyph glyph-name="glyph216" unicode="&#xf9;" horiz-adv-x="1079" 
d="M545 -13c-119.333 0 -214.5 35.5 -285.5 106.5s-107.5 160.5 -109.5 268.5v587h127v-579c0 -70.667 25.667 -130.667 77 -180c50.667 -50.667 114 -76 190 -76c70 0 130.5 25 181.5 75s76.5 110.333 76.5 181v579h127v-587c-2 -108 -38.333 -197.333 -109 -268
c-71.333 -71.333 -163 -107 -275 -107zM500 1328l189 -216h-133l-283 216h227z" />
    <glyph glyph-name="glyph217" unicode="&#xfa;" horiz-adv-x="1079" 
d="M545 -13c-119.333 0 -214.5 35.5 -285.5 106.5s-107.5 160.5 -109.5 268.5v587h127v-579c0 -70.667 25.667 -130.667 77 -180c50.667 -50.667 114 -76 190 -76c70 0 130.5 25 181.5 75s76.5 110.333 76.5 181v579h127v-587c-2 -108 -38.333 -197.333 -109 -268
c-71.333 -71.333 -163 -107 -275 -107zM807 1328l-283 -216h-134l189 216h228z" />
    <glyph glyph-name="glyph234" unicode="&#xfd;" horiz-adv-x="1007" 
d="M482 6l-169 -351h-129l254 534l-363 758h143l286 -617l286 617h141l-449 -942v1zM770 1328l-283 -216h-133l188 216h228z" />
    <glyph glyph-name="Abreve" unicode="&#x102;" 
d="M823 691l-193 531l-193 -531h386zM869 564h-479l-205 -564h-135l580 1592l579 -1592h-135zM499 1893c6 -40 19.002 -70 39.002 -90c25.333 -25.333 55.666 -38 90.999 -38s65.666 12.667 90.999 38c20 20 32.667 50 38 90h111c-7.33301 -72 -31 -128.333 -71 -169
c-46 -46.667 -102.333 -70 -169 -70s-123 23.333 -169 70c-44 44.667 -67.667 101 -71 169h110z" />
    <glyph glyph-name="abreve" unicode="&#x103;" horiz-adv-x="1317" 
d="M1167 0h-127v139c-112.667 -110 -242 -165 -388 -165c-145.333 0 -269.5 51.5 -372.5 154.5s-154.5 227.167 -154.5 372.5c0 146 51.5 270.5 154.5 373.5s227.167 154.5 372.5 154.5c146 0 275.333 -55 388 -165v83h127v-947zM1040 422v158.998
c-14 75.333 -50 142 -108 200c-77.333 77.333 -170.666 116 -279.999 116s-202.666 -38.667 -279.999 -116s-116 -170.666 -116 -279.999s38.667 -202.333 116 -279s170.666 -115 279.999 -115s202.666 38.333 279.999 115c58 58.667 94 125.334 108 200.001zM516 1375
c6 -40 19.002 -70 39.002 -90c25.333 -25.333 55.666 -38 90.999 -38s65.666 12.667 90.999 38c20 20 32.667 50 38 90h111c-7.33301 -72 -31 -128.333 -71 -169c-46 -46.667 -102.333 -70 -169 -70s-123 23.333 -169 70c-44 44.667 -67.667 101 -71 169h110z" />
    <glyph glyph-name="Ccaron" unicode="&#x10c;" horiz-adv-x="1274" 
 />
    <glyph glyph-name="ccaron" unicode="&#x10d;" horiz-adv-x="922" 
 />
    <glyph glyph-name="Dslash" unicode="&#x110;" horiz-adv-x="1239" 
d="M197 821v695h127v-2h-16c248.667 0 441.667 -69 579 -207c151.333 -152 227 -335 227 -549c0 -214.667 -75.667 -397.667 -227 -549c-137.333 -138 -330.333 -207 -579 -207h16v-2h-127v695h-147v126h147zM324 821l340 -0.000976562v-126h-340v-565
c202 0 359.333 56.667 472 170c126.667 126 190 278.667 190 458c0 178.667 -63.333 331.334 -190 458.001c-112.667 113.333 -270 170 -472 170v-565z" />
    <glyph glyph-name="dcroat" unicode="&#x111;" horiz-adv-x="1309" 
d="M1040 422v158.998c-14 75.333 -50 142 -108 200c-77.333 77.333 -170.666 116 -279.999 116s-202.666 -38.667 -279.999 -116s-116 -170.666 -116 -279.999s38.667 -202.333 116 -279s170.666 -115 279.999 -115s202.666 38.333 279.999 115
c58 58.667 94 125.334 108 200.001zM1167 1180v-1180h-127v139l-14 -10c-103.333 -103.333 -228 -155 -374 -155c-145.333 0 -269.5 51.5 -372.5 154.5s-154.5 227.167 -154.5 372.5c0 146 51.5 270.5 154.5 373.5s227.167 154.5 372.5 154.5
c146 0 270.667 -51.333 374 -154l14 -11v316h-267v127h267v209h127v-209h91v-127h-91z" />
    <glyph glyph-name="Itilde" unicode="&#x128;" horiz-adv-x="467" 
d="M297 1516v-1516h-127v1516h127zM267 1770c42 -33.333 75.332 -49.999 99.999 -49.999h4c19.333 1.33301 35.333 27 48 77h107c-17.333 -105.333 -54.333 -166.333 -111 -183c-15.333 -4 -30.333 -6 -45 -6c-40 0 -79.667 15.667 -119 47c-42 32.667 -75.667 49 -101 49
h-4c-19.333 -0.666992 -35.333 -26.334 -48 -77.001h-107c18 105.333 55.333 166.333 112 183c14.667 4.66699 29.334 7 44.001 7c40 0 80 -15.667 120 -47z" />
    <glyph glyph-name="itilde" unicode="&#x129;" horiz-adv-x="460" 
d="M293 947v-947h-127v947h127zM254 1213c42 -34 75.667 -51 101 -51h4c19.333 1.33301 35 27.333 47 78h107c-17.333 -105.333 -54.333 -166.333 -111 -183c-14.667 -4.66699 -29.667 -7 -45 -7c-40 0 -79.667 15.667 -119 47c-42 33.333 -75.667 50 -101 50h-3
c-20 -1.33301 -36 -27 -48 -77h-108c18 105.333 55.333 166.333 112 183c14.667 4 29.667 6 45 6c40 0 79.667 -15.333 119 -46z" />
    <glyph glyph-name="Utilde" unicode="&#x168;" horiz-adv-x="1305" 
d="M1028 1516h127.001v-1081c-16 -118.667 -65 -219 -147 -301c-98 -98 -216.333 -147 -355 -147c-139.333 0 -258 49.167 -356 147.5s-147 216.5 -147 354.5v1027h128v-1027c0 -102.667 36.667 -190.667 110 -264s161.666 -110 264.999 -110c104 0 192.5 36.667 265.5 110
s109.5 161.333 109.5 264v1027zM670.001 1789c42 -34 75.668 -51 101.001 -51h4c19.333 1.33301 35.333 27.333 48 78h106c-17.333 -105.333 -54.333 -166.333 -111 -183c-14.667 -4.66699 -29.334 -7 -44.001 -7c-40.667 0 -80.667 15.667 -120 47
c-42 33.333 -75.333 50 -100 50h-4c-19.333 -1.33301 -35.333 -27 -48 -77h-108c18 105.333 55.333 166.333 112 183c15.333 4 30.333 6 45 6c40 0 79.667 -15.333 119 -46z" />
    <glyph glyph-name="utilde" unicode="&#x169;" horiz-adv-x="1079" 
d="M545 -13c-119.333 0 -214.5 35.5 -285.5 106.5s-107.5 160.5 -109.5 268.5v587h127v-579c0 -70.667 25.667 -130.667 77 -180c50.667 -50.667 114 -76 190 -76c70 0 130.5 25 181.5 75s76.5 110.333 76.5 181v579h127v-587c-2 -108 -38.333 -197.333 -109 -268
c-71.333 -71.333 -163 -107 -275 -107zM556 1294c42 -34 75.667 -51 101 -51h4c19.333 1.33301 35 27.333 47 78h107c-17.333 -105.333 -54.333 -166.333 -111 -183c-14.667 -4.66699 -29.667 -7 -45 -7c-40 0 -79.667 15.667 -119 47c-42 33.333 -75.667 50 -101 50h-4
c-19.333 -1.33301 -35 -27 -47 -77h-108c18 105.333 55.333 166.333 112 183c14.667 4 29.667 6 45 6c40 0 79.667 -15.333 119 -46z" />
    <glyph glyph-name="Ohorn" unicode="&#x1a0;" horiz-adv-x="1805" 
d="M902 1409c-178.667 0 -331.334 -63.333 -458.001 -190s-190 -279.667 -190 -459s63.333 -332.5 190 -459.5s279.334 -190.5 458.001 -190.5c179.333 0 332.333 63.5 459 190.5s190 280.167 190 459.5s-63.333 332.333 -190 459s-279.667 190 -459 190zM1498 1260
c121.333 -141.333 182 -308 182 -500c0 -214.667 -76 -397.834 -228 -549.501s-335.333 -227.5 -550 -227.5s-397.834 75.833 -549.501 227.5s-227.5 334.834 -227.5 549.501s75.833 397.834 227.5 549.501s334.834 227.5 549.501 227.5s398 -75.667 550 -227
c4 -4.66699 8.33301 -9.33398 13 -14.001l59 221h132l-124 -257h-34z" />
    <glyph glyph-name="ohorn" unicode="&#x1a1;" horiz-adv-x="1234" 
d="M337 781c-77.333 -77.333 -116 -170.666 -116 -279.999s38.667 -202.333 116 -279s170.666 -115 279.999 -115s202.666 38.333 279.999 115s116 169.667 116 279s-38.667 202.666 -116 279.999s-170.666 116 -279.999 116s-202.666 -38.667 -279.999 -116zM1099 719
c30 -66.667 45 -139.333 45 -218c0 -145.333 -51.333 -269.5 -154 -372.5s-227 -154.5 -373 -154.5c-145.333 0 -269.5 51.5 -372.5 154.5s-154.5 227.167 -154.5 372.5c0 146 51.5 270.5 154.5 373.5s227.167 154.5 372.5 154.5c146 0 270.333 -51.333 373 -154
c36 -36.667 65.667 -75.667 89 -117l59 218h132l-124 -257h-47z" />
    <glyph glyph-name="Uhorn" unicode="&#x1af;" horiz-adv-x="1305" 
d="M1155 1260l0.000976562 -825c-16 -118.667 -65 -219 -147 -301c-98 -98 -216.333 -147 -355 -147c-139.333 0 -258 49.167 -356 147.5s-147 216.5 -147 354.5v1027h128v-1027c0 -102.667 36.667 -190.667 110 -264s161.666 -110 264.999 -110
c104 0 192.5 36.667 265.5 110s109.5 161.333 109.5 264v1027h127v-159l43 160h132l-124 -257h-51z" />
    <glyph glyph-name="uhorn" unicode="&#x1b0;" horiz-adv-x="1079" 
d="M929 692v-330c-2 -108 -38.333 -197.333 -109 -268c-71.333 -71.333 -163 -107 -275 -107c-119.333 0 -214.5 35.5 -285.5 106.5s-107.5 160.5 -109.5 268.5v587h127v-579c0 -70.667 25.667 -130.667 77 -180c50.667 -50.667 114 -76 190 -76c70 0 130.5 25 181.5 75
s76.5 110.333 76.5 181v579h127v-142l38 142h132l-124 -257h-46z" />
    <glyph glyph-name="uni1EA0" unicode="&#x1ea0;" 
d="M823 691l-193 531l-193 -531h386zM869 564h-479l-205 -564h-135l580 1592l579 -1592h-135zM704 -123.5c20.667 -20.333 31 -44.833 31 -73.5c0 -29.333 -10.333 -54.166 -31 -74.499s-45.334 -30.5 -74.001 -30.5s-53.334 10.167 -74.001 30.5s-31 45.166 -31 74.499
c0 28.667 10.333 53.167 31 73.5s45.334 30.5 74.001 30.5s53.334 -10.167 74.001 -30.5z" />
    <glyph glyph-name="uni1EA1" unicode="&#x1ea1;" horiz-adv-x="1317" 
d="M1167 0h-127v139c-112.667 -110 -242 -165 -388 -165c-145.333 0 -269.5 51.5 -372.5 154.5s-154.5 227.167 -154.5 372.5c0 146 51.5 270.5 154.5 373.5s227.167 154.5 372.5 154.5c146 0 275.333 -55 388 -165v83h127v-947zM1040 422v158.998
c-14 75.333 -50 142 -108 200c-77.333 77.333 -170.666 116 -279.999 116s-202.666 -38.667 -279.999 -116s-116 -170.666 -116 -279.999s38.667 -202.333 116 -279s170.666 -115 279.999 -115s202.666 38.333 279.999 115c58 58.667 94 125.334 108 200.001zM710 -123.502
c20.667 -20.333 31 -44.833 31 -73.5c0 -29.333 -10.333 -54.166 -31 -74.499s-45.334 -30.5 -74.001 -30.5s-53.334 10.167 -74.001 30.5s-31 45.166 -31 74.499c0 28.667 10.333 53.167 31 73.5s45.334 30.5 74.001 30.5s53.334 -10.167 74.001 -30.5z" />
    <glyph glyph-name="uni1EA2" unicode="&#x1ea2;" 
d="M823 691l-193 531l-193 -531h386zM869 564h-479l-205 -564h-135l580 1592l579 -1592h-135zM565 1636c0 30 7.33203 59.3311 21.999 87.998c22.667 47.333 56.334 87.666 101.001 120.999c20.667 20.667 35.667 40.667 45 60c4.66699 10 7 20.333 7 31
c0 7.33301 -1.33301 15 -4 23c-6 18 -17 30.667 -33 38c-8.66699 4 -17 6 -25 6c-6 0 -12.333 -1 -19 -3c-16.667 -6 -28.667 -17 -36 -33c-4.66699 -10 -7 -30.333 -7 -61l-103 5v31c0 20.667 5 41 15 61c20 40.667 51.333 68.334 94 83.001
c19.333 6.66699 38.333 10 57 10c25.333 0 49.666 -5.66699 72.999 -17c40.667 -20 68.334 -50.667 83.001 -92c6 -17.333 9 -34.666 9 -51.999c0 -22.667 -5.33301 -45 -16 -67c-18 -36.667 -46.667 -70.667 -86 -102c-26.667 -23.333 -47 -49.666 -61 -78.999
c-5.33301 -11.333 -9 -22.333 -11 -33z" />
    <glyph glyph-name="uni1EA3" unicode="&#x1ea3;" horiz-adv-x="1317" 
d="M1167 0h-127v139c-112.667 -110 -242 -165 -388 -165c-145.333 0 -269.5 51.5 -372.5 154.5s-154.5 227.167 -154.5 372.5c0 146 51.5 270.5 154.5 373.5s227.167 154.5 372.5 154.5c146 0 275.333 -55 388 -165v83h127v-947zM1040 422v158.998
c-14 75.333 -50 142 -108 200c-77.333 77.333 -170.666 116 -279.999 116s-202.666 -38.667 -279.999 -116s-116 -170.666 -116 -279.999s38.667 -202.333 116 -279s170.666 -115 279.999 -115s202.666 38.333 279.999 115c58 58.667 94 125.334 108 200.001zM600 1089
c3.33301 20 9.99902 39.998 19.999 59.998c22.667 47.333 56.334 87.666 101.001 120.999c20.667 20.667 35.667 40.667 45 60c4.66699 10 7 20.333 7 31c0 7.33301 -1.33301 15 -4 23c-6 18 -17 30.667 -33 38c-8.66699 4 -17 6 -25 6c-6 0 -12.333 -1 -19 -3
c-16.667 -6 -28.667 -17 -36 -33c-4.66699 -10 -7 -30.333 -7 -61l-103 5v31c0 20.667 5 41 15 61c20 40.667 51.333 68.334 94 83.001c19.333 6.66699 38.333 10 57 10c25.333 0 49.666 -5.66699 72.999 -17c40.667 -20 68.334 -50.667 83.001 -92
c6 -17.333 9 -34.666 9 -51.999c0 -22.667 -5.33301 -45 -16 -67c-18 -36.667 -46.667 -70.667 -86 -102c-26.667 -23.333 -47 -49.666 -61 -78.999c-4.66699 -9.33301 -8 -18.333 -10 -27z" />
    <glyph glyph-name="uni1EA4" unicode="&#x1ea4;" 
d="M823 691l-193 531l-193 -531h386zM869 564h-479l-205 -564h-135l580 1592l579 -1592h-135zM1182 2009l-283 -216h-133l188 216h228zM683 1839l264 -260h-157l-164 126l-154 -126h-157l254 260h114z" />
    <glyph glyph-name="uni1EA5" unicode="&#x1ea5;" horiz-adv-x="1317" 
d="M1167 0h-127v139c-112.667 -110 -242 -165 -388 -165c-145.333 0 -269.5 51.5 -372.5 154.5s-154.5 227.167 -154.5 372.5c0 146 51.5 270.5 154.5 373.5s227.167 154.5 372.5 154.5c146 0 275.333 -55 388 -165v83h127v-947zM1040 422v158.998
c-14 75.333 -50 142 -108 200c-77.333 77.333 -170.666 116 -279.999 116s-202.666 -38.667 -279.999 -116s-116 -170.666 -116 -279.999s38.667 -202.333 116 -279s170.666 -115 279.999 -115s202.666 38.333 279.999 115c58 58.667 94 125.334 108 200.001zM1264 1519
l-283 -216h-133l188 216h228zM739 1362l263 -259h-157l-163 125l-154 -125h-157l254 259h114z" />
    <glyph glyph-name="uni1EA6" unicode="&#x1ea6;" 
d="M823 691l-193 531l-193 -531h386zM869 564h-479l-205 -564h-135l580 1592l579 -1592h-135zM747 2030l188 -216h-133l-283 216h228zM683 1839l264 -260h-157l-164 126l-154 -126h-157l254 260h114z" />
    <glyph glyph-name="uni1EA7" unicode="&#x1ea7;" horiz-adv-x="1317" 
d="M1167 0h-127v139c-112.667 -110 -242 -165 -388 -165c-145.333 0 -269.5 51.5 -372.5 154.5s-154.5 227.167 -154.5 372.5c0 146 51.5 270.5 154.5 373.5s227.167 154.5 372.5 154.5c146 0 275.333 -55 388 -165v83h127v-947zM1040 422v158.998
c-14 75.333 -50 142 -108 200c-77.333 77.333 -170.666 116 -279.999 116s-202.666 -38.667 -279.999 -116s-116 -170.666 -116 -279.999s38.667 -202.333 116 -279s170.666 -115 279.999 -115s202.666 38.333 279.999 115c58 58.667 94 125.334 108 200.001zM808 1549
l188 -216h-133l-283 216h228zM739 1362l263 -259h-157l-163 125l-154 -125h-157l254 259h114z" />
    <glyph glyph-name="uni1EA8" unicode="&#x1ea8;" 
d="M823 691l-193 531l-193 -531h386zM869 564h-479l-205 -564h-135l580 1592l579 -1592h-135zM776 1797c0 30 7.33203 59.332 21.999 87.999c22.667 47.333 56.334 87.666 101.001 120.999c20.667 20.667 35.667 40.667 45 60c4.66699 10 7 20.333 7 31
c0 7.33301 -1.33301 15 -4 23c-6 18 -17 30.667 -33 38c-8.66699 4 -17 6 -25 6c-6 0 -12.333 -1 -19 -3c-16.667 -6 -28.667 -17 -36 -33c-4.66699 -10 -7 -30.333 -7 -61l-103 5v31c0 20.667 5 41 15 61c20 40.667 51.333 68.334 94 83c19.333 6.66699 38.333 10 57 10
c25.333 0 49.666 -5.66699 72.999 -17c40.667 -20 68.334 -50.667 83.001 -92c6 -17.333 9 -34.666 9 -51.999c0 -22.667 -5.33301 -45 -16 -67c-18 -36.667 -46.667 -70.667 -86 -102c-26.667 -23.333 -47 -49.666 -61 -78.999c-5.33301 -11.333 -9 -22.333 -11 -33z
M682.999 1839l264 -260h-157l-164 126l-154 -126h-157l254 260h114z" />
    <glyph glyph-name="uni1EA9" unicode="&#x1ea9;" horiz-adv-x="1317" 
d="M1167 0h-127v139c-112.667 -110 -242 -165 -388 -165c-145.333 0 -269.5 51.5 -372.5 154.5s-154.5 227.167 -154.5 372.5c0 146 51.5 270.5 154.5 373.5s227.167 154.5 372.5 154.5c146 0 275.333 -55 388 -165v83h127v-947zM1040 422v158.998
c-14 75.333 -50 142 -108 200c-77.333 77.333 -170.666 116 -279.999 116s-202.666 -38.667 -279.999 -116s-116 -170.666 -116 -279.999s38.667 -202.333 116 -279s170.666 -115 279.999 -115s202.666 38.333 279.999 115c58 58.667 94 125.334 108 200.001zM851 1300
c3.33301 20 9.99902 39.998 19.999 59.998c22.667 47.333 56.334 87.666 101.001 120.999c20.667 20.667 35.667 40.667 45 60c4.66699 10 7 20.333 7 31c0 7.33301 -1.33301 15 -4 23c-6 18 -17 30.667 -33 38c-8.66699 4 -17 6 -25 6c-6 0 -12.333 -1 -19 -3
c-16.667 -6 -28.667 -17 -36 -33c-4.66699 -10 -7 -30.333 -7 -61l-103 5v31c0 20.667 5 41 15 61c20 40.667 51.333 68.334 94 83.001c19.333 6.66699 38.333 10 57 10c25.333 0 49.666 -5.66699 72.999 -17c40.667 -20 68.334 -50.667 83.001 -92
c6 -17.333 9 -34.666 9 -51.999c0 -22.667 -5.33301 -45 -16 -67c-18 -36.667 -46.667 -70.667 -86 -102c-26.667 -23.333 -47 -49.666 -61 -78.999c-4.66699 -9.33301 -8 -18.333 -10 -27zM738.999 1362l263 -259h-157l-163 125l-154 -125h-157l254 259h114z" />
    <glyph glyph-name="uni1EAA" unicode="&#x1eaa;" 
d="M823 691l-193 531l-193 -531h386zM869 564h-479l-205 -564h-135l580 1592l579 -1592h-135zM698 2021c42 -33.333 75.332 -49.999 99.999 -49.999h4c19.333 1.33301 35.333 27 48 77h107c-17.333 -105.333 -54.333 -166.333 -111 -183c-15.333 -4 -30.333 -6 -45 -6
c-40 0 -79.667 15.667 -119 47c-42 32.667 -75.667 49 -101 49h-4c-19.333 -0.666992 -35.333 -26.334 -48 -77.001h-107c18 105.333 55.333 166.333 112 183c14.667 4.66699 29.334 7 44.001 7c40 0 80 -15.667 120 -47zM682.999 1839l264 -260h-157l-164 126l-154 -126
h-157l254 260h114z" />
    <glyph glyph-name="uni1EAB" unicode="&#x1eab;" horiz-adv-x="1317" 
d="M1167 0h-127v139c-112.667 -110 -242 -165 -388 -165c-145.333 0 -269.5 51.5 -372.5 154.5s-154.5 227.167 -154.5 372.5c0 146 51.5 270.5 154.5 373.5s227.167 154.5 372.5 154.5c146 0 275.333 -55 388 -165v83h127v-947zM1040 422v158.998
c-14 75.333 -50 142 -108 200c-77.333 77.333 -170.666 116 -279.999 116s-202.666 -38.667 -279.999 -116s-116 -170.666 -116 -279.999s38.667 -202.333 116 -279s170.666 -115 279.999 -115s202.666 38.333 279.999 115c58 58.667 94 125.334 108 200.001zM746 1545
c42 -34 75.667 -51 101 -51h4c19.333 1.33301 35 27.333 47 78h107c-17.333 -105.333 -54.333 -166.333 -111 -183c-14.667 -4.66699 -29.667 -7 -45 -7c-40 0 -79.667 15.667 -119 47c-42 33.333 -75.667 50 -101 50h-3c-20 -1.33301 -36 -27 -48 -77h-108
c18 105.333 55.333 166.333 112 183c14.667 4 29.667 6 45 6c40 0 79.667 -15.333 119 -46zM739 1362l263 -259h-157l-163 125l-154 -125h-157l254 259h114z" />
    <glyph glyph-name="uni1EAC" unicode="&#x1eac;" 
d="M823 691l-193 531l-193 -531h386zM869 564h-479l-205 -564h-135l580 1592l579 -1592h-135zM704 -123.5c20.667 -20.333 31 -44.833 31 -73.5c0 -29.333 -10.333 -54.166 -31 -74.499s-45.334 -30.5 -74.001 -30.5s-53.334 10.167 -74.001 30.5s-31 45.166 -31 74.499
c0 28.667 10.333 53.167 31 73.5s45.334 30.5 74.001 30.5s53.334 -10.167 74.001 -30.5zM683 1839l264 -260h-157l-164 126l-154 -126h-157l254 260h114z" />
    <glyph glyph-name="uni1EAD" unicode="&#x1ead;" horiz-adv-x="1317" 
d="M1167 0h-127v139c-112.667 -110 -242 -165 -388 -165c-145.333 0 -269.5 51.5 -372.5 154.5s-154.5 227.167 -154.5 372.5c0 146 51.5 270.5 154.5 373.5s227.167 154.5 372.5 154.5c146 0 275.333 -55 388 -165v83h127v-947zM1040 422v158.998
c-14 75.333 -50 142 -108 200c-77.333 77.333 -170.666 116 -279.999 116s-202.666 -38.667 -279.999 -116s-116 -170.666 -116 -279.999s38.667 -202.333 116 -279s170.666 -115 279.999 -115s202.666 38.333 279.999 115c58 58.667 94 125.334 108 200.001zM710 -123.502
c20.667 -20.333 31 -44.833 31 -73.5c0 -29.333 -10.333 -54.166 -31 -74.499s-45.334 -30.5 -74.001 -30.5s-53.334 10.167 -74.001 30.5s-31 45.166 -31 74.499c0 28.667 10.333 53.167 31 73.5s45.334 30.5 74.001 30.5s53.334 -10.167 74.001 -30.5zM739 1362l263 -259
h-157l-163 125l-154 -125h-157l254 259h114z" />
    <glyph glyph-name="uni1EAE" unicode="&#x1eae;" 
d="M823 691l-193 531l-193 -531h386zM869 564h-479l-205 -564h-135l580 1592l579 -1592h-135zM981 2110l-283 -216h-133l188 216h228zM499 1893c6 -40 19.002 -70 39.002 -90c25.333 -25.333 55.666 -38 90.999 -38s65.666 12.667 90.999 38c20 20 32.667 50 38 90h111
c-7.33301 -72 -31 -128.333 -71 -169c-46 -46.667 -102.333 -70 -169 -70s-123 23.333 -169 70c-44 44.667 -67.667 101 -71 169h110z" />
    <glyph glyph-name="uni1EAF" unicode="&#x1eaf;" horiz-adv-x="1317" 
d="M1167 0h-127v139c-112.667 -110 -242 -165 -388 -165c-145.333 0 -269.5 51.5 -372.5 154.5s-154.5 227.167 -154.5 372.5c0 146 51.5 270.5 154.5 373.5s227.167 154.5 372.5 154.5c146 0 275.333 -55 388 -165v83h127v-947zM1040 422v158.998
c-14 75.333 -50 142 -108 200c-77.333 77.333 -170.666 116 -279.999 116s-202.666 -38.667 -279.999 -116s-116 -170.666 -116 -279.999s38.667 -202.333 116 -279s170.666 -115 279.999 -115s202.666 38.333 279.999 115c58 58.667 94 125.334 108 200.001zM1003 1589
l-283 -216h-133l188 216h228zM516 1375c6 -40 19.002 -70 39.002 -90c25.333 -25.333 55.666 -38 90.999 -38s65.666 12.667 90.999 38c20 20 32.667 50 38 90h111c-7.33301 -72 -31 -128.333 -71 -169c-46 -46.667 -102.333 -70 -169 -70s-123 23.333 -169 70
c-44 44.667 -67.667 101 -71 169h110z" />
    <glyph glyph-name="uni1EB0" unicode="&#x1eb0;" 
d="M823 691l-193 531l-193 -531h386zM869 564h-479l-205 -564h-135l580 1592l579 -1592h-135zM536 2101l188 -216h-133l-283 216h228zM499 1893c6 -40 19.002 -70 39.002 -90c25.333 -25.333 55.666 -38 90.999 -38s65.666 12.667 90.999 38c20 20 32.667 50 38 90h111
c-7.33301 -72 -31 -128.333 -71 -169c-46 -46.667 -102.333 -70 -169 -70s-123 23.333 -169 70c-44 44.667 -67.667 101 -71 169h110z" />
    <glyph glyph-name="uni1EB1" unicode="&#x1eb1;" horiz-adv-x="1317" 
d="M1167 0h-127v139c-112.667 -110 -242 -165 -388 -165c-145.333 0 -269.5 51.5 -372.5 154.5s-154.5 227.167 -154.5 372.5c0 146 51.5 270.5 154.5 373.5s227.167 154.5 372.5 154.5c146 0 275.333 -55 388 -165v83h127v-947zM1040 422v158.998
c-14 75.333 -50 142 -108 200c-77.333 77.333 -170.666 116 -279.999 116s-202.666 -38.667 -279.999 -116s-116 -170.666 -116 -279.999s38.667 -202.333 116 -279s170.666 -115 279.999 -115s202.666 38.333 279.999 115c58 58.667 94 125.334 108 200.001zM557 1579
l188 -216h-133l-283 216h228zM516 1375c6 -40 19.002 -70 39.002 -90c25.333 -25.333 55.666 -38 90.999 -38s65.666 12.667 90.999 38c20 20 32.667 50 38 90h111c-7.33301 -72 -31 -128.333 -71 -169c-46 -46.667 -102.333 -70 -169 -70s-123 23.333 -169 70
c-44 44.667 -67.667 101 -71 169h110z" />
    <glyph glyph-name="uni1EB2" unicode="&#x1eb2;" 
d="M823 691l-193 531l-193 -531h386zM869 564h-479l-205 -564h-135l580 1592l579 -1592h-135zM585 1867c0 30 7.33203 59.332 21.999 87.999c22.667 47.333 56.334 87.666 101.001 120.999c20.667 20.667 35.667 40.667 45 60c4.66699 10 7 20.333 7 31
c0 7.33301 -1.33301 15 -4 23c-6 18 -17 30.667 -33 38c-8.66699 4 -17 6 -25 6c-6 0 -12.333 -1 -19 -3c-16.667 -6 -28.667 -17 -36 -33c-4.66699 -10 -7 -30.333 -7 -61l-103 5v31c0 20.667 5 41 15 61c20 40.667 51.333 68.334 94 83c19.333 6.66699 38.333 10 57 10
c25.333 0 49.666 -5.66699 72.999 -17c40.667 -20 68.334 -50.667 83.001 -92c6 -17.333 9 -34.666 9 -51.999c0 -22.667 -5.33301 -45 -16 -67c-18 -36.667 -46.667 -70.667 -86 -102c-26.667 -23.333 -47 -49.666 -61 -78.999c-5.33301 -11.333 -9 -22.333 -11 -33z
M498.999 1893c6 -40 19.002 -70 39.002 -90c25.333 -25.333 55.666 -38 90.999 -38s65.666 12.667 90.999 38c20 20 32.667 50 38 90h111c-7.33301 -72 -31 -128.333 -71 -169c-46 -46.667 -102.333 -70 -169 -70s-123 23.333 -169 70c-44 44.667 -67.667 101 -71 169h110z
" />
    <glyph glyph-name="uni1EB3" unicode="&#x1eb3;" horiz-adv-x="1317" 
d="M1167 0h-127v139c-112.667 -110 -242 -165 -388 -165c-145.333 0 -269.5 51.5 -372.5 154.5s-154.5 227.167 -154.5 372.5c0 146 51.5 270.5 154.5 373.5s227.167 154.5 372.5 154.5c146 0 275.333 -55 388 -165v83h127v-947zM1040 422v158.998
c-14 75.333 -50 142 -108 200c-77.333 77.333 -170.666 116 -279.999 116s-202.666 -38.667 -279.999 -116s-116 -170.666 -116 -279.999s38.667 -202.333 116 -279s170.666 -115 279.999 -115s202.666 38.333 279.999 115c58 58.667 94 125.334 108 200.001zM590 1360
c3.33301 20 9.99902 39.998 19.999 59.998c22.667 47.333 56.334 87.666 101.001 120.999c20.667 20.667 35.667 40.667 45 60c4.66699 10 7 20.333 7 31c0 7.33301 -1.33301 15 -4 23c-6 18 -17 30.667 -33 38c-8.66699 4 -17 6 -25 6c-6 0 -12.333 -1 -19 -3
c-16.667 -6 -28.667 -17 -36 -33c-4.66699 -10 -7 -30.333 -7 -61l-103 5v31c0 20.667 5 41 15 61c20 40.667 51.333 68.334 94 83.001c19.333 6.66699 38.333 10 57 10c25.333 0 49.666 -5.66699 72.999 -17c40.667 -20 68.334 -50.667 83.001 -92
c6 -17.333 9 -34.666 9 -51.999c0 -22.667 -5.33301 -45 -16 -67c-18 -36.667 -46.667 -70.667 -86 -102c-26.667 -23.333 -47 -49.666 -61 -78.999c-4.66699 -9.33301 -8 -18.333 -10 -27zM515.999 1375c6 -40 19.002 -70 39.002 -90c25.333 -25.333 55.666 -38 90.999 -38
s65.666 12.667 90.999 38c20 20 32.667 50 38 90h111c-7.33301 -72 -31 -128.333 -71 -169c-46 -46.667 -102.333 -70 -169 -70s-123 23.333 -169 70c-44 44.667 -67.667 101 -71 169h110z" />
    <glyph glyph-name="uni1EB4" unicode="&#x1eb4;" 
d="M823 691l-193 531l-193 -531h386zM869 564h-479l-205 -564h-135l580 1592l579 -1592h-135zM688 2092c42 -33.333 75.332 -49.999 99.999 -49.999h4c19.333 1.33301 35.333 27 48 77h107c-17.333 -105.333 -54.333 -166.333 -111 -183c-15.333 -4 -30.333 -6 -45 -6
c-40 0 -79.667 15.667 -119 47c-42 32.667 -75.667 49 -101 49h-4c-19.333 -0.666992 -35.333 -26.334 -48 -77.001h-107c18 105.333 55.333 166.333 112 183c14.667 4.66699 29.334 7 44.001 7c40 0 80 -15.667 120 -47zM498.999 1893c6 -40 19.002 -70 39.002 -90
c25.333 -25.333 55.666 -38 90.999 -38s65.666 12.667 90.999 38c20 20 32.667 50 38 90h111c-7.33301 -72 -31 -128.333 -71 -169c-46 -46.667 -102.333 -70 -169 -70s-123 23.333 -169 70c-44 44.667 -67.667 101 -71 169h110z" />
    <glyph glyph-name="uni1EB5" unicode="&#x1eb5;" horiz-adv-x="1317" 
d="M1167 0h-127v139c-112.667 -110 -242 -165 -388 -165c-145.333 0 -269.5 51.5 -372.5 154.5s-154.5 227.167 -154.5 372.5c0 146 51.5 270.5 154.5 373.5s227.167 154.5 372.5 154.5c146 0 275.333 -55 388 -165v83h127v-947zM1040 422v158.998
c-14 75.333 -50 142 -108 200c-77.333 77.333 -170.666 116 -279.999 116s-202.666 -38.667 -279.999 -116s-116 -170.666 -116 -279.999s38.667 -202.333 116 -279s170.666 -115 279.999 -115s202.666 38.333 279.999 115c58 58.667 94 125.334 108 200.001zM716 1575
c42 -34 75.667 -51 101 -51h4c19.333 1.33301 35 27.333 47 78h107c-17.333 -105.333 -54.333 -166.333 -111 -183c-14.667 -4.66699 -29.667 -7 -45 -7c-40 0 -79.667 15.667 -119 47c-42 33.333 -75.667 50 -101 50h-3c-20 -1.33301 -36 -27 -48 -77h-108
c18 105.333 55.333 166.333 112 183c14.667 4 29.667 6 45 6c40 0 79.667 -15.333 119 -46zM516 1375c6 -40 19.002 -70 39.002 -90c25.333 -25.333 55.666 -38 90.999 -38s65.666 12.667 90.999 38c20 20 32.667 50 38 90h111c-7.33301 -72 -31 -128.333 -71 -169
c-46 -46.667 -102.333 -70 -169 -70s-123 23.333 -169 70c-44 44.667 -67.667 101 -71 169h110z" />
    <glyph glyph-name="uni1EB6" unicode="&#x1eb6;" 
d="M823 691l-193 531l-193 -531h386zM869 564h-479l-205 -564h-135l580 1592l579 -1592h-135zM704 -123.5c20.667 -20.333 31 -44.833 31 -73.5c0 -29.333 -10.333 -54.166 -31 -74.499s-45.334 -30.5 -74.001 -30.5s-53.334 10.167 -74.001 30.5s-31 45.166 -31 74.499
c0 28.667 10.333 53.167 31 73.5s45.334 30.5 74.001 30.5s53.334 -10.167 74.001 -30.5zM499 1893c6 -40 19.002 -70 39.002 -90c25.333 -25.333 55.666 -38 90.999 -38s65.666 12.667 90.999 38c20 20 32.667 50 38 90h111c-7.33301 -72 -31 -128.333 -71 -169
c-46 -46.667 -102.333 -70 -169 -70s-123 23.333 -169 70c-44 44.667 -67.667 101 -71 169h110z" />
    <glyph glyph-name="uni1EB7" unicode="&#x1eb7;" horiz-adv-x="1317" 
d="M1167 0h-127v139c-112.667 -110 -242 -165 -388 -165c-145.333 0 -269.5 51.5 -372.5 154.5s-154.5 227.167 -154.5 372.5c0 146 51.5 270.5 154.5 373.5s227.167 154.5 372.5 154.5c146 0 275.333 -55 388 -165v83h127v-947zM1040 422v158.998
c-14 75.333 -50 142 -108 200c-77.333 77.333 -170.666 116 -279.999 116s-202.666 -38.667 -279.999 -116s-116 -170.666 -116 -279.999s38.667 -202.333 116 -279s170.666 -115 279.999 -115s202.666 38.333 279.999 115c58 58.667 94 125.334 108 200.001zM710 -123.502
c20.667 -20.333 31 -44.833 31 -73.5c0 -29.333 -10.333 -54.166 -31 -74.499s-45.334 -30.5 -74.001 -30.5s-53.334 10.167 -74.001 30.5s-31 45.166 -31 74.499c0 28.667 10.333 53.167 31 73.5s45.334 30.5 74.001 30.5s53.334 -10.167 74.001 -30.5zM516 1375
c6 -40 19.002 -70 39.002 -90c25.333 -25.333 55.666 -38 90.999 -38s65.666 12.667 90.999 38c20 20 32.667 50 38 90h111c-7.33301 -72 -31 -128.333 -71 -169c-46 -46.667 -102.333 -70 -169 -70s-123 23.333 -169 70c-44 44.667 -67.667 101 -71 169h110z" />
    <glyph glyph-name="uni1EB8" unicode="&#x1eb8;" horiz-adv-x="1055" 
d="M930 1516v-127h-653v-568h653v-126h-653v-568h653v-127h-780v1516h780zM614 -123.5c20.667 -20.333 31 -44.833 31 -73.5c0 -29.333 -10.333 -54.166 -31 -74.499s-45.334 -30.5 -74.001 -30.5s-53.334 10.167 -74.001 30.5s-31 45.166 -31 74.499
c0 28.667 10.333 53.167 31 73.5s45.334 30.5 74.001 30.5s53.334 -10.167 74.001 -30.5z" />
    <glyph glyph-name="uni1EB9" unicode="&#x1eb9;" horiz-adv-x="1154" 
d="M371 192c62.667 -56.667 144.669 -85 246.002 -85c109.333 0 202.666 38.333 279.999 115c10 10 22.667 24.333 38 43l129 -46c-28 -39.333 -52.333 -69.333 -73 -90c-103.333 -103.333 -228 -155 -374 -155c-145.333 0 -269.5 51.5 -372.5 154.5
s-154.5 227.5 -154.5 373.5c0 145.333 51.5 269.5 154.5 372.5s227.167 154.5 372.5 154.5c124.667 0 234 -37.333 328 -112c15.333 -12.667 30.666 -26.667 45.999 -42l30 -33l-77 -77zM834.002 834c-54.667 42 -127 63 -217 63c-108.667 0 -201.667 -38.5 -279 -115.5
s-116 -170.167 -116 -279.5c0 -90 21 -162.333 63 -217zM710.002 -123.5c20.667 -20.333 31 -44.833 31 -73.5c0 -29.333 -10.333 -54.166 -31 -74.499s-45.334 -30.5 -74.001 -30.5s-53.334 10.167 -74.001 30.5s-31 45.166 -31 74.499c0 28.667 10.333 53.167 31 73.5
s45.334 30.5 74.001 30.5s53.334 -10.167 74.001 -30.5z" />
    <glyph glyph-name="uni1EBA" unicode="&#x1eba;" horiz-adv-x="1055" 
d="M930 1516v-127h-653v-568h653v-126h-653v-568h653v-127h-780v1516h780zM475 1606c0 30 7.33203 59.3311 21.999 87.998c22.667 47.333 56.334 87.666 101.001 120.999c20.667 20.667 35.667 40.667 45 60c4.66699 10 7 20.333 7 31c0 7.33301 -1.33301 15 -4 23
c-6 18 -17 30.667 -33 38c-8.66699 4 -17 6 -25 6c-6 0 -12.333 -1 -19 -3c-16.667 -6 -28.667 -17 -36 -33c-4.66699 -10 -7 -30.333 -7 -61l-103 5v31c0 20.667 5 41 15 61c20 40.667 51.333 68.334 94 83.001c19.333 6.66699 38.333 10 57 10
c25.333 0 49.666 -5.66699 72.999 -17c40.667 -20 68.334 -50.667 83.001 -92c6 -17.333 9 -34.666 9 -51.999c0 -22.667 -5.33301 -45 -16 -67c-18 -36.667 -46.667 -70.667 -86 -102c-26.667 -23.333 -47 -49.666 -61 -78.999c-5.33301 -11.333 -9 -22.333 -11 -33z" />
    <glyph glyph-name="uni1EBB" unicode="&#x1ebb;" horiz-adv-x="1154" 
d="M371 192c62.667 -56.667 144.669 -85 246.002 -85c109.333 0 202.666 38.333 279.999 115c10 10 22.667 24.333 38 43l129 -46c-28 -39.333 -52.333 -69.333 -73 -90c-103.333 -103.333 -228 -155 -374 -155c-145.333 0 -269.5 51.5 -372.5 154.5
s-154.5 227.5 -154.5 373.5c0 145.333 51.5 269.5 154.5 372.5s227.167 154.5 372.5 154.5c124.667 0 234 -37.333 328 -112c15.333 -12.667 30.666 -26.667 45.999 -42l30 -33l-77 -77zM834.002 834c-54.667 42 -127 63 -217 63c-108.667 0 -201.667 -38.5 -279 -115.5
s-116 -170.167 -116 -279.5c0 -90 21 -162.333 63 -217zM490.002 1089c3.33301 20 9.99902 39.998 19.999 59.998c22.667 47.333 56.334 87.666 101.001 120.999c20.667 20.667 35.667 40.667 45 60c4.66699 10 7 20.333 7 31c0 7.33301 -1.33301 15 -4 23
c-6 18 -17 30.667 -33 38c-8.66699 4 -17 6 -25 6c-6 0 -12.333 -1 -19 -3c-16.667 -6 -28.667 -17 -36 -33c-4.66699 -10 -7 -30.333 -7 -61l-103 5v31c0 20.667 5 41 15 61c20 40.667 51.333 68.334 94 83.001c19.333 6.66699 38.333 10 57 10
c25.333 0 49.666 -5.66699 72.999 -17c40.667 -20 68.334 -50.667 83.001 -92c6 -17.333 9 -34.666 9 -51.999c0 -22.667 -5.33301 -45 -16 -67c-18 -36.667 -46.667 -70.667 -86 -102c-26.667 -23.333 -47 -49.666 -61 -78.999c-4.66699 -9.33301 -8 -18.333 -10 -27z" />
    <glyph glyph-name="uni1EBC" unicode="&#x1ebc;" horiz-adv-x="1055" 
d="M930 1516v-127h-653v-568h653v-126h-653v-568h653v-127h-780v1516h780zM578 1770c42 -33.333 75.332 -49.999 99.999 -49.999h4c19.333 1.33301 35.333 27 48 77h107c-17.333 -105.333 -54.333 -166.333 -111 -183c-15.333 -4 -30.333 -6 -45 -6
c-40 0 -79.667 15.667 -119 47c-42 32.667 -75.667 49 -101 49h-4c-19.333 -0.666992 -35.333 -26.334 -48 -77.001h-107c18 105.333 55.333 166.333 112 183c14.667 4.66699 29.334 7 44.001 7c40 0 80 -15.667 120 -47z" />
    <glyph glyph-name="uni1EBD" unicode="&#x1ebd;" horiz-adv-x="1154" 
d="M371 192c62.667 -56.667 144.669 -85 246.002 -85c109.333 0 202.666 38.333 279.999 115c10 10 22.667 24.333 38 43l129 -46c-28 -39.333 -52.333 -69.333 -73 -90c-103.333 -103.333 -228 -155 -374 -155c-145.333 0 -269.5 51.5 -372.5 154.5
s-154.5 227.5 -154.5 373.5c0 145.333 51.5 269.5 154.5 372.5s227.167 154.5 372.5 154.5c124.667 0 234 -37.333 328 -112c15.333 -12.667 30.666 -26.667 45.999 -42l30 -33l-77 -77zM834.002 834c-54.667 42 -127 63 -217 63c-108.667 0 -201.667 -38.5 -279 -115.5
s-116 -170.167 -116 -279.5c0 -90 21 -162.333 63 -217zM625.002 1294c42 -34 75.667 -51 101 -51h4c19.333 1.33301 35 27.333 47 78h107c-17.333 -105.333 -54.333 -166.333 -111 -183c-14.667 -4.66699 -29.667 -7 -45 -7c-40 0 -79.667 15.667 -119 47
c-42 33.333 -75.667 50 -101 50h-3c-20 -1.33301 -36 -27 -48 -77h-108c18 105.333 55.333 166.333 112 183c14.667 4 29.667 6 45 6c40 0 79.667 -15.333 119 -46z" />
    <glyph glyph-name="uni1EBE" unicode="&#x1ebe;" horiz-adv-x="1055" 
d="M930 1516v-127h-653v-568h653v-126h-653v-568h653v-127h-780v1516h780zM1098 2011l-283 -216h-134l189 216h228zM594 1835l264 -260h-157l-163 126l-155 -126h-157l254 260h114z" />
    <glyph glyph-name="uni1EBF" unicode="&#x1ebf;" horiz-adv-x="1243" 
d="M371 192c62.667 -56.667 144.669 -85 246.002 -85c109.333 0 202.666 38.333 279.999 115c10 10 22.667 24.333 38 43l129 -46c-28 -39.333 -52.333 -69.333 -73 -90c-103.333 -103.333 -228 -155 -374 -155c-145.333 0 -269.5 51.5 -372.5 154.5
s-154.5 227.5 -154.5 373.5c0 145.333 51.5 269.5 154.5 372.5s227.167 154.5 372.5 154.5c124.667 0 234 -37.333 328 -112c15.333 -12.667 30.666 -26.667 45.999 -42l30 -33l-77 -77zM834.002 834c-54.667 42 -127 63 -217 63c-108.667 0 -201.667 -38.5 -279 -115.5
s-116 -170.167 -116 -279.5c0 -90 21 -162.333 63 -217zM1179 1529l-283 -216h-133l188 216h228zM666.002 1362l263 -259h-157l-163 125l-154 -125h-157l254 259h114z" />
    <glyph glyph-name="uni1EC0" unicode="&#x1ec0;" horiz-adv-x="1055" 
d="M930 1516v-127h-653v-568h653v-126h-653v-568h653v-127h-780v1516h780zM662 2001l189 -216h-134l-283 216h228zM594 1835l264 -260h-157l-163 126l-155 -126h-157l254 260h114z" />
    <glyph glyph-name="uni1EC1" unicode="&#x1ec1;" horiz-adv-x="1243" 
d="M371 192c62.667 -56.667 144.669 -85 246.002 -85c109.333 0 202.666 38.333 279.999 115c10 10 22.667 24.333 38 43l129 -46c-28 -39.333 -52.333 -69.333 -73 -90c-103.333 -103.333 -228 -155 -374 -155c-145.333 0 -269.5 51.5 -372.5 154.5
s-154.5 227.5 -154.5 373.5c0 145.333 51.5 269.5 154.5 372.5s227.167 154.5 372.5 154.5c124.667 0 234 -37.333 328 -112c15.333 -12.667 30.666 -26.667 45.999 -42l30 -33l-77 -77zM834.002 834c-54.667 42 -127 63 -217 63c-108.667 0 -201.667 -38.5 -279 -115.5
s-116 -170.167 -116 -279.5c0 -90 21 -162.333 63 -217zM733.002 1539l188 -216h-133l-283 216h228zM666.002 1362l263 -259h-157l-163 125l-154 -125h-157l254 259h114z" />
    <glyph glyph-name="uni1EC2" unicode="&#x1ec2;" horiz-adv-x="1055" 
d="M930 1516v-127h-653v-568h653v-126h-653v-568h653v-127h-780v1516h780zM685 1787c0 30 7.33203 59.332 21.999 87.999c22.667 47.333 56.334 87.666 101.001 120.999c20.667 20.667 35.667 40.667 45 60c4.66699 10 7 20.333 7 31c0 7.33301 -1.33301 15 -4 23
c-6 18 -17 30.667 -33 38c-8.66699 4 -17 6 -25 6c-6 0 -12.333 -1 -19 -3c-16.667 -6 -28.667 -17 -36 -33c-4.66699 -10 -7 -30.333 -7 -61l-103 5v31c0 20.667 5 41 15 61c20 40.667 51.333 68.334 94 83c19.333 6.66699 38.333 10 57 10
c25.333 0 49.666 -5.66699 72.999 -17c40.667 -20 68.334 -50.667 83.001 -92c6 -17.333 9 -34.666 9 -51.999c0 -22.667 -5.33301 -45 -16 -67c-18 -36.667 -46.667 -70.667 -86 -102c-26.667 -23.333 -47 -49.666 -61 -78.999c-5.33301 -11.333 -9 -22.333 -11 -33z
M593.999 1835l264 -260h-157l-163 126l-155 -126h-157l254 260h114z" />
    <glyph glyph-name="uni1EC3" unicode="&#x1ec3;" horiz-adv-x="1154" 
d="M371 192c62.667 -56.667 144.669 -85 246.002 -85c109.333 0 202.666 38.333 279.999 115c10 10 22.667 24.333 38 43l129 -46c-28 -39.333 -52.333 -69.333 -73 -90c-103.333 -103.333 -228 -155 -374 -155c-145.333 0 -269.5 51.5 -372.5 154.5
s-154.5 227.5 -154.5 373.5c0 145.333 51.5 269.5 154.5 372.5s227.167 154.5 372.5 154.5c124.667 0 234 -37.333 328 -112c15.333 -12.667 30.666 -26.667 45.999 -42l30 -33l-77 -77zM834.002 834c-54.667 42 -127 63 -217 63c-108.667 0 -201.667 -38.5 -279 -115.5
s-116 -170.167 -116 -279.5c0 -90 21 -162.333 63 -217zM771.002 1310c3.33301 20 9.99902 39.998 19.999 59.998c22.667 47.333 56.334 87.666 101.001 120.999c20.667 20.667 35.667 40.667 45 60c4.66699 10 7 20.333 7 31c0 7.33301 -1.33301 15 -4 23
c-6 18 -17 30.667 -33 38c-8.66699 4 -17 6 -25 6c-6 0 -12.333 -1 -19 -3c-16.667 -6 -28.667 -17 -36 -33c-4.66699 -10 -7 -30.333 -7 -61l-103 5v31c0 20.667 5 41 15 61c20 40.667 51.333 68.334 94 83.001c19.333 6.66699 38.333 10 57 10
c25.333 0 49.666 -5.66699 72.999 -17c40.667 -20 68.334 -50.667 83.001 -92c6 -17.333 9 -34.666 9 -51.999c0 -22.667 -5.33301 -45 -16 -67c-18 -36.667 -46.667 -70.667 -86 -102c-26.667 -23.333 -47 -49.666 -61 -78.999c-4.66699 -9.33301 -8 -18.333 -10 -27z
M666.001 1362l263 -259h-157l-163 125l-154 -125h-157l254 259h114z" />
    <glyph glyph-name="uni1EC4" unicode="&#x1ec4;" horiz-adv-x="1055" 
d="M930 1516v-127h-653v-568h653v-126h-653v-568h653v-127h-780v1516h780zM598 2010c42 -33.333 75.332 -49.999 99.999 -49.999h4c19.333 1.33301 35.333 27 48 77h107c-17.333 -105.333 -54.333 -166.333 -111 -183c-15.333 -4 -30.333 -6 -45 -6
c-40 0 -79.667 15.667 -119 47c-42 32.667 -75.667 49 -101 49h-4c-19.333 -0.666992 -35.333 -26.334 -48 -77.001h-107c18 105.333 55.333 166.333 112 183c14.667 4.66699 29.334 7 44.001 7c40 0 80 -15.667 120 -47zM593.999 1835l264 -260h-157l-163 126l-155 -126
h-157l254 260h114z" />
    <glyph glyph-name="uni1EC5" unicode="&#x1ec5;" horiz-adv-x="1154" 
d="M371 192c62.667 -56.667 144.669 -85 246.002 -85c109.333 0 202.666 38.333 279.999 115c10 10 22.667 24.333 38 43l129 -46c-28 -39.333 -52.333 -69.333 -73 -90c-103.333 -103.333 -228 -155 -374 -155c-145.333 0 -269.5 51.5 -372.5 154.5
s-154.5 227.5 -154.5 373.5c0 145.333 51.5 269.5 154.5 372.5s227.167 154.5 372.5 154.5c124.667 0 234 -37.333 328 -112c15.333 -12.667 30.666 -26.667 45.999 -42l30 -33l-77 -77zM834.002 834c-54.667 42 -127 63 -217 63c-108.667 0 -201.667 -38.5 -279 -115.5
s-116 -170.167 -116 -279.5c0 -90 21 -162.333 63 -217zM665.002 1545c42 -34 75.667 -51 101 -51h4c19.333 1.33301 35 27.333 47 78h107c-17.333 -105.333 -54.333 -166.333 -111 -183c-14.667 -4.66699 -29.667 -7 -45 -7c-40 0 -79.667 15.667 -119 47
c-42 33.333 -75.667 50 -101 50h-3c-20 -1.33301 -36 -27 -48 -77h-108c18 105.333 55.333 166.333 112 183c14.667 4 29.667 6 45 6c40 0 79.667 -15.333 119 -46zM666.002 1362l263 -259h-157l-163 125l-154 -125h-157l254 259h114z" />
    <glyph glyph-name="uni1EC6" unicode="&#x1ec6;" horiz-adv-x="1055" 
d="M930 1516v-127h-653v-568h653v-126h-653v-568h653v-127h-780v1516h780zM614 -123.5c20.667 -20.333 31 -44.833 31 -73.5c0 -29.333 -10.333 -54.166 -31 -74.499s-45.334 -30.5 -74.001 -30.5s-53.334 10.167 -74.001 30.5s-31 45.166 -31 74.499
c0 28.667 10.333 53.167 31 73.5s45.334 30.5 74.001 30.5s53.334 -10.167 74.001 -30.5zM594 1835l264 -260h-157l-163 126l-155 -126h-157l254 260h114z" />
    <glyph glyph-name="uni1EC7" unicode="&#x1ec7;" horiz-adv-x="1154" 
d="M371 192c62.667 -56.667 144.669 -85 246.002 -85c109.333 0 202.666 38.333 279.999 115c10 10 22.667 24.333 38 43l129 -46c-28 -39.333 -52.333 -69.333 -73 -90c-103.333 -103.333 -228 -155 -374 -155c-145.333 0 -269.5 51.5 -372.5 154.5
s-154.5 227.5 -154.5 373.5c0 145.333 51.5 269.5 154.5 372.5s227.167 154.5 372.5 154.5c124.667 0 234 -37.333 328 -112c15.333 -12.667 30.666 -26.667 45.999 -42l30 -33l-77 -77zM834.002 834c-54.667 42 -127 63 -217 63c-108.667 0 -201.667 -38.5 -279 -115.5
s-116 -170.167 -116 -279.5c0 -90 21 -162.333 63 -217zM710.002 -123.5c20.667 -20.333 31 -44.833 31 -73.5c0 -29.333 -10.333 -54.166 -31 -74.499s-45.334 -30.5 -74.001 -30.5s-53.334 10.167 -74.001 30.5s-31 45.166 -31 74.499c0 28.667 10.333 53.167 31 73.5
s45.334 30.5 74.001 30.5s53.334 -10.167 74.001 -30.5zM666.002 1362l263 -259h-157l-163 125l-154 -125h-157l254 259h114z" />
    <glyph glyph-name="uni1EC8" unicode="&#x1ec8;" horiz-adv-x="467" 
d="M297 1516v-1516h-127v1516h127zM173 1636c0 30 7.33203 59.3311 21.999 87.998c22.667 47.333 56.334 87.666 101.001 120.999c20.667 20.667 35.667 40.667 45 60c4.66699 10 7 20.333 7 31c0 7.33301 -1.33301 15 -4 23c-6 18 -17 30.667 -33 38
c-8.66699 4 -17 6 -25 6c-6 0 -12.333 -1 -19 -3c-16.667 -6 -28.667 -17 -36 -33c-4.66699 -10 -7 -30.333 -7 -61l-103 5v31c0 20.667 5 41 15 61c20 40.667 51.333 68.334 94 83.001c19.333 6.66699 38.333 10 57 10c25.333 0 49.666 -5.66699 72.999 -17
c40.667 -20 68.334 -50.667 83.001 -92c6 -17.333 9 -34.666 9 -51.999c0 -22.667 -5.33301 -45 -16 -67c-18 -36.667 -46.667 -70.667 -86 -102c-26.667 -23.333 -47 -49.666 -61 -78.999c-5.33301 -11.333 -9 -22.333 -11 -33z" />
    <glyph glyph-name="uni1EC9" unicode="&#x1ec9;" horiz-adv-x="460" 
d="M293 947v-947h-127v947h127zM168 1089c3.33301 20 9.99902 39.998 19.999 59.998c22.667 47.333 56.334 87.666 101.001 120.999c20.667 20.667 35.667 40.667 45 60c4.66699 10 7 20.333 7 31c0 7.33301 -1.33301 15 -4 23c-6 18 -17 30.667 -33 38
c-8.66699 4 -17 6 -25 6c-6 0 -12.333 -1 -19 -3c-16.667 -6 -28.667 -17 -36 -33c-4.66699 -10 -7 -30.333 -7 -61l-103 5v31c0 20.667 5 41 15 61c20 40.667 51.333 68.334 94 83.001c19.333 6.66699 38.333 10 57 10c25.333 0 49.666 -5.66699 72.999 -17
c40.667 -20 68.334 -50.667 83.001 -92c6 -17.333 9 -34.666 9 -51.999c0 -22.667 -5.33301 -45 -16 -67c-18 -36.667 -46.667 -70.667 -86 -102c-26.667 -23.333 -47 -49.666 -61 -78.999c-4.66699 -9.33301 -8 -18.333 -10 -27z" />
    <glyph glyph-name="uni1ECA" unicode="&#x1eca;" horiz-adv-x="467" 
d="M297 1516v-1516h-127v1516h127zM303 -123.5c20.667 -20.333 31 -44.833 31 -73.5c0 -29.333 -10.333 -54.166 -31 -74.499s-45.334 -30.5 -74.001 -30.5s-53.334 10.167 -74.001 30.5s-31 45.166 -31 74.499c0 28.667 10.333 53.167 31 73.5s45.334 30.5 74.001 30.5
s53.334 -10.167 74.001 -30.5z" />
    <glyph glyph-name="uni1ECB" unicode="&#x1ecb;" horiz-adv-x="460" 
d="M288 947v-947h-127v947h127zM304 1237.5c20.667 -20.333 31 -44.833 31 -73.5c0 -29.333 -10.333 -54.166 -31 -74.499s-45.334 -30.5 -74.001 -30.5s-53.334 10.167 -74.001 30.5s-31 45.166 -31 74.499c0 28.667 10.333 53.167 31 73.5s45.334 30.5 74.001 30.5
s53.334 -10.167 74.001 -30.5zM298 -123.5c20.667 -20.333 31 -44.833 31 -73.5c0 -29.333 -10.333 -54.166 -31 -74.499s-45.334 -30.5 -74.001 -30.5s-53.334 10.167 -74.001 30.5s-31 45.166 -31 74.499c0 28.667 10.333 53.167 31 73.5s45.334 30.5 74.001 30.5
s53.334 -10.167 74.001 -30.5z" />
    <glyph glyph-name="uni1ECC" unicode="&#x1ecc;" horiz-adv-x="1805" 
d="M1452 1309.5c152 -151.667 228 -334.834 228 -549.501s-76 -397.834 -228 -549.501s-335.333 -227.5 -550 -227.5s-397.834 75.833 -549.501 227.5s-227.5 334.834 -227.5 549.501s75.833 397.834 227.5 549.501s334.834 227.5 549.501 227.5s398 -75.833 550 -227.5z
M902 1409c-178.667 0 -331.334 -63.333 -458.001 -190s-190 -279.667 -190 -459s63.333 -332.5 190 -459.5s279.334 -190.5 458.001 -190.5c179.333 0 332.333 63.5 459 190.5s190 280.167 190 459.5s-63.333 332.333 -190 459s-279.667 190 -459 190zM977 -123.5
c20.667 -20.333 31 -44.833 31 -73.5c0 -29.333 -10.333 -54.166 -31 -74.499s-45.334 -30.5 -74.001 -30.5s-53.334 10.167 -74.001 30.5s-31 45.166 -31 74.499c0 28.667 10.333 53.167 31 73.5s45.334 30.5 74.001 30.5s53.334 -10.167 74.001 -30.5z" />
    <glyph glyph-name="uni1ECD" unicode="&#x1ecd;" horiz-adv-x="1234" 
d="M617 1029c146 0 270.333 -51.5 373 -154.5s154 -227.5 154 -373.5c0 -145.333 -51.333 -269.5 -154 -372.5s-227 -154.5 -373 -154.5c-145.333 0 -269.5 51.5 -372.5 154.5s-154.5 227.167 -154.5 372.5c0 146 51.5 270.5 154.5 373.5s227.167 154.5 372.5 154.5z
M337 781c-77.333 -77.333 -116 -170.666 -116 -279.999s38.667 -202.333 116 -279s170.666 -115 279.999 -115s202.666 38.333 279.999 115s116 169.667 116 279s-38.667 202.666 -116 279.999s-170.666 116 -279.999 116s-202.666 -38.667 -279.999 -116zM691 -123.5
c20.667 -20.333 31 -44.833 31 -73.5c0 -29.333 -10.333 -54.166 -31 -74.499s-45.334 -30.5 -74.001 -30.5s-53.334 10.167 -74.001 30.5s-31 45.166 -31 74.499c0 28.667 10.333 53.167 31 73.5s45.334 30.5 74.001 30.5s53.334 -10.167 74.001 -30.5z" />
    <glyph glyph-name="uni1ECE" unicode="&#x1ece;" horiz-adv-x="1805" 
d="M1452 1309.5c152 -151.667 228 -334.834 228 -549.501s-76 -397.834 -228 -549.501s-335.333 -227.5 -550 -227.5s-397.834 75.833 -549.501 227.5s-227.5 334.834 -227.5 549.501s75.833 397.834 227.5 549.501s334.834 227.5 549.501 227.5s398 -75.833 550 -227.5z
M902 1409c-178.667 0 -331.334 -63.333 -458.001 -190s-190 -279.667 -190 -459s63.333 -332.5 190 -459.5s279.334 -190.5 458.001 -190.5c179.333 0 332.333 63.5 459 190.5s190 280.167 190 459.5s-63.333 332.333 -190 459s-279.667 190 -459 190zM806 1606
c0 30 7.33203 59.3311 21.999 87.998c22.667 47.333 56.334 87.666 101.001 120.999c20.667 20.667 35.667 40.667 45 60c4.66699 10 7 20.333 7 31c0 7.33301 -1.33301 15 -4 23c-6 18 -17 30.667 -33 38c-8.66699 4 -17 6 -25 6c-6 0 -12.333 -1 -19 -3
c-16.667 -6 -28.667 -17 -36 -33c-4.66699 -10 -7 -30.333 -7 -61l-103 5v31c0 20.667 5 41 15 61c20 40.667 51.333 68.334 94 83.001c19.333 6.66699 38.333 10 57 10c25.333 0 49.666 -5.66699 72.999 -17c40.667 -20 68.334 -50.667 83.001 -92
c6 -17.333 9 -34.666 9 -51.999c0 -22.667 -5.33301 -45 -16 -67c-18 -36.667 -46.667 -70.667 -86 -102c-26.667 -23.333 -47 -49.666 -61 -78.999c-5.33301 -11.333 -9 -22.333 -11 -33z" />
    <glyph glyph-name="uni1ECF" unicode="&#x1ecf;" horiz-adv-x="1234" 
d="M617 1029c146 0 270.333 -51.5 373 -154.5s154 -227.5 154 -373.5c0 -145.333 -51.333 -269.5 -154 -372.5s-227 -154.5 -373 -154.5c-145.333 0 -269.5 51.5 -372.5 154.5s-154.5 227.167 -154.5 372.5c0 146 51.5 270.5 154.5 373.5s227.167 154.5 372.5 154.5z
M337 781c-77.333 -77.333 -116 -170.666 -116 -279.999s38.667 -202.333 116 -279s170.666 -115 279.999 -115s202.666 38.333 279.999 115s116 169.667 116 279s-38.667 202.666 -116 279.999s-170.666 116 -279.999 116s-202.666 -38.667 -279.999 -116zM490 1089
c3.33301 20 9.99902 39.998 19.999 59.998c22.667 47.333 56.334 87.666 101.001 120.999c20.667 20.667 35.667 40.667 45 60c4.66699 10 7 20.333 7 31c0 7.33301 -1.33301 15 -4 23c-6 18 -17 30.667 -33 38c-8.66699 4 -17 6 -25 6c-6 0 -12.333 -1 -19 -3
c-16.667 -6 -28.667 -17 -36 -33c-4.66699 -10 -7 -30.333 -7 -61l-103 5v31c0 20.667 5 41 15 61c20 40.667 51.333 68.334 94 83.001c19.333 6.66699 38.333 10 57 10c25.333 0 49.666 -5.66699 72.999 -17c40.667 -20 68.334 -50.667 83.001 -92
c6 -17.333 9 -34.666 9 -51.999c0 -22.667 -5.33301 -45 -16 -67c-18 -36.667 -46.667 -70.667 -86 -102c-26.667 -23.333 -47 -49.666 -61 -78.999c-4.66699 -9.33301 -8 -18.333 -10 -27z" />
    <glyph glyph-name="uni1ED0" unicode="&#x1ed0;" horiz-adv-x="1805" 
d="M1452 1309.5c152 -151.667 228 -334.834 228 -549.501s-76 -397.834 -228 -549.501s-335.333 -227.5 -550 -227.5s-397.834 75.833 -549.501 227.5s-227.5 334.834 -227.5 549.501s75.833 397.834 227.5 549.501s334.834 227.5 549.501 227.5s398 -75.833 550 -227.5z
M902 1409c-178.667 0 -331.334 -63.333 -458.001 -190s-190 -279.667 -190 -459s63.333 -332.5 190 -459.5s279.334 -190.5 458.001 -190.5c179.333 0 332.333 63.5 459 190.5s190 280.167 190 459.5s-63.333 332.333 -190 459s-279.667 190 -459 190zM1460 2062l-283 -216
h-133l188 216h228zM956 1885l264 -260h-157l-163 126l-155 -126h-156l253 260h114z" />
    <glyph glyph-name="uni1ED1" unicode="&#x1ed1;" horiz-adv-x="1234" 
d="M617 1029c146 0 270.333 -51.5 373 -154.5s154 -227.5 154 -373.5c0 -145.333 -51.333 -269.5 -154 -372.5s-227 -154.5 -373 -154.5c-145.333 0 -269.5 51.5 -372.5 154.5s-154.5 227.167 -154.5 372.5c0 146 51.5 270.5 154.5 373.5s227.167 154.5 372.5 154.5z
M337 781c-77.333 -77.333 -116 -170.666 -116 -279.999s38.667 -202.333 116 -279s170.666 -115 279.999 -115s202.666 38.333 279.999 115s116 169.667 116 279s-38.667 202.666 -116 279.999s-170.666 116 -279.999 116s-202.666 -38.667 -279.999 -116zM1175 1539
l-283 -216h-133l188 216h228zM671 1362l264 -259h-157l-163 125l-155 -125h-157l254 259h114z" />
    <glyph glyph-name="uni1ED2" unicode="&#x1ed2;" horiz-adv-x="1805" 
d="M1452 1309.5c152 -151.667 228 -334.834 228 -549.501s-76 -397.834 -228 -549.501s-335.333 -227.5 -550 -227.5s-397.834 75.833 -549.501 227.5s-227.5 334.834 -227.5 549.501s75.833 397.834 227.5 549.501s334.834 227.5 549.501 227.5s398 -75.833 550 -227.5z
M902 1409c-178.667 0 -331.334 -63.333 -458.001 -190s-190 -279.667 -190 -459s63.333 -332.5 190 -459.5s279.334 -190.5 458.001 -190.5c179.333 0 332.333 63.5 459 190.5s190 280.167 190 459.5s-63.333 332.333 -190 459s-279.667 190 -459 190zM1035 2052l188 -216
h-133l-283 216h228zM956 1885l264 -260h-157l-163 126l-155 -126h-156l253 260h114z" />
    <glyph glyph-name="uni1ED3" unicode="&#x1ed3;" horiz-adv-x="1234" 
d="M617 1029c146 0 270.333 -51.5 373 -154.5s154 -227.5 154 -373.5c0 -145.333 -51.333 -269.5 -154 -372.5s-227 -154.5 -373 -154.5c-145.333 0 -269.5 51.5 -372.5 154.5s-154.5 227.167 -154.5 372.5c0 146 51.5 270.5 154.5 373.5s227.167 154.5 372.5 154.5z
M337 781c-77.333 -77.333 -116 -170.666 -116 -279.999s38.667 -202.333 116 -279s170.666 -115 279.999 -115s202.666 38.333 279.999 115s116 169.667 116 279s-38.667 202.666 -116 279.999s-170.666 116 -279.999 116s-202.666 -38.667 -279.999 -116zM758 1529
l189 -216h-133l-283 216h227zM671 1362l264 -259h-157l-163 125l-155 -125h-157l254 259h114z" />
    <glyph glyph-name="uni1ED4" unicode="&#x1ed4;" horiz-adv-x="1805" 
d="M1452 1309.5c152 -151.667 228 -334.834 228 -549.501s-76 -397.834 -228 -549.501s-335.333 -227.5 -550 -227.5s-397.834 75.833 -549.501 227.5s-227.5 334.834 -227.5 549.501s75.833 397.834 227.5 549.501s334.834 227.5 549.501 227.5s398 -75.833 550 -227.5z
M902 1409c-178.667 0 -331.334 -63.333 -458.001 -190s-190 -279.667 -190 -459s63.333 -332.5 190 -459.5s279.334 -190.5 458.001 -190.5c179.333 0 332.333 63.5 459 190.5s190 280.167 190 459.5s-63.333 332.333 -190 459s-279.667 190 -459 190zM1077 1817
c0 30 7.33203 59.3311 21.999 87.998c22.667 47.333 56.334 87.666 101.001 120.999c20.667 20.667 35.667 40.667 45 60.001c4.66699 10 7 20.333 7 31c0 7.33301 -1.33301 15 -4 23c-6 18 -17 30.667 -33 38c-8.66699 4 -17 6 -25 6c-6 0 -12.333 -1 -19 -3
c-16.667 -6 -28.667 -17 -36 -33c-4.66699 -10 -7 -30.333 -7 -61l-103 5v31c0 20.667 5 41 15 61c20 40.667 51.333 68.334 94 83c19.333 6.66699 38.333 10 57 10c25.333 0 49.666 -5.66699 72.999 -17c40.667 -20 68.334 -50.667 83.001 -92
c6 -17.333 9 -34.666 9 -51.999c0 -22.667 -5.33301 -45 -16 -67c-18 -36.667 -46.667 -70.667 -86 -102c-26.667 -23.333 -47 -49.666 -61 -78.999c-5.33301 -11.333 -9 -22.333 -11 -33zM955.999 1885l264 -260h-157l-163 126l-155 -126h-156l253 260h114z" />
    <glyph glyph-name="uni1ED5" unicode="&#x1ed5;" horiz-adv-x="1234" 
d="M617 1029c146 0 270.333 -51.5 373 -154.5s154 -227.5 154 -373.5c0 -145.333 -51.333 -269.5 -154 -372.5s-227 -154.5 -373 -154.5c-145.333 0 -269.5 51.5 -372.5 154.5s-154.5 227.167 -154.5 372.5c0 146 51.5 270.5 154.5 373.5s227.167 154.5 372.5 154.5z
M337 781c-77.333 -77.333 -116 -170.666 -116 -279.999s38.667 -202.333 116 -279s170.666 -115 279.999 -115s202.666 38.333 279.999 115s116 169.667 116 279s-38.667 202.666 -116 279.999s-170.666 116 -279.999 116s-202.666 -38.667 -279.999 -116zM771 1320
c3.33301 20 9.99902 39.998 19.999 59.998c22.667 47.333 56.334 87.666 101.001 120.999c20.667 20.667 35.667 40.667 45 60c4.66699 10 7 20.333 7 31c0 7.33301 -1.33301 15 -4 23c-6 18 -17 30.667 -33 38c-8.66699 4 -17 6 -25 6c-6 0 -12.333 -1 -19 -3
c-16.667 -6 -28.667 -17 -36 -33c-4.66699 -10 -7 -30.333 -7 -61l-103 5v31c0 20.667 5 41 15 61c20 40.667 51.333 68.334 94 83.001c19.333 6.66699 38.333 10 57 10c25.333 0 49.666 -5.66699 72.999 -17c40.667 -20 68.334 -50.667 83.001 -92
c6 -17.333 9 -34.666 9 -51.999c0 -22.667 -5.33301 -45 -16 -67c-18 -36.667 -46.667 -70.667 -86 -102c-26.667 -23.333 -47 -49.666 -61 -78.999c-4.66699 -9.33301 -8 -18.333 -10 -27zM670.999 1362l264 -259h-157l-163 125l-155 -125h-157l254 259h114z" />
    <glyph glyph-name="uni1ED6" unicode="&#x1ed6;" horiz-adv-x="1805" 
d="M1452 1309.5c152 -151.667 228 -334.834 228 -549.501s-76 -397.834 -228 -549.501s-335.333 -227.5 -550 -227.5s-397.834 75.833 -549.501 227.5s-227.5 334.834 -227.5 549.501s75.833 397.834 227.5 549.501s334.834 227.5 549.501 227.5s398 -75.833 550 -227.5z
M902 1409c-178.667 0 -331.334 -63.333 -458.001 -190s-190 -279.667 -190 -459s63.333 -332.5 190 -459.5s279.334 -190.5 458.001 -190.5c179.333 0 332.333 63.5 459 190.5s190 280.167 190 459.5s-63.333 332.333 -190 459s-279.667 190 -459 190zM981 2070
c42 -34 75.668 -50.999 101.001 -50.999h4c19.333 1.33301 35.333 27.333 48 78h106c-17.333 -105.333 -54.333 -166.333 -111 -183c-14.667 -4.66699 -29.334 -7 -44.001 -7c-40.667 0 -80.667 15.667 -120 47c-42 33.333 -75.333 50 -100 50h-4
c-19.333 -1.33301 -35.333 -27 -48 -77h-108c18 105.333 55.333 166.333 112 182.999c15.333 4 30.333 6 45 6c40 0 79.667 -15.333 119 -46zM956.001 1885l264 -260h-157l-163 126l-155 -126h-156l253 260h114z" />
    <glyph glyph-name="uni1ED7" unicode="&#x1ed7;" horiz-adv-x="1234" 
d="M617 1029c146 0 270.333 -51.5 373 -154.5s154 -227.5 154 -373.5c0 -145.333 -51.333 -269.5 -154 -372.5s-227 -154.5 -373 -154.5c-145.333 0 -269.5 51.5 -372.5 154.5s-154.5 227.167 -154.5 372.5c0 146 51.5 270.5 154.5 373.5s227.167 154.5 372.5 154.5z
M337 781c-77.333 -77.333 -116 -170.666 -116 -279.999s38.667 -202.333 116 -279s170.666 -115 279.999 -115s202.666 38.333 279.999 115s116 169.667 116 279s-38.667 202.666 -116 279.999s-170.666 116 -279.999 116s-202.666 -38.667 -279.999 -116zM686 1545
c42 -34 75.667 -51 101 -51h4c19.333 1.33301 35 27.333 47 78h107c-17.333 -105.333 -54.333 -166.333 -111 -183c-14.667 -4.66699 -29.667 -7 -45 -7c-40 0 -79.667 15.667 -119 47c-42 33.333 -75.667 50 -101 50h-4c-19.333 -1.33301 -35 -27 -47 -77h-108
c18 105.333 55.333 166.333 112 183c14.667 4 29.667 6 45 6c40 0 79.667 -15.333 119 -46zM671 1362l264 -259h-157l-163 125l-155 -125h-157l254 259h114z" />
    <glyph glyph-name="uni1ED8" unicode="&#x1ed8;" horiz-adv-x="1805" 
d="M1452 1309.5c152 -151.667 228 -334.834 228 -549.501s-76 -397.834 -228 -549.501s-335.333 -227.5 -550 -227.5s-397.834 75.833 -549.501 227.5s-227.5 334.834 -227.5 549.501s75.833 397.834 227.5 549.501s334.834 227.5 549.501 227.5s398 -75.833 550 -227.5z
M902 1409c-178.667 0 -331.334 -63.333 -458.001 -190s-190 -279.667 -190 -459s63.333 -332.5 190 -459.5s279.334 -190.5 458.001 -190.5c179.333 0 332.333 63.5 459 190.5s190 280.167 190 459.5s-63.333 332.333 -190 459s-279.667 190 -459 190zM977 -123.5
c20.667 -20.333 31 -44.833 31 -73.5c0 -29.333 -10.333 -54.166 -31 -74.499s-45.334 -30.5 -74.001 -30.5s-53.334 10.167 -74.001 30.5s-31 45.166 -31 74.499c0 28.667 10.333 53.167 31 73.5s45.334 30.5 74.001 30.5s53.334 -10.167 74.001 -30.5zM956 1885l264 -260
h-157l-163 126l-155 -126h-156l253 260h114z" />
    <glyph glyph-name="uni1ED9" unicode="&#x1ed9;" horiz-adv-x="1234" 
d="M617 1029c146 0 270.333 -51.5 373 -154.5s154 -227.5 154 -373.5c0 -145.333 -51.333 -269.5 -154 -372.5s-227 -154.5 -373 -154.5c-145.333 0 -269.5 51.5 -372.5 154.5s-154.5 227.167 -154.5 372.5c0 146 51.5 270.5 154.5 373.5s227.167 154.5 372.5 154.5z
M337 781c-77.333 -77.333 -116 -170.666 -116 -279.999s38.667 -202.333 116 -279s170.666 -115 279.999 -115s202.666 38.333 279.999 115s116 169.667 116 279s-38.667 202.666 -116 279.999s-170.666 116 -279.999 116s-202.666 -38.667 -279.999 -116zM691 -123.5
c20.667 -20.333 31 -44.833 31 -73.5c0 -29.333 -10.333 -54.166 -31 -74.499s-45.334 -30.5 -74.001 -30.5s-53.334 10.167 -74.001 30.5s-31 45.166 -31 74.499c0 28.667 10.333 53.167 31 73.5s45.334 30.5 74.001 30.5s53.334 -10.167 74.001 -30.5zM671 1362l264 -259
h-157l-163 125l-155 -125h-157l254 259h114z" />
    <glyph glyph-name="uni1EDA" unicode="&#x1eda;" horiz-adv-x="1805" 
d="M902 1409c-178.667 0 -331.334 -63.333 -458.001 -190s-190 -279.667 -190 -459s63.333 -332.5 190 -459.5s279.334 -190.5 458.001 -190.5c179.333 0 332.333 63.5 459 190.5s190 280.167 190 459.5s-63.333 332.333 -190 459s-279.667 190 -459 190zM1169 1851
l-283 -216h-133l188 216h228zM1498 1260c121.333 -141.333 182 -308 182 -500c0 -214.667 -76 -397.834 -228 -549.501s-335.333 -227.5 -550 -227.5s-397.834 75.833 -549.501 227.5s-227.5 334.834 -227.5 549.501s75.833 397.834 227.5 549.501
s334.834 227.5 549.501 227.5s398 -75.667 550 -227c4 -4.66699 8.33301 -9.33398 13 -14.001l59 221h132l-124 -257h-34z" />
    <glyph glyph-name="uni1EDB" unicode="&#x1edb;" horiz-adv-x="1234" 
d="M337 781c-77.333 -77.333 -116 -170.666 -116 -279.999s38.667 -202.333 116 -279s170.666 -115 279.999 -115s202.666 38.333 279.999 115s116 169.667 116 279s-38.667 202.666 -116 279.999s-170.666 116 -279.999 116s-202.666 -38.667 -279.999 -116zM884 1328
l-283 -216h-133l188 216h228zM1099 719c30 -66.667 45 -139.333 45 -218c0 -145.333 -51.333 -269.5 -154 -372.5s-227 -154.5 -373 -154.5c-145.333 0 -269.5 51.5 -372.5 154.5s-154.5 227.167 -154.5 372.5c0 146 51.5 270.5 154.5 373.5s227.167 154.5 372.5 154.5
c146 0 270.333 -51.333 373 -154c36 -36.667 65.667 -75.667 89 -117l59 218h132l-124 -257h-47z" />
    <glyph glyph-name="uni1EDC" unicode="&#x1edc;" horiz-adv-x="1805" 
d="M902 1409c-178.667 0 -331.334 -63.333 -458.001 -190s-190 -279.667 -190 -459s63.333 -332.5 190 -459.5s279.334 -190.5 458.001 -190.5c179.333 0 332.333 63.5 459 190.5s190 280.167 190 459.5s-63.333 332.333 -190 459s-279.667 190 -459 190zM864 1851l188 -216
h-133l-283 216h228zM1498 1260c121.333 -141.333 182 -308 182 -500c0 -214.667 -76 -397.834 -228 -549.501s-335.333 -227.5 -550 -227.5s-397.834 75.833 -549.501 227.5s-227.5 334.834 -227.5 549.501s75.833 397.834 227.5 549.501s334.834 227.5 549.501 227.5
s398 -75.667 550 -227c4 -4.66699 8.33301 -9.33398 13 -14.001l59 221h132l-124 -257h-34z" />
    <glyph glyph-name="uni1EDD" unicode="&#x1edd;" horiz-adv-x="1234" 
d="M337 781c-77.333 -77.333 -116 -170.666 -116 -279.999s38.667 -202.333 116 -279s170.666 -115 279.999 -115s202.666 38.333 279.999 115s116 169.667 116 279s-38.667 202.666 -116 279.999s-170.666 116 -279.999 116s-202.666 -38.667 -279.999 -116zM578 1328
l189 -216h-133l-283 216h227zM1099 719c30 -66.667 45 -139.333 45 -218c0 -145.333 -51.333 -269.5 -154 -372.5s-227 -154.5 -373 -154.5c-145.333 0 -269.5 51.5 -372.5 154.5s-154.5 227.167 -154.5 372.5c0 146 51.5 270.5 154.5 373.5s227.167 154.5 372.5 154.5
c146 0 270.333 -51.333 373 -154c36 -36.667 65.667 -75.667 89 -117l59 218h132l-124 -257h-47z" />
    <glyph glyph-name="uni1EDE" unicode="&#x1ede;" horiz-adv-x="1805" 
d="M902 1409c-178.667 0 -331.334 -63.333 -458.001 -190s-190 -279.667 -190 -459s63.333 -332.5 190 -459.5s279.334 -190.5 458.001 -190.5c179.333 0 332.333 63.5 459 190.5s190 280.167 190 459.5s-63.333 332.333 -190 459s-279.667 190 -459 190zM806 1606
c0 30 7.33203 59.3311 21.999 87.998c22.667 47.333 56.334 87.666 101.001 120.999c20.667 20.667 35.667 40.667 45 60c4.66699 10 7 20.333 7 31c0 7.33301 -1.33301 15 -4 23c-6 18 -17 30.667 -33 38c-8.66699 4 -17 6 -25 6c-6 0 -12.333 -1 -19 -3
c-16.667 -6 -28.667 -17 -36 -33c-4.66699 -10 -7 -30.333 -7 -61l-103 5v31c0 20.667 5 41 15 61c20 40.667 51.333 68.334 94 83.001c19.333 6.66699 38.333 10 57 10c25.333 0 49.666 -5.66699 72.999 -17c40.667 -20 68.334 -50.667 83.001 -92
c6 -17.333 9 -34.666 9 -51.999c0 -22.667 -5.33301 -45 -16 -67c-18 -36.667 -46.667 -70.667 -86 -102c-26.667 -23.333 -47 -49.666 -61 -78.999c-5.33301 -11.333 -9 -22.333 -11 -33zM1498 1260c121.333 -141.333 182 -308 182 -500
c0 -214.667 -76 -397.834 -228 -549.501s-335.333 -227.5 -550 -227.5s-397.834 75.833 -549.501 227.5s-227.5 334.834 -227.5 549.501s75.833 397.834 227.5 549.501s334.834 227.5 549.501 227.5s398 -75.667 550 -227c4 -4.66699 8.33301 -9.33398 13 -14.001l59 221
h132l-124 -257h-34z" />
    <glyph glyph-name="uni1EDF" unicode="&#x1edf;" horiz-adv-x="1234" 
d="M337 781c-77.333 -77.333 -116 -170.666 -116 -279.999s38.667 -202.333 116 -279s170.666 -115 279.999 -115s202.666 38.333 279.999 115s116 169.667 116 279s-38.667 202.666 -116 279.999s-170.666 116 -279.999 116s-202.666 -38.667 -279.999 -116zM490 1089
c3.33301 20 9.99902 39.998 19.999 59.998c22.667 47.333 56.334 87.666 101.001 120.999c20.667 20.667 35.667 40.667 45 60c4.66699 10 7 20.333 7 31c0 7.33301 -1.33301 15 -4 23c-6 18 -17 30.667 -33 38c-8.66699 4 -17 6 -25 6c-6 0 -12.333 -1 -19 -3
c-16.667 -6 -28.667 -17 -36 -33c-4.66699 -10 -7 -30.333 -7 -61l-103 5v31c0 20.667 5 41 15 61c20 40.667 51.333 68.334 94 83.001c19.333 6.66699 38.333 10 57 10c25.333 0 49.666 -5.66699 72.999 -17c40.667 -20 68.334 -50.667 83.001 -92
c6 -17.333 9 -34.666 9 -51.999c0 -22.667 -5.33301 -45 -16 -67c-18 -36.667 -46.667 -70.667 -86 -102c-26.667 -23.333 -47 -49.666 -61 -78.999c-4.66699 -9.33301 -8 -18.333 -10 -27zM1099 718.998c30 -66.667 45 -139.333 45 -218
c0 -145.333 -51.333 -269.5 -154 -372.5s-227 -154.5 -373 -154.5c-145.333 0 -269.5 51.5 -372.5 154.5s-154.5 227.167 -154.5 372.5c0 146 51.5 270.5 154.5 373.5s227.167 154.5 372.5 154.5c146 0 270.333 -51.333 373 -154c36 -36.667 65.667 -75.667 89 -117l59 218
h132l-124 -257h-47z" />
    <glyph glyph-name="uni1EE0" unicode="&#x1ee0;" horiz-adv-x="1805" 
d="M902 1409c-178.667 0 -331.334 -63.333 -458.001 -190s-190 -279.667 -190 -459s63.333 -332.5 190 -459.5s279.334 -190.5 458.001 -190.5c179.333 0 332.333 63.5 459 190.5s190 280.167 190 459.5s-63.333 332.333 -190 459s-279.667 190 -459 190zM911 1789
c42 -34 75.668 -51 101.001 -51h4c19.333 1.33301 35.333 27.333 48 78h106c-17.333 -105.333 -54.333 -166.333 -111 -183c-14.667 -4.66699 -29.334 -7 -44.001 -7c-40.667 0 -80.667 15.667 -120 47c-42 33.333 -75.333 50 -100 50h-4
c-19.333 -1.33301 -35.333 -27 -48 -77h-108c18 105.333 55.333 166.333 112 183c15.333 4 30.333 6 45 6c40 0 79.667 -15.333 119 -46zM1498 1260c121.333 -141.333 182 -308 182 -500c0 -214.667 -76 -397.834 -228 -549.501s-335.333 -227.5 -550 -227.5
s-397.834 75.833 -549.501 227.5s-227.5 334.834 -227.5 549.501s75.833 397.834 227.5 549.501s334.834 227.5 549.501 227.5s398 -75.667 550 -227c4 -4.66699 8.33301 -9.33398 13 -14.001l59 221h132l-124 -257h-34z" />
    <glyph glyph-name="uni1EE1" unicode="&#x1ee1;" horiz-adv-x="1234" 
d="M337 781c-77.333 -77.333 -116 -170.666 -116 -279.999s38.667 -202.333 116 -279s170.666 -115 279.999 -115s202.666 38.333 279.999 115s116 169.667 116 279s-38.667 202.666 -116 279.999s-170.666 116 -279.999 116s-202.666 -38.667 -279.999 -116zM626 1294
c42 -34 75.667 -51 101 -51h4c19.333 1.33301 35 27.333 47 78h107c-17.333 -105.333 -54.333 -166.333 -111 -183c-14.667 -4.66699 -29.667 -7 -45 -7c-40 0 -79.667 15.667 -119 47c-42 33.333 -75.667 50 -101 50h-4c-19.333 -1.33301 -35 -27 -47 -77h-108
c18 105.333 55.333 166.333 112 183c14.667 4 29.667 6 45 6c40 0 79.667 -15.333 119 -46zM1099 719c30 -66.667 45 -139.333 45 -218c0 -145.333 -51.333 -269.5 -154 -372.5s-227 -154.5 -373 -154.5c-145.333 0 -269.5 51.5 -372.5 154.5s-154.5 227.167 -154.5 372.5
c0 146 51.5 270.5 154.5 373.5s227.167 154.5 372.5 154.5c146 0 270.333 -51.333 373 -154c36 -36.667 65.667 -75.667 89 -117l59 218h132l-124 -257h-47z" />
    <glyph glyph-name="uni1EE2" unicode="&#x1ee2;" horiz-adv-x="1805" 
d="M902 1409c-178.667 0 -331.334 -63.333 -458.001 -190s-190 -279.667 -190 -459s63.333 -332.5 190 -459.5s279.334 -190.5 458.001 -190.5c179.333 0 332.333 63.5 459 190.5s190 280.167 190 459.5s-63.333 332.333 -190 459s-279.667 190 -459 190zM977 -123.5
c20.667 -20.333 31 -44.833 31 -73.5c0 -29.333 -10.333 -54.166 -31 -74.499s-45.334 -30.5 -74.001 -30.5s-53.334 10.167 -74.001 30.5s-31 45.166 -31 74.499c0 28.667 10.333 53.167 31 73.5s45.334 30.5 74.001 30.5s53.334 -10.167 74.001 -30.5zM1498 1260
c121.333 -141.333 182 -308 182 -500c0 -214.667 -76 -397.834 -228 -549.501s-335.333 -227.5 -550 -227.5s-397.834 75.833 -549.501 227.5s-227.5 334.834 -227.5 549.501s75.833 397.834 227.5 549.501s334.834 227.5 549.501 227.5s398 -75.667 550 -227
c4 -4.66699 8.33301 -9.33398 13 -14.001l59 221h132l-124 -257h-34z" />
    <glyph glyph-name="uni1EE3" unicode="&#x1ee3;" horiz-adv-x="1234" 
d="M337 781c-77.333 -77.333 -116 -170.666 -116 -279.999s38.667 -202.333 116 -279s170.666 -115 279.999 -115s202.666 38.333 279.999 115s116 169.667 116 279s-38.667 202.666 -116 279.999s-170.666 116 -279.999 116s-202.666 -38.667 -279.999 -116zM691 -123.5
c20.667 -20.333 31 -44.833 31 -73.5c0 -29.333 -10.333 -54.166 -31 -74.499s-45.334 -30.5 -74.001 -30.5s-53.334 10.167 -74.001 30.5s-31 45.166 -31 74.499c0 28.667 10.333 53.167 31 73.5s45.334 30.5 74.001 30.5s53.334 -10.167 74.001 -30.5zM1099 719
c30 -66.667 45 -139.333 45 -218c0 -145.333 -51.333 -269.5 -154 -372.5s-227 -154.5 -373 -154.5c-145.333 0 -269.5 51.5 -372.5 154.5s-154.5 227.167 -154.5 372.5c0 146 51.5 270.5 154.5 373.5s227.167 154.5 372.5 154.5c146 0 270.333 -51.333 373 -154
c36 -36.667 65.667 -75.667 89 -117l59 218h132l-124 -257h-47z" />
    <glyph glyph-name="uni1EE4" unicode="&#x1ee4;" horiz-adv-x="1305" 
d="M1028 1516h127.001v-1081c-16 -118.667 -65 -219 -147 -301c-98 -98 -216.333 -147 -355 -147c-139.333 0 -258 49.167 -356 147.5s-147 216.5 -147 354.5v1027h128v-1027c0 -102.667 36.667 -190.667 110 -264s161.666 -110 264.999 -110c104 0 192.5 36.667 265.5 110
s109.5 161.333 109.5 264v1027zM727.001 -123.5c20.667 -20.333 31 -44.833 31 -73.5c0 -29.333 -10.333 -54.166 -31 -74.499s-45.334 -30.5 -74.001 -30.5s-53.334 10.167 -74.001 30.5s-31 45.166 -31 74.499c0 28.667 10.333 53.167 31 73.5s45.334 30.5 74.001 30.5
s53.334 -10.167 74.001 -30.5z" />
    <glyph glyph-name="uni1EE5" unicode="&#x1ee5;" horiz-adv-x="1079" 
d="M545 -13c-119.333 0 -214.5 35.5 -285.5 106.5s-107.5 160.5 -109.5 268.5v587h127v-579c0 -70.667 25.667 -130.667 77 -180c50.667 -50.667 114 -76 190 -76c70 0 130.5 25 181.5 75s76.5 110.333 76.5 181v579h127v-587c-2 -108 -38.333 -197.333 -109 -268
c-71.333 -71.333 -163 -107 -275 -107zM614 -123.5c20.667 -20.333 31 -44.833 31 -73.5c0 -29.333 -10.333 -54.166 -31 -74.499s-45.334 -30.5 -74.001 -30.5s-53.334 10.167 -74.001 30.5s-31 45.166 -31 74.499c0 28.667 10.333 53.167 31 73.5s45.334 30.5 74.001 30.5
s53.334 -10.167 74.001 -30.5z" />
    <glyph glyph-name="uni1EE6" unicode="&#x1ee6;" horiz-adv-x="1305" 
d="M1028 1516h127.001v-1081c-16 -118.667 -65 -219 -147 -301c-98 -98 -216.333 -147 -355 -147c-139.333 0 -258 49.167 -356 147.5s-147 216.5 -147 354.5v1027h128v-1027c0 -102.667 36.667 -190.667 110 -264s161.666 -110 264.999 -110c104 0 192.5 36.667 265.5 110
s109.5 161.333 109.5 264v1027zM579.001 1606c0 30 7.33203 59.3311 21.999 87.998c22.667 47.333 56.334 87.666 101.001 120.999c20.667 20.667 35.667 40.667 45 60c4.66699 10 7 20.333 7 31c0 7.33301 -1.33301 15 -4 23c-6 18 -17 30.667 -33 38
c-8.66699 4 -17 6 -25 6c-6 0 -12.333 -1 -19 -3c-16.667 -6 -28.667 -17 -36 -33c-4.66699 -10 -7 -30.333 -7 -61l-103 5v31c0 20.667 5 41 15 61c20 40.667 51.333 68.334 94 83.001c19.333 6.66699 38.333 10 57 10c25.333 0 49.666 -5.66699 72.999 -17
c40.667 -20 68.334 -50.667 83.001 -92c6 -17.333 9 -34.666 9 -51.999c0 -22.667 -5.33301 -45 -16 -67c-18 -36.667 -46.667 -70.667 -86 -102c-26.667 -23.333 -47 -49.666 -61 -78.999c-5.33301 -11.333 -9 -22.333 -11 -33z" />
    <glyph glyph-name="uni1EE7" unicode="&#x1ee7;" horiz-adv-x="1079" 
d="M545 -13c-119.333 0 -214.5 35.5 -285.5 106.5s-107.5 160.5 -109.5 268.5v587h127v-579c0 -70.667 25.667 -130.667 77 -180c50.667 -50.667 114 -76 190 -76c70 0 130.5 25 181.5 75s76.5 110.333 76.5 181v579h127v-587c-2 -108 -38.333 -197.333 -109 -268
c-71.333 -71.333 -163 -107 -275 -107zM480 1089c3.33301 20 9.99902 39.998 19.999 59.998c22.667 47.333 56.334 87.666 101.001 120.999c20.667 20.667 35.667 40.667 45 60c4.66699 10 7 20.333 7 31c0 7.33301 -1.33301 15 -4 23c-6 18 -17 30.667 -33 38
c-8.66699 4 -17 6 -25 6c-6 0 -12.333 -1 -19 -3c-16.667 -6 -28.667 -17 -36 -33c-4.66699 -10 -7 -30.333 -7 -61l-103 5v31c0 20.667 5 41 15 61c20 40.667 51.333 68.334 94 83.001c19.333 6.66699 38.333 10 57 10c25.333 0 49.666 -5.66699 72.999 -17
c40.667 -20 68.334 -50.667 83.001 -92c6 -17.333 9 -34.666 9 -51.999c0 -22.667 -5.33301 -45 -16 -67c-18 -36.667 -46.667 -70.667 -86 -102c-26.667 -23.333 -47 -49.666 -61 -78.999c-4.66699 -9.33301 -8 -18.333 -10 -27z" />
    <glyph glyph-name="uni1EE8" unicode="&#x1ee8;" horiz-adv-x="1305" 
d="M920 1851l-283 -216h-133l188 216h228zM1155 1260l0.000976562 -825c-16 -118.667 -65 -219 -147 -301c-98 -98 -216.333 -147 -355 -147c-139.333 0 -258 49.167 -356 147.5s-147 216.5 -147 354.5v1027h128v-1027c0 -102.667 36.667 -190.667 110 -264
s161.666 -110 264.999 -110c104 0 192.5 36.667 265.5 110s109.5 161.333 109.5 264v1027h127v-159l43 160h132l-124 -257h-51z" />
    <glyph glyph-name="uni1EE9" unicode="&#x1ee9;" horiz-adv-x="1079" 
d="M807 1328l-283 -216h-134l189 216h228zM929 692v-330c-2 -108 -38.333 -197.333 -109 -268c-71.333 -71.333 -163 -107 -275 -107c-119.333 0 -214.5 35.5 -285.5 106.5s-107.5 160.5 -109.5 268.5v587h127v-579c0 -70.667 25.667 -130.667 77 -180
c50.667 -50.667 114 -76 190 -76c70 0 130.5 25 181.5 75s76.5 110.333 76.5 181v579h127v-142l38 142h132l-124 -257h-46z" />
    <glyph glyph-name="uni1EEA" unicode="&#x1eea;" horiz-adv-x="1305" 
d="M613 1851l189 -216h-133l-283 216h227zM1155 1260l0.000976562 -825c-16 -118.667 -65 -219 -147 -301c-98 -98 -216.333 -147 -355 -147c-139.333 0 -258 49.167 -356 147.5s-147 216.5 -147 354.5v1027h128v-1027c0 -102.667 36.667 -190.667 110 -264
s161.666 -110 264.999 -110c104 0 192.5 36.667 265.5 110s109.5 161.333 109.5 264v1027h127v-159l43 160h132l-124 -257h-51z" />
    <glyph glyph-name="uni1EEB" unicode="&#x1eeb;" horiz-adv-x="1079" 
d="M500 1328l189 -216h-133l-283 216h227zM929 692v-330c-2 -108 -38.333 -197.333 -109 -268c-71.333 -71.333 -163 -107 -275 -107c-119.333 0 -214.5 35.5 -285.5 106.5s-107.5 160.5 -109.5 268.5v587h127v-579c0 -70.667 25.667 -130.667 77 -180
c50.667 -50.667 114 -76 190 -76c70 0 130.5 25 181.5 75s76.5 110.333 76.5 181v579h127v-142l38 142h132l-124 -257h-46z" />
    <glyph glyph-name="uni1EEC" unicode="&#x1eec;" horiz-adv-x="1305" 
d="M579 1606c0 30 7.33203 59.3311 21.999 87.998c22.667 47.333 56.334 87.666 101.001 120.999c20.667 20.667 35.667 40.667 45 60c4.66699 10 7 20.333 7 31c0 7.33301 -1.33301 15 -4 23c-6 18 -17 30.667 -33 38c-8.66699 4 -17 6 -25 6c-6 0 -12.333 -1 -19 -3
c-16.667 -6 -28.667 -17 -36 -33c-4.66699 -10 -7 -30.333 -7 -61l-103 5v31c0 20.667 5 41 15 61c20 40.667 51.333 68.334 94 83.001c19.333 6.66699 38.333 10 57 10c25.333 0 49.666 -5.66699 72.999 -17c40.667 -20 68.334 -50.667 83.001 -92
c6 -17.333 9 -34.666 9 -51.999c0 -22.667 -5.33301 -45 -16 -67c-18 -36.667 -46.667 -70.667 -86 -102c-26.667 -23.333 -47 -49.666 -61 -78.999c-5.33301 -11.333 -9 -22.333 -11 -33zM1155 1260l0.000976562 -825c-16 -118.667 -65 -219 -147 -301
c-98 -98 -216.333 -147 -355 -147c-139.333 0 -258 49.167 -356 147.5s-147 216.5 -147 354.5v1027h128v-1027c0 -102.667 36.667 -190.667 110 -264s161.666 -110 264.999 -110c104 0 192.5 36.667 265.5 110s109.5 161.333 109.5 264v1027h127v-159l43 160h132l-124 -257
h-51z" />
    <glyph glyph-name="uni1EED" unicode="&#x1eed;" horiz-adv-x="1079" 
d="M480 1089c3.33301 20 9.99902 39.998 19.999 59.998c22.667 47.333 56.334 87.666 101.001 120.999c20.667 20.667 35.667 40.667 45 60c4.66699 10 7 20.333 7 31c0 7.33301 -1.33301 15 -4 23c-6 18 -17 30.667 -33 38c-8.66699 4 -17 6 -25 6c-6 0 -12.333 -1 -19 -3
c-16.667 -6 -28.667 -17 -36 -33c-4.66699 -10 -7 -30.333 -7 -61l-103 5v31c0 20.667 5 41 15 61c20 40.667 51.333 68.334 94 83.001c19.333 6.66699 38.333 10 57 10c25.333 0 49.666 -5.66699 72.999 -17c40.667 -20 68.334 -50.667 83.001 -92
c6 -17.333 9 -34.666 9 -51.999c0 -22.667 -5.33301 -45 -16 -67c-18 -36.667 -46.667 -70.667 -86 -102c-26.667 -23.333 -47 -49.666 -61 -78.999c-4.66699 -9.33301 -8 -18.333 -10 -27zM928.999 691.998v-330c-2 -108 -38.333 -197.333 -109 -268
c-71.333 -71.333 -163 -107 -275 -107c-119.333 0 -214.5 35.5 -285.5 106.5s-107.5 160.5 -109.5 268.5v587h127v-579c0 -70.667 25.667 -130.667 77 -180c50.667 -50.667 114 -76 190 -76c70 0 130.5 25 181.5 75s76.5 110.333 76.5 181v579h127v-142l38 142h132
l-124 -257h-46z" />
    <glyph glyph-name="uni1EEE" unicode="&#x1eee;" horiz-adv-x="1305" 
d="M670 1789c42 -34 75.668 -51 101.001 -51h4c19.333 1.33301 35.333 27.333 48 78h106c-17.333 -105.333 -54.333 -166.333 -111 -183c-14.667 -4.66699 -29.334 -7 -44.001 -7c-40.667 0 -80.667 15.667 -120 47c-42 33.333 -75.333 50 -100 50h-4
c-19.333 -1.33301 -35.333 -27 -48 -77h-108c18 105.333 55.333 166.333 112 183c15.333 4 30.333 6 45 6c40 0 79.667 -15.333 119 -46zM1155 1260l0.000976562 -825c-16 -118.667 -65 -219 -147 -301c-98 -98 -216.333 -147 -355 -147c-139.333 0 -258 49.167 -356 147.5
s-147 216.5 -147 354.5v1027h128v-1027c0 -102.667 36.667 -190.667 110 -264s161.666 -110 264.999 -110c104 0 192.5 36.667 265.5 110s109.5 161.333 109.5 264v1027h127v-159l43 160h132l-124 -257h-51z" />
    <glyph glyph-name="uni1EEF" unicode="&#x1eef;" horiz-adv-x="1079" 
d="M556 1294c42 -34 75.667 -51 101 -51h4c19.333 1.33301 35 27.333 47 78h107c-17.333 -105.333 -54.333 -166.333 -111 -183c-14.667 -4.66699 -29.667 -7 -45 -7c-40 0 -79.667 15.667 -119 47c-42 33.333 -75.667 50 -101 50h-4c-19.333 -1.33301 -35 -27 -47 -77h-108
c18 105.333 55.333 166.333 112 183c14.667 4 29.667 6 45 6c40 0 79.667 -15.333 119 -46zM929 692v-330c-2 -108 -38.333 -197.333 -109 -268c-71.333 -71.333 -163 -107 -275 -107c-119.333 0 -214.5 35.5 -285.5 106.5s-107.5 160.5 -109.5 268.5v587h127v-579
c0 -70.667 25.667 -130.667 77 -180c50.667 -50.667 114 -76 190 -76c70 0 130.5 25 181.5 75s76.5 110.333 76.5 181v579h127v-142l38 142h132l-124 -257h-46z" />
    <glyph glyph-name="uni1EF0" unicode="&#x1ef0;" horiz-adv-x="1305" 
d="M727 -123.5c20.667 -20.333 31 -44.833 31 -73.5c0 -29.333 -10.333 -54.166 -31 -74.499s-45.334 -30.5 -74.001 -30.5s-53.334 10.167 -74.001 30.5s-31 45.166 -31 74.499c0 28.667 10.333 53.167 31 73.5s45.334 30.5 74.001 30.5s53.334 -10.167 74.001 -30.5z
M1155 1260l0.000976562 -825c-16 -118.667 -65 -219 -147 -301c-98 -98 -216.333 -147 -355 -147c-139.333 0 -258 49.167 -356 147.5s-147 216.5 -147 354.5v1027h128v-1027c0 -102.667 36.667 -190.667 110 -264s161.666 -110 264.999 -110c104 0 192.5 36.667 265.5 110
s109.5 161.333 109.5 264v1027h127v-159l43 160h132l-124 -257h-51z" />
    <glyph glyph-name="uni1EF1" unicode="&#x1ef1;" horiz-adv-x="1079" 
d="M614 -123.5c20.667 -20.333 31 -44.833 31 -73.5c0 -29.333 -10.333 -54.166 -31 -74.499s-45.334 -30.5 -74.001 -30.5s-53.334 10.167 -74.001 30.5s-31 45.166 -31 74.499c0 28.667 10.333 53.167 31 73.5s45.334 30.5 74.001 30.5s53.334 -10.167 74.001 -30.5z
M929 692v-330c-2 -108 -38.333 -197.333 -109 -268c-71.333 -71.333 -163 -107 -275 -107c-119.333 0 -214.5 35.5 -285.5 106.5s-107.5 160.5 -109.5 268.5v587h127v-579c0 -70.667 25.667 -130.667 77 -180c50.667 -50.667 114 -76 190 -76c70 0 130.5 25 181.5 75
s76.5 110.333 76.5 181v579h127v-142l38 142h132l-124 -257h-46z" />
    <glyph glyph-name="Ygrave" unicode="&#x1ef2;" horiz-adv-x="1272" 
d="M572 611l-522 905h146l440 -763l440 763h146l-523 -905v-611h-127v611zM613 1851l189 -216h-133l-283 216h227z" />
    <glyph glyph-name="ygrave" unicode="&#x1ef3;" horiz-adv-x="1007" 
d="M313 -345h-129l254 534l-363 758h143l286 -617l286 617h141z" />
    <glyph glyph-name="uni1EF4" unicode="&#x1ef4;" horiz-adv-x="1272" 
d="M572 611l-522 905h146l440 -763l440 763h146l-523 -905v-611h-127v611zM710 -123.5c20.667 -20.333 31 -44.833 31 -73.5c0 -29.333 -10.333 -54.166 -31 -74.499s-45.334 -30.5 -74.001 -30.5s-53.334 10.167 -74.001 30.5s-31 45.166 -31 74.499
c0 28.667 10.333 53.167 31 73.5s45.334 30.5 74.001 30.5s53.334 -10.167 74.001 -30.5z" />
    <glyph glyph-name="uni1EF5" unicode="&#x1ef5;" horiz-adv-x="1007" 
d="M313 -345h-129l254 534l-363 758h143l286 -617l286 617h141zM614 -123.5c20.667 -20.333 31 -44.833 31 -73.5c0 -29.333 -10.333 -54.166 -31 -74.499s-45.334 -30.5 -74.001 -30.5s-53.334 10.167 -74.001 30.5s-31 45.166 -31 74.499c0 28.667 10.333 53.167 31 73.5
s45.334 30.5 74.001 30.5s53.334 -10.167 74.001 -30.5z" />
    <glyph glyph-name="uni1EF6" unicode="&#x1ef6;" horiz-adv-x="1272" 
d="M572 611l-522 905h146l440 -763l440 763h146l-523 -905v-611h-127v611zM579 1606c0 30 7.33203 59.3311 21.999 87.998c22.667 47.333 56.334 87.666 101.001 120.999c20.667 20.667 35.667 40.667 45 60c4.66699 10 7 20.333 7 31c0 7.33301 -1.33301 15 -4 23
c-6 18 -17 30.667 -33 38c-8.66699 4 -17 6 -25 6c-6 0 -12.333 -1 -19 -3c-16.667 -6 -28.667 -17 -36 -33c-4.66699 -10 -7 -30.333 -7 -61l-103 5v31c0 20.667 5 41 15 61c20 40.667 51.333 68.334 94 83.001c19.333 6.66699 38.333 10 57 10
c25.333 0 49.666 -5.66699 72.999 -17c40.667 -20 68.334 -50.667 83.001 -92c6 -17.333 9 -34.666 9 -51.999c0 -22.667 -5.33301 -45 -16 -67c-18 -36.667 -46.667 -70.667 -86 -102c-26.667 -23.333 -47 -49.666 -61 -78.999c-5.33301 -11.333 -9 -22.333 -11 -33z" />
    <glyph glyph-name="uni1EF7" unicode="&#x1ef7;" horiz-adv-x="1007" 
d="M313 -345h-129l254 534l-363 758h143l286 -617l286 617h141zM480 1089c3.33301 20 9.99902 39.998 19.999 59.998c22.667 47.333 56.334 87.666 101.001 120.999c20.667 20.667 35.667 40.667 45 60c4.66699 10 7 20.333 7 31c0 7.33301 -1.33301 15 -4 23
c-6 18 -17 30.667 -33 38c-8.66699 4 -17 6 -25 6c-6 0 -12.333 -1 -19 -3c-16.667 -6 -28.667 -17 -36 -33c-4.66699 -10 -7 -30.333 -7 -61l-103 5v31c0 20.667 5 41 15 61c20 40.667 51.333 68.334 94 83.001c19.333 6.66699 38.333 10 57 10
c25.333 0 49.666 -5.66699 72.999 -17c40.667 -20 68.334 -50.667 83.001 -92c6 -17.333 9 -34.666 9 -51.999c0 -22.667 -5.33301 -45 -16 -67c-18 -36.667 -46.667 -70.667 -86 -102c-26.667 -23.333 -47 -49.666 -61 -78.999c-4.66699 -9.33301 -8 -18.333 -10 -27z" />
    <glyph glyph-name="uni1EF8" unicode="&#x1ef8;" horiz-adv-x="1272" 
d="M572 611l-522 905h146l440 -763l440 763h146l-523 -905v-611h-127v611zM670 1789c42 -34 75.668 -51 101.001 -51h4c19.333 1.33301 35.333 27.333 48 78h106c-17.333 -105.333 -54.333 -166.333 -111 -183c-14.667 -4.66699 -29.334 -7 -44.001 -7
c-40.667 0 -80.667 15.667 -120 47c-42 33.333 -75.333 50 -100 50h-4c-19.333 -1.33301 -35.333 -27 -48 -77h-108c18 105.333 55.333 166.333 112 183c15.333 4 30.333 6 45 6c40 0 79.667 -15.333 119 -46z" />
    <glyph glyph-name="uni1EF9" unicode="&#x1ef9;" horiz-adv-x="1007" 
d="M313 -345h-129l254 534l-363 758h143l286 -617l286 617h141zM556 1294c42 -34 75.667 -51 101 -51h4c19.333 1.33301 35 27.333 47 78h107c-17.333 -105.333 -54.333 -166.333 -111 -183c-14.667 -4.66699 -29.667 -7 -45 -7c-40 0 -79.667 15.667 -119 47
c-42 33.333 -75.667 50 -101 50h-4c-19.333 -1.33301 -35 -27 -47 -77h-108c18 105.333 55.333 166.333 112 183c14.667 4 29.667 6 45 6c40 0 79.667 -15.333 119 -46z" />
    <glyph glyph-name="quoteleft" unicode="&#x2018;" horiz-adv-x="311" 
d="M206 1382c1.33301 0 9.00195 -7 23.002 -21c20.667 -20.667 31 -45.667 31 -75c0 -28.667 -10.333 -53.167 -31 -73.5s-45.334 -30.5 -74.001 -30.5s-53.334 10.167 -74.001 30.5s-31 44.833 -31 73.5c0 16 2.66699 31 8 45l97 195h105z" />
    <glyph glyph-name="quoteright" unicode="&#x2019;" horiz-adv-x="311" 
d="M105 1326c-2 0.666992 -9.66602 8 -22.999 22c-20.667 20 -31 44.667 -31 74s10.167 54 30.5 74s44.833 30 73.5 30c29.333 0 54.166 -10 74.499 -30s30.5 -44.667 30.5 -74c0 -15.333 -2.66699 -30.333 -8 -45l-97 -195h-105z" />
    <glyph glyph-name="quotedblleft" unicode="&#x201c;" horiz-adv-x="542" 
d="M206 1382c1.33301 0 9.00195 -7 23.002 -21c20.667 -20.667 31 -45.667 31 -75c0 -28.667 -10.333 -53.167 -31 -73.5s-45.334 -30.5 -74.001 -30.5s-53.334 10.167 -74.001 30.5s-31 44.833 -31 73.5c0 16 2.66699 31 8 45l97 195h105zM437.002 1382
c2 0 10.001 -7 24.001 -21c20 -20.667 30 -45.667 30 -75c0 -28.667 -10.167 -53.167 -30.5 -73.5s-44.833 -30.5 -73.5 -30.5s-53.334 10.167 -74.001 30.5s-31 44.833 -31 73.5c0 16 2.66699 31 8 45l97 195h105z" />
    <glyph glyph-name="quotedblright" unicode="&#x201d;" horiz-adv-x="542" 
d="M105 1326c-2 0.666992 -9.66602 8 -22.999 22c-20.667 20 -31 44.667 -31 74s10.167 54 30.5 74s44.833 30 73.5 30c29.333 0 54.166 -10 74.499 -30s30.5 -44.667 30.5 -74c0 -15.333 -2.66699 -30.333 -8 -45l-97 -195h-105zM337.001 1326
c-2 0.666992 -9.66797 8 -23.001 22c-20.667 20 -31 44.667 -31 74s10.167 54 30.5 74s44.833 30 73.5 30s53.334 -10 74.001 -30s31 -44.667 31 -74c0 -15.333 -2.66699 -30.333 -8 -45l-97 -195h-105z" />
    <glyph glyph-name="ellipsis" unicode="&#x2026;" horiz-adv-x="2068" 
d="M279 165.5c20.667 -20.333 31 -44.833 31 -73.5c0 -29.333 -10.333 -54.166 -31 -74.499s-45.334 -30.5 -74.001 -30.5s-53.334 10.167 -74.001 30.5s-31 45.166 -31 74.499c0 28.667 10.333 53.167 31 73.5s45.334 30.5 74.001 30.5s53.334 -10.167 74.001 -30.5z
M907 165.5c20.667 -20.333 31 -44.833 31 -73.5c0 -29.333 -10.333 -54.166 -31 -74.499s-45.334 -30.5 -74.001 -30.5s-53.334 10.167 -74.001 30.5s-31 45.166 -31 74.499c0 28.667 10.333 53.167 31 73.5s45.334 30.5 74.001 30.5s53.334 -10.167 74.001 -30.5z
M1535.5 165.5c20.333 -20.333 30.5 -44.833 30.5 -73.5c0 -29.333 -10.167 -54.166 -30.5 -74.499s-44.833 -30.5 -73.5 -30.5c-29.333 0 -54.166 10.167 -74.499 30.5s-30.5 45.166 -30.5 74.499c0 28.667 10.167 53.167 30.5 73.5s45.166 30.5 74.499 30.5
c28.667 0 53.167 -10.167 73.5 -30.5z" />
    <glyph glyph-name=".null" horiz-adv-x="0" 
 />
    <glyph glyph-name="nonmarkingreturn" horiz-adv-x="571" 
 />
    <glyph glyph-name="ugrave" horiz-adv-x="582" 
 />
    <glyph glyph-name="uacute" horiz-adv-x="580" 
 />
    <glyph glyph-name="yacute" horiz-adv-x="629" 
 />
    </font>
</defs>
</svg>
